<?xml version="1.0" standalone="no"?>
<!DOCTYPE svg PUBLIC "-//W3C//DTD SVG 20010904//EN"
 "http://www.w3.org/TR/2001/REC-SVG-20010904/DTD/svg10.dtd">
<svg version="1.0" xmlns="http://www.w3.org/2000/svg"
 width="1040.000000pt" height="1040.000000pt" viewBox="0 0 1040.000000 1040.000000"
 preserveAspectRatio="xMidYMid meet">
<metadata>
Created by potrace 1.14, written by Peter Selinger 2001-2017
</metadata>
<g transform="translate(0.000000,1040.000000) scale(0.100000,-0.100000)"
fill="#000000" stroke="none">
<path d="M5850 10390 c-19 -5 -48 -11 -65 -15 -16 -3 -35 -11 -42 -17 -7 -6
-13 -8 -13 -5 0 8 -102 -43 -118 -60 -7 -7 -17 -13 -21 -13 -10 0 -103 -90
-144 -137 -15 -18 -24 -33 -21 -33 4 0 1 -7 -6 -15 -17 -21 -110 -213 -110
-228 0 -7 -6 -19 -12 -25 -7 -7 -13 -16 -13 -20 0 -4 -60 -140 -134 -302 -73
-162 -142 -315 -153 -340 -11 -25 -40 -87 -64 -139 -24 -51 -44 -95 -44 -97 0
-2 -16 -39 -36 -81 -20 -43 -45 -98 -56 -123 -11 -25 -33 -73 -49 -106 -16
-34 -29 -64 -29 -68 0 -3 -18 -45 -41 -93 -40 -87 -78 -168 -105 -230 -8 -17
-14 -35 -14 -41 0 -5 -6 -15 -14 -21 -8 -7 -17 -23 -20 -36 -3 -13 -22 -59
-42 -102 -19 -43 -44 -96 -54 -118 -52 -116 -70 -155 -93 -205 -13 -30 -34
-76 -46 -102 -11 -26 -21 -52 -21 -57 0 -6 -4 -11 -9 -11 -9 0 -26 -48 -23
-62 1 -5 -2 -8 -8 -8 -5 0 -10 -8 -10 -17 0 -10 -7 -27 -15 -37 -8 -10 -12
-23 -9 -27 3 -5 1 -9 -4 -9 -8 0 -15 -15 -21 -43 0 -1 -16 -35 -36 -75 -19
-40 -35 -74 -35 -76 0 -2 -21 -48 -46 -103 -25 -54 -48 -106 -50 -117 -2 -10
-10 -26 -19 -36 -8 -9 -15 -21 -15 -26 0 -6 -8 -28 -19 -50 -10 -21 -29 -61
-41 -89 -42 -93 -63 -140 -97 -215 -19 -41 -38 -84 -43 -95 -5 -11 -27 -60
-49 -108 -23 -49 -41 -90 -41 -92 0 -2 -17 -41 -39 -87 -21 -46 -49 -105 -61
-133 -30 -69 -51 -114 -104 -228 -25 -54 -46 -101 -46 -103 0 -3 -15 -37 -34
-77 -18 -40 -43 -92 -54 -117 -11 -25 -32 -72 -48 -105 -15 -33 -28 -64 -30
-70 -7 -27 -35 -84 -44 -90 -5 -3 -10 -12 -10 -20 0 -8 -23 -62 -50 -120 -28
-58 -50 -108 -50 -110 0 -2 -20 -46 -45 -99 -25 -53 -45 -98 -45 -100 0 -4
-53 -121 -100 -221 -28 -61 -64 -141 -108 -240 -22 -49 -54 -121 -72 -160 -44
-96 -53 -119 -52 -127 1 -5 -3 -8 -9 -8 -5 0 -8 -4 -5 -9 3 -5 -1 -14 -9 -21
-8 -7 -15 -19 -15 -27 0 -8 -6 -27 -14 -41 -8 -15 -26 -52 -39 -82 -14 -30
-45 -100 -70 -155 -25 -55 -59 -131 -76 -170 -17 -38 -38 -81 -45 -95 -8 -14
-14 -27 -14 -30 1 -3 -9 -25 -22 -50 -13 -25 -23 -47 -23 -50 0 -5 -26 -64
-83 -188 -19 -40 -34 -75 -34 -77 0 -3 -20 -46 -43 -97 -63 -135 -71 -152 -69
-160 1 -5 -2 -8 -8 -8 -5 0 -10 -5 -10 -12 0 -6 -9 -30 -19 -52 -55 -117 -103
-222 -105 -231 -2 -5 -16 -39 -33 -75 -43 -93 -117 -256 -233 -515 -10 -22
-18 -42 -18 -45 0 -3 -13 -30 -29 -60 -17 -30 -31 -58 -32 -62 -1 -4 -10 -28
-21 -53 -11 -25 -20 -49 -21 -53 0 -4 -6 -13 -12 -20 -6 -8 -13 -23 -14 -35
-2 -12 -7 -24 -11 -27 -5 -3 -16 -23 -24 -45 -9 -22 -33 -76 -53 -120 -65
-140 -78 -170 -77 -177 1 -5 -3 -8 -10 -8 -6 0 -9 -3 -5 -6 3 -4 -5 -27 -17
-53 -47 -92 -138 -306 -141 -331 -1 -8 -7 -33 -13 -54 -11 -37 -10 -209 1
-251 51 -196 173 -351 340 -434 47 -23 100 -45 118 -48 18 -2 43 -9 56 -14 27
-10 6896 -7 6928 3 11 4 22 7 25 8 3 1 9 2 13 1 4 -1 21 6 37 14 17 9 30 12
30 8 0 -5 4 -3 8 2 4 6 33 23 65 38 31 16 57 33 57 38 0 5 7 9 15 9 8 0 15 3
15 8 0 4 14 16 30 27 16 11 30 24 30 28 0 4 10 18 23 30 57 56 116 173 141
278 9 39 13 99 11 158 -3 99 -6 117 -24 164 -6 15 -9 27 -7 27 11 0 -59 127
-129 235 -42 66 -98 153 -123 194 -26 40 -67 103 -91 140 -24 36 -78 120 -119
186 -42 66 -80 121 -84 123 -4 2 -8 8 -8 13 0 5 -27 50 -60 101 -33 50 -60 95
-60 99 0 5 -5 9 -11 9 -5 0 -8 4 -5 9 4 5 3 11 -1 13 -5 1 -35 46 -69 98 -61
95 -84 131 -116 179 -10 14 -21 32 -25 40 -3 8 -26 44 -50 80 -24 36 -48 73
-53 81 -5 8 -41 63 -80 123 -38 59 -70 111 -70 115 0 4 -13 23 -30 42 -16 19
-29 39 -30 43 0 4 -17 34 -37 65 -21 32 -42 65 -48 74 -5 9 -29 44 -52 78 -24
34 -43 64 -43 67 0 2 -18 31 -40 63 -22 32 -40 64 -40 69 0 6 -4 11 -10 11 -5
0 -10 7 -10 15 0 8 -4 15 -10 15 -5 0 -10 6 -10 13 0 7 -8 22 -18 33 -11 11
-21 24 -23 30 -8 21 -144 229 -151 232 -5 2 -8 8 -8 13 0 6 -22 43 -50 84 -27
41 -50 77 -50 80 0 3 -5 11 -11 18 -15 17 -149 227 -149 233 0 3 -5 10 -11 17
-21 24 -169 259 -169 268 0 5 -4 9 -10 9 -5 0 -10 7 -10 15 0 8 -4 15 -10 15
-5 0 -10 7 -10 15 0 8 -4 15 -10 15 -5 0 -10 4 -10 10 0 5 -30 56 -67 112 -71
111 -122 189 -198 308 -26 41 -61 94 -76 118 -16 24 -29 45 -29 48 0 13 -112
154 -153 192 -144 133 -376 191 -571 142 -167 -42 -298 -131 -382 -261 -16
-24 -33 -47 -39 -51 -5 -4 -7 -8 -2 -8 4 0 1 -10 -7 -22 -19 -30 -57 -158 -51
-168 3 -5 1 -11 -4 -14 -21 -14 -1 -240 28 -311 34 -81 56 -125 63 -125 4 0 8
-4 8 -10 0 -5 29 -54 63 -107 35 -54 98 -151 140 -216 43 -65 77 -120 77 -123
0 -3 5 -10 11 -17 6 -7 34 -49 63 -94 28 -45 96 -152 151 -238 55 -85 105
-163 110 -172 6 -9 14 -22 18 -27 4 -6 32 -49 62 -96 29 -47 58 -90 64 -97 6
-7 11 -15 11 -18 0 -9 74 -120 83 -123 4 -2 7 -7 7 -12 0 -5 41 -71 90 -147
50 -76 99 -154 110 -173 29 -51 43 -72 58 -88 7 -8 19 -26 27 -41 8 -16 41
-69 74 -119 34 -51 61 -95 61 -99 0 -5 14 -24 30 -43 16 -19 30 -39 30 -43 0
-4 18 -35 40 -67 22 -32 40 -64 40 -69 0 -6 4 -11 8 -11 7 0 82 -116 122 -187
8 -15 20 -32 26 -38 5 -5 28 -39 49 -75 21 -36 42 -66 47 -68 4 -2 8 -7 8 -12
0 -5 22 -43 50 -84 28 -42 50 -79 50 -84 0 -5 9 -17 20 -27 11 -10 20 -24 20
-32 0 -7 4 -13 9 -13 5 0 11 -8 14 -17 4 -10 22 -42 42 -72 l36 -53 -31 4
c-17 3 -33 1 -36 -3 -2 -5 -11 -6 -18 -3 -21 8 -97 10 -102 3 -2 -4 -17 -4
-33 1 -16 4 -32 6 -35 3 -3 -3 -26 -5 -51 -5 -25 1 -61 2 -80 1 -19 0 -42 0
-50 1 -8 0 -23 0 -32 0 -10 0 -27 0 -38 0 -11 1 -26 1 -32 1 -29 -2 -119 -2
-158 0 -11 0 -27 0 -35 0 -90 -3 -130 -2 -139 3 -5 4 -12 2 -15 -3 -4 -6 -18
-6 -36 -1 -16 5 -32 5 -35 0 -3 -5 -19 -5 -35 0 -18 5 -32 5 -36 -1 -3 -5 -10
-7 -15 -3 -5 3 -33 5 -62 5 -29 -1 -61 -1 -72 0 -11 0 -26 0 -32 0 -22 -1
-161 -2 -188 -1 -8 0 -23 0 -32 0 -10 0 -27 0 -38 0 -11 1 -26 1 -32 1 -29 -2
-119 -2 -158 0 -11 0 -27 0 -35 0 -90 -3 -130 -2 -139 3 -5 4 -12 2 -15 -3 -4
-6 -18 -6 -36 -1 -16 5 -32 5 -35 0 -3 -5 -19 -5 -35 0 -18 5 -32 5 -36 -1 -3
-5 -10 -7 -15 -3 -5 3 -33 5 -62 5 -29 -1 -61 -1 -72 0 -11 0 -27 0 -35 0 -83
-3 -141 -1 -150 4 -5 3 -10 3 -10 -2 0 -4 -16 -8 -35 -8 -19 0 -35 3 -35 6 0
4 -16 3 -35 -1 -19 -4 -37 -5 -39 -1 -3 4 -32 4 -64 1 -33 -3 -72 -2 -86 1
-14 4 -26 4 -26 1 0 -4 -16 -7 -35 -7 -19 0 -35 3 -35 6 0 4 -16 3 -35 -1 -19
-4 -37 -5 -39 -1 -3 4 -32 4 -64 1 -33 -3 -72 -2 -86 1 -14 4 -26 4 -26 1 0
-4 -16 -7 -35 -7 -19 0 -35 3 -35 6 0 4 -16 3 -35 -1 -19 -4 -37 -5 -39 -1 -3
4 -32 4 -64 1 -33 -3 -72 -2 -86 1 -14 4 -26 4 -26 1 0 -4 -16 -7 -35 -7 -19
0 -35 3 -35 6 0 4 -16 3 -34 -1 -19 -4 -37 -5 -40 -2 -3 2 -32 4 -63 3 -32 -1
-67 -1 -78 -1 -11 1 -27 1 -35 1 -90 -3 -130 -2 -139 3 -5 4 -12 2 -15 -3 -4
-6 -18 -6 -36 -1 -16 5 -32 5 -35 0 -3 -5 -19 -5 -35 0 -18 5 -32 5 -36 -1 -3
-5 -10 -7 -15 -3 -5 3 -33 5 -62 5 -29 -1 -61 -1 -72 0 -11 0 -26 0 -32 0 -22
-1 -161 -2 -188 -1 -8 0 -23 0 -32 0 -10 0 -27 0 -38 0 -11 1 -26 1 -32 1 -49
-3 -133 3 -134 9 -1 3 12 32 27 65 15 33 28 62 29 65 0 3 15 35 33 73 17 37
32 69 32 71 0 2 17 42 39 88 21 45 49 106 61 133 24 54 58 128 98 215 14 30
26 57 27 60 1 5 21 49 61 135 13 28 24 53 24 57 1 4 19 44 41 88 21 44 39 83
39 86 0 4 11 28 24 54 13 27 22 50 20 53 -2 2 2 10 11 17 8 7 15 18 15 24 0 7
13 39 29 72 15 32 40 88 55 124 16 36 32 72 37 80 12 20 40 82 43 95 2 6 17
42 35 80 18 39 40 86 48 105 9 19 31 67 49 107 19 39 34 73 34 76 0 3 20 47
44 99 24 51 60 131 81 178 34 76 59 131 121 265 10 22 19 42 19 45 1 3 16 37
34 75 18 39 36 79 41 90 5 11 22 49 38 85 17 36 65 142 107 235 42 94 87 193
100 220 12 28 33 73 45 100 12 28 33 73 45 100 13 28 63 140 113 250 49 110
103 229 120 265 16 36 39 88 51 115 34 76 46 102 90 198 22 48 44 99 47 112 3
13 12 29 20 36 8 6 14 16 14 21 0 10 6 25 53 128 81 178 107 239 107 249 0 6
4 11 8 11 6 0 34 59 37 80 0 3 6 14 12 25 6 11 38 83 73 160 34 77 66 148 70
157 5 9 38 81 73 160 36 79 79 175 97 213 18 39 44 95 58 125 14 30 26 60 27
65 4 12 91 203 105 227 6 10 10 23 10 30 0 6 7 19 15 28 8 9 16 25 18 36 2 10
22 57 44 104 22 47 57 123 78 170 36 82 58 130 106 235 13 28 24 52 24 55 1 3
14 32 29 65 65 142 83 182 97 213 8 17 17 32 20 32 8 0 139 -216 139 -229 0
-5 3 -11 8 -13 6 -3 90 -137 101 -162 2 -5 30 -51 62 -103 33 -52 59 -96 59
-98 0 -1 18 -32 40 -66 23 -35 46 -76 53 -91 6 -16 15 -28 19 -28 4 0 8 -5 8
-10 0 -6 12 -29 27 -53 38 -58 51 -80 59 -97 15 -31 131 -222 166 -272 10 -15
18 -30 18 -33 0 -5 45 -80 78 -131 7 -10 15 -27 18 -36 4 -10 10 -18 15 -18 5
0 9 -5 9 -10 0 -6 16 -36 35 -66 19 -30 35 -56 35 -59 0 -3 15 -29 34 -58 36
-56 60 -98 92 -157 11 -19 22 -37 25 -40 3 -3 74 -120 158 -260 84 -140 157
-262 162 -270 134 -222 229 -384 229 -391 0 -5 5 -9 10 -9 6 0 10 -4 10 -9 0
-5 45 -84 100 -176 55 -91 100 -171 100 -176 0 -5 5 -9 10 -9 6 0 10 -5 10
-10 0 -18 87 -144 132 -190 90 -94 185 -145 348 -188 8 -2 60 -4 115 -4 79 1
116 6 180 26 132 42 260 131 325 226 13 19 27 37 30 40 9 8 57 111 71 155 19
57 19 60 24 167 4 90 -4 144 -38 253 -6 18 -36 79 -54 110 -206 346 -288 481
-295 483 -4 2 -8 8 -8 14 0 5 -47 89 -105 185 -58 96 -105 178 -105 183 0 4
-3 10 -7 12 -5 2 -47 68 -94 148 -148 247 -169 282 -225 374 -30 49 -54 91
-54 93 0 3 -8 17 -19 31 -10 15 -27 43 -38 62 -11 19 -29 51 -41 70 -11 19
-21 39 -21 44 1 5 -4 12 -9 15 -8 5 -75 113 -151 243 -9 16 -65 110 -126 210
-60 101 -112 188 -114 193 -2 6 -16 28 -30 50 -35 56 -58 94 -78 133 -9 17
-20 32 -25 32 -4 0 -8 5 -8 11 0 6 -45 85 -100 175 -55 91 -100 169 -100 175
0 5 -4 9 -10 9 -5 0 -10 4 -10 10 0 5 -21 44 -47 87 -27 43 -54 87 -60 98 -7
11 -19 34 -27 51 -8 17 -22 36 -30 44 -9 7 -16 16 -16 21 0 7 -82 146 -161
274 -11 17 -25 41 -32 55 -6 14 -29 51 -50 83 -20 31 -37 60 -37 62 0 3 -12
24 -27 48 -39 60 -51 80 -59 97 -4 8 -18 30 -31 48 -13 17 -21 32 -17 32 4 0
0 8 -8 18 -8 9 -30 43 -49 75 -19 32 -38 66 -44 75 -5 10 -32 55 -60 102 -72
122 -169 218 -277 274 -48 25 -97 48 -110 50 -13 3 -44 9 -69 14 -59 11 -184
13 -229 2z"/>
</g>
</svg>
