<svg width="276" height="46" viewBox="0 0 276 46" fill="none" xmlns="http://www.w3.org/2000/svg">
<g filter="url(#filter0_dd_180_1709)">
<rect x="8" y="4" width="260" height="30" rx="8" fill="white"/>
</g>
<path d="M68.001 24V15.524H70.9C71.4893 15.524 72.018 15.589 72.486 15.719C72.954 15.8403 73.3267 16.0527 73.604 16.356C73.8813 16.6593 74.02 17.084 74.02 17.63C74.02 18.0027 73.9203 18.371 73.721 18.735C73.5303 19.0903 73.2617 19.333 72.915 19.463V19.515C73.3483 19.6277 73.708 19.8487 73.994 20.178C74.2887 20.4987 74.436 20.9407 74.436 21.504C74.436 22.0847 74.2887 22.557 73.994 22.921C73.6993 23.285 73.305 23.558 72.811 23.74C72.317 23.9133 71.7623 24 71.147 24H68.001ZM69.912 18.917H70.809C71.277 18.917 71.615 18.826 71.823 18.644C72.0397 18.462 72.148 18.2193 72.148 17.916C72.148 17.5867 72.0397 17.3527 71.823 17.214C71.6063 17.0753 71.2727 17.006 70.822 17.006H69.912V18.917ZM69.912 22.518H70.991C72.0397 22.518 72.564 22.1367 72.564 21.374C72.564 21.0013 72.434 20.737 72.174 20.581C71.914 20.4163 71.5197 20.334 70.991 20.334H69.912V22.518ZM77.8611 19.71L77.6531 20.49H79.4601L79.2651 19.71C79.1524 19.2853 79.0354 18.8347 78.9141 18.358C78.8014 17.8813 78.6888 17.422 78.5761 16.98H78.5241C78.4201 17.4307 78.3118 17.8943 78.1991 18.371C78.0951 18.839 77.9824 19.2853 77.8611 19.71ZM74.7931 24L77.4451 15.524H79.7461L82.3981 24H80.3701L79.8501 21.985H77.2631L76.7431 24H74.7931ZM86.7333 24.156C86.0226 24.156 85.3683 23.9913 84.7703 23.662C84.1723 23.3327 83.6913 22.8473 83.3273 22.206C82.972 21.556 82.7943 20.7587 82.7943 19.814C82.7943 18.878 82.9763 18.0807 83.3403 17.422C83.713 16.7547 84.2026 16.2477 84.8093 15.901C85.4246 15.5457 86.0876 15.368 86.7983 15.368C87.3443 15.368 87.834 15.4807 88.2673 15.706C88.7006 15.9227 89.0603 16.1783 89.3463 16.473L88.3323 17.695C88.1156 17.4957 87.886 17.3353 87.6433 17.214C87.4093 17.084 87.1406 17.019 86.8373 17.019C86.456 17.019 86.105 17.1273 85.7843 17.344C85.4723 17.5607 85.221 17.8727 85.0303 18.28C84.8483 18.6873 84.7573 19.177 84.7573 19.749C84.7573 20.6157 84.9436 21.2917 85.3163 21.777C85.689 22.2623 86.1873 22.505 86.8113 22.505C87.158 22.505 87.4656 22.427 87.7343 22.271C88.0116 22.115 88.2543 21.9287 88.4623 21.712L89.4763 22.908C88.7656 23.74 87.8513 24.156 86.7333 24.156ZM90.7637 24V15.524H92.6747V18.995H92.7267L95.2487 15.524H97.3547L94.7937 18.904L97.8227 24H95.7297L93.6627 20.425L92.6747 21.725V24H90.7637ZM98.749 24V15.524H104.053V17.136H100.66V18.839H103.546V20.438H100.66V22.388H104.183V24H98.749ZM105.871 24V15.524H107.834L110.044 19.736L110.876 21.608H110.928C110.893 21.1573 110.846 20.6547 110.785 20.1C110.724 19.5453 110.694 19.0167 110.694 18.514V15.524H112.514V24H110.551L108.341 19.775L107.509 17.929H107.457C107.5 18.397 107.548 18.8997 107.6 19.437C107.661 19.9743 107.691 20.4943 107.691 20.997V24H105.871ZM114.517 24V15.524H116.909C117.775 15.524 118.525 15.6713 119.158 15.966C119.79 16.2607 120.28 16.72 120.627 17.344C120.982 17.9593 121.16 18.7523 121.16 19.723C121.16 20.6937 120.986 21.4953 120.64 22.128C120.293 22.7607 119.808 23.233 119.184 23.545C118.568 23.8483 117.845 24 117.013 24H114.517ZM116.428 22.453H116.792C117.277 22.453 117.697 22.3663 118.053 22.193C118.417 22.0197 118.698 21.7337 118.898 21.335C119.097 20.9363 119.197 20.399 119.197 19.723C119.197 19.047 119.097 18.5183 118.898 18.137C118.698 17.747 118.417 17.474 118.053 17.318C117.697 17.1533 117.277 17.071 116.792 17.071H116.428V22.453ZM125.371 24V15.524H127.763C128.63 15.524 129.379 15.6713 130.012 15.966C130.645 16.2607 131.134 16.72 131.481 17.344C131.836 17.9593 132.014 18.7523 132.014 19.723C132.014 20.6937 131.841 21.4953 131.494 22.128C131.147 22.7607 130.662 23.233 130.038 23.545C129.423 23.8483 128.699 24 127.867 24H125.371ZM127.282 22.453H127.646C128.131 22.453 128.552 22.3663 128.907 22.193C129.271 22.0197 129.553 21.7337 129.752 21.335C129.951 20.9363 130.051 20.399 130.051 19.723C130.051 19.047 129.951 18.5183 129.752 18.137C129.553 17.747 129.271 17.474 128.907 17.318C128.552 17.1533 128.131 17.071 127.646 17.071H127.282V22.453ZM133.623 24V15.524H138.927V17.136H135.534V18.839H138.42V20.438H135.534V22.388H139.057V24H133.623ZM142.214 24L139.653 15.524H141.681L142.695 19.476C142.825 19.9353 142.938 20.386 143.033 20.828C143.137 21.27 143.254 21.725 143.384 22.193H143.436C143.557 21.725 143.67 21.27 143.774 20.828C143.878 20.386 143.991 19.9353 144.112 19.476L145.113 15.524H147.063L144.515 24H142.214ZM147.969 24V15.524H153.273V17.136H149.88V18.839H152.766V20.438H149.88V22.388H153.403V24H147.969ZM155.091 24V15.524H157.002V22.388H160.356V24H155.091ZM164.795 24.156C164.032 24.156 163.36 23.9783 162.78 23.623C162.208 23.2677 161.757 22.7607 161.428 22.102C161.107 21.4347 160.947 20.6417 160.947 19.723C160.947 18.7957 161.107 18.0113 161.428 17.37C161.757 16.72 162.208 16.226 162.78 15.888C163.36 15.5413 164.032 15.368 164.795 15.368C165.557 15.368 166.225 15.5413 166.797 15.888C167.377 16.226 167.828 16.72 168.149 17.37C168.478 18.02 168.643 18.8043 168.643 19.723C168.643 20.6417 168.478 21.4347 168.149 22.102C167.828 22.7607 167.377 23.2677 166.797 23.623C166.225 23.9783 165.557 24.156 164.795 24.156ZM164.795 22.505C165.375 22.505 165.835 22.2537 166.173 21.751C166.511 21.2483 166.68 20.5723 166.68 19.723C166.68 18.8737 166.511 18.2107 166.173 17.734C165.835 17.2573 165.375 17.019 164.795 17.019C164.214 17.019 163.755 17.2573 163.417 17.734C163.079 18.2107 162.91 18.8737 162.91 19.723C162.91 20.5723 163.079 21.2483 163.417 21.751C163.755 22.2537 164.214 22.505 164.795 22.505ZM170.236 24V15.524H173.148C173.772 15.524 174.336 15.6107 174.838 15.784C175.35 15.9487 175.757 16.2303 176.06 16.629C176.364 17.0277 176.515 17.5693 176.515 18.254C176.515 18.9127 176.364 19.4543 176.06 19.879C175.757 20.3037 175.354 20.62 174.851 20.828C174.349 21.0273 173.798 21.127 173.2 21.127H172.147V24H170.236ZM172.147 19.606H173.083C174.123 19.606 174.643 19.1553 174.643 18.254C174.643 17.812 174.505 17.5 174.227 17.318C173.95 17.136 173.551 17.045 173.031 17.045H172.147V19.606ZM177.98 24V15.524H180.073L181.438 19.294C181.525 19.5367 181.607 19.7923 181.685 20.061C181.763 20.3297 181.846 20.594 181.932 20.854H181.984C182.071 20.594 182.149 20.3297 182.218 20.061C182.296 19.7923 182.379 19.5367 182.465 19.294L183.804 15.524H185.884V24H184.142V20.893C184.142 20.6157 184.155 20.308 184.181 19.97C184.216 19.6233 184.251 19.2767 184.285 18.93C184.329 18.5833 184.363 18.2757 184.389 18.007H184.337L183.648 20.022L182.439 23.259H181.386L180.177 20.022L179.501 18.007H179.449C179.484 18.2757 179.519 18.5833 179.553 18.93C179.588 19.2767 179.618 19.6233 179.644 19.97C179.679 20.308 179.696 20.6157 179.696 20.893V24H177.98ZM187.883 24V15.524H193.187V17.136H189.794V18.839H192.68V20.438H189.794V22.388H193.317V24H187.883ZM195.005 24V15.524H196.968L199.178 19.736L200.01 21.608H200.062C200.027 21.1573 199.98 20.6547 199.919 20.1C199.858 19.5453 199.828 19.0167 199.828 18.514V15.524H201.648V24H199.685L197.475 19.775L196.643 17.929H196.591C196.634 18.397 196.682 18.8997 196.734 19.437C196.795 19.9743 196.825 20.4943 196.825 20.997V24H195.005ZM205.301 24V17.136H202.974V15.524H209.552V17.136H207.225V24H205.301Z" fill="#303030"/>
<defs>
<filter id="filter0_dd_180_1709" x="0" y="0" width="276" height="46" filterUnits="userSpaceOnUse" color-interpolation-filters="sRGB">
<feFlood flood-opacity="0" result="BackgroundImageFix"/>
<feColorMatrix in="SourceAlpha" type="matrix" values="0 0 0 0 0 0 0 0 0 0 0 0 0 0 0 0 0 0 127 0" result="hardAlpha"/>
<feOffset dy="4"/>
<feGaussianBlur stdDeviation="4"/>
<feColorMatrix type="matrix" values="0 0 0 0 0.196487 0 0 0 0 0.196487 0 0 0 0 0.279476 0 0 0 0.06 0"/>
<feBlend mode="multiply" in2="BackgroundImageFix" result="effect1_dropShadow_180_1709"/>
<feColorMatrix in="SourceAlpha" type="matrix" values="0 0 0 0 0 0 0 0 0 0 0 0 0 0 0 0 0 0 127 0" result="hardAlpha"/>
<feOffset dy="4"/>
<feGaussianBlur stdDeviation="2"/>
<feColorMatrix type="matrix" values="0 0 0 0 0.196487 0 0 0 0 0.196487 0 0 0 0 0.279476 0 0 0 0.08 0"/>
<feBlend mode="multiply" in2="effect1_dropShadow_180_1709" result="effect2_dropShadow_180_1709"/>
<feBlend mode="normal" in="SourceGraphic" in2="effect2_dropShadow_180_1709" result="shape"/>
</filter>
</defs>
</svg>
