<svg width="136" height="46" viewBox="0 0 136 46" fill="none" xmlns="http://www.w3.org/2000/svg">
<g filter="url(#filter0_dd_180_1700)">
<rect x="8" y="4" width="120" height="30" rx="8" fill="white"/>
</g>
<path d="M52.001 24V15.524H54.9C55.4893 15.524 56.018 15.589 56.486 15.719C56.954 15.8403 57.3267 16.0527 57.604 16.356C57.8813 16.6593 58.02 17.084 58.02 17.63C58.02 18.0027 57.9203 18.371 57.721 18.735C57.5303 19.0903 57.2617 19.333 56.915 19.463V19.515C57.3483 19.6277 57.708 19.8487 57.994 20.178C58.2887 20.4987 58.436 20.9407 58.436 21.504C58.436 22.0847 58.2887 22.557 57.994 22.921C57.6993 23.285 57.305 23.558 56.811 23.74C56.317 23.9133 55.7623 24 55.147 24H52.001ZM53.912 18.917H54.809C55.277 18.917 55.615 18.826 55.823 18.644C56.0397 18.462 56.148 18.2193 56.148 17.916C56.148 17.5867 56.0397 17.3527 55.823 17.214C55.6063 17.0753 55.2727 17.006 54.822 17.006H53.912V18.917ZM53.912 22.518H54.991C56.0397 22.518 56.564 22.1367 56.564 21.374C56.564 21.0013 56.434 20.737 56.174 20.581C55.914 20.4163 55.5197 20.334 54.991 20.334H53.912V22.518ZM62.4851 24.156C61.9391 24.156 61.4234 24.026 60.9381 23.766C60.4614 23.4973 60.0758 23.1117 59.7811 22.609C59.4864 22.0977 59.3391 21.4867 59.3391 20.776C59.3391 20.0567 59.4864 19.4457 59.7811 18.943C60.0758 18.4403 60.4614 18.059 60.9381 17.799C61.4234 17.5303 61.9391 17.396 62.4851 17.396C63.0311 17.396 63.5424 17.5303 64.0191 17.799C64.4958 18.059 64.8814 18.4403 65.1761 18.943C65.4708 19.4457 65.6181 20.0567 65.6181 20.776C65.6181 21.4867 65.4708 22.0977 65.1761 22.609C64.8814 23.1117 64.4958 23.4973 64.0191 23.766C63.5424 24.026 63.0311 24.156 62.4851 24.156ZM62.4851 22.609C62.8751 22.609 63.1698 22.4443 63.3691 22.115C63.5684 21.777 63.6681 21.3307 63.6681 20.776C63.6681 20.2127 63.5684 19.7663 63.3691 19.437C63.1698 19.1077 62.8751 18.943 62.4851 18.943C62.0864 18.943 61.7874 19.1077 61.5881 19.437C61.3974 19.7663 61.3021 20.2127 61.3021 20.776C61.3021 21.3307 61.3974 21.777 61.5881 22.115C61.7874 22.4443 62.0864 22.609 62.4851 22.609ZM69.696 24.156C69.15 24.156 68.6344 24.026 68.149 23.766C67.6724 23.4973 67.2867 23.1117 66.992 22.609C66.6974 22.0977 66.55 21.4867 66.55 20.776C66.55 20.0567 66.6974 19.4457 66.992 18.943C67.2867 18.4403 67.6724 18.059 68.149 17.799C68.6344 17.5303 69.15 17.396 69.696 17.396C70.242 17.396 70.7534 17.5303 71.23 17.799C71.7067 18.059 72.0924 18.4403 72.387 18.943C72.6817 19.4457 72.829 20.0567 72.829 20.776C72.829 21.4867 72.6817 22.0977 72.387 22.609C72.0924 23.1117 71.7067 23.4973 71.23 23.766C70.7534 24.026 70.242 24.156 69.696 24.156ZM69.696 22.609C70.086 22.609 70.3807 22.4443 70.58 22.115C70.7794 21.777 70.879 21.3307 70.879 20.776C70.879 20.2127 70.7794 19.7663 70.58 19.437C70.3807 19.1077 70.086 18.943 69.696 18.943C69.2974 18.943 68.9984 19.1077 68.799 19.437C68.6084 19.7663 68.513 20.2127 68.513 20.776C68.513 21.3307 68.6084 21.777 68.799 22.115C68.9984 22.4443 69.2974 22.609 69.696 22.609ZM76.2782 24.156C75.4809 24.156 74.9089 23.9263 74.5622 23.467C74.2242 23.0077 74.0552 22.4053 74.0552 21.66V19.047H73.1712V17.63L74.1592 17.552L74.3802 15.836H75.9662V17.552H77.5132V19.047H75.9662V21.634C75.9662 21.998 76.0399 22.2623 76.1872 22.427C76.3432 22.583 76.5469 22.661 76.7982 22.661C76.9022 22.661 77.0062 22.648 77.1102 22.622C77.2229 22.596 77.3225 22.5657 77.4092 22.531L77.7082 23.922C77.5435 23.974 77.3399 24.026 77.0972 24.078C76.8632 24.13 76.5902 24.156 76.2782 24.156ZM80.5428 24.156C80.1181 24.156 79.6805 24.0737 79.2298 23.909C78.7878 23.7443 78.4021 23.5277 78.0728 23.259L78.9308 22.063C79.2255 22.2797 79.5071 22.4487 79.7758 22.57C80.0531 22.6827 80.3261 22.739 80.5948 22.739C80.8808 22.739 81.0888 22.6913 81.2188 22.596C81.3488 22.492 81.4138 22.3577 81.4138 22.193C81.4138 22.0457 81.3488 21.9243 81.2188 21.829C81.0975 21.7337 80.9371 21.647 80.7378 21.569C80.5385 21.4823 80.3261 21.3957 80.1008 21.309C79.8408 21.205 79.5808 21.075 79.3208 20.919C79.0695 20.763 78.8571 20.5637 78.6838 20.321C78.5105 20.0697 78.4238 19.7663 78.4238 19.411C78.4238 18.813 78.6491 18.3277 79.0998 17.955C79.5591 17.5823 80.1571 17.396 80.8938 17.396C81.3878 17.396 81.8211 17.4827 82.1938 17.656C82.5751 17.8207 82.9001 18.007 83.1688 18.215L82.3108 19.359C82.0855 19.1857 81.8601 19.0513 81.6348 18.956C81.4095 18.8607 81.1841 18.813 80.9588 18.813C80.4648 18.813 80.2178 18.982 80.2178 19.32C80.2178 19.528 80.3391 19.6883 80.5818 19.801C80.8331 19.905 81.1235 20.0177 81.4528 20.139C81.7301 20.2343 81.9988 20.36 82.2588 20.516C82.5275 20.6633 82.7485 20.8627 82.9218 21.114C83.1038 21.3567 83.1948 21.6773 83.1948 22.076C83.1948 22.6567 82.9695 23.1507 82.5188 23.558C82.0681 23.9567 81.4095 24.156 80.5428 24.156ZM86.6376 24.156C85.8402 24.156 85.2682 23.9263 84.9216 23.467C84.5836 23.0077 84.4146 22.4053 84.4146 21.66V19.047H83.5306V17.63L84.5186 17.552L84.7396 15.836H86.3256V17.552H87.8726V19.047H86.3256V21.634C86.3256 21.998 86.3992 22.2623 86.5466 22.427C86.7026 22.583 86.9062 22.661 87.1576 22.661C87.2616 22.661 87.3656 22.648 87.4696 22.622C87.5822 22.596 87.6819 22.5657 87.7686 22.531L88.0676 23.922C87.9029 23.974 87.6992 24.026 87.4566 24.078C87.2226 24.13 86.9496 24.156 86.6376 24.156ZM89.1311 24V17.552H90.6911L90.8211 18.683H90.8731C91.1071 18.2497 91.3888 17.929 91.7181 17.721C92.0475 17.5043 92.3768 17.396 92.7061 17.396C92.8881 17.396 93.0398 17.409 93.1611 17.435C93.2825 17.4523 93.3865 17.4827 93.4731 17.526L93.1611 19.177C93.0485 19.1423 92.9358 19.1163 92.8231 19.099C92.7191 19.0817 92.5978 19.073 92.4591 19.073C92.2165 19.073 91.9608 19.164 91.6921 19.346C91.4321 19.5193 91.2155 19.8227 91.0421 20.256V24H89.1311ZM95.5677 24.156C94.9783 24.156 94.5103 23.9697 94.1637 23.597C93.817 23.2157 93.6437 22.752 93.6437 22.206C93.6437 21.53 93.9297 21.0013 94.5017 20.62C95.0737 20.2387 95.9967 19.983 97.2707 19.853C97.2533 19.567 97.1667 19.3417 97.0107 19.177C96.8633 19.0037 96.612 18.917 96.2567 18.917C95.988 18.917 95.715 18.969 95.4377 19.073C95.1603 19.177 94.8657 19.32 94.5537 19.502L93.8647 18.241C94.272 17.9897 94.7053 17.786 95.1647 17.63C95.6327 17.474 96.118 17.396 96.6207 17.396C97.444 17.396 98.0767 17.6343 98.5187 18.111C98.9607 18.5877 99.1817 19.32 99.1817 20.308V24H97.6217L97.4917 23.337H97.4397C97.171 23.5797 96.8807 23.779 96.5687 23.935C96.2653 24.0823 95.9317 24.156 95.5677 24.156ZM96.2177 22.674C96.4343 22.674 96.6207 22.6263 96.7767 22.531C96.9413 22.427 97.106 22.2927 97.2707 22.128V20.997C96.5947 21.0837 96.1267 21.2223 95.8667 21.413C95.6067 21.595 95.4767 21.8117 95.4767 22.063C95.4767 22.271 95.5417 22.427 95.6717 22.531C95.8103 22.6263 95.9923 22.674 96.2177 22.674ZM100.798 26.392V17.552H102.358L102.488 18.189H102.54C102.791 17.9637 103.073 17.7773 103.385 17.63C103.706 17.474 104.035 17.396 104.373 17.396C105.153 17.396 105.768 17.695 106.219 18.293C106.67 18.8823 106.895 19.6753 106.895 20.672C106.895 21.4087 106.765 22.037 106.505 22.557C106.245 23.077 105.907 23.4757 105.491 23.753C105.084 24.0217 104.646 24.156 104.178 24.156C103.901 24.156 103.632 24.0997 103.372 23.987C103.112 23.8657 102.869 23.6967 102.644 23.48L102.709 24.507V26.392H100.798ZM103.736 22.596C104.065 22.596 104.347 22.4443 104.581 22.141C104.815 21.8377 104.932 21.3567 104.932 20.698C104.932 19.5367 104.559 18.956 103.814 18.956C103.441 18.956 103.073 19.151 102.709 19.541V22.18C102.882 22.336 103.056 22.4443 103.229 22.505C103.402 22.5657 103.571 22.596 103.736 22.596Z" fill="#303030"/>
<g clip-path="url(#clip0_180_1700)">
<path d="M30 25.0659C30 26.1342 30.866 27 31.9341 27H43.0658C44.1342 27 45 26.134 45 25.0659V13.9342C45 12.8658 44.134 12 43.0659 12H31.9342C30.8658 12 30 12.866 30 13.9341V25.0659Z" fill="#563D7C"/>
<path d="M36.2202 18.635V16.5108H38.09C38.2681 16.5108 38.4398 16.5257 38.6051 16.5554C38.7705 16.585 38.9168 16.638 39.044 16.7143C39.1712 16.7907 39.2729 16.8967 39.3493 17.0323C39.4256 17.168 39.4638 17.3419 39.4638 17.5538C39.4638 17.9354 39.3493 18.2111 39.1203 18.3806C38.8914 18.5503 38.5988 18.635 38.2426 18.635H36.2202ZM34.2231 14.959V24.041H38.6242C39.0313 24.041 39.4277 23.9902 39.8136 23.8884C40.1994 23.7866 40.5428 23.6297 40.8439 23.4178C41.1449 23.2058 41.3845 22.9322 41.5625 22.5973C41.7407 22.2623 41.8297 21.8659 41.8297 21.408C41.8297 20.8398 41.6919 20.3544 41.4163 19.9516C41.1407 19.5488 40.723 19.2668 40.1633 19.1057C40.5704 18.9107 40.8778 18.6605 41.0856 18.3552C41.2933 18.0499 41.3972 17.6684 41.3972 17.2104C41.3972 16.7864 41.3272 16.4303 41.1873 16.1419C41.0474 15.8537 40.8502 15.6226 40.5958 15.4487C40.3414 15.2749 40.0362 15.1498 39.68 15.0735C39.3238 14.9971 38.9295 14.959 38.497 14.959H34.2231ZM36.2202 22.4892V19.9961H38.3953C38.8277 19.9961 39.1754 20.0957 39.4383 20.295C39.7012 20.4943 39.8327 20.8271 39.8327 21.2935C39.8327 21.531 39.7924 21.726 39.7118 21.8786C39.6312 22.0313 39.5231 22.1521 39.3874 22.2411C39.2518 22.3302 39.0949 22.3938 38.9168 22.432C38.7387 22.4701 38.5522 22.4892 38.3571 22.4892H36.2202Z" fill="white"/>
</g>
<defs>
<filter id="filter0_dd_180_1700" x="0" y="0" width="136" height="46" filterUnits="userSpaceOnUse" color-interpolation-filters="sRGB">
<feFlood flood-opacity="0" result="BackgroundImageFix"/>
<feColorMatrix in="SourceAlpha" type="matrix" values="0 0 0 0 0 0 0 0 0 0 0 0 0 0 0 0 0 0 127 0" result="hardAlpha"/>
<feOffset dy="4"/>
<feGaussianBlur stdDeviation="4"/>
<feColorMatrix type="matrix" values="0 0 0 0 0.196487 0 0 0 0 0.196487 0 0 0 0 0.279476 0 0 0 0.06 0"/>
<feBlend mode="multiply" in2="BackgroundImageFix" result="effect1_dropShadow_180_1700"/>
<feColorMatrix in="SourceAlpha" type="matrix" values="0 0 0 0 0 0 0 0 0 0 0 0 0 0 0 0 0 0 127 0" result="hardAlpha"/>
<feOffset dy="4"/>
<feGaussianBlur stdDeviation="2"/>
<feColorMatrix type="matrix" values="0 0 0 0 0.196487 0 0 0 0 0.196487 0 0 0 0 0.279476 0 0 0 0.08 0"/>
<feBlend mode="multiply" in2="effect1_dropShadow_180_1700" result="effect2_dropShadow_180_1700"/>
<feBlend mode="normal" in="SourceGraphic" in2="effect2_dropShadow_180_1700" result="shape"/>
</filter>
<clipPath id="clip0_180_1700">
<rect width="15" height="15" fill="white" transform="translate(30 12)"/>
</clipPath>
</defs>
</svg>
