<svg width="136" height="46" viewBox="0 0 136 46" fill="none" xmlns="http://www.w3.org/2000/svg">
<g filter="url(#filter0_dd_180_1697)">
<rect x="8" y="4" width="120" height="30" rx="8" fill="white"/>
</g>
<path d="M68.537 24.156C67.8263 24.156 67.172 23.9913 66.574 23.662C65.976 23.3327 65.495 22.8473 65.131 22.206C64.7757 21.556 64.598 20.7587 64.598 19.814C64.598 18.878 64.78 18.0807 65.144 17.422C65.5167 16.7547 66.0063 16.2477 66.613 15.901C67.2283 15.5457 67.8913 15.368 68.602 15.368C69.148 15.368 69.6377 15.4807 70.071 15.706C70.5043 15.9227 70.864 16.1783 71.15 16.473L70.136 17.695C69.9193 17.4957 69.6897 17.3353 69.447 17.214C69.213 17.084 68.9443 17.019 68.641 17.019C68.2597 17.019 67.9087 17.1273 67.588 17.344C67.276 17.5607 67.0247 17.8727 66.834 18.28C66.652 18.6873 66.561 19.177 66.561 19.749C66.561 20.6157 66.7473 21.2917 67.12 21.777C67.4927 22.2623 67.991 22.505 68.615 22.505C68.9617 22.505 69.2693 22.427 69.538 22.271C69.8153 22.115 70.058 21.9287 70.266 21.712L71.28 22.908C70.5693 23.74 69.655 24.156 68.537 24.156ZM74.7862 24.156C74.2316 24.156 73.6769 24.052 73.1222 23.844C72.5762 23.636 72.0866 23.3327 71.6532 22.934L72.7452 21.621C73.0486 21.881 73.3866 22.0933 73.7592 22.258C74.1319 22.4227 74.4916 22.505 74.8382 22.505C75.2369 22.505 75.5316 22.4313 75.7222 22.284C75.9216 22.1367 76.0212 21.9373 76.0212 21.686C76.0212 21.4173 75.9086 21.2223 75.6832 21.101C75.4666 20.971 75.1719 20.828 74.7992 20.672L73.6942 20.204C73.4082 20.0827 73.1352 19.9223 72.8752 19.723C72.6152 19.515 72.4029 19.2593 72.2382 18.956C72.0736 18.6527 71.9912 18.2973 71.9912 17.89C71.9912 17.422 72.1169 16.9973 72.3682 16.616C72.6282 16.2347 72.9836 15.9313 73.4342 15.706C73.8936 15.4807 74.4179 15.368 75.0072 15.368C75.4926 15.368 75.9779 15.4633 76.4632 15.654C76.9486 15.8447 77.3732 16.122 77.7372 16.486L76.7622 17.695C76.4849 17.4783 76.2076 17.3137 75.9302 17.201C75.6529 17.0797 75.3452 17.019 75.0072 17.019C74.6779 17.019 74.4136 17.0883 74.2142 17.227C74.0236 17.357 73.9282 17.5433 73.9282 17.786C73.9282 18.046 74.0496 18.241 74.2922 18.371C74.5436 18.501 74.8512 18.6397 75.2152 18.787L76.3072 19.229C76.8186 19.437 77.2259 19.723 77.5292 20.087C77.8326 20.451 77.9842 20.932 77.9842 21.53C77.9842 21.998 77.8586 22.4313 77.6072 22.83C77.3559 23.2287 76.9919 23.5493 76.5152 23.792C76.0386 24.0347 75.4622 24.156 74.7862 24.156ZM81.7814 24.156C81.2267 24.156 80.672 24.052 80.1174 23.844C79.5714 23.636 79.0817 23.3327 78.6484 22.934L79.7404 21.621C80.0437 21.881 80.3817 22.0933 80.7544 22.258C81.127 22.4227 81.4867 22.505 81.8334 22.505C82.232 22.505 82.5267 22.4313 82.7174 22.284C82.9167 22.1367 83.0164 21.9373 83.0164 21.686C83.0164 21.4173 82.9037 21.2223 82.6784 21.101C82.4617 20.971 82.167 20.828 81.7944 20.672L80.6894 20.204C80.4034 20.0827 80.1304 19.9223 79.8704 19.723C79.6104 19.515 79.398 19.2593 79.2334 18.956C79.0687 18.6527 78.9864 18.2973 78.9864 17.89C78.9864 17.422 79.112 16.9973 79.3634 16.616C79.6234 16.2347 79.9787 15.9313 80.4294 15.706C80.8887 15.4807 81.413 15.368 82.0024 15.368C82.4877 15.368 82.973 15.4633 83.4584 15.654C83.9437 15.8447 84.3684 16.122 84.7324 16.486L83.7574 17.695C83.48 17.4783 83.2027 17.3137 82.9254 17.201C82.648 17.0797 82.3404 17.019 82.0024 17.019C81.673 17.019 81.4087 17.0883 81.2094 17.227C81.0187 17.357 80.9234 17.5433 80.9234 17.786C80.9234 18.046 81.0447 18.241 81.2874 18.371C81.5387 18.501 81.8464 18.6397 82.2104 18.787L83.3024 19.229C83.8137 19.437 84.221 19.723 84.5244 20.087C84.8277 20.451 84.9794 20.932 84.9794 21.53C84.9794 21.998 84.8537 22.4313 84.6024 22.83C84.351 23.2287 83.987 23.5493 83.5104 23.792C83.0337 24.0347 82.4574 24.156 81.7814 24.156ZM88.576 24.156C87.9087 24.156 87.3367 24.0477 86.86 23.831C86.392 23.6143 86.0063 23.3327 85.703 22.986L86.587 21.777C86.8383 22.0197 87.1157 22.219 87.419 22.375C87.7223 22.531 88.0473 22.609 88.394 22.609C88.8013 22.609 89.1263 22.5267 89.369 22.362C89.6117 22.1887 89.733 21.946 89.733 21.634C89.733 21.3913 89.6723 21.1833 89.551 21.01C89.4297 20.828 89.2087 20.6893 88.888 20.594C88.5673 20.4987 88.108 20.451 87.51 20.451V19.099C88.2553 19.099 88.7667 18.9993 89.044 18.8C89.3213 18.592 89.46 18.3233 89.46 17.994C89.46 17.708 89.3733 17.487 89.2 17.331C89.0267 17.1663 88.7753 17.084 88.446 17.084C88.1513 17.084 87.8827 17.149 87.64 17.279C87.406 17.409 87.159 17.5867 86.899 17.812L85.937 16.642C86.3183 16.3127 86.7213 16.057 87.146 15.875C87.5707 15.6843 88.0343 15.589 88.537 15.589C89.3863 15.589 90.071 15.7883 90.591 16.187C91.1197 16.577 91.384 17.1317 91.384 17.851C91.384 18.2757 91.2627 18.6397 91.02 18.943C90.786 19.2463 90.448 19.4933 90.006 19.684V19.736C90.4827 19.8747 90.8727 20.113 91.176 20.451C91.488 20.7803 91.644 21.2137 91.644 21.751C91.644 22.2623 91.501 22.7 91.215 23.064C90.9377 23.4193 90.565 23.6923 90.097 23.883C89.6377 24.065 89.1307 24.156 88.576 24.156Z" fill="#303030"/>
<path d="M45.2048 25.3736L44.0266 12.1582H56.9735L55.7941 25.3716L50.4922 26.8414L45.2048 25.3736Z" fill="#1572B6"/>
<path d="M50.5 25.7181L54.7843 24.5303L55.7922 13.2388H50.5V25.7181Z" fill="#33A9DC"/>
<path d="M50.5 18.0266H52.6448L52.7929 16.3669H50.5V14.7461H54.5643L54.5254 15.181L54.127 19.6475H50.5V18.0266Z" fill="white"/>
<path d="M50.5097 22.236L50.5026 22.2381L48.6975 21.7507L48.5821 20.458H46.9553L47.1823 23.003L50.5024 23.9244L50.5097 23.9223V22.236Z" fill="#EBEBEB"/>
<path d="M52.5071 19.5791L52.3119 21.7496L50.5042 22.2376V23.9239L53.8269 23.0031L53.8513 22.7292L54.1332 19.5791H52.5071Z" fill="white"/>
<path d="M50.5056 14.7461V16.3669H46.5906L46.5582 16.0027L46.4843 15.181L46.4456 14.7461H50.5056ZM50.5001 18.0269V19.6477H48.7178L48.6854 19.2835L48.6114 18.4618L48.5727 18.0269H50.5001Z" fill="#EBEBEB"/>
<defs>
<filter id="filter0_dd_180_1697" x="0" y="0" width="136" height="46" filterUnits="userSpaceOnUse" color-interpolation-filters="sRGB">
<feFlood flood-opacity="0" result="BackgroundImageFix"/>
<feColorMatrix in="SourceAlpha" type="matrix" values="0 0 0 0 0 0 0 0 0 0 0 0 0 0 0 0 0 0 127 0" result="hardAlpha"/>
<feOffset dy="4"/>
<feGaussianBlur stdDeviation="4"/>
<feColorMatrix type="matrix" values="0 0 0 0 0.196487 0 0 0 0 0.196487 0 0 0 0 0.279476 0 0 0 0.06 0"/>
<feBlend mode="multiply" in2="BackgroundImageFix" result="effect1_dropShadow_180_1697"/>
<feColorMatrix in="SourceAlpha" type="matrix" values="0 0 0 0 0 0 0 0 0 0 0 0 0 0 0 0 0 0 127 0" result="hardAlpha"/>
<feOffset dy="4"/>
<feGaussianBlur stdDeviation="2"/>
<feColorMatrix type="matrix" values="0 0 0 0 0.196487 0 0 0 0 0.196487 0 0 0 0 0.279476 0 0 0 0.08 0"/>
<feBlend mode="multiply" in2="effect1_dropShadow_180_1697" result="effect2_dropShadow_180_1697"/>
<feBlend mode="normal" in="SourceGraphic" in2="effect2_dropShadow_180_1697" result="shape"/>
</filter>
</defs>
</svg>
