<svg width="136" height="46" viewBox="0 0 136 46" fill="none" xmlns="http://www.w3.org/2000/svg">
<g filter="url(#filter0_dd_180_1706)">
<rect x="8" y="4" width="120" height="30" rx="8" fill="white"/>
</g>
<path d="M61.001 24V15.524H66.344V17.136H62.912V19.099H65.85V20.711H62.912V24H61.001ZM67.8184 24V15.524H69.7294V24H67.8184ZM75.4725 24.156C74.7012 24.156 73.9992 23.9913 73.3665 23.662C72.7425 23.3327 72.2442 22.8473 71.8715 22.206C71.5075 21.556 71.3255 20.7587 71.3255 19.814C71.3255 18.878 71.5119 18.0807 71.8845 17.422C72.2659 16.7547 72.7685 16.2477 73.3925 15.901C74.0165 15.5457 74.7055 15.368 75.4595 15.368C76.0749 15.368 76.6035 15.4807 77.0455 15.706C77.4875 15.9313 77.8472 16.187 78.1245 16.473L77.1235 17.695C76.9069 17.5043 76.6772 17.344 76.4345 17.214C76.1919 17.084 75.8885 17.019 75.5245 17.019C74.8659 17.019 74.3285 17.2617 73.9125 17.747C73.4965 18.2323 73.2885 18.8997 73.2885 19.749C73.2885 20.6157 73.4879 21.2917 73.8865 21.777C74.2852 22.2623 74.8789 22.505 75.6675 22.505C75.8409 22.505 76.0099 22.4833 76.1745 22.44C76.3392 22.3967 76.4735 22.3317 76.5775 22.245V20.789H75.1735V19.229H78.2675V23.129C77.9729 23.415 77.5785 23.6577 77.0845 23.857C76.5992 24.0563 76.0619 24.156 75.4725 24.156ZM80.0186 24V15.524H82.1116L83.4766 19.294C83.5632 19.5367 83.6456 19.7923 83.7236 20.061C83.8016 20.3297 83.8839 20.594 83.9706 20.854H84.0226C84.1092 20.594 84.1872 20.3297 84.2566 20.061C84.3346 19.7923 84.4169 19.5367 84.5036 19.294L85.8426 15.524H87.9226V24H86.1806V20.893C86.1806 20.6157 86.1936 20.308 86.2196 19.97C86.2542 19.6233 86.2889 19.2767 86.3236 18.93C86.3669 18.5833 86.4016 18.2757 86.4276 18.007H86.3756L85.6866 20.022L84.4776 23.259H83.4246L82.2156 20.022L81.5396 18.007H81.4876C81.5222 18.2757 81.5569 18.5833 81.5916 18.93C81.6262 19.2767 81.6566 19.6233 81.6826 19.97C81.7172 20.308 81.7346 20.6157 81.7346 20.893V24H80.0186ZM91.9099 19.71L91.7019 20.49H93.5089L93.3139 19.71C93.2013 19.2853 93.0843 18.8347 92.9629 18.358C92.8503 17.8813 92.7376 17.422 92.6249 16.98H92.5729C92.4689 17.4307 92.3606 17.8943 92.2479 18.371C92.1439 18.839 92.0313 19.2853 91.9099 19.71ZM88.8419 24L91.4939 15.524H93.7949L96.4469 24H94.4189L93.8989 21.985H91.3119L90.7919 24H88.8419Z" fill="#303030"/>
<path d="M44 27C45.38 27 46.5 25.88 46.5 24.5V22H44C42.62 22 41.5 23.12 41.5 24.5C41.5 25.88 42.62 27 44 27Z" fill="#0ACF83"/>
<path d="M41.5 19.5C41.5 18.12 42.62 17 44 17H46.5V22H44C42.62 22 41.5 20.88 41.5 19.5Z" fill="#A259FF"/>
<path d="M41.5 14.5C41.5 13.12 42.62 12 44 12H46.5V17H44C42.62 17 41.5 15.88 41.5 14.5Z" fill="#F24E1E"/>
<path d="M46.5 12H49C50.38 12 51.5 13.12 51.5 14.5C51.5 15.88 50.38 17 49 17H46.5V12Z" fill="#FF7262"/>
<path d="M51.5 19.5C51.5 20.88 50.38 22 49 22C47.62 22 46.5 20.88 46.5 19.5C46.5 18.12 47.62 17 49 17C50.38 17 51.5 18.12 51.5 19.5Z" fill="#1ABCFE"/>
<defs>
<filter id="filter0_dd_180_1706" x="0" y="0" width="136" height="46" filterUnits="userSpaceOnUse" color-interpolation-filters="sRGB">
<feFlood flood-opacity="0" result="BackgroundImageFix"/>
<feColorMatrix in="SourceAlpha" type="matrix" values="0 0 0 0 0 0 0 0 0 0 0 0 0 0 0 0 0 0 127 0" result="hardAlpha"/>
<feOffset dy="4"/>
<feGaussianBlur stdDeviation="4"/>
<feColorMatrix type="matrix" values="0 0 0 0 0.196487 0 0 0 0 0.196487 0 0 0 0 0.279476 0 0 0 0.06 0"/>
<feBlend mode="multiply" in2="BackgroundImageFix" result="effect1_dropShadow_180_1706"/>
<feColorMatrix in="SourceAlpha" type="matrix" values="0 0 0 0 0 0 0 0 0 0 0 0 0 0 0 0 0 0 127 0" result="hardAlpha"/>
<feOffset dy="4"/>
<feGaussianBlur stdDeviation="2"/>
<feColorMatrix type="matrix" values="0 0 0 0 0.196487 0 0 0 0 0.196487 0 0 0 0 0.279476 0 0 0 0.08 0"/>
<feBlend mode="multiply" in2="effect1_dropShadow_180_1706" result="effect2_dropShadow_180_1706"/>
<feBlend mode="normal" in="SourceGraphic" in2="effect2_dropShadow_180_1706" result="shape"/>
</filter>
</defs>
</svg>
