<svg width="276" height="46" viewBox="0 0 276 46" fill="none" xmlns="http://www.w3.org/2000/svg">
<g filter="url(#filter0_dd_180_1693)">
<rect x="8" y="4" width="260" height="30" rx="8" fill="white"/>
<path d="M63.001 24V15.524H68.344V17.136H64.912V19.099H67.85V20.711H64.912V24H63.001ZM69.8184 24V15.524H72.8734C73.4714 15.524 74.0174 15.6063 74.5114 15.771C75.0054 15.927 75.3997 16.1957 75.6944 16.577C75.989 16.9583 76.1364 17.487 76.1364 18.163C76.1364 18.787 75.9977 19.3027 75.7204 19.71C75.4517 20.1087 75.0877 20.4077 74.6284 20.607L76.5524 24H74.4074L72.7824 20.945H71.7294V24H69.8184ZM71.7294 19.424H72.7174C73.22 19.424 73.6014 19.32 73.8614 19.112C74.13 18.8953 74.2644 18.579 74.2644 18.163C74.2644 17.747 74.13 17.4567 73.8614 17.292C73.6014 17.1273 73.22 17.045 72.7174 17.045H71.7294V19.424ZM81.236 24.156C80.4734 24.156 79.8017 23.9783 79.221 23.623C78.649 23.2677 78.1984 22.7607 77.869 22.102C77.5484 21.4347 77.388 20.6417 77.388 19.723C77.388 18.7957 77.5484 18.0113 77.869 17.37C78.1984 16.72 78.649 16.226 79.221 15.888C79.8017 15.5413 80.4734 15.368 81.236 15.368C81.9987 15.368 82.666 15.5413 83.238 15.888C83.8187 16.226 84.2694 16.72 84.59 17.37C84.9194 18.02 85.084 18.8043 85.084 19.723C85.084 20.6417 84.9194 21.4347 84.59 22.102C84.2694 22.7607 83.8187 23.2677 83.238 23.623C82.666 23.9783 81.9987 24.156 81.236 24.156ZM81.236 22.505C81.8167 22.505 82.276 22.2537 82.614 21.751C82.952 21.2483 83.121 20.5723 83.121 19.723C83.121 18.8737 82.952 18.2107 82.614 17.734C82.276 17.2573 81.8167 17.019 81.236 17.019C80.6554 17.019 80.196 17.2573 79.858 17.734C79.52 18.2107 79.351 18.8737 79.351 19.723C79.351 20.5723 79.52 21.2483 79.858 21.751C80.196 22.2537 80.6554 22.505 81.236 22.505ZM86.6778 24V15.524H88.6408L90.8508 19.736L91.6828 21.608H91.7348C91.7001 21.1573 91.6524 20.6547 91.5918 20.1C91.5311 19.5453 91.5008 19.0167 91.5008 18.514V15.524H93.3208V24H91.3578L89.1478 19.775L88.3158 17.929H88.2638C88.3071 18.397 88.3548 18.8997 88.4068 19.437C88.4674 19.9743 88.4978 20.4943 88.4978 20.997V24H86.6778ZM96.9743 24V17.136H94.6473V15.524H101.225V17.136H98.8983V24H96.9743ZM102.547 24V15.524H107.851V17.136H104.458V18.839H107.344V20.438H104.458V22.388H107.981V24H102.547ZM109.669 24V15.524H111.632L113.842 19.736L114.674 21.608H114.726C114.691 21.1573 114.644 20.6547 114.583 20.1C114.522 19.5453 114.492 19.0167 114.492 18.514V15.524H116.312V24H114.349L112.139 19.775L111.307 17.929H111.255C111.298 18.397 111.346 18.8997 111.398 19.437C111.459 19.9743 111.489 20.4943 111.489 20.997V24H109.669ZM118.314 24V15.524H120.706C121.573 15.524 122.323 15.6713 122.955 15.966C123.588 16.2607 124.078 16.72 124.424 17.344C124.78 17.9593 124.957 18.7523 124.957 19.723C124.957 20.6937 124.784 21.4953 124.437 22.128C124.091 22.7607 123.605 23.233 122.981 23.545C122.366 23.8483 121.642 24 120.81 24H118.314ZM120.225 22.453H120.589C121.075 22.453 121.495 22.3663 121.85 22.193C122.214 22.0197 122.496 21.7337 122.695 21.335C122.895 20.9363 122.994 20.399 122.994 19.723C122.994 19.047 122.895 18.5183 122.695 18.137C122.496 17.747 122.214 17.474 121.85 17.318C121.495 17.1533 121.075 17.071 120.589 17.071H120.225V22.453ZM129.169 24V15.524H131.561C132.428 15.524 133.177 15.6713 133.81 15.966C134.443 16.2607 134.932 16.72 135.279 17.344C135.634 17.9593 135.812 18.7523 135.812 19.723C135.812 20.6937 135.639 21.4953 135.292 22.128C134.945 22.7607 134.46 23.233 133.836 23.545C133.221 23.8483 132.497 24 131.665 24H129.169ZM131.08 22.453H131.444C131.929 22.453 132.35 22.3663 132.705 22.193C133.069 22.0197 133.351 21.7337 133.55 21.335C133.749 20.9363 133.849 20.399 133.849 19.723C133.849 19.047 133.749 18.5183 133.55 18.137C133.351 17.747 133.069 17.474 132.705 17.318C132.35 17.1533 131.929 17.071 131.444 17.071H131.08V22.453ZM137.421 24V15.524H142.725V17.136H139.332V18.839H142.218V20.438H139.332V22.388H142.855V24H137.421ZM146.012 24L143.451 15.524H145.479L146.493 19.476C146.623 19.9353 146.736 20.386 146.831 20.828C146.935 21.27 147.052 21.725 147.182 22.193H147.234C147.355 21.725 147.468 21.27 147.572 20.828C147.676 20.386 147.789 19.9353 147.91 19.476L148.911 15.524H150.861L148.313 24H146.012ZM151.767 24V15.524H157.071V17.136H153.678V18.839H156.564V20.438H153.678V22.388H157.201V24H151.767ZM158.889 24V15.524H160.8V22.388H164.154V24H158.889ZM168.592 24.156C167.83 24.156 167.158 23.9783 166.577 23.623C166.005 23.2677 165.555 22.7607 165.225 22.102C164.905 21.4347 164.744 20.6417 164.744 19.723C164.744 18.7957 164.905 18.0113 165.225 17.37C165.555 16.72 166.005 16.226 166.577 15.888C167.158 15.5413 167.83 15.368 168.592 15.368C169.355 15.368 170.022 15.5413 170.594 15.888C171.175 16.226 171.626 16.72 171.946 17.37C172.276 18.02 172.44 18.8043 172.44 19.723C172.44 20.6417 172.276 21.4347 171.946 22.102C171.626 22.7607 171.175 23.2677 170.594 23.623C170.022 23.9783 169.355 24.156 168.592 24.156ZM168.592 22.505C169.173 22.505 169.632 22.2537 169.97 21.751C170.308 21.2483 170.477 20.5723 170.477 19.723C170.477 18.8737 170.308 18.2107 169.97 17.734C169.632 17.2573 169.173 17.019 168.592 17.019C168.012 17.019 167.552 17.2573 167.214 17.734C166.876 18.2107 166.707 18.8737 166.707 19.723C166.707 20.5723 166.876 21.2483 167.214 21.751C167.552 22.2537 168.012 22.505 168.592 22.505ZM174.034 24V15.524H176.946C177.57 15.524 178.134 15.6107 178.636 15.784C179.148 15.9487 179.555 16.2303 179.858 16.629C180.162 17.0277 180.313 17.5693 180.313 18.254C180.313 18.9127 180.162 19.4543 179.858 19.879C179.555 20.3037 179.152 20.62 178.649 20.828C178.147 21.0273 177.596 21.127 176.998 21.127H175.945V24H174.034ZM175.945 19.606H176.881C177.921 19.606 178.441 19.1553 178.441 18.254C178.441 17.812 178.303 17.5 178.025 17.318C177.748 17.136 177.349 17.045 176.829 17.045H175.945V19.606ZM181.778 24V15.524H183.871L185.236 19.294C185.323 19.5367 185.405 19.7923 185.483 20.061C185.561 20.3297 185.644 20.594 185.73 20.854H185.782C185.869 20.594 185.947 20.3297 186.016 20.061C186.094 19.7923 186.177 19.5367 186.263 19.294L187.602 15.524H189.682V24H187.94V20.893C187.94 20.6157 187.953 20.308 187.979 19.97C188.014 19.6233 188.049 19.2767 188.083 18.93C188.127 18.5833 188.161 18.2757 188.187 18.007H188.135L187.446 20.022L186.237 23.259H185.184L183.975 20.022L183.299 18.007H183.247C183.282 18.2757 183.317 18.5833 183.351 18.93C183.386 19.2767 183.416 19.6233 183.442 19.97C183.477 20.308 183.494 20.6157 183.494 20.893V24H181.778ZM191.681 24V15.524H196.985V17.136H193.592V18.839H196.478V20.438H193.592V22.388H197.115V24H191.681ZM198.803 24V15.524H200.766L202.976 19.736L203.808 21.608H203.86C203.825 21.1573 203.777 20.6547 203.717 20.1C203.656 19.5453 203.626 19.0167 203.626 18.514V15.524H205.446V24H203.483L201.273 19.775L200.441 17.929H200.389C200.432 18.397 200.48 18.8997 200.532 19.437C200.592 19.9743 200.623 20.4943 200.623 20.997V24H198.803ZM209.099 24V17.136H206.772V15.524H213.35V17.136H211.023V24H209.099Z" fill="#303030"/>
</g>
<defs>
<filter id="filter0_dd_180_1693" x="0" y="0" width="276" height="46" filterUnits="userSpaceOnUse" color-interpolation-filters="sRGB">
<feFlood flood-opacity="0" result="BackgroundImageFix"/>
<feColorMatrix in="SourceAlpha" type="matrix" values="0 0 0 0 0 0 0 0 0 0 0 0 0 0 0 0 0 0 127 0" result="hardAlpha"/>
<feOffset dy="4"/>
<feGaussianBlur stdDeviation="4"/>
<feColorMatrix type="matrix" values="0 0 0 0 0.196487 0 0 0 0 0.196487 0 0 0 0 0.279476 0 0 0 0.06 0"/>
<feBlend mode="multiply" in2="BackgroundImageFix" result="effect1_dropShadow_180_1693"/>
<feColorMatrix in="SourceAlpha" type="matrix" values="0 0 0 0 0 0 0 0 0 0 0 0 0 0 0 0 0 0 127 0" result="hardAlpha"/>
<feOffset dy="4"/>
<feGaussianBlur stdDeviation="2"/>
<feColorMatrix type="matrix" values="0 0 0 0 0.196487 0 0 0 0 0.196487 0 0 0 0 0.279476 0 0 0 0.08 0"/>
<feBlend mode="multiply" in2="effect1_dropShadow_180_1693" result="effect2_dropShadow_180_1693"/>
<feBlend mode="normal" in="SourceGraphic" in2="effect2_dropShadow_180_1693" result="shape"/>
</filter>
</defs>
</svg>
