<svg width="136" height="46" viewBox="0 0 136 46" fill="none" xmlns="http://www.w3.org/2000/svg">
<g filter="url(#filter0_dd_180_1721)">
<rect x="8" y="4" width="120" height="30" rx="8" fill="white"/>
</g>
<path d="M73.745 24.156C72.9737 24.156 72.2717 23.9913 71.639 23.662C71.015 23.3327 70.5167 22.8473 70.144 22.206C69.78 21.556 69.598 20.7587 69.598 19.814C69.598 18.878 69.7843 18.0807 70.157 17.422C70.5383 16.7547 71.041 16.2477 71.665 15.901C72.289 15.5457 72.978 15.368 73.732 15.368C74.3473 15.368 74.876 15.4807 75.318 15.706C75.76 15.9313 76.1197 16.187 76.397 16.473L75.396 17.695C75.1793 17.5043 74.9497 17.344 74.707 17.214C74.4643 17.084 74.161 17.019 73.797 17.019C73.1383 17.019 72.601 17.2617 72.185 17.747C71.769 18.2323 71.561 18.8997 71.561 19.749C71.561 20.6157 71.7603 21.2917 72.159 21.777C72.5577 22.2623 73.1513 22.505 73.94 22.505C74.1133 22.505 74.2823 22.4833 74.447 22.44C74.6117 22.3967 74.746 22.3317 74.85 22.245V20.789H73.446V19.229H76.54V23.129C76.2453 23.415 75.851 23.6577 75.357 23.857C74.8717 24.0563 74.3343 24.156 73.745 24.156ZM78.291 24V15.524H80.202V24H78.291ZM83.8522 24V17.136H81.5252V15.524H88.1032V17.136H85.7762V24H83.8522Z" fill="#303030"/>
<g clip-path="url(#clip0_180_1721)">
<path d="M62.6183 18.8412L56.1593 12.3825C55.7875 12.0105 55.1843 12.0105 54.8119 12.3825L53.471 13.7238L55.1723 15.4251C55.5678 15.2917 56.0211 15.3812 56.3362 15.6963C56.653 16.0134 56.7419 16.4706 56.6049 16.8674L58.2446 18.5073C58.6413 18.3705 59.0991 18.4589 59.4158 18.7762C59.8587 19.2188 59.8587 19.9364 59.4158 20.3792C58.9728 20.8222 58.2555 20.8222 57.8123 20.3792C57.4793 20.046 57.3969 19.5567 57.5656 19.1463L56.0366 17.6171L56.0363 21.6415C56.1444 21.6948 56.2462 21.766 56.3362 21.8557C56.7791 22.2983 56.7791 23.0156 56.3362 23.4592C55.8934 23.9018 55.1756 23.9018 54.7332 23.4592C54.2905 23.0157 54.2541 22.2984 54.6968 21.8557C54.8062 21.7463 54.9141 21.6637 55.0313 21.6084V17.5468C54.9141 17.4915 54.8063 17.4095 54.6966 17.2994C54.3614 16.9643 54.2987 16.4721 54.4707 16.0601L52.8028 14.3828L48.3785 18.8113C48.0064 19.1836 48.0087 19.7869 48.3808 20.1589L54.8409 26.6176C55.2127 26.9896 55.8165 26.9896 56.1889 26.6176L62.6178 20.1889C62.9899 19.8167 62.9902 19.2131 62.6183 18.8412Z" fill="#F34F29"/>
</g>
<defs>
<filter id="filter0_dd_180_1721" x="0" y="0" width="136" height="46" filterUnits="userSpaceOnUse" color-interpolation-filters="sRGB">
<feFlood flood-opacity="0" result="BackgroundImageFix"/>
<feColorMatrix in="SourceAlpha" type="matrix" values="0 0 0 0 0 0 0 0 0 0 0 0 0 0 0 0 0 0 127 0" result="hardAlpha"/>
<feOffset dy="4"/>
<feGaussianBlur stdDeviation="4"/>
<feColorMatrix type="matrix" values="0 0 0 0 0.196487 0 0 0 0 0.196487 0 0 0 0 0.279476 0 0 0 0.06 0"/>
<feBlend mode="multiply" in2="BackgroundImageFix" result="effect1_dropShadow_180_1721"/>
<feColorMatrix in="SourceAlpha" type="matrix" values="0 0 0 0 0 0 0 0 0 0 0 0 0 0 0 0 0 0 127 0" result="hardAlpha"/>
<feOffset dy="4"/>
<feGaussianBlur stdDeviation="2"/>
<feColorMatrix type="matrix" values="0 0 0 0 0.196487 0 0 0 0 0.196487 0 0 0 0 0.279476 0 0 0 0.08 0"/>
<feBlend mode="multiply" in2="effect1_dropShadow_180_1721" result="effect2_dropShadow_180_1721"/>
<feBlend mode="normal" in="SourceGraphic" in2="effect2_dropShadow_180_1721" result="shape"/>
</filter>
<clipPath id="clip0_180_1721">
<rect width="15" height="15" fill="white" transform="translate(48 12)"/>
</clipPath>
</defs>
</svg>
