<svg width="136" height="46" viewBox="0 0 136 46" fill="none" xmlns="http://www.w3.org/2000/svg">
<g filter="url(#filter0_dd_180_1724)">
<rect x="8" y="4" width="120" height="30" rx="8" fill="white"/>
</g>
<path d="M63.745 24.156C62.9737 24.156 62.2717 23.9913 61.639 23.662C61.015 23.3327 60.5167 22.8473 60.144 22.206C59.78 21.556 59.598 20.7587 59.598 19.814C59.598 18.878 59.7843 18.0807 60.157 17.422C60.5383 16.7547 61.041 16.2477 61.665 15.901C62.289 15.5457 62.978 15.368 63.732 15.368C64.3473 15.368 64.876 15.4807 65.318 15.706C65.76 15.9313 66.1197 16.187 66.397 16.473L65.396 17.695C65.1793 17.5043 64.9497 17.344 64.707 17.214C64.4643 17.084 64.161 17.019 63.797 17.019C63.1383 17.019 62.601 17.2617 62.185 17.747C61.769 18.2323 61.561 18.8997 61.561 19.749C61.561 20.6157 61.7603 21.2917 62.159 21.777C62.5577 22.2623 63.1513 22.505 63.94 22.505C64.1133 22.505 64.2823 22.4833 64.447 22.44C64.6117 22.3967 64.746 22.3317 64.85 22.245V20.789H63.446V19.229H66.54V23.129C66.2453 23.415 65.851 23.6577 65.357 23.857C64.8717 24.0563 64.3343 24.156 63.745 24.156ZM68.291 24V15.524H70.202V24H68.291ZM73.8522 24V17.136H71.5252V15.524H78.1032V17.136H75.7762V24H73.8522ZM79.4248 24V15.524H81.3358V18.787H84.2608V15.524H86.1848V24H84.2608V20.464H81.3358V24H79.4248ZM91.5256 24.156C90.4249 24.156 89.5843 23.831 89.0036 23.181C88.4229 22.531 88.1326 21.4953 88.1326 20.074V15.524H90.0566V20.269C90.0566 21.101 90.1823 21.6817 90.4336 22.011C90.6849 22.3403 91.0489 22.505 91.5256 22.505C92.0023 22.505 92.3706 22.3403 92.6306 22.011C92.8906 21.6817 93.0206 21.101 93.0206 20.269V15.524H94.8666V20.074C94.8666 21.4953 94.5806 22.531 94.0086 23.181C93.4453 23.831 92.6176 24.156 91.5256 24.156ZM96.8301 24V15.524H99.7291C100.318 15.524 100.847 15.589 101.315 15.719C101.783 15.8403 102.156 16.0527 102.433 16.356C102.71 16.6593 102.849 17.084 102.849 17.63C102.849 18.0027 102.749 18.371 102.55 18.735C102.359 19.0903 102.091 19.333 101.744 19.463V19.515C102.177 19.6277 102.537 19.8487 102.823 20.178C103.118 20.4987 103.265 20.9407 103.265 21.504C103.265 22.0847 103.118 22.557 102.823 22.921C102.528 23.285 102.134 23.558 101.64 23.74C101.146 23.9133 100.591 24 99.9761 24H96.8301ZM98.7411 18.917H99.6381C100.106 18.917 100.444 18.826 100.652 18.644C100.869 18.462 100.977 18.2193 100.977 17.916C100.977 17.5867 100.869 17.3527 100.652 17.214C100.435 17.0753 100.102 17.006 99.6511 17.006H98.7411V18.917ZM98.7411 22.518H99.8201C100.869 22.518 101.393 22.1367 101.393 21.374C101.393 21.0013 101.263 20.737 101.003 20.581C100.743 20.4163 100.349 20.334 99.8201 20.334H98.7411V22.518Z" fill="#303030"/>
<path d="M43.0001 10.8721C41.0213 10.8722 39.1072 11.5763 37.6001 12.8586C36.093 14.1409 35.0914 15.9176 34.7744 17.8708C34.4574 19.824 34.8458 21.8263 35.87 23.5194C36.8943 25.2124 38.4875 26.4858 40.3647 27.1116C40.7814 27.1846 40.9376 26.9346 40.9376 26.7158C40.9376 26.5179 40.9272 25.8616 40.9272 25.1637C38.8334 25.5491 38.2918 24.6533 38.1251 24.1846C37.9402 23.7287 37.647 23.3247 37.2709 23.0075C36.9793 22.8512 36.5626 22.4658 37.2605 22.4554C37.527 22.4843 37.7826 22.5771 38.0056 22.7258C38.2287 22.8744 38.4126 23.0747 38.5418 23.3096C38.6557 23.5143 38.809 23.6946 38.9928 23.84C39.1765 23.9854 39.3872 24.0931 39.6126 24.157C39.8381 24.2209 40.0739 24.2396 40.3067 24.2122C40.5394 24.1847 40.7644 24.1116 40.9688 23.9971C41.0049 23.5734 41.1937 23.1773 41.5001 22.8825C39.6459 22.6742 37.7084 21.9554 37.7084 18.7679C37.6967 17.9397 38.0023 17.1384 38.5626 16.5283C38.3078 15.8085 38.3376 15.0186 38.6459 14.32C38.6459 14.32 39.3438 14.1013 40.9376 15.1742C42.3012 14.7992 43.7407 14.7992 45.1043 15.1742C46.698 14.0908 47.3959 14.32 47.3959 14.32C47.7043 15.0186 47.7341 15.8085 47.4793 16.5283C48.0412 17.1374 48.3471 17.9394 48.3334 18.7679C48.3334 21.9658 46.3855 22.6742 44.5314 22.8825C44.7302 23.0841 44.8834 23.3261 44.9805 23.5921C45.0775 23.8581 45.1162 24.1419 45.0939 24.4242C45.0939 25.5388 45.0834 26.4346 45.0834 26.7158C45.0834 26.9346 45.2397 27.195 45.6563 27.1117C47.5302 26.4807 49.1189 25.2044 50.1388 23.5104C51.1587 21.8165 51.5433 19.8153 51.2242 17.8639C50.905 15.9126 49.9027 14.1382 48.3963 12.8575C46.8899 11.5768 44.9774 10.8731 43.0001 10.8721Z" fill="black"/>
<defs>
<filter id="filter0_dd_180_1724" x="0" y="0" width="136" height="46" filterUnits="userSpaceOnUse" color-interpolation-filters="sRGB">
<feFlood flood-opacity="0" result="BackgroundImageFix"/>
<feColorMatrix in="SourceAlpha" type="matrix" values="0 0 0 0 0 0 0 0 0 0 0 0 0 0 0 0 0 0 127 0" result="hardAlpha"/>
<feOffset dy="4"/>
<feGaussianBlur stdDeviation="4"/>
<feColorMatrix type="matrix" values="0 0 0 0 0.196487 0 0 0 0 0.196487 0 0 0 0 0.279476 0 0 0 0.06 0"/>
<feBlend mode="multiply" in2="BackgroundImageFix" result="effect1_dropShadow_180_1724"/>
<feColorMatrix in="SourceAlpha" type="matrix" values="0 0 0 0 0 0 0 0 0 0 0 0 0 0 0 0 0 0 127 0" result="hardAlpha"/>
<feOffset dy="4"/>
<feGaussianBlur stdDeviation="2"/>
<feColorMatrix type="matrix" values="0 0 0 0 0.196487 0 0 0 0 0.196487 0 0 0 0 0.279476 0 0 0 0.08 0"/>
<feBlend mode="multiply" in2="effect1_dropShadow_180_1724" result="effect2_dropShadow_180_1724"/>
<feBlend mode="normal" in="SourceGraphic" in2="effect2_dropShadow_180_1724" result="shape"/>
</filter>
</defs>
</svg>
