<svg width="136" height="46" viewBox="0 0 136 46" fill="none" xmlns="http://www.w3.org/2000/svg">
<g filter="url(#filter0_dd_180_1694)">
<rect x="8" y="4" width="120" height="30" rx="8" fill="white"/>
</g>
<path d="M62.001 23V14.524H63.912V17.787H66.837V14.524H68.761V23H66.837V19.464H63.912V23H62.001ZM72.4118 23V16.136H70.0848V14.524H76.6628V16.136H74.3358V23H72.4118ZM77.9844 23V14.524H80.0774L81.4424 18.294C81.5291 18.5367 81.6114 18.7923 81.6894 19.061C81.7674 19.3297 81.8497 19.594 81.9364 19.854H81.9884C82.0751 19.594 82.1531 19.3297 82.2224 19.061C82.3004 18.7923 82.3827 18.5367 82.4694 18.294L83.8084 14.524H85.8884V23H84.1464V19.893C84.1464 19.6157 84.1594 19.308 84.1854 18.97C84.2201 18.6233 84.2547 18.2767 84.2894 17.93C84.3327 17.5833 84.3674 17.2757 84.3934 17.007H84.3414L83.6524 19.022L82.4434 22.259H81.3904L80.1814 19.022L79.5054 17.007H79.4534C79.4881 17.2757 79.5227 17.5833 79.5574 17.93C79.5921 18.2767 79.6224 18.6233 79.6484 18.97C79.6831 19.308 79.7004 19.6157 79.7004 19.893V23H77.9844ZM87.8867 23V14.524H89.7977V21.388H93.1517V23H87.8867ZM96.8253 23.156C96.1493 23.156 95.5773 23.0433 95.1093 22.818C94.6413 22.5927 94.2426 22.3197 93.9133 21.999L94.7713 20.79C95.0226 21.0153 95.2956 21.2103 95.5903 21.375C95.8849 21.531 96.2056 21.609 96.5523 21.609C96.9769 21.609 97.3149 21.5007 97.5663 21.284C97.8176 21.0673 97.9433 20.7467 97.9433 20.322C97.9433 19.906 97.8219 19.5897 97.5793 19.373C97.3366 19.1563 97.0246 19.048 96.6433 19.048C96.4006 19.048 96.1969 19.0783 96.0323 19.139C95.8763 19.1997 95.6726 19.308 95.4213 19.464L94.5633 18.918L94.7973 14.745H99.4773V16.357H96.4483L96.3053 17.904C96.5913 17.774 96.8989 17.709 97.2283 17.709C97.7049 17.709 98.1383 17.8 98.5283 17.982C98.9269 18.164 99.2476 18.4457 99.4903 18.827C99.7329 19.1997 99.8543 19.6807 99.8543 20.27C99.8543 20.8767 99.7113 21.3967 99.4253 21.83C99.1479 22.2633 98.7796 22.5927 98.3203 22.818C97.8609 23.0433 97.3626 23.156 96.8253 23.156Z" fill="#303030"/>
<path d="M42.2308 25.345L41.0583 12.1948H53.9415L52.7677 25.343L47.4921 26.8055L42.2308 25.345Z" fill="#E44D26"/>
<path d="M47.5 25.6877L51.763 24.5057L52.7661 13.27H47.5V25.6877Z" fill="#F16529"/>
<path d="M47.5001 18.1472H45.3658L45.2184 16.4955H47.5001V14.8828H43.4558L43.4945 15.3155L43.8908 19.76H47.5001V18.1472ZM47.5001 22.3358L47.4929 22.3378L45.6968 21.8527L45.5821 20.5665H43.9629L44.1888 23.0988L47.4927 24.0159L47.5001 24.0139V22.3358Z" fill="#EBEBEB"/>
<path d="M47.4944 18.1472V19.76H49.4804L49.2932 21.8517L47.4944 22.3372V24.0152L50.8008 23.0988L50.8251 22.8264L51.2041 18.5803L51.2433 18.1472H50.8088H47.4944ZM47.4944 14.8828V16.4955H51.3902L51.4225 16.1332L51.4961 15.3155L51.5347 14.8828H47.4944Z" fill="white"/>
<defs>
<filter id="filter0_dd_180_1694" x="0" y="0" width="136" height="46" filterUnits="userSpaceOnUse" color-interpolation-filters="sRGB">
<feFlood flood-opacity="0" result="BackgroundImageFix"/>
<feColorMatrix in="SourceAlpha" type="matrix" values="0 0 0 0 0 0 0 0 0 0 0 0 0 0 0 0 0 0 127 0" result="hardAlpha"/>
<feOffset dy="4"/>
<feGaussianBlur stdDeviation="4"/>
<feColorMatrix type="matrix" values="0 0 0 0 0.196487 0 0 0 0 0.196487 0 0 0 0 0.279476 0 0 0 0.06 0"/>
<feBlend mode="multiply" in2="BackgroundImageFix" result="effect1_dropShadow_180_1694"/>
<feColorMatrix in="SourceAlpha" type="matrix" values="0 0 0 0 0 0 0 0 0 0 0 0 0 0 0 0 0 0 127 0" result="hardAlpha"/>
<feOffset dy="4"/>
<feGaussianBlur stdDeviation="2"/>
<feColorMatrix type="matrix" values="0 0 0 0 0.196487 0 0 0 0 0.196487 0 0 0 0 0.279476 0 0 0 0.08 0"/>
<feBlend mode="multiply" in2="effect1_dropShadow_180_1694" result="effect2_dropShadow_180_1694"/>
<feBlend mode="normal" in="SourceGraphic" in2="effect2_dropShadow_180_1694" result="shape"/>
</filter>
</defs>
</svg>
