<svg width="136" height="46" viewBox="0 0 136 46" fill="none" xmlns="http://www.w3.org/2000/svg">
<g filter="url(#filter0_dd_180_1703)">
<rect x="8" y="4" width="120" height="30" rx="8" fill="white"/>
</g>
<path d="M51.938 24.156C51.2967 24.156 50.755 24.0303 50.313 23.779C49.871 23.519 49.5027 23.1333 49.208 22.622L50.508 21.66C50.664 21.946 50.846 22.1583 51.054 22.297C51.262 22.4357 51.4743 22.505 51.691 22.505C52.0377 22.505 52.2977 22.401 52.471 22.193C52.653 21.9763 52.744 21.5863 52.744 21.023V15.524H54.655V21.179C54.655 21.725 54.5597 22.2233 54.369 22.674C54.1783 23.1247 53.8793 23.4843 53.472 23.753C53.0733 24.0217 52.562 24.156 51.938 24.156ZM58.0843 24.156C57.4949 24.156 57.0269 23.9697 56.6803 23.597C56.3336 23.2157 56.1603 22.752 56.1603 22.206C56.1603 21.53 56.4463 21.0013 57.0183 20.62C57.5903 20.2387 58.5133 19.983 59.7873 19.853C59.7699 19.567 59.6833 19.3417 59.5273 19.177C59.3799 19.0037 59.1286 18.917 58.7733 18.917C58.5046 18.917 58.2316 18.969 57.9543 19.073C57.6769 19.177 57.3823 19.32 57.0703 19.502L56.3813 18.241C56.7886 17.9897 57.2219 17.786 57.6813 17.63C58.1493 17.474 58.6346 17.396 59.1373 17.396C59.9606 17.396 60.5933 17.6343 61.0353 18.111C61.4773 18.5877 61.6983 19.32 61.6983 20.308V24H60.1383L60.0083 23.337H59.9563C59.6876 23.5797 59.3973 23.779 59.0853 23.935C58.7819 24.0823 58.4483 24.156 58.0843 24.156ZM58.7343 22.674C58.9509 22.674 59.1373 22.6263 59.2933 22.531C59.4579 22.427 59.6226 22.2927 59.7873 22.128V20.997C59.1113 21.0837 58.6433 21.2223 58.3833 21.413C58.1233 21.595 57.9933 21.8117 57.9933 22.063C57.9933 22.271 58.0583 22.427 58.1883 22.531C58.3269 22.6263 58.5089 22.674 58.7343 22.674ZM64.7967 24L62.6257 17.552H64.5497L65.3817 20.594C65.4684 20.9147 65.5507 21.244 65.6287 21.582C65.7154 21.9113 65.8021 22.245 65.8887 22.583H65.9407C66.0187 22.245 66.0967 21.9113 66.1747 21.582C66.2614 21.244 66.3481 20.9147 66.4347 20.594L67.2797 17.552H69.1127L67.0067 24H64.7967ZM71.4905 24.156C70.9012 24.156 70.4332 23.9697 70.0865 23.597C69.7398 23.2157 69.5665 22.752 69.5665 22.206C69.5665 21.53 69.8525 21.0013 70.4245 20.62C70.9965 20.2387 71.9195 19.983 73.1935 19.853C73.1762 19.567 73.0895 19.3417 72.9335 19.177C72.7862 19.0037 72.5348 18.917 72.1795 18.917C71.9108 18.917 71.6378 18.969 71.3605 19.073C71.0832 19.177 70.7885 19.32 70.4765 19.502L69.7875 18.241C70.1948 17.9897 70.6282 17.786 71.0875 17.63C71.5555 17.474 72.0408 17.396 72.5435 17.396C73.3668 17.396 73.9995 17.6343 74.4415 18.111C74.8835 18.5877 75.1045 19.32 75.1045 20.308V24H73.5445L73.4145 23.337H73.3625C73.0938 23.5797 72.8035 23.779 72.4915 23.935C72.1882 24.0823 71.8545 24.156 71.4905 24.156ZM72.1405 22.674C72.3572 22.674 72.5435 22.6263 72.6995 22.531C72.8642 22.427 73.0288 22.2927 73.1935 22.128V20.997C72.5175 21.0837 72.0495 21.2223 71.7895 21.413C71.5295 21.595 71.3995 21.8117 71.3995 22.063C71.3995 22.271 71.4645 22.427 71.5945 22.531C71.7332 22.6263 71.9152 22.674 72.1405 22.674ZM78.619 24.156C78.1943 24.156 77.7566 24.0737 77.306 23.909C76.864 23.7443 76.4783 23.5277 76.149 23.259L77.007 22.063C77.3016 22.2797 77.5833 22.4487 77.852 22.57C78.1293 22.6827 78.4023 22.739 78.671 22.739C78.957 22.739 79.165 22.6913 79.295 22.596C79.425 22.492 79.49 22.3577 79.49 22.193C79.49 22.0457 79.425 21.9243 79.295 21.829C79.1736 21.7337 79.0133 21.647 78.814 21.569C78.6146 21.4823 78.4023 21.3957 78.177 21.309C77.917 21.205 77.657 21.075 77.397 20.919C77.1456 20.763 76.9333 20.5637 76.76 20.321C76.5866 20.0697 76.5 19.7663 76.5 19.411C76.5 18.813 76.7253 18.3277 77.176 17.955C77.6353 17.5823 78.2333 17.396 78.97 17.396C79.464 17.396 79.8973 17.4827 80.27 17.656C80.6513 17.8207 80.9763 18.007 81.245 18.215L80.387 19.359C80.1616 19.1857 79.9363 19.0513 79.711 18.956C79.4856 18.8607 79.2603 18.813 79.035 18.813C78.541 18.813 78.294 18.982 78.294 19.32C78.294 19.528 78.4153 19.6883 78.658 19.801C78.9093 19.905 79.1996 20.0177 79.529 20.139C79.8063 20.2343 80.075 20.36 80.335 20.516C80.6036 20.6633 80.8246 20.8627 80.998 21.114C81.18 21.3567 81.271 21.6773 81.271 22.076C81.271 22.6567 81.0456 23.1507 80.595 23.558C80.1443 23.9567 79.4856 24.156 78.619 24.156ZM85.2926 24.156C84.6946 24.156 84.153 24.026 83.6676 23.766C83.191 23.4973 82.8096 23.1117 82.5236 22.609C82.2463 22.0977 82.1076 21.4867 82.1076 20.776C82.1076 20.0567 82.2636 19.4457 82.5756 18.943C82.8876 18.4403 83.2993 18.059 83.8106 17.799C84.322 17.5303 84.8723 17.396 85.4616 17.396C85.8603 17.396 86.2113 17.461 86.5146 17.591C86.8266 17.721 87.104 17.8857 87.3466 18.085L86.4496 19.32C86.1463 19.0687 85.856 18.943 85.5786 18.943C85.1193 18.943 84.751 19.1077 84.4736 19.437C84.205 19.7663 84.0706 20.2127 84.0706 20.776C84.0706 21.3307 84.205 21.777 84.4736 22.115C84.751 22.4443 85.0976 22.609 85.5136 22.609C85.7216 22.609 85.9253 22.5657 86.1246 22.479C86.324 22.3837 86.506 22.271 86.6706 22.141L87.4246 23.389C87.104 23.6663 86.7573 23.8657 86.3846 23.987C86.012 24.0997 85.648 24.156 85.2926 24.156ZM88.553 24V17.552H90.113L90.243 18.683H90.295C90.529 18.2497 90.8107 17.929 91.14 17.721C91.4693 17.5043 91.7987 17.396 92.128 17.396C92.31 17.396 92.4617 17.409 92.583 17.435C92.7043 17.4523 92.8083 17.4827 92.895 17.526L92.583 19.177C92.4703 19.1423 92.3577 19.1163 92.245 19.099C92.141 19.0817 92.0197 19.073 91.881 19.073C91.6383 19.073 91.3827 19.164 91.114 19.346C90.854 19.5193 90.6373 19.8227 90.464 20.256V24H88.553ZM93.7327 24V17.552H95.6437V24H93.7327ZM94.6817 16.603C94.361 16.603 94.101 16.512 93.9017 16.33C93.7024 16.148 93.6027 15.9053 93.6027 15.602C93.6027 15.2987 93.7024 15.056 93.9017 14.874C94.101 14.692 94.361 14.601 94.6817 14.601C95.0024 14.601 95.2624 14.692 95.4617 14.874C95.661 15.056 95.7607 15.2987 95.7607 15.602C95.7607 15.9053 95.661 16.148 95.4617 16.33C95.2624 16.512 95.0024 16.603 94.6817 16.603ZM97.3255 26.392V17.552H98.8855L99.0155 18.189H99.0675C99.3188 17.9637 99.6005 17.7773 99.9125 17.63C100.233 17.474 100.562 17.396 100.9 17.396C101.68 17.396 102.296 17.695 102.746 18.293C103.197 18.8823 103.422 19.6753 103.422 20.672C103.422 21.4087 103.292 22.037 103.032 22.557C102.772 23.077 102.434 23.4757 102.018 23.753C101.611 24.0217 101.173 24.156 100.705 24.156C100.428 24.156 100.159 24.0997 99.8995 23.987C99.6395 23.8657 99.3968 23.6967 99.1715 23.48L99.2365 24.507V26.392H97.3255ZM100.263 22.596C100.593 22.596 100.874 22.4443 101.108 22.141C101.342 21.8377 101.459 21.3567 101.459 20.698C101.459 19.5367 101.087 18.956 100.341 18.956C99.9688 18.956 99.6005 19.151 99.2365 19.541V22.18C99.4098 22.336 99.5831 22.4443 99.7565 22.505C99.9298 22.5657 100.099 22.596 100.263 22.596ZM106.918 24.156C106.121 24.156 105.549 23.9263 105.202 23.467C104.864 23.0077 104.695 22.4053 104.695 21.66V19.047H103.811V17.63L104.799 17.552L105.02 15.836H106.606V17.552H108.153V19.047H106.606V21.634C106.606 21.998 106.68 22.2623 106.827 22.427C106.983 22.583 107.187 22.661 107.438 22.661C107.542 22.661 107.646 22.648 107.75 22.622C107.863 22.596 107.962 22.5657 108.049 22.531L108.348 23.922C108.183 23.974 107.98 24.026 107.737 24.078C107.503 24.13 107.23 24.156 106.918 24.156Z" fill="#303030"/>
<g clip-path="url(#clip0_180_1703)">
<path d="M28 12H43V27H28V12Z" fill="#F7DF1E"/>
<path d="M31.9442 24.5349L33.092 23.8402C33.3135 24.2329 33.5149 24.5651 33.9982 24.5651C34.4613 24.5651 34.7534 24.3839 34.7534 23.6791V18.8863H36.163V23.6991C36.163 25.159 35.3072 25.8236 34.0586 25.8236C32.9309 25.8236 32.2764 25.2396 31.9441 24.5348M36.9287 24.3838L38.0764 23.7193C38.3786 24.2128 38.7713 24.5752 39.4659 24.5752C40.0501 24.5752 40.4225 24.2832 40.4225 23.8804C40.4225 23.3971 40.0399 23.2259 39.3955 22.9441L39.0431 22.7929C38.0261 22.3601 37.3515 21.8163 37.3515 20.6685C37.3515 19.6112 38.157 18.8057 39.4157 18.8057C40.3118 18.8057 40.9562 19.1179 41.4193 19.9334L40.3218 20.6383C40.0801 20.2054 39.8184 20.0342 39.4156 20.0342C39.0028 20.0342 38.741 20.296 38.741 20.6383C38.741 21.0612 39.0028 21.2324 39.6069 21.4942L39.9592 21.6452C41.1575 22.1588 41.8321 22.6823 41.8321 23.8603C41.8321 25.1291 40.8353 25.8238 39.4961 25.8238C38.1872 25.8238 37.3414 25.1995 36.9286 24.3839" fill="black"/>
</g>
<defs>
<filter id="filter0_dd_180_1703" x="0" y="0" width="136" height="46" filterUnits="userSpaceOnUse" color-interpolation-filters="sRGB">
<feFlood flood-opacity="0" result="BackgroundImageFix"/>
<feColorMatrix in="SourceAlpha" type="matrix" values="0 0 0 0 0 0 0 0 0 0 0 0 0 0 0 0 0 0 127 0" result="hardAlpha"/>
<feOffset dy="4"/>
<feGaussianBlur stdDeviation="4"/>
<feColorMatrix type="matrix" values="0 0 0 0 0.196487 0 0 0 0 0.196487 0 0 0 0 0.279476 0 0 0 0.06 0"/>
<feBlend mode="multiply" in2="BackgroundImageFix" result="effect1_dropShadow_180_1703"/>
<feColorMatrix in="SourceAlpha" type="matrix" values="0 0 0 0 0 0 0 0 0 0 0 0 0 0 0 0 0 0 127 0" result="hardAlpha"/>
<feOffset dy="4"/>
<feGaussianBlur stdDeviation="2"/>
<feColorMatrix type="matrix" values="0 0 0 0 0.196487 0 0 0 0 0.196487 0 0 0 0 0.279476 0 0 0 0.08 0"/>
<feBlend mode="multiply" in2="effect1_dropShadow_180_1703" result="effect2_dropShadow_180_1703"/>
<feBlend mode="normal" in="SourceGraphic" in2="effect2_dropShadow_180_1703" result="shape"/>
</filter>
<clipPath id="clip0_180_1703">
<rect width="15" height="15" fill="white" transform="translate(28 12)"/>
</clipPath>
</defs>
</svg>
