<svg width="276" height="46" viewBox="0 0 276 46" fill="none" xmlns="http://www.w3.org/2000/svg">
<g filter="url(#filter0_dd_180_1718)">
<rect x="8" y="4" width="260" height="30" rx="8" fill="white"/>
</g>
<path d="M70.001 24V15.524H72.094L73.459 19.294C73.5457 19.5367 73.628 19.7923 73.706 20.061C73.784 20.3297 73.8663 20.594 73.953 20.854H74.005C74.0917 20.594 74.1697 20.3297 74.239 20.061C74.317 19.7923 74.3993 19.5367 74.486 19.294L75.825 15.524H77.905V24H76.163V20.893C76.163 20.6157 76.176 20.308 76.202 19.97C76.2367 19.6233 76.2713 19.2767 76.306 18.93C76.3493 18.5833 76.384 18.2757 76.41 18.007H76.358L75.669 20.022L74.46 23.259H73.407L72.198 20.022L71.522 18.007H71.47C71.5047 18.2757 71.5393 18.5833 71.574 18.93C71.6087 19.2767 71.639 19.6233 71.665 19.97C71.6997 20.308 71.717 20.6157 71.717 20.893V24H70.001ZM79.9033 24V15.524H81.8143V24H79.9033ZM86.4005 24.156C85.8458 24.156 85.2912 24.052 84.7365 23.844C84.1905 23.636 83.7008 23.3327 83.2675 22.934L84.3595 21.621C84.6628 21.881 85.0008 22.0933 85.3735 22.258C85.7462 22.4227 86.1058 22.505 86.4525 22.505C86.8512 22.505 87.1458 22.4313 87.3365 22.284C87.5358 22.1367 87.6355 21.9373 87.6355 21.686C87.6355 21.4173 87.5228 21.2223 87.2975 21.101C87.0808 20.971 86.7862 20.828 86.4135 20.672L85.3085 20.204C85.0225 20.0827 84.7495 19.9223 84.4895 19.723C84.2295 19.515 84.0172 19.2593 83.8525 18.956C83.6878 18.6527 83.6055 18.2973 83.6055 17.89C83.6055 17.422 83.7312 16.9973 83.9825 16.616C84.2425 16.2347 84.5978 15.9313 85.0485 15.706C85.5078 15.4807 86.0322 15.368 86.6215 15.368C87.1068 15.368 87.5922 15.4633 88.0775 15.654C88.5628 15.8447 88.9875 16.122 89.3515 16.486L88.3765 17.695C88.0992 17.4783 87.8218 17.3137 87.5445 17.201C87.2672 17.0797 86.9595 17.019 86.6215 17.019C86.2922 17.019 86.0278 17.0883 85.8285 17.227C85.6378 17.357 85.5425 17.5433 85.5425 17.786C85.5425 18.046 85.6638 18.241 85.9065 18.371C86.1578 18.501 86.4655 18.6397 86.8295 18.787L87.9215 19.229C88.4328 19.437 88.8402 19.723 89.1435 20.087C89.4468 20.451 89.5985 20.932 89.5985 21.53C89.5985 21.998 89.4728 22.4313 89.2215 22.83C88.9702 23.2287 88.6062 23.5493 88.1295 23.792C87.6528 24.0347 87.0765 24.156 86.4005 24.156ZM94.5731 24.156C93.8625 24.156 93.2081 23.9913 92.6101 23.662C92.0121 23.3327 91.5311 22.8473 91.1671 22.206C90.8118 21.556 90.6341 20.7587 90.6341 19.814C90.6341 18.878 90.8161 18.0807 91.1801 17.422C91.5528 16.7547 92.0425 16.2477 92.6491 15.901C93.2645 15.5457 93.9275 15.368 94.6381 15.368C95.1841 15.368 95.6738 15.4807 96.1071 15.706C96.5405 15.9227 96.9001 16.1783 97.1861 16.473L96.1721 17.695C95.9555 17.4957 95.7258 17.3353 95.4831 17.214C95.2491 17.084 94.9805 17.019 94.6771 17.019C94.2958 17.019 93.9448 17.1273 93.6241 17.344C93.3121 17.5607 93.0608 17.8727 92.8701 18.28C92.6881 18.6873 92.5971 19.177 92.5971 19.749C92.5971 20.6157 92.7835 21.2917 93.1561 21.777C93.5288 22.2623 94.0271 22.505 94.6511 22.505C94.9978 22.505 95.3055 22.427 95.5741 22.271C95.8515 22.115 96.0941 21.9287 96.3021 21.712L97.3161 22.908C96.6055 23.74 95.6911 24.156 94.5731 24.156ZM98.6035 24V15.524H103.908V17.136H100.515V18.839H103.401V20.438H100.515V22.388H104.038V24H98.6035ZM105.726 24V15.524H107.637V22.388H110.991V24H105.726ZM112.454 24V15.524H114.365V22.388H117.719V24H112.454ZM121.095 19.71L120.887 20.49H122.694L122.499 19.71C122.387 19.2853 122.27 18.8347 122.148 18.358C122.036 17.8813 121.923 17.422 121.81 16.98H121.758C121.654 17.4307 121.546 17.8943 121.433 18.371C121.329 18.839 121.217 19.2853 121.095 19.71ZM118.027 24L120.679 15.524H122.98L125.632 24H123.604L123.084 21.985H120.497L119.977 24H118.027ZM126.559 24V15.524H128.522L130.732 19.736L131.564 21.608H131.616C131.581 21.1573 131.533 20.6547 131.473 20.1C131.412 19.5453 131.382 19.0167 131.382 18.514V15.524H133.202V24H131.239L129.029 19.775L128.197 17.929H128.145C128.188 18.397 128.236 18.8997 128.288 19.437C128.348 19.9743 128.379 20.4943 128.379 20.997V24H126.559ZM135.204 24V15.524H140.508V17.136H137.115V18.839H140.001V20.438H137.115V22.388H140.638V24H135.204ZM145.771 24.156C145.009 24.156 144.337 23.9783 143.756 23.623C143.184 23.2677 142.734 22.7607 142.404 22.102C142.084 21.4347 141.923 20.6417 141.923 19.723C141.923 18.7957 142.084 18.0113 142.404 17.37C142.734 16.72 143.184 16.226 143.756 15.888C144.337 15.5413 145.009 15.368 145.771 15.368C146.534 15.368 147.201 15.5413 147.773 15.888C148.354 16.226 148.805 16.72 149.125 17.37C149.455 18.02 149.619 18.8043 149.619 19.723C149.619 20.6417 149.455 21.4347 149.125 22.102C148.805 22.7607 148.354 23.2677 147.773 23.623C147.201 23.9783 146.534 24.156 145.771 24.156ZM145.771 22.505C146.352 22.505 146.811 22.2537 147.149 21.751C147.487 21.2483 147.656 20.5723 147.656 19.723C147.656 18.8737 147.487 18.2107 147.149 17.734C146.811 17.2573 146.352 17.019 145.771 17.019C145.191 17.019 144.731 17.2573 144.393 17.734C144.055 18.2107 143.886 18.8737 143.886 19.723C143.886 20.5723 144.055 21.2483 144.393 21.751C144.731 22.2537 145.191 22.505 145.771 22.505ZM154.554 24.156C153.453 24.156 152.613 23.831 152.032 23.181C151.451 22.531 151.161 21.4953 151.161 20.074V15.524H153.085V20.269C153.085 21.101 153.211 21.6817 153.462 22.011C153.713 22.3403 154.077 22.505 154.554 22.505C155.031 22.505 155.399 22.3403 155.659 22.011C155.919 21.6817 156.049 21.101 156.049 20.269V15.524H157.895V20.074C157.895 21.4953 157.609 22.531 157.037 23.181C156.474 23.831 155.646 24.156 154.554 24.156ZM162.318 24.156C161.764 24.156 161.209 24.052 160.654 23.844C160.108 23.636 159.619 23.3327 159.185 22.934L160.277 21.621C160.581 21.881 160.919 22.0933 161.291 22.258C161.664 22.4227 162.024 22.505 162.37 22.505C162.769 22.505 163.064 22.4313 163.254 22.284C163.454 22.1367 163.553 21.9373 163.553 21.686C163.553 21.4173 163.441 21.2223 163.215 21.101C162.999 20.971 162.704 20.828 162.331 20.672L161.226 20.204C160.94 20.0827 160.667 19.9223 160.407 19.723C160.147 19.515 159.935 19.2593 159.77 18.956C159.606 18.6527 159.523 18.2973 159.523 17.89C159.523 17.422 159.649 16.9973 159.9 16.616C160.16 16.2347 160.516 15.9313 160.966 15.706C161.426 15.4807 161.95 15.368 162.539 15.368C163.025 15.368 163.51 15.4633 163.995 15.654C164.481 15.8447 164.905 16.122 165.269 16.486L164.294 17.695C164.017 17.4783 163.74 17.3137 163.462 17.201C163.185 17.0797 162.877 17.019 162.539 17.019C162.21 17.019 161.946 17.0883 161.746 17.227C161.556 17.357 161.46 17.5433 161.46 17.786C161.46 18.046 161.582 18.241 161.824 18.371C162.076 18.501 162.383 18.6397 162.747 18.787L163.839 19.229C164.351 19.437 164.758 19.723 165.061 20.087C165.365 20.451 165.516 20.932 165.516 21.53C165.516 21.998 165.391 22.4313 165.139 22.83C164.888 23.2287 164.524 23.5493 164.047 23.792C163.571 24.0347 162.994 24.156 162.318 24.156ZM172.145 24.156C171.59 24.156 171.035 24.052 170.481 23.844C169.935 23.636 169.445 23.3327 169.012 22.934L170.104 21.621C170.407 21.881 170.745 22.0933 171.118 22.258C171.49 22.4227 171.85 22.505 172.197 22.505C172.595 22.505 172.89 22.4313 173.081 22.284C173.28 22.1367 173.38 21.9373 173.38 21.686C173.38 21.4173 173.267 21.2223 173.042 21.101C172.825 20.971 172.53 20.828 172.158 20.672L171.053 20.204C170.767 20.0827 170.494 19.9223 170.234 19.723C169.974 19.515 169.761 19.2593 169.597 18.956C169.432 18.6527 169.35 18.2973 169.35 17.89C169.35 17.422 169.475 16.9973 169.727 16.616C169.987 16.2347 170.342 15.9313 170.793 15.706C171.252 15.4807 171.776 15.368 172.366 15.368C172.851 15.368 173.336 15.4633 173.822 15.654C174.307 15.8447 174.732 16.122 175.096 16.486L174.121 17.695C173.843 17.4783 173.566 17.3137 173.289 17.201C173.011 17.0797 172.704 17.019 172.366 17.019C172.036 17.019 171.772 17.0883 171.573 17.227C171.382 17.357 171.287 17.5433 171.287 17.786C171.287 18.046 171.408 18.241 171.651 18.371C171.902 18.501 172.21 18.6397 172.574 18.787L173.666 19.229C174.177 19.437 174.584 19.723 174.888 20.087C175.191 20.451 175.343 20.932 175.343 21.53C175.343 21.998 175.217 22.4313 174.966 22.83C174.714 23.2287 174.35 23.5493 173.874 23.792C173.397 24.0347 172.821 24.156 172.145 24.156ZM176.781 24V15.524H178.692V18.995H178.744L181.266 15.524H183.372L180.811 18.904L183.84 24H181.747L179.68 20.425L178.692 21.725V24H176.781ZM184.767 24V15.524H186.678V24H184.767ZM188.677 24V15.524H190.588V22.388H193.942V24H188.677ZM195.405 24V15.524H197.316V22.388H200.67V24H195.405ZM204.353 24.156C203.798 24.156 203.243 24.052 202.689 23.844C202.143 23.636 201.653 23.3327 201.22 22.934L202.312 21.621C202.615 21.881 202.953 22.0933 203.326 22.258C203.698 22.4227 204.058 22.505 204.405 22.505C204.803 22.505 205.098 22.4313 205.289 22.284C205.488 22.1367 205.588 21.9373 205.588 21.686C205.588 21.4173 205.475 21.2223 205.25 21.101C205.033 20.971 204.738 20.828 204.366 20.672L203.261 20.204C202.975 20.0827 202.702 19.9223 202.442 19.723C202.182 19.515 201.969 19.2593 201.805 18.956C201.64 18.6527 201.558 18.2973 201.558 17.89C201.558 17.422 201.683 16.9973 201.935 16.616C202.195 16.2347 202.55 15.9313 203.001 15.706C203.46 15.4807 203.984 15.368 204.574 15.368C205.059 15.368 205.544 15.4633 206.03 15.654C206.515 15.8447 206.94 16.122 207.304 16.486L206.329 17.695C206.051 17.4783 205.774 17.3137 205.497 17.201C205.219 17.0797 204.912 17.019 204.574 17.019C204.244 17.019 203.98 17.0883 203.781 17.227C203.59 17.357 203.495 17.5433 203.495 17.786C203.495 18.046 203.616 18.241 203.859 18.371C204.11 18.501 204.418 18.6397 204.782 18.787L205.874 19.229C206.385 19.437 206.792 19.723 207.096 20.087C207.399 20.451 207.551 20.932 207.551 21.53C207.551 21.998 207.425 22.4313 207.174 22.83C206.922 23.2287 206.558 23.5493 206.082 23.792C205.605 24.0347 205.029 24.156 204.353 24.156Z" fill="#303030"/>
<defs>
<filter id="filter0_dd_180_1718" x="0" y="0" width="276" height="46" filterUnits="userSpaceOnUse" color-interpolation-filters="sRGB">
<feFlood flood-opacity="0" result="BackgroundImageFix"/>
<feColorMatrix in="SourceAlpha" type="matrix" values="0 0 0 0 0 0 0 0 0 0 0 0 0 0 0 0 0 0 127 0" result="hardAlpha"/>
<feOffset dy="4"/>
<feGaussianBlur stdDeviation="4"/>
<feColorMatrix type="matrix" values="0 0 0 0 0.196487 0 0 0 0 0.196487 0 0 0 0 0.279476 0 0 0 0.06 0"/>
<feBlend mode="multiply" in2="BackgroundImageFix" result="effect1_dropShadow_180_1718"/>
<feColorMatrix in="SourceAlpha" type="matrix" values="0 0 0 0 0 0 0 0 0 0 0 0 0 0 0 0 0 0 127 0" result="hardAlpha"/>
<feOffset dy="4"/>
<feGaussianBlur stdDeviation="2"/>
<feColorMatrix type="matrix" values="0 0 0 0 0.196487 0 0 0 0 0.196487 0 0 0 0 0.279476 0 0 0 0.08 0"/>
<feBlend mode="multiply" in2="effect1_dropShadow_180_1718" result="effect2_dropShadow_180_1718"/>
<feBlend mode="normal" in="SourceGraphic" in2="effect2_dropShadow_180_1718" result="shape"/>
</filter>
</defs>
</svg>
