<svg width="136" height="46" viewBox="0 0 136 46" fill="none" xmlns="http://www.w3.org/2000/svg">
<g filter="url(#filter0_dd_180_1715)">
<rect x="8" y="4" width="120" height="30" rx="8" fill="white"/>
</g>
<path d="M73.588 24.156C73.0333 24.156 72.4787 24.052 71.924 23.844C71.378 23.636 70.8883 23.3327 70.455 22.934L71.547 21.621C71.8503 21.881 72.1883 22.0933 72.561 22.258C72.9337 22.4227 73.2933 22.505 73.64 22.505C74.0387 22.505 74.3333 22.4313 74.524 22.284C74.7233 22.1367 74.823 21.9373 74.823 21.686C74.823 21.4173 74.7103 21.2223 74.485 21.101C74.2683 20.971 73.9737 20.828 73.601 20.672L72.496 20.204C72.21 20.0827 71.937 19.9223 71.677 19.723C71.417 19.515 71.2047 19.2593 71.04 18.956C70.8753 18.6527 70.793 18.2973 70.793 17.89C70.793 17.422 70.9187 16.9973 71.17 16.616C71.43 16.2347 71.7853 15.9313 72.236 15.706C72.6953 15.4807 73.2197 15.368 73.809 15.368C74.2943 15.368 74.7797 15.4633 75.265 15.654C75.7503 15.8447 76.175 16.122 76.539 16.486L75.564 17.695C75.2867 17.4783 75.0093 17.3137 74.732 17.201C74.4547 17.0797 74.147 17.019 73.809 17.019C73.4797 17.019 73.2153 17.0883 73.016 17.227C72.8253 17.357 72.73 17.5433 72.73 17.786C72.73 18.046 72.8513 18.241 73.094 18.371C73.3453 18.501 73.653 18.6397 74.017 18.787L75.109 19.229C75.6203 19.437 76.0277 19.723 76.331 20.087C76.6343 20.451 76.786 20.932 76.786 21.53C76.786 21.998 76.6603 22.4313 76.409 22.83C76.1577 23.2287 75.7937 23.5493 75.317 23.792C74.8403 24.0347 74.264 24.156 73.588 24.156ZM81.6696 22.596C82.2503 22.596 82.7096 22.3447 83.0476 21.842C83.3856 21.3307 83.5546 20.6243 83.5546 19.723C83.5546 18.8737 83.3856 18.2107 83.0476 17.734C82.7096 17.2573 82.2503 17.019 81.6696 17.019C81.089 17.019 80.6296 17.2573 80.2916 17.734C79.9536 18.2107 79.7846 18.8737 79.7846 19.723C79.7846 20.6243 79.9536 21.3307 80.2916 21.842C80.6296 22.3447 81.089 22.596 81.6696 22.596ZM84.4646 26.366C83.572 26.366 82.8136 26.145 82.1896 25.703C81.5656 25.2697 81.102 24.7237 80.7986 24.065C79.8973 23.8743 79.1736 23.402 78.6276 22.648C78.0903 21.894 77.8216 20.919 77.8216 19.723C77.8216 18.7957 77.982 18.0113 78.3026 17.37C78.632 16.72 79.0826 16.226 79.6546 15.888C80.2353 15.5413 80.907 15.368 81.6696 15.368C82.4323 15.368 83.0996 15.5413 83.6716 15.888C84.2523 16.226 84.703 16.72 85.0236 17.37C85.353 18.02 85.5176 18.8043 85.5176 19.723C85.5176 20.8583 85.275 21.7987 84.7896 22.544C84.3043 23.2807 83.65 23.766 82.8266 24C83.026 24.2947 83.2946 24.507 83.6326 24.637C83.9793 24.767 84.3303 24.832 84.6856 24.832C84.8676 24.832 85.0366 24.8147 85.1926 24.78C85.3573 24.754 85.5003 24.7237 85.6216 24.689L85.9596 26.08C85.8036 26.158 85.5956 26.223 85.3356 26.275C85.0843 26.3357 84.794 26.366 84.4646 26.366ZM87.1114 24V15.524H89.0224V22.388H92.3764V24H87.1114Z" fill="#303030"/>
<g clip-path="url(#clip0_180_1715)">
<path d="M49.4432 25.2949C49.3216 25.2949 49.2132 25.2874 49.1216 25.2732V25.6774C49.3099 25.7524 49.4657 25.7899 49.5932 25.7899C50.0707 25.7899 50.5107 25.4982 50.9124 24.9123C51.4257 24.154 51.8407 22.9365 52.1557 21.2632H51.4224C51.3051 22.2373 51.0715 23.1938 50.7266 24.1124C50.7499 23.9382 50.6924 23.6324 50.5557 23.194L49.9499 21.2632H49.1916L50.0366 23.8457C50.1641 24.2332 50.2282 24.4915 50.2282 24.6182C50.2282 24.8007 50.1466 24.9657 49.9824 25.1132C49.8457 25.2332 49.6666 25.2949 49.4432 25.2949Z" fill="#105E86"/>
<path d="M60.2351 20.0776V24.6018H62.4268V24.0451H60.9726V20.0776H60.2351Z" fill="#DE8A03"/>
<path d="M44.8667 20.9935H44.875L46.0417 24.6018H46.6292L47.8042 20.9935H47.8108C47.939 22.1923 48.0141 23.3963 48.0358 24.6018H48.8108C48.7631 23.089 48.6441 21.5792 48.4542 20.0776H47.5417L46.4192 23.4026H46.4125L45.3 20.0776H44.3417C44.1527 21.5791 44.0386 23.089 44 24.6018H44.7042C44.7267 23.2785 44.7808 22.076 44.8667 20.9935Z" fill="#105E86"/>
<path d="M59.5659 22.255C59.5659 20.7583 58.9675 20.0083 57.77 20.0083C57.1834 20.0083 56.725 20.1983 56.395 20.5783C56.0367 20.9941 55.8567 21.6058 55.8567 22.415C55.8567 23.21 56.015 23.7941 56.335 24.1658C56.6267 24.5016 57.0659 24.6691 57.6542 24.6691C57.8742 24.6691 58.0759 24.6425 58.2584 24.5891L59.3625 25.2208L59.6625 24.7125H59.66L58.8134 24.3033C58.8884 24.2408 58.9609 24.1741 59.0259 24.0991C59.3867 23.6841 59.5659 23.0691 59.5659 22.255ZM57.73 24.1091C57.3592 24.1091 57.0884 23.9725 56.915 23.7L56.9167 23.6958C56.7292 23.4016 56.6359 22.9266 56.6359 22.2758C56.6359 21.1358 56.9892 20.5658 57.6942 20.5658C58.0634 20.5658 58.3359 20.7025 58.5084 20.975C58.695 21.2708 58.7884 21.7408 58.7884 22.385C58.7884 23.5333 58.435 24.1091 57.73 24.1091ZM55 22.395C55 22.395 54.3384 22.0225 54.0109 21.8466C53.6509 21.65 53.4559 21.4191 53.4559 21.1516C53.4565 21.0693 53.4754 20.9881 53.5111 20.9139C53.5469 20.8397 53.5986 20.7743 53.6625 20.7225C53.7892 20.6091 53.9717 20.5541 54.2075 20.5541C54.4984 20.5541 54.7942 20.6175 55.0942 20.7425L55.2717 20.3533C54.9238 20.1303 54.5183 20.0139 54.105 20.0183C53.6884 20.0183 53.3509 20.13 53.0884 20.3575C52.8275 20.5825 52.6967 20.8766 52.6967 21.245C52.6967 21.6875 52.8717 21.9566 53.2234 22.2083C53.2234 22.2083 53.8692 22.5716 54.1925 22.7458C54.5409 22.9383 54.7325 23.1675 54.7325 23.4375C54.7339 23.5352 54.712 23.6319 54.6685 23.7194C54.625 23.807 54.5613 23.8829 54.4825 23.9408C54.3242 24.0608 54.1067 24.1208 53.83 24.1208C53.5325 24.1208 53.2034 24.0325 52.8384 23.8525L52.6409 24.2416C53.065 24.5225 53.4992 24.6633 53.9517 24.6633C54.4359 24.6633 54.8184 24.5408 55.105 24.295C55.3917 24.05 55.535 23.7341 55.535 23.3491L55.54 23.3516C55.54 22.9108 55.3609 22.645 55 22.395Z" fill="#DE8A03"/>
<path d="M57.6707 13.8068C57.5749 13.8068 57.5099 13.8185 57.4424 13.8335V13.8443H57.454C57.499 13.9293 57.5757 13.9918 57.6324 14.0677C57.6774 14.1552 57.7157 14.2427 57.7607 14.3293L57.7724 14.3168C57.8507 14.2627 57.889 14.176 57.889 14.0443C57.8557 14.006 57.8507 13.9677 57.8224 13.9302C57.789 13.8752 57.7174 13.8485 57.6724 13.8052L57.6707 13.8068Z" fill="#105E86"/>
<path d="M63.7459 20.0001C63.5816 19.788 63.3864 19.6018 63.1667 19.4476C62.9884 19.3285 62.5984 19.161 62.5251 18.961L62.5142 18.9493C62.6359 18.9385 62.7809 18.8951 62.8976 18.8626C63.0867 18.8135 63.2601 18.8243 63.4559 18.776C63.5442 18.7543 63.6334 18.7268 63.7226 18.6993V18.6501C63.6226 18.5518 63.5476 18.4185 63.4442 18.3268C63.1554 18.079 62.8478 17.8539 62.5242 17.6535C62.3492 17.5435 62.1276 17.4735 61.9434 17.3801C61.8767 17.3476 61.7651 17.331 61.7267 17.276C61.6267 17.1568 61.5684 16.9976 61.4976 16.8551C61.3376 16.5543 61.1809 16.221 61.0417 15.9035C60.9417 15.6893 60.8809 15.476 60.7584 15.2793C60.1834 14.3493 59.5609 13.7851 58.6034 13.2343C58.3976 13.1201 58.1509 13.071 57.8901 13.0101C57.7509 13.0035 57.6117 12.9935 57.4734 12.9876C57.3817 12.9493 57.2934 12.8451 57.2151 12.7951C56.8984 12.5985 56.0784 12.1735 55.8451 12.736C55.6951 13.091 56.0676 13.441 56.1967 13.621C56.2926 13.746 56.4134 13.8893 56.4801 14.0301C56.5192 14.1251 56.5301 14.2226 56.5692 14.3218C56.6576 14.5626 56.7417 14.8301 56.8584 15.056C56.9192 15.1701 56.9859 15.291 57.0642 15.3935C57.1092 15.4535 57.1859 15.481 57.2034 15.5793C57.1251 15.691 57.1201 15.8526 57.0751 15.9885C56.8751 16.6076 56.9534 17.3735 57.2367 17.8293C57.3259 17.9651 57.5384 18.266 57.8226 18.151C58.0726 18.0526 58.0176 17.7418 58.0892 17.4676C58.1059 17.4018 58.0951 17.3585 58.1292 17.3143V17.3268C58.2076 17.481 58.2859 17.6268 58.3576 17.781C58.5292 18.0493 58.8292 18.3276 59.0801 18.5135C59.2134 18.6118 59.3192 18.7818 59.4859 18.8426V18.826H59.4734C59.4376 18.7785 59.3901 18.756 59.3451 18.7168C59.2395 18.6154 59.142 18.5059 59.0534 18.3893C58.8189 18.0747 58.6107 17.7414 58.4309 17.3926C58.3392 17.221 58.2626 17.036 58.1892 16.8668C58.1559 16.8018 58.1559 16.7035 58.1001 16.6701C58.0167 16.7893 57.8942 16.8935 57.8334 17.041C57.7276 17.2768 57.7167 17.566 57.6767 17.8676C57.6542 17.8735 57.6651 17.8676 57.6542 17.8793C57.4759 17.8368 57.4151 17.6551 57.3484 17.5026C57.1817 17.1143 57.1542 16.4901 57.2984 16.0418C57.3376 15.9276 57.5042 15.566 57.4376 15.456C57.4026 15.3518 57.2926 15.2926 57.2317 15.2085C57.1537 15.099 57.0867 14.982 57.0317 14.8593C56.8984 14.5535 56.8317 14.2143 56.6867 13.9085C56.6201 13.7668 56.5034 13.6185 56.4084 13.4885C56.3026 13.341 56.1859 13.2376 56.1017 13.0626C56.0742 13.0026 56.0351 12.9035 56.0792 12.8385C56.0909 12.7943 56.1142 12.7768 56.1576 12.7651C56.2309 12.706 56.4367 12.7835 56.5092 12.816C56.7151 12.8976 56.8884 12.9743 57.0609 13.0893C57.1392 13.1435 57.2234 13.2468 57.3234 13.2743H57.4401C57.6184 13.3126 57.8192 13.286 57.9859 13.3343C58.2817 13.4276 58.5484 13.5635 58.7876 13.711C59.5217 14.17 60.1211 14.8152 60.5251 15.581C60.5917 15.7068 60.6209 15.8226 60.6817 15.9535C60.7984 16.2235 60.9426 16.496 61.0609 16.7568C61.1776 17.0143 61.2901 17.2776 61.4576 17.491C61.5409 17.6051 61.8759 17.6651 62.0259 17.7251C62.1367 17.7743 62.3092 17.8193 62.4092 17.8793C62.6009 17.9935 62.7876 18.1251 62.9676 18.251C63.0592 18.3135 63.3367 18.4501 63.3534 18.5601C62.9076 18.5485 62.5617 18.5926 62.2726 18.7143C62.1892 18.7468 62.0559 18.7468 62.0442 18.851C62.0901 18.8943 62.0967 18.9651 62.1359 19.026C62.2026 19.1351 62.3176 19.2818 62.4242 19.3593C62.5409 19.4493 62.6576 19.536 62.7801 19.6126C62.9967 19.7435 63.2426 19.821 63.4551 19.9526C63.5759 20.0293 63.6992 20.1268 63.8217 20.2085C63.8826 20.2493 63.9217 20.3235 64.0001 20.3493V20.3335C63.9617 20.2843 63.9501 20.2135 63.9126 20.1585C63.8567 20.1035 63.8009 20.0543 63.7459 20.0001Z" fill="#105E86"/>
</g>
<defs>
<filter id="filter0_dd_180_1715" x="0" y="0" width="136" height="46" filterUnits="userSpaceOnUse" color-interpolation-filters="sRGB">
<feFlood flood-opacity="0" result="BackgroundImageFix"/>
<feColorMatrix in="SourceAlpha" type="matrix" values="0 0 0 0 0 0 0 0 0 0 0 0 0 0 0 0 0 0 127 0" result="hardAlpha"/>
<feOffset dy="4"/>
<feGaussianBlur stdDeviation="4"/>
<feColorMatrix type="matrix" values="0 0 0 0 0.196487 0 0 0 0 0.196487 0 0 0 0 0.279476 0 0 0 0.06 0"/>
<feBlend mode="multiply" in2="BackgroundImageFix" result="effect1_dropShadow_180_1715"/>
<feColorMatrix in="SourceAlpha" type="matrix" values="0 0 0 0 0 0 0 0 0 0 0 0 0 0 0 0 0 0 127 0" result="hardAlpha"/>
<feOffset dy="4"/>
<feGaussianBlur stdDeviation="2"/>
<feColorMatrix type="matrix" values="0 0 0 0 0.196487 0 0 0 0 0.196487 0 0 0 0 0.279476 0 0 0 0.08 0"/>
<feBlend mode="multiply" in2="effect1_dropShadow_180_1715" result="effect2_dropShadow_180_1715"/>
<feBlend mode="normal" in="SourceGraphic" in2="effect2_dropShadow_180_1715" result="shape"/>
</filter>
<clipPath id="clip0_180_1715">
<rect width="20" height="20" fill="white" transform="translate(44 9)"/>
</clipPath>
</defs>
</svg>
