<svg width="136" height="46" viewBox="0 0 136 46" fill="none" xmlns="http://www.w3.org/2000/svg">
<g filter="url(#filter0_dd_180_1727)">
<rect x="8" y="4" width="120" height="30" rx="8" fill="white"/>
</g>
<path d="M60.47 24L57.909 15.524H59.937L60.951 19.476C61.081 19.9353 61.1937 20.386 61.289 20.828C61.393 21.27 61.51 21.725 61.64 22.193H61.692C61.8133 21.725 61.926 21.27 62.03 20.828C62.134 20.386 62.2467 19.9353 62.368 19.476L63.369 15.524H65.319L62.771 24H60.47ZM68.6847 24.156C68.13 24.156 67.5753 24.052 67.0207 23.844C66.4747 23.636 65.985 23.3327 65.5517 22.934L66.6437 21.621C66.947 21.881 67.285 22.0933 67.6577 22.258C68.0303 22.4227 68.39 22.505 68.7367 22.505C69.1353 22.505 69.43 22.4313 69.6207 22.284C69.82 22.1367 69.9197 21.9373 69.9197 21.686C69.9197 21.4173 69.807 21.2223 69.5817 21.101C69.365 20.971 69.0703 20.828 68.6977 20.672L67.5927 20.204C67.3067 20.0827 67.0337 19.9223 66.7737 19.723C66.5137 19.515 66.3013 19.2593 66.1367 18.956C65.972 18.6527 65.8897 18.2973 65.8897 17.89C65.8897 17.422 66.0153 16.9973 66.2667 16.616C66.5267 16.2347 66.882 15.9313 67.3327 15.706C67.792 15.4807 68.3163 15.368 68.9057 15.368C69.391 15.368 69.8763 15.4633 70.3617 15.654C70.847 15.8447 71.2717 16.122 71.6357 16.486L70.6607 17.695C70.3833 17.4783 70.106 17.3137 69.8287 17.201C69.5513 17.0797 69.2437 17.019 68.9057 17.019C68.5763 17.019 68.312 17.0883 68.1127 17.227C67.922 17.357 67.8267 17.5433 67.8267 17.786C67.8267 18.046 67.948 18.241 68.1907 18.371C68.442 18.501 68.7497 18.6397 69.1137 18.787L70.2057 19.229C70.717 19.437 71.1243 19.723 71.4277 20.087C71.731 20.451 71.8827 20.932 71.8827 21.53C71.8827 21.998 71.757 22.4313 71.5057 22.83C71.2543 23.2287 70.8903 23.5493 70.4137 23.792C69.937 24.0347 69.3607 24.156 68.6847 24.156ZM76.8573 24.156C76.1466 24.156 75.4923 23.9913 74.8943 23.662C74.2963 23.3327 73.8153 22.8473 73.4513 22.206C73.096 21.556 72.9183 20.7587 72.9183 19.814C72.9183 18.878 73.1003 18.0807 73.4643 17.422C73.837 16.7547 74.3266 16.2477 74.9333 15.901C75.5486 15.5457 76.2116 15.368 76.9223 15.368C77.4683 15.368 77.958 15.4807 78.3913 15.706C78.8246 15.9227 79.1843 16.1783 79.4703 16.473L78.4563 17.695C78.2396 17.4957 78.01 17.3353 77.7673 17.214C77.5333 17.084 77.2646 17.019 76.9613 17.019C76.58 17.019 76.229 17.1273 75.9083 17.344C75.5963 17.5607 75.345 17.8727 75.1543 18.28C74.9723 18.6873 74.8813 19.177 74.8813 19.749C74.8813 20.6157 75.0676 21.2917 75.4403 21.777C75.813 22.2623 76.3113 22.505 76.9353 22.505C77.282 22.505 77.5896 22.427 77.8583 22.271C78.1356 22.115 78.3783 21.9287 78.5863 21.712L79.6003 22.908C78.8896 23.74 77.9753 24.156 76.8573 24.156ZM83.8503 24.156C83.0876 24.156 82.416 23.9783 81.8353 23.623C81.2633 23.2677 80.8126 22.7607 80.4833 22.102C80.1626 21.4347 80.0023 20.6417 80.0023 19.723C80.0023 18.7957 80.1626 18.0113 80.4833 17.37C80.8126 16.72 81.2633 16.226 81.8353 15.888C82.416 15.5413 83.0876 15.368 83.8503 15.368C84.613 15.368 85.2803 15.5413 85.8523 15.888C86.433 16.226 86.8836 16.72 87.2043 17.37C87.5336 18.02 87.6983 18.8043 87.6983 19.723C87.6983 20.6417 87.5336 21.4347 87.2043 22.102C86.8836 22.7607 86.433 23.2677 85.8523 23.623C85.2803 23.9783 84.613 24.156 83.8503 24.156ZM83.8503 22.505C84.431 22.505 84.8903 22.2537 85.2283 21.751C85.5663 21.2483 85.7353 20.5723 85.7353 19.723C85.7353 18.8737 85.5663 18.2107 85.2283 17.734C84.8903 17.2573 84.431 17.019 83.8503 17.019C83.2696 17.019 82.8103 17.2573 82.4723 17.734C82.1343 18.2107 81.9653 18.8737 81.9653 19.723C81.9653 20.5723 82.1343 21.2483 82.4723 21.751C82.8103 22.2537 83.2696 22.505 83.8503 22.505ZM89.292 24V15.524H91.684C92.5507 15.524 93.3003 15.6713 93.933 15.966C94.5657 16.2607 95.0553 16.72 95.402 17.344C95.7573 17.9593 95.935 18.7523 95.935 19.723C95.935 20.6937 95.7617 21.4953 95.415 22.128C95.0683 22.7607 94.583 23.233 93.959 23.545C93.3437 23.8483 92.62 24 91.788 24H89.292ZM91.203 22.453H91.567C92.0523 22.453 92.4727 22.3663 92.828 22.193C93.192 22.0197 93.4737 21.7337 93.673 21.335C93.8723 20.9363 93.972 20.399 93.972 19.723C93.972 19.047 93.8723 18.5183 93.673 18.137C93.4737 17.747 93.192 17.474 92.828 17.318C92.4727 17.1533 92.0523 17.071 91.567 17.071H91.203V22.453ZM97.544 24V15.524H102.848V17.136H99.455V18.839H102.341V20.438H99.455V22.388H102.978V24H97.544Z" fill="#303030"/>
<path d="M46.1125 12.0332L39.7042 18.1999L35.9542 15.2832L35.0583 15.7707V22.3332L35.8625 22.8665L39.7584 19.8332L46.1125 25.9665L48.9417 24.7915V13.2624L46.1125 12.0332ZM36.2875 20.7832V17.2082L38.0208 18.9999L36.2875 20.7832ZM45.575 21.5457L42 18.9999L45.575 16.4457V21.5457Z" fill="url(#paint0_linear_180_1727)"/>
<defs>
<filter id="filter0_dd_180_1727" x="0" y="0" width="136" height="46" filterUnits="userSpaceOnUse" color-interpolation-filters="sRGB">
<feFlood flood-opacity="0" result="BackgroundImageFix"/>
<feColorMatrix in="SourceAlpha" type="matrix" values="0 0 0 0 0 0 0 0 0 0 0 0 0 0 0 0 0 0 127 0" result="hardAlpha"/>
<feOffset dy="4"/>
<feGaussianBlur stdDeviation="4"/>
<feColorMatrix type="matrix" values="0 0 0 0 0.196487 0 0 0 0 0.196487 0 0 0 0 0.279476 0 0 0 0.06 0"/>
<feBlend mode="multiply" in2="BackgroundImageFix" result="effect1_dropShadow_180_1727"/>
<feColorMatrix in="SourceAlpha" type="matrix" values="0 0 0 0 0 0 0 0 0 0 0 0 0 0 0 0 0 0 127 0" result="hardAlpha"/>
<feOffset dy="4"/>
<feGaussianBlur stdDeviation="2"/>
<feColorMatrix type="matrix" values="0 0 0 0 0.196487 0 0 0 0 0.196487 0 0 0 0 0.279476 0 0 0 0.08 0"/>
<feBlend mode="multiply" in2="effect1_dropShadow_180_1727" result="effect2_dropShadow_180_1727"/>
<feBlend mode="normal" in="SourceGraphic" in2="effect2_dropShadow_180_1727" result="shape"/>
</filter>
<linearGradient id="paint0_linear_180_1727" x1="31.5" y1="17.5" x2="54" y2="19" gradientUnits="userSpaceOnUse">
<stop stop-color="#1371FF"/>
<stop offset="1" stop-color="#68A4FF"/>
</linearGradient>
</defs>
</svg>
