<svg width="136" height="46" viewBox="0 0 136 46" fill="none" xmlns="http://www.w3.org/2000/svg">
<g filter="url(#filter0_dd_180_1730)">
<rect x="8" y="4" width="120" height="30" rx="8" fill="white"/>
</g>
<path d="M58.143 24L60.496 19.645L58.286 15.524H60.418L61.159 17.123C61.2543 17.3137 61.3497 17.5217 61.445 17.747C61.549 17.9723 61.6573 18.2193 61.77 18.488H61.822C61.9173 18.2193 62.0083 17.9723 62.095 17.747C62.1903 17.5217 62.2813 17.3137 62.368 17.123L63.044 15.524H65.085L62.888 19.736L65.228 24H63.096L62.251 22.271C62.147 22.0457 62.043 21.8247 61.939 21.608C61.8437 21.3827 61.7353 21.14 61.614 20.88H61.562C61.4667 21.14 61.3713 21.3827 61.276 21.608C61.1807 21.8247 61.0853 22.0457 60.99 22.271L60.197 24H58.143ZM68.2898 19.71L68.0818 20.49H69.8888L69.6938 19.71C69.5811 19.2853 69.4641 18.8347 69.3428 18.358C69.2301 17.8813 69.1175 17.422 69.0048 16.98H68.9528C68.8488 17.4307 68.7405 17.8943 68.6278 18.371C68.5238 18.839 68.4111 19.2853 68.2898 19.71ZM65.2218 24L67.8738 15.524H70.1748L72.8268 24H70.7988L70.2788 21.985H67.6918L67.1718 24H65.2218ZM73.753 24V15.524H75.846L77.211 19.294C77.2976 19.5367 77.38 19.7923 77.458 20.061C77.536 20.3297 77.6183 20.594 77.705 20.854H77.757C77.8436 20.594 77.9216 20.3297 77.991 20.061C78.069 19.7923 78.1513 19.5367 78.238 19.294L79.577 15.524H81.657V24H79.915V20.893C79.915 20.6157 79.928 20.308 79.954 19.97C79.9886 19.6233 80.0233 19.2767 80.058 18.93C80.1013 18.5833 80.136 18.2757 80.162 18.007H80.11L79.421 20.022L78.212 23.259H77.159L75.95 20.022L75.274 18.007H75.222C75.2566 18.2757 75.2913 18.5833 75.326 18.93C75.3606 19.2767 75.391 19.6233 75.417 19.97C75.4516 20.308 75.469 20.6157 75.469 20.893V24H73.753ZM83.6553 24V15.524H86.5673C87.1913 15.524 87.7546 15.6107 88.2573 15.784C88.7686 15.9487 89.176 16.2303 89.4793 16.629C89.7826 17.0277 89.9343 17.5693 89.9343 18.254C89.9343 18.9127 89.7826 19.4543 89.4793 19.879C89.176 20.3037 88.773 20.62 88.2703 20.828C87.7676 21.0273 87.2173 21.127 86.6193 21.127H85.5663V24H83.6553ZM85.5663 19.606H86.5023C87.5423 19.606 88.0623 19.1553 88.0623 18.254C88.0623 17.812 87.9236 17.5 87.6463 17.318C87.369 17.136 86.9703 17.045 86.4503 17.045H85.5663V19.606ZM91.3994 24V15.524H94.3114C94.9354 15.524 95.4988 15.6107 96.0014 15.784C96.5128 15.9487 96.9201 16.2303 97.2234 16.629C97.5268 17.0277 97.6784 17.5693 97.6784 18.254C97.6784 18.9127 97.5268 19.4543 97.2234 19.879C96.9201 20.3037 96.5171 20.62 96.0144 20.828C95.5118 21.0273 94.9614 21.127 94.3634 21.127H93.3104V24H91.3994ZM93.3104 19.606H94.2464C95.2864 19.606 95.8064 19.1553 95.8064 18.254C95.8064 17.812 95.6678 17.5 95.3904 17.318C95.1131 17.136 94.7144 17.045 94.1944 17.045H93.3104V19.606Z" fill="#303030"/>
<path fill-rule="evenodd" clip-rule="evenodd" d="M38.8193 12H50.1807C51.1886 12 52 12.5951 52 13.3343V25.5849C52 26.3241 51.1885 26.9192 50.1807 26.9192H38.8193C37.8114 26.9192 37 26.3241 37 25.5849V13.3343C37 12.5951 37.8115 12 38.8193 12Z" fill="#BB4803"/>
<g filter="url(#filter1_f_180_1730)">
<path fill-rule="evenodd" clip-rule="evenodd" d="M39.3434 12.7007H49.597C50.5067 12.7007 51.239 13.2377 51.239 13.9048V24.9608C51.239 25.6279 50.5066 26.1649 49.597 26.1649H39.3434C38.4337 26.1649 37.7014 25.6279 37.7014 24.9608V13.9048C37.7014 13.2377 38.4338 12.7007 39.3434 12.7007Z" fill="url(#paint0_radial_180_1730)"/>
</g>
<g opacity="0.449" filter="url(#filter2_f_180_1730)">
<path fill-rule="evenodd" clip-rule="evenodd" d="M38.458 12.8793C38.458 12.8793 50.0082 12.765 50.2652 12.8507C50.5225 12.9365 49.6934 13.9085 48.7214 13.9943C47.7496 14.0801 40.4307 13.9657 40.4307 13.9657L38.4581 12.8793L38.458 12.8793Z" fill="white"/>
</g>
<path fill-rule="evenodd" clip-rule="evenodd" d="M44.7259 17.75C44.7259 19.2796 43.4131 20.5195 41.7935 20.5195C40.174 20.5195 38.8611 19.2796 38.8611 17.75C38.8611 16.2204 40.174 14.9805 41.7935 14.9805C43.4131 14.9805 44.7259 16.2204 44.7259 17.75Z" fill="white"/>
<path fill-rule="evenodd" clip-rule="evenodd" d="M44.7475 21.3683C44.7475 23.0765 43.4179 24.4612 41.7776 24.4612C40.1373 24.4612 38.8076 23.0765 38.8076 21.3683C38.8076 19.6602 40.1373 18.2754 41.7776 18.2754C43.4179 18.2754 44.7475 19.6602 44.7475 21.3683Z" fill="white"/>
<path fill-rule="evenodd" clip-rule="evenodd" d="M50.3268 17.9117C50.3268 19.5864 48.9958 20.944 47.354 20.944C45.7121 20.944 44.3811 19.5864 44.3811 17.9117C44.3811 16.237 45.7121 14.8794 47.354 14.8794C48.9958 14.8794 50.3268 16.237 50.3268 17.9117Z" fill="white"/>
<path fill-rule="evenodd" clip-rule="evenodd" d="M50.1628 21.4899C50.1628 23.1981 48.8692 24.5828 47.2736 24.5828C45.678 24.5828 44.3845 23.1981 44.3845 21.4899C44.3845 19.7817 45.678 18.397 47.2736 18.397C48.8692 18.397 50.1628 19.7817 50.1628 21.4899Z" fill="white"/>
<path opacity="0.99" d="M41.5701 17.9424H47.6595V21.5446H41.5701V17.9424Z" fill="white"/>
<path d="M47.3954 16.8648C47.157 16.8688 46.9299 16.9671 46.7639 17.1383C46.5979 17.3095 46.5065 17.5394 46.5099 17.7779C46.5099 18.4802 46.4088 18.628 46.3348 18.6884C46.2607 18.7489 45.8654 18.8885 44.9939 18.8885C44.0884 18.8885 43.2442 18.7896 42.3799 19.1287C41.9477 19.2982 41.517 19.6374 41.2642 20.0993C41.0114 20.5611 40.919 21.0929 40.919 21.7078C40.9174 21.827 40.9396 21.9454 40.9841 22.0561C41.0286 22.1667 41.0947 22.2674 41.1785 22.3523C41.2623 22.4373 41.3621 22.5047 41.4721 22.5507C41.5822 22.5967 41.7003 22.6204 41.8196 22.6204C41.9389 22.6204 42.0569 22.5967 42.167 22.5507C42.277 22.5047 42.3769 22.4373 42.4606 22.3523C42.5444 22.2674 42.6105 22.1667 42.655 22.0561C42.6996 21.9454 42.7217 21.827 42.7201 21.7078C42.7201 21.2819 42.7916 21.0557 42.8427 20.9623C42.8938 20.8689 42.9094 20.8576 43.0378 20.8072C43.2946 20.7064 44.0365 20.6896 44.994 20.6896C45.995 20.6896 46.8073 20.6276 47.4731 20.0843C48.1388 19.5409 48.3111 18.6832 48.3111 17.7779C48.3128 17.6573 48.2902 17.5376 48.2448 17.4259C48.1993 17.3142 48.1319 17.2128 48.0465 17.1276C47.9611 17.0425 47.8595 16.9754 47.7477 16.9302C47.6358 16.8851 47.5161 16.8629 47.3955 16.8649L47.3954 16.8648Z" fill="#FB7922"/>
<path d="M47.3978 19.6144C47.1594 19.6184 46.9323 19.7167 46.7663 19.8879C46.6003 20.059 46.509 20.289 46.5123 20.5274V21.5856C46.5107 21.7049 46.5328 21.8233 46.5774 21.9339C46.6219 22.0446 46.688 22.1453 46.7718 22.2302C46.8556 22.3151 46.9554 22.3825 47.0654 22.4285C47.1755 22.4745 47.2936 22.4982 47.4128 22.4982C47.5321 22.4982 47.6502 22.4745 47.7603 22.4285C47.8703 22.3825 47.9701 22.3151 48.0539 22.2302C48.1377 22.1453 48.2038 22.0446 48.2483 21.9339C48.2929 21.8233 48.315 21.7049 48.3134 21.5856V20.5274C48.3151 20.4068 48.2925 20.2871 48.2471 20.1754C48.2016 20.0637 48.1342 19.9623 48.0488 19.8772C47.9634 19.792 47.8618 19.7249 47.75 19.6797C47.6381 19.6346 47.5184 19.6124 47.3978 19.6144Z" fill="#FB7922"/>
<path opacity="0.99" d="M43.0655 17.822C43.0655 18.0939 43.0636 18.856 43.0636 18.856C43.0636 18.856 42.3032 18.8583 41.992 18.8583C41.3991 18.8583 40.9185 18.3944 40.9185 17.822C40.9185 17.2497 41.3991 16.7856 41.992 16.7856C42.5849 16.7856 43.0655 17.2496 43.0655 17.822Z" fill="#FB7922"/>
<defs>
<filter id="filter0_dd_180_1730" x="0" y="0" width="136" height="46" filterUnits="userSpaceOnUse" color-interpolation-filters="sRGB">
<feFlood flood-opacity="0" result="BackgroundImageFix"/>
<feColorMatrix in="SourceAlpha" type="matrix" values="0 0 0 0 0 0 0 0 0 0 0 0 0 0 0 0 0 0 127 0" result="hardAlpha"/>
<feOffset dy="4"/>
<feGaussianBlur stdDeviation="4"/>
<feColorMatrix type="matrix" values="0 0 0 0 0.196487 0 0 0 0 0.196487 0 0 0 0 0.279476 0 0 0 0.06 0"/>
<feBlend mode="multiply" in2="BackgroundImageFix" result="effect1_dropShadow_180_1730"/>
<feColorMatrix in="SourceAlpha" type="matrix" values="0 0 0 0 0 0 0 0 0 0 0 0 0 0 0 0 0 0 127 0" result="hardAlpha"/>
<feOffset dy="4"/>
<feGaussianBlur stdDeviation="2"/>
<feColorMatrix type="matrix" values="0 0 0 0 0.196487 0 0 0 0 0.196487 0 0 0 0 0.279476 0 0 0 0.08 0"/>
<feBlend mode="multiply" in2="effect1_dropShadow_180_1730" result="effect2_dropShadow_180_1730"/>
<feBlend mode="normal" in="SourceGraphic" in2="effect2_dropShadow_180_1730" result="shape"/>
</filter>
<filter id="filter1_f_180_1730" x="35.7976" y="10.7969" width="17.3452" height="17.272" filterUnits="userSpaceOnUse" color-interpolation-filters="sRGB">
<feFlood flood-opacity="0" result="BackgroundImageFix"/>
<feBlend mode="normal" in="SourceGraphic" in2="BackgroundImageFix" result="shape"/>
<feGaussianBlur stdDeviation="0.951904" result="effect1_foregroundBlur_180_1730"/>
</filter>
<filter id="filter2_f_180_1730" x="37.5371" y="11.8979" width="13.6964" height="3.04942" filterUnits="userSpaceOnUse" color-interpolation-filters="sRGB">
<feFlood flood-opacity="0" result="BackgroundImageFix"/>
<feBlend mode="normal" in="SourceGraphic" in2="BackgroundImageFix" result="shape"/>
<feGaussianBlur stdDeviation="0.460475" result="effect1_foregroundBlur_180_1730"/>
</filter>
<radialGradient id="paint0_radial_180_1730" cx="0" cy="0" r="1" gradientUnits="userSpaceOnUse" gradientTransform="translate(44.6148 19.7431) scale(17.6296 17.5211)">
<stop stop-color="#F5660F"/>
<stop offset="0.5" stop-color="#F66E18" stop-opacity="0.610687"/>
<stop offset="1" stop-color="#F77721" stop-opacity="0"/>
</radialGradient>
</defs>
</svg>
