<svg width="28" height="40" viewBox="0 0 28 40" fill="none" xmlns="http://www.w3.org/2000/svg">
<path d="M4.026 34.063L3.685 32.963C3.56033 32.5597 3.43933 32.16 3.322 31.764C3.20467 31.3607 3.08733 30.95 2.97 30.532H2.926C2.80867 30.95 2.69133 31.3607 2.574 31.764C2.45667 32.16 2.33567 32.5597 2.211 32.963L1.859 34.063H4.026ZM4.257 34.8H1.628L0.935 37H0L2.442 29.784H3.476L5.918 37H4.95L4.257 34.8ZM6.82095 29.168H7.72295V31.302L7.70095 32.27C7.94295 32.0573 8.20695 31.8813 8.49295 31.742C8.77895 31.5953 9.07228 31.522 9.37295 31.522C9.71761 31.522 10.0219 31.588 10.2859 31.72C10.5499 31.8447 10.7699 32.028 10.9459 32.27C11.1293 32.5047 11.2649 32.7907 11.3529 33.128C11.4483 33.458 11.4959 33.8283 11.4959 34.239C11.4959 34.6937 11.4336 35.1007 11.3089 35.46C11.1843 35.8193 11.0156 36.1237 10.8029 36.373C10.5903 36.6223 10.3446 36.813 10.0659 36.945C9.78728 37.0697 9.49395 37.132 9.18595 37.132C8.93661 37.132 8.67628 37.077 8.40495 36.967C8.14095 36.8497 7.89161 36.6847 7.65695 36.472H7.62395L7.54695 37H6.82095V29.168ZM7.72295 35.812C7.95761 36.0173 8.18861 36.164 8.41595 36.252C8.65061 36.3327 8.85595 36.373 9.03195 36.373C9.25195 36.373 9.45361 36.3253 9.63695 36.23C9.82761 36.1273 9.98895 35.988 10.1209 35.812C10.2603 35.6287 10.3666 35.405 10.4399 35.141C10.5206 34.877 10.5609 34.58 10.5609 34.25C10.5609 33.9567 10.5353 33.689 10.4839 33.447C10.4326 33.205 10.3483 32.9997 10.2309 32.831C10.1209 32.655 9.97428 32.5193 9.79095 32.424C9.61495 32.3287 9.40228 32.281 9.15295 32.281C8.72028 32.281 8.24361 32.523 7.72295 33.007V35.812ZM12.5265 34.338C12.5265 33.8907 12.5925 33.4947 12.7245 33.15C12.8638 32.798 13.0472 32.501 13.2745 32.259C13.5018 32.017 13.7622 31.8337 14.0555 31.709C14.3562 31.5843 14.6715 31.522 15.0015 31.522C15.3315 31.522 15.6432 31.5843 15.9365 31.709C16.2372 31.8337 16.5012 32.017 16.7285 32.259C16.9558 32.501 17.1355 32.798 17.2675 33.15C17.4068 33.4947 17.4765 33.8907 17.4765 34.338C17.4765 34.778 17.4068 35.174 17.2675 35.526C17.1355 35.8707 16.9558 36.164 16.7285 36.406C16.5012 36.6407 16.2372 36.8203 15.9365 36.945C15.6432 37.0697 15.3315 37.132 15.0015 37.132C14.6715 37.132 14.3562 37.0697 14.0555 36.945C13.7622 36.8203 13.5018 36.6407 13.2745 36.406C13.0472 36.164 12.8638 35.8707 12.7245 35.526C12.5925 35.174 12.5265 34.778 12.5265 34.338ZM13.4615 34.338C13.4615 34.646 13.4982 34.9247 13.5715 35.174C13.6448 35.4233 13.7475 35.6397 13.8795 35.823C14.0188 35.999 14.1838 36.1383 14.3745 36.241C14.5652 36.3363 14.7742 36.384 15.0015 36.384C15.2288 36.384 15.4378 36.3363 15.6285 36.241C15.8192 36.1383 15.9805 35.999 16.1125 35.823C16.2518 35.6397 16.3582 35.4233 16.4315 35.174C16.5048 34.9247 16.5415 34.646 16.5415 34.338C16.5415 34.03 16.5048 33.7513 16.4315 33.502C16.3582 33.2453 16.2518 33.0253 16.1125 32.842C15.9805 32.6587 15.8192 32.5193 15.6285 32.424C15.4378 32.3213 15.2288 32.27 15.0015 32.27C14.7742 32.27 14.5652 32.3213 14.3745 32.424C14.1838 32.5193 14.0188 32.6587 13.8795 32.842C13.7475 33.0253 13.6448 33.2453 13.5715 33.502C13.4982 33.7513 13.4615 34.03 13.4615 34.338ZM18.8074 31.654H19.7204V34.921C19.7204 35.427 19.7974 35.7937 19.9514 36.021C20.1128 36.241 20.3694 36.351 20.7214 36.351C21.0001 36.351 21.2458 36.2813 21.4584 36.142C21.6711 35.9953 21.9058 35.7643 22.1624 35.449V31.654H23.0644V37H22.3164L22.2394 36.164H22.2064C21.9571 36.4573 21.6931 36.692 21.4144 36.868C21.1431 37.044 20.8204 37.132 20.4464 37.132C19.8744 37.132 19.4564 36.956 19.1924 36.604C18.9358 36.252 18.8074 35.7313 18.8074 35.042V31.654ZM25.0218 32.391H24.2298V31.709L25.0658 31.654L25.1758 30.158H25.9348V31.654H27.3758V32.391H25.9348V35.361C25.9348 35.691 25.9935 35.9477 26.1108 36.131C26.2355 36.307 26.4518 36.395 26.7598 36.395C26.8552 36.395 26.9578 36.3803 27.0678 36.351C27.1778 36.3217 27.2768 36.2887 27.3648 36.252L27.5408 36.934C27.3942 36.9853 27.2328 37.0293 27.0568 37.066C26.8882 37.11 26.7195 37.132 26.5508 37.132C26.2648 37.132 26.0228 37.088 25.8248 37C25.6342 36.912 25.4765 36.791 25.3518 36.637C25.2345 36.483 25.1502 36.296 25.0988 36.076C25.0475 35.856 25.0218 35.614 25.0218 35.35V32.391Z" fill="black"/>
<path d="M17.7126 8.675C17.7126 10.7 16.0626 12.35 14.0001 12.35C11.9376 12.35 10.2876 10.7 10.2876 8.675C10.2876 6.65 11.9376 5 14.0001 5C16.0626 5 17.7126 6.65 17.7126 8.675Z" stroke="#999999" stroke-miterlimit="10" stroke-linecap="round" stroke-linejoin="round"/>
<path d="M14 14.1125C9.0125 14.1125 5 18.0875 5 23H23C23 18.0875 18.9875 14.1125 14 14.1125Z" stroke="#999999" stroke-miterlimit="10" stroke-linecap="round" stroke-linejoin="round"/>
</svg>
