<svg width="37" height="38" viewBox="0 0 37 38" fill="none" xmlns="http://www.w3.org/2000/svg">
<path d="M0.539 31.392C0.539 30.8127 0.619667 30.292 0.781 29.83C0.942333 29.368 1.166 28.9757 1.452 28.653C1.74533 28.3303 2.08633 28.0847 2.475 27.916C2.871 27.74 3.3 27.652 3.762 27.652C4.19467 27.652 4.576 27.7437 4.906 27.927C5.24333 28.103 5.51833 28.3083 5.731 28.543L5.214 29.126C5.02333 28.9207 4.81067 28.7593 4.576 28.642C4.34133 28.5173 4.07367 28.455 3.773 28.455C3.42833 28.455 3.113 28.5247 2.827 28.664C2.54833 28.796 2.31 28.9903 2.112 29.247C1.914 29.4963 1.76 29.8007 1.65 30.16C1.54 30.5193 1.485 30.9227 1.485 31.37C1.485 31.8247 1.53633 32.2353 1.639 32.602C1.749 32.9613 1.89933 33.2693 2.09 33.526C2.288 33.7827 2.52267 33.9807 2.794 34.12C3.07267 34.2593 3.38433 34.329 3.729 34.329C4.07367 34.329 4.37433 34.2593 4.631 34.12C4.895 33.9807 5.14433 33.7827 5.379 33.526L5.896 34.087C5.61733 34.417 5.29833 34.6737 4.939 34.857C4.57967 35.0403 4.169 35.132 3.707 35.132C3.25233 35.132 2.83067 35.0477 2.442 34.879C2.06067 34.7103 1.727 34.4683 1.441 34.153C1.16233 33.8303 0.942333 33.438 0.781 32.976C0.619667 32.5067 0.539 31.9787 0.539 31.392ZM6.73647 32.338C6.73647 31.8907 6.80247 31.4947 6.93447 31.15C7.0738 30.798 7.25714 30.501 7.48447 30.259C7.7118 30.017 7.97214 29.8337 8.26547 29.709C8.56614 29.5843 8.88147 29.522 9.21147 29.522C9.54147 29.522 9.85314 29.5843 10.1465 29.709C10.4471 29.8337 10.7111 30.017 10.9385 30.259C11.1658 30.501 11.3455 30.798 11.4775 31.15C11.6168 31.4947 11.6865 31.8907 11.6865 32.338C11.6865 32.778 11.6168 33.174 11.4775 33.526C11.3455 33.8707 11.1658 34.164 10.9385 34.406C10.7111 34.6407 10.4471 34.8203 10.1465 34.945C9.85314 35.0697 9.54147 35.132 9.21147 35.132C8.88147 35.132 8.56614 35.0697 8.26547 34.945C7.97214 34.8203 7.7118 34.6407 7.48447 34.406C7.25714 34.164 7.0738 33.8707 6.93447 33.526C6.80247 33.174 6.73647 32.778 6.73647 32.338ZM7.67147 32.338C7.67147 32.646 7.70814 32.9247 7.78147 33.174C7.8548 33.4233 7.95747 33.6397 8.08947 33.823C8.2288 33.999 8.3938 34.1383 8.58447 34.241C8.77514 34.3363 8.98414 34.384 9.21147 34.384C9.4388 34.384 9.6478 34.3363 9.83847 34.241C10.0291 34.1383 10.1905 33.999 10.3225 33.823C10.4618 33.6397 10.5681 33.4233 10.6415 33.174C10.7148 32.9247 10.7515 32.646 10.7515 32.338C10.7515 32.03 10.7148 31.7513 10.6415 31.502C10.5681 31.2453 10.4618 31.0253 10.3225 30.842C10.1905 30.6587 10.0291 30.5193 9.83847 30.424C9.6478 30.3213 9.4388 30.27 9.21147 30.27C8.98414 30.27 8.77514 30.3213 8.58447 30.424C8.3938 30.5193 8.2288 30.6587 8.08947 30.842C7.95747 31.0253 7.8548 31.2453 7.78147 31.502C7.70814 31.7513 7.67147 32.03 7.67147 32.338ZM13.0944 29.654H13.8424L13.9194 30.424H13.9524C14.209 30.1673 14.4767 29.9547 14.7554 29.786C15.0414 29.61 15.3714 29.522 15.7454 29.522C16.31 29.522 16.7207 29.698 16.9774 30.05C17.2414 30.402 17.3734 30.9227 17.3734 31.612V35H16.4714V31.733C16.4714 31.227 16.3907 30.864 16.2294 30.644C16.068 30.4167 15.8114 30.303 15.4594 30.303C15.1807 30.303 14.935 30.3727 14.7224 30.512C14.5097 30.6513 14.2677 30.8567 13.9964 31.128V35H13.0944V29.654ZM19.264 30.391H18.472V29.709L19.308 29.654L19.418 28.158H20.177V29.654H21.618V30.391H20.177V33.361C20.177 33.691 20.2357 33.9477 20.353 34.131C20.4777 34.307 20.694 34.395 21.002 34.395C21.0973 34.395 21.2 34.3803 21.31 34.351C21.42 34.3217 21.519 34.2887 21.607 34.252L21.783 34.934C21.6363 34.9853 21.475 35.0293 21.299 35.066C21.1303 35.11 20.9617 35.132 20.793 35.132C20.507 35.132 20.265 35.088 20.067 35C19.8763 34.912 19.7187 34.791 19.594 34.637C19.4767 34.483 19.3923 34.296 19.341 34.076C19.2897 33.856 19.264 33.614 19.264 33.35V30.391ZM22.3694 33.614C22.3694 33.0273 22.6298 32.58 23.1504 32.272C23.6784 31.9567 24.5144 31.7367 25.6584 31.612C25.6584 31.4433 25.6401 31.2783 25.6034 31.117C25.5741 30.9557 25.5154 30.8127 25.4274 30.688C25.3468 30.5633 25.2368 30.4643 25.0974 30.391C24.9581 30.3103 24.7784 30.27 24.5584 30.27C24.2431 30.27 23.9498 30.3287 23.6784 30.446C23.4144 30.5633 23.1761 30.6953 22.9634 30.842L22.6004 30.215C22.8498 30.0537 23.1541 29.8997 23.5134 29.753C23.8728 29.599 24.2688 29.522 24.7014 29.522C25.3541 29.522 25.8271 29.7237 26.1204 30.127C26.4138 30.523 26.5604 31.0547 26.5604 31.722V35H25.8124L25.7354 34.362H25.7134C25.4568 34.5747 25.1781 34.758 24.8774 34.912C24.5841 35.0587 24.2724 35.132 23.9424 35.132C23.4878 35.132 23.1101 35 22.8094 34.736C22.5161 34.472 22.3694 34.098 22.3694 33.614ZM23.2604 33.548C23.2604 33.856 23.3484 34.076 23.5244 34.208C23.7078 34.34 23.9314 34.406 24.1954 34.406C24.4521 34.406 24.6941 34.3473 24.9214 34.23C25.1561 34.1053 25.4018 33.9257 25.6584 33.691V32.206C25.2111 32.2647 24.8334 32.3343 24.5254 32.415C24.2174 32.4957 23.9681 32.591 23.7774 32.701C23.5941 32.811 23.4621 32.9393 23.3814 33.086C23.3008 33.2253 23.2604 33.3793 23.2604 33.548ZM27.8664 32.338C27.8664 31.8907 27.936 31.4947 28.0754 31.15C28.2147 30.798 28.4017 30.501 28.6364 30.259C28.871 30.017 29.1424 29.8337 29.4504 29.709C29.7657 29.5843 30.0957 29.522 30.4404 29.522C30.7924 29.522 31.093 29.588 31.3424 29.72C31.599 29.8447 31.819 29.9913 32.0024 30.16L31.5514 30.743C31.39 30.6037 31.2214 30.49 31.0454 30.402C30.8767 30.314 30.686 30.27 30.4734 30.27C30.2314 30.27 30.0077 30.3213 29.8024 30.424C29.597 30.5193 29.421 30.6587 29.2744 30.842C29.1277 31.0253 29.0104 31.2453 28.9224 31.502C28.8417 31.7513 28.8014 32.03 28.8014 32.338C28.8014 32.646 28.8417 32.9247 28.9224 33.174C29.003 33.4233 29.113 33.6397 29.2524 33.823C29.399 33.999 29.575 34.1383 29.7804 34.241C29.9857 34.3363 30.2094 34.384 30.4514 34.384C30.708 34.384 30.939 34.3327 31.1444 34.23C31.357 34.12 31.544 33.9917 31.7054 33.845L32.1124 34.439C31.8704 34.6517 31.599 34.8203 31.2984 34.945C31.005 35.0697 30.697 35.132 30.3744 35.132C30.0224 35.132 29.6924 35.0697 29.3844 34.945C29.0764 34.8203 28.8087 34.6407 28.5814 34.406C28.3614 34.164 28.1854 33.8707 28.0534 33.526C27.9287 33.174 27.8664 32.778 27.8664 32.338ZM33.433 30.391H32.641V29.709L33.477 29.654L33.587 28.158H34.346V29.654H35.787V30.391H34.346V33.361C34.346 33.691 34.4046 33.9477 34.522 34.131C34.6466 34.307 34.863 34.395 35.171 34.395C35.2663 34.395 35.369 34.3803 35.479 34.351C35.589 34.3217 35.688 34.2887 35.776 34.252L35.952 34.934C35.8053 34.9853 35.644 35.0293 35.468 35.066C35.2993 35.11 35.1306 35.132 34.962 35.132C34.676 35.132 34.434 35.088 34.236 35C34.0453 34.912 33.8876 34.791 33.763 34.637C33.6456 34.483 33.5613 34.296 33.51 34.076C33.4586 33.856 33.433 33.614 33.433 33.35V30.391Z" fill="black"/>
<path d="M28 8C28 6.9 27.1 6 26 6H10C8.9 6 8 6.9 8 8M28 8V20C28 21.1 27.1 22 26 22H10C8.9 22 8 21.1 8 20V8M28 8L18 15L8 8" stroke="#999999" stroke-linecap="round" stroke-linejoin="round"/>
</svg>
