<svg width="28" height="38" viewBox="0 0 28 38" fill="none" xmlns="http://www.w3.org/2000/svg">
<path d="M11 21V11H17V21M5 8L14 1L23 8V19C23 19.5304 22.7893 20.0391 22.4142 20.4142C22.0391 20.7893 21.5304 21 21 21H7C6.46957 21 5.96086 20.7893 5.58579 20.4142C5.21071 20.0391 5 19.5304 5 19V8Z" stroke="#999999" stroke-linecap="round" stroke-linejoin="round"/>
<path d="M0.957 27.784H1.881V30.809H5.236V27.784H6.149V35H5.236V31.601H1.881V35H0.957V27.784ZM7.62807 32.338C7.62807 31.8907 7.69407 31.4947 7.82607 31.15C7.9654 30.798 8.14874 30.501 8.37607 30.259C8.6034 30.017 8.86374 29.8337 9.15707 29.709C9.45774 29.5843 9.77307 29.522 10.1031 29.522C10.4331 29.522 10.7447 29.5843 11.0381 29.709C11.3387 29.8337 11.6027 30.017 11.8301 30.259C12.0574 30.501 12.2371 30.798 12.3691 31.15C12.5084 31.4947 12.5781 31.8907 12.5781 32.338C12.5781 32.778 12.5084 33.174 12.3691 33.526C12.2371 33.8707 12.0574 34.164 11.8301 34.406C11.6027 34.6407 11.3387 34.8203 11.0381 34.945C10.7447 35.0697 10.4331 35.132 10.1031 35.132C9.77307 35.132 9.45774 35.0697 9.15707 34.945C8.86374 34.8203 8.6034 34.6407 8.37607 34.406C8.14874 34.164 7.9654 33.8707 7.82607 33.526C7.69407 33.174 7.62807 32.778 7.62807 32.338ZM8.56307 32.338C8.56307 32.646 8.59974 32.9247 8.67307 33.174C8.7464 33.4233 8.84907 33.6397 8.98107 33.823C9.1204 33.999 9.2854 34.1383 9.47607 34.241C9.66674 34.3363 9.87574 34.384 10.1031 34.384C10.3304 34.384 10.5394 34.3363 10.7301 34.241C10.9207 34.1383 11.0821 33.999 11.2141 33.823C11.3534 33.6397 11.4597 33.4233 11.5331 33.174C11.6064 32.9247 11.6431 32.646 11.6431 32.338C11.6431 32.03 11.6064 31.7513 11.5331 31.502C11.4597 31.2453 11.3534 31.0253 11.2141 30.842C11.0821 30.6587 10.9207 30.5193 10.7301 30.424C10.5394 30.3213 10.3304 30.27 10.1031 30.27C9.87574 30.27 9.66674 30.3213 9.47607 30.424C9.2854 30.5193 9.1204 30.6587 8.98107 30.842C8.84907 31.0253 8.7464 31.2453 8.67307 31.502C8.59974 31.7513 8.56307 32.03 8.56307 32.338ZM13.986 29.654H14.734L14.811 30.424H14.844C15.0787 30.1673 15.3317 29.9547 15.603 29.786C15.8817 29.61 16.1823 29.522 16.505 29.522C16.9157 29.522 17.2347 29.6137 17.462 29.797C17.6967 29.973 17.869 30.2223 17.979 30.545C18.2577 30.237 18.5363 29.9913 18.815 29.808C19.101 29.6173 19.409 29.522 19.739 29.522C20.289 29.522 20.696 29.698 20.96 30.05C21.2313 30.402 21.367 30.9227 21.367 31.612V35H20.465V31.733C20.465 31.227 20.3843 30.864 20.223 30.644C20.0617 30.4167 19.8123 30.303 19.475 30.303C19.0717 30.303 18.6243 30.578 18.133 31.128V35H17.231V31.733C17.231 31.227 17.1503 30.864 16.989 30.644C16.8277 30.4167 16.5747 30.303 16.23 30.303C15.8267 30.303 15.3793 30.578 14.888 31.128V35H13.986V29.654ZM22.7101 32.338C22.7101 31.898 22.7761 31.5057 22.9081 31.161C23.0474 30.809 23.2271 30.512 23.4471 30.27C23.6744 30.028 23.9311 29.8447 24.2171 29.72C24.5031 29.588 24.8001 29.522 25.1081 29.522C25.4454 29.522 25.7461 29.5807 26.0101 29.698C26.2814 29.8153 26.5051 29.984 26.6811 30.204C26.8644 30.424 27.0038 30.688 27.0991 30.996C27.1944 31.304 27.2421 31.6487 27.2421 32.03C27.2421 32.228 27.2311 32.393 27.2091 32.525H23.6011C23.6378 33.1043 23.8138 33.5627 24.1291 33.9C24.4518 34.2373 24.8698 34.406 25.3831 34.406C25.6398 34.406 25.8744 34.3693 26.0871 34.296C26.3071 34.2153 26.5161 34.1127 26.7141 33.988L27.0331 34.582C26.7984 34.7287 26.5381 34.857 26.2521 34.967C25.9661 35.077 25.6398 35.132 25.2731 35.132C24.9138 35.132 24.5764 35.0697 24.2611 34.945C23.9531 34.813 23.6818 34.6297 23.4471 34.395C23.2198 34.153 23.0401 33.8597 22.9081 33.515C22.7761 33.1703 22.7101 32.778 22.7101 32.338ZM26.4501 31.931C26.4501 31.381 26.3328 30.963 26.0981 30.677C25.8708 30.3837 25.5481 30.237 25.1301 30.237C24.9394 30.237 24.7561 30.2773 24.5801 30.358C24.4114 30.4313 24.2574 30.5413 24.1181 30.688C23.9788 30.8273 23.8614 31.0033 23.7661 31.216C23.6781 31.4213 23.6194 31.6597 23.5901 31.931H26.4501Z" fill="black"/>
</svg>
