<svg width="38" height="38" viewBox="0 0 38 38" fill="none" xmlns="http://www.w3.org/2000/svg">
<path d="M0.957 27.784H3.179C3.575 27.784 3.938 27.8207 4.268 27.894C4.598 27.9673 4.87667 28.0883 5.104 28.257C5.33867 28.4183 5.51833 28.6347 5.643 28.906C5.775 29.1773 5.841 29.511 5.841 29.907C5.841 30.2883 5.775 30.6183 5.643 30.897C5.51833 31.1757 5.33867 31.4067 5.104 31.59C4.86933 31.7733 4.587 31.9127 4.257 32.008C3.93433 32.096 3.575 32.14 3.179 32.14H1.881V35H0.957V27.784ZM3.058 31.392C3.696 31.392 4.16533 31.2747 4.466 31.04C4.774 30.798 4.928 30.4203 4.928 29.907C4.928 29.3863 4.77033 29.027 4.455 28.829C4.147 28.6237 3.68133 28.521 3.058 28.521H1.881V31.392H3.058ZM7.18618 29.654H7.93418L8.01118 30.622H8.04418C8.22751 30.2847 8.44751 30.017 8.70418 29.819C8.96818 29.621 9.25418 29.522 9.56218 29.522C9.77485 29.522 9.96551 29.5587 10.1342 29.632L9.95818 30.424C9.87018 30.3947 9.78951 30.3727 9.71618 30.358C9.64285 30.3433 9.55118 30.336 9.44118 30.336C9.21385 30.336 8.97551 30.4277 8.72618 30.611C8.48418 30.7943 8.27151 31.1133 8.08818 31.568V35H7.18618V29.654ZM10.4962 32.338C10.4962 31.8907 10.5622 31.4947 10.6942 31.15C10.8336 30.798 11.0169 30.501 11.2442 30.259C11.4716 30.017 11.7319 29.8337 12.0252 29.709C12.3259 29.5843 12.6412 29.522 12.9712 29.522C13.3012 29.522 13.6129 29.5843 13.9062 29.709C14.2069 29.8337 14.4709 30.017 14.6982 30.259C14.9256 30.501 15.1052 30.798 15.2372 31.15C15.3766 31.4947 15.4462 31.8907 15.4462 32.338C15.4462 32.778 15.3766 33.174 15.2372 33.526C15.1052 33.8707 14.9256 34.164 14.6982 34.406C14.4709 34.6407 14.2069 34.8203 13.9062 34.945C13.6129 35.0697 13.3012 35.132 12.9712 35.132C12.6412 35.132 12.3259 35.0697 12.0252 34.945C11.7319 34.8203 11.4716 34.6407 11.2442 34.406C11.0169 34.164 10.8336 33.8707 10.6942 33.526C10.5622 33.174 10.4962 32.778 10.4962 32.338ZM11.4312 32.338C11.4312 32.646 11.4679 32.9247 11.5412 33.174C11.6146 33.4233 11.7172 33.6397 11.8492 33.823C11.9886 33.999 12.1536 34.1383 12.3442 34.241C12.5349 34.3363 12.7439 34.384 12.9712 34.384C13.1986 34.384 13.4076 34.3363 13.5982 34.241C13.7889 34.1383 13.9502 33.999 14.0822 33.823C14.2216 33.6397 14.3279 33.4233 14.4012 33.174C14.4746 32.9247 14.5112 32.646 14.5112 32.338C14.5112 32.03 14.4746 31.7513 14.4012 31.502C14.3279 31.2453 14.2216 31.0253 14.0822 30.842C13.9502 30.6587 13.7889 30.5193 13.5982 30.424C13.4076 30.3213 13.1986 30.27 12.9712 30.27C12.7439 30.27 12.5349 30.3213 12.3442 30.424C12.1536 30.5193 11.9886 30.6587 11.8492 30.842C11.7172 31.0253 11.6146 31.2453 11.5412 31.502C11.4679 31.7513 11.4312 32.03 11.4312 32.338ZM16.8651 29.654H17.7671V35.605C17.7671 36.1477 17.6571 36.5803 17.4371 36.903C17.2171 37.2257 16.8395 37.387 16.3041 37.387C16.1355 37.387 15.9851 37.3723 15.8531 37.343C15.7211 37.3137 15.6075 37.2807 15.5121 37.244L15.6991 36.562C15.7651 36.584 15.8421 36.6023 15.9301 36.617C16.0181 36.639 16.1098 36.65 16.2051 36.65C16.4691 36.65 16.6451 36.5583 16.7331 36.375C16.8211 36.1917 16.8651 35.935 16.8651 35.605V29.654ZM17.3271 28.554C17.1511 28.554 17.0008 28.499 16.8761 28.389C16.7588 28.279 16.7001 28.1397 16.7001 27.971C16.7001 27.795 16.7588 27.6557 16.8761 27.553C17.0008 27.443 17.1511 27.388 17.3271 27.388C17.4958 27.388 17.6388 27.443 17.7561 27.553C17.8808 27.6557 17.9431 27.795 17.9431 27.971C17.9431 28.1397 17.8808 28.279 17.7561 28.389C17.6388 28.499 17.4958 28.554 17.3271 28.554ZM19.1759 32.338C19.1759 31.898 19.2419 31.5057 19.3739 31.161C19.5133 30.809 19.6929 30.512 19.9129 30.27C20.1403 30.028 20.3969 29.8447 20.6829 29.72C20.9689 29.588 21.2659 29.522 21.5739 29.522C21.9113 29.522 22.2119 29.5807 22.4759 29.698C22.7473 29.8153 22.9709 29.984 23.1469 30.204C23.3303 30.424 23.4696 30.688 23.5649 30.996C23.6603 31.304 23.7079 31.6487 23.7079 32.03C23.7079 32.228 23.6969 32.393 23.6749 32.525H20.0669C20.1036 33.1043 20.2796 33.5627 20.5949 33.9C20.9176 34.2373 21.3356 34.406 21.8489 34.406C22.1056 34.406 22.3403 34.3693 22.5529 34.296C22.7729 34.2153 22.9819 34.1127 23.1799 33.988L23.4989 34.582C23.2643 34.7287 23.0039 34.857 22.7179 34.967C22.4319 35.077 22.1056 35.132 21.7389 35.132C21.3796 35.132 21.0423 35.0697 20.7269 34.945C20.4189 34.813 20.1476 34.6297 19.9129 34.395C19.6856 34.153 19.5059 33.8597 19.3739 33.515C19.2419 33.1703 19.1759 32.778 19.1759 32.338ZM22.9159 31.931C22.9159 31.381 22.7986 30.963 22.5639 30.677C22.3366 30.3837 22.0139 30.237 21.5959 30.237C21.4053 30.237 21.2219 30.2773 21.0459 30.358C20.8773 30.4313 20.7233 30.5413 20.5839 30.688C20.4446 30.8273 20.3273 31.0033 20.2319 31.216C20.1439 31.4213 20.0853 31.6597 20.0559 31.931H22.9159ZM24.633 32.338C24.633 31.8907 24.7026 31.4947 24.842 31.15C24.9813 30.798 25.1683 30.501 25.403 30.259C25.6376 30.017 25.909 29.8337 26.217 29.709C26.5323 29.5843 26.8623 29.522 27.207 29.522C27.559 29.522 27.8596 29.588 28.109 29.72C28.3656 29.8447 28.5856 29.9913 28.769 30.16L28.318 30.743C28.1566 30.6037 27.988 30.49 27.812 30.402C27.6433 30.314 27.4526 30.27 27.24 30.27C26.998 30.27 26.7743 30.3213 26.569 30.424C26.3636 30.5193 26.1876 30.6587 26.041 30.842C25.8943 31.0253 25.777 31.2453 25.689 31.502C25.6083 31.7513 25.568 32.03 25.568 32.338C25.568 32.646 25.6083 32.9247 25.689 33.174C25.7696 33.4233 25.8796 33.6397 26.019 33.823C26.1656 33.999 26.3416 34.1383 26.547 34.241C26.7523 34.3363 26.976 34.384 27.218 34.384C27.4746 34.384 27.7056 34.3327 27.911 34.23C28.1236 34.12 28.3106 33.9917 28.472 33.845L28.879 34.439C28.637 34.6517 28.3656 34.8203 28.065 34.945C27.7716 35.0697 27.4636 35.132 27.141 35.132C26.789 35.132 26.459 35.0697 26.151 34.945C25.843 34.8203 25.5753 34.6407 25.348 34.406C25.128 34.164 24.952 33.8707 24.82 33.526C24.6953 33.174 24.633 32.778 24.633 32.338ZM30.1996 30.391H29.4076V29.709L30.2436 29.654L30.3536 28.158H31.1126V29.654H32.5536V30.391H31.1126V33.361C31.1126 33.691 31.1712 33.9477 31.2886 34.131C31.4132 34.307 31.6296 34.395 31.9376 34.395C32.0329 34.395 32.1356 34.3803 32.2456 34.351C32.3556 34.3217 32.4546 34.2887 32.5426 34.252L32.7186 34.934C32.5719 34.9853 32.4106 35.0293 32.2346 35.066C32.0659 35.11 31.8972 35.132 31.7286 35.132C31.4426 35.132 31.2006 35.088 31.0026 35C30.8119 34.912 30.6542 34.791 30.5296 34.637C30.4122 34.483 30.3279 34.296 30.2766 34.076C30.2252 33.856 30.1996 33.614 30.1996 33.35V30.391ZM33.6194 33.79C33.854 33.9807 34.0924 34.1347 34.3344 34.252C34.5837 34.3693 34.8697 34.428 35.1924 34.428C35.5444 34.428 35.8084 34.3473 35.9844 34.186C36.1604 34.0247 36.2484 33.8267 36.2484 33.592C36.2484 33.4527 36.2117 33.3317 36.1384 33.229C36.065 33.1263 35.9697 33.0383 35.8524 32.965C35.7424 32.8843 35.614 32.8147 35.4674 32.756C35.3207 32.6973 35.174 32.6387 35.0274 32.58C34.8367 32.514 34.646 32.4407 34.4554 32.36C34.2647 32.272 34.0924 32.1693 33.9384 32.052C33.7917 31.9273 33.6707 31.7843 33.5754 31.623C33.48 31.4617 33.4324 31.2673 33.4324 31.04C33.4324 30.8273 33.4727 30.6293 33.5534 30.446C33.6414 30.2553 33.7624 30.094 33.9164 29.962C34.0777 29.8227 34.272 29.7163 34.4994 29.643C34.7267 29.5623 34.9834 29.522 35.2694 29.522C35.6067 29.522 35.9147 29.5807 36.1934 29.698C36.4794 29.8153 36.725 29.9583 36.9304 30.127L36.5014 30.699C36.318 30.5597 36.1274 30.446 35.9294 30.358C35.7314 30.27 35.515 30.226 35.2804 30.226C34.943 30.226 34.6937 30.303 34.5324 30.457C34.3784 30.611 34.3014 30.7907 34.3014 30.996C34.3014 31.1207 34.3344 31.227 34.4004 31.315C34.4664 31.403 34.5544 31.4837 34.6644 31.557C34.7744 31.6303 34.899 31.6963 35.0384 31.755C35.185 31.8063 35.3354 31.8613 35.4894 31.92C35.68 31.9933 35.8707 32.0703 36.0614 32.151C36.2594 32.2317 36.4354 32.3343 36.5894 32.459C36.7434 32.5763 36.868 32.723 36.9634 32.899C37.066 33.075 37.1174 33.2877 37.1174 33.537C37.1174 33.757 37.0734 33.9623 36.9854 34.153C36.9047 34.3437 36.78 34.5123 36.6114 34.659C36.45 34.8057 36.2447 34.9193 35.9954 35C35.7534 35.088 35.4747 35.132 35.1594 35.132C34.778 35.132 34.415 35.0623 34.0704 34.923C33.7257 34.7837 33.425 34.6077 33.1684 34.395L33.6194 33.79Z" fill="black"/>
<path d="M15.4333 4.59994V3.83327C15.4333 2.1396 16.8063 0.766602 18.4999 0.766602C20.1936 0.766602 21.5666 2.1396 21.5666 3.83327V4.59994M7.7666 9.9666C13.4488 16.4605 23.5511 16.4605 29.2333 9.9666M9.29993 5.3666H27.6999C28.5468 5.3666 29.2333 6.0531 29.2333 6.89994V20.6999C29.2333 21.5468 28.5468 22.2333 27.6999 22.2333H9.29994C8.4531 22.2333 7.7666 21.5468 7.7666 20.6999V6.89993C7.7666 6.0531 8.4531 5.3666 9.29993 5.3666Z" stroke="#999999"/>
</svg>
