<svg width="50" height="36" viewBox="0 0 50 36" fill="none" xmlns="http://www.w3.org/2000/svg">
<path d="M2.464 26.554H0.275V25.784H5.566V26.554H3.377V33H2.464V26.554ZM5.61928 30.338C5.61928 29.898 5.68528 29.5057 5.81728 29.161C5.95661 28.809 6.13628 28.512 6.35628 28.27C6.58361 28.028 6.84028 27.8447 7.12628 27.72C7.41228 27.588 7.70928 27.522 8.01728 27.522C8.35461 27.522 8.65528 27.5807 8.91928 27.698C9.19061 27.8153 9.41428 27.984 9.59028 28.204C9.77361 28.424 9.91295 28.688 10.0083 28.996C10.1036 29.304 10.1513 29.6487 10.1513 30.03C10.1513 30.228 10.1403 30.393 10.1183 30.525H6.51028C6.54695 31.1043 6.72295 31.5627 7.03828 31.9C7.36095 32.2373 7.77895 32.406 8.29228 32.406C8.54895 32.406 8.78361 32.3693 8.99628 32.296C9.21628 32.2153 9.42528 32.1127 9.62328 31.988L9.94228 32.582C9.70761 32.7287 9.44728 32.857 9.16128 32.967C8.87528 33.077 8.54895 33.132 8.18228 33.132C7.82295 33.132 7.48561 33.0697 7.17028 32.945C6.86228 32.813 6.59095 32.6297 6.35628 32.395C6.12895 32.153 5.94928 31.8597 5.81728 31.515C5.68528 31.1703 5.61928 30.778 5.61928 30.338ZM9.35928 29.931C9.35928 29.381 9.24195 28.963 9.00728 28.677C8.77995 28.3837 8.45728 28.237 8.03928 28.237C7.84861 28.237 7.66528 28.2773 7.48928 28.358C7.32061 28.4313 7.16661 28.5413 7.02728 28.688C6.88795 28.8273 6.77061 29.0033 6.67528 29.216C6.58728 29.4213 6.52861 29.6597 6.49928 29.931H9.35928ZM11.0763 30.338C11.0763 29.8907 11.146 29.4947 11.2853 29.15C11.4246 28.798 11.6116 28.501 11.8463 28.259C12.081 28.017 12.3523 27.8337 12.6603 27.709C12.9756 27.5843 13.3056 27.522 13.6503 27.522C14.0023 27.522 14.303 27.588 14.5523 27.72C14.809 27.8447 15.029 27.9913 15.2123 28.16L14.7613 28.743C14.6 28.6037 14.4313 28.49 14.2553 28.402C14.0866 28.314 13.896 28.27 13.6833 28.27C13.4413 28.27 13.2176 28.3213 13.0123 28.424C12.807 28.5193 12.631 28.6587 12.4843 28.842C12.3376 29.0253 12.2203 29.2453 12.1323 29.502C12.0516 29.7513 12.0113 30.03 12.0113 30.338C12.0113 30.646 12.0516 30.9247 12.1323 31.174C12.213 31.4233 12.323 31.6397 12.4623 31.823C12.609 31.999 12.785 32.1383 12.9903 32.241C13.1956 32.3363 13.4193 32.384 13.6613 32.384C13.918 32.384 14.149 32.3327 14.3543 32.23C14.567 32.12 14.754 31.9917 14.9153 31.845L15.3223 32.439C15.0803 32.6517 14.809 32.8203 14.5083 32.945C14.215 33.0697 13.907 33.132 13.5843 33.132C13.2323 33.132 12.9023 33.0697 12.5943 32.945C12.2863 32.8203 12.0186 32.6407 11.7913 32.406C11.5713 32.164 11.3953 31.8707 11.2633 31.526C11.1386 31.174 11.0763 30.778 11.0763 30.338ZM16.4889 25.168H17.3909V27.302L17.3579 28.402C17.6146 28.16 17.8822 27.9547 18.1609 27.786C18.4396 27.61 18.7659 27.522 19.1399 27.522C19.7046 27.522 20.1152 27.698 20.3719 28.05C20.6359 28.402 20.7679 28.9227 20.7679 29.612V33H19.8659V29.733C19.8659 29.227 19.7852 28.864 19.6239 28.644C19.4626 28.4167 19.2059 28.303 18.8539 28.303C18.5752 28.303 18.3296 28.3727 18.1169 28.512C17.9042 28.6513 17.6622 28.8567 17.3909 29.128V33H16.4889V25.168ZM24.7839 31.427C25.0406 31.6983 25.3413 31.9183 25.6859 32.087C26.0306 32.2483 26.3936 32.329 26.7749 32.329C27.2516 32.329 27.6219 32.2227 27.8859 32.01C28.1499 31.79 28.2819 31.504 28.2819 31.152C28.2819 30.9687 28.2489 30.8147 28.1829 30.69C28.1243 30.558 28.0399 30.448 27.9299 30.36C27.8199 30.2647 27.6916 30.1803 27.5449 30.107C27.3983 30.0337 27.2406 29.9567 27.0719 29.876L26.0379 29.425C25.8693 29.3517 25.6969 29.2637 25.5209 29.161C25.3523 29.0583 25.1946 28.9337 25.0479 28.787C24.9086 28.6403 24.7949 28.468 24.7069 28.27C24.6189 28.0647 24.5749 27.83 24.5749 27.566C24.5749 27.2947 24.6299 27.0417 24.7399 26.807C24.8573 26.5723 25.0186 26.3707 25.2239 26.202C25.4293 26.026 25.6676 25.8903 25.9389 25.795C26.2176 25.6997 26.5219 25.652 26.8519 25.652C27.2846 25.652 27.6806 25.7363 28.0399 25.905C28.4066 26.0663 28.7183 26.279 28.9749 26.543L28.4909 27.137C28.2709 26.9243 28.0253 26.7593 27.7539 26.642C27.4826 26.5173 27.1819 26.455 26.8519 26.455C26.4413 26.455 26.1113 26.5503 25.8619 26.741C25.6199 26.9243 25.4989 27.181 25.4989 27.511C25.4989 27.687 25.5356 27.8373 25.6089 27.962C25.6823 28.0793 25.7739 28.1857 25.8839 28.281C26.0013 28.369 26.1296 28.4497 26.2689 28.523C26.4156 28.589 26.5586 28.6513 26.6979 28.71L27.7319 29.15C27.9373 29.238 28.1316 29.3407 28.3149 29.458C28.4983 29.568 28.6559 29.7 28.7879 29.854C28.9199 30.0007 29.0226 30.1767 29.0959 30.382C29.1766 30.58 29.2169 30.811 29.2169 31.075C29.2169 31.361 29.1583 31.6287 29.0409 31.878C28.9309 32.1273 28.7696 32.3473 28.5569 32.538C28.3443 32.7213 28.0839 32.868 27.7759 32.978C27.4753 33.0807 27.1343 33.132 26.7529 33.132C26.2469 33.132 25.7776 33.0367 25.3449 32.846C24.9196 32.6553 24.5493 32.395 24.2339 32.065L24.7839 31.427ZM30.6722 28.391H29.8802V27.709L30.7162 27.654L30.8262 26.158H31.5852V27.654H33.0262V28.391H31.5852V31.361C31.5852 31.691 31.6439 31.9477 31.7612 32.131C31.8859 32.307 32.1022 32.395 32.4102 32.395C32.5055 32.395 32.6082 32.3803 32.7182 32.351C32.8282 32.3217 32.9272 32.2887 33.0152 32.252L33.1912 32.934C33.0445 32.9853 32.8832 33.0293 32.7072 33.066C32.5385 33.11 32.3699 33.132 32.2012 33.132C31.9152 33.132 31.6732 33.088 31.4752 33C31.2845 32.912 31.1269 32.791 31.0022 32.637C30.8849 32.483 30.8005 32.296 30.7492 32.076C30.6979 31.856 30.6722 31.614 30.6722 31.35V28.391ZM33.7776 31.614C33.7776 31.0273 34.038 30.58 34.5586 30.272C35.0866 29.9567 35.9226 29.7367 37.0666 29.612C37.0666 29.4433 37.0483 29.2783 37.0116 29.117C36.9823 28.9557 36.9236 28.8127 36.8356 28.688C36.755 28.5633 36.645 28.4643 36.5056 28.391C36.3663 28.3103 36.1866 28.27 35.9666 28.27C35.6513 28.27 35.358 28.3287 35.0866 28.446C34.8226 28.5633 34.5843 28.6953 34.3716 28.842L34.0086 28.215C34.258 28.0537 34.5623 27.8997 34.9216 27.753C35.281 27.599 35.677 27.522 36.1096 27.522C36.7623 27.522 37.2353 27.7237 37.5286 28.127C37.822 28.523 37.9686 29.0547 37.9686 29.722V33H37.2206L37.1436 32.362H37.1216C36.865 32.5747 36.5863 32.758 36.2856 32.912C35.9923 33.0587 35.6806 33.132 35.3506 33.132C34.896 33.132 34.5183 33 34.2176 32.736C33.9243 32.472 33.7776 32.098 33.7776 31.614ZM34.6686 31.548C34.6686 31.856 34.7566 32.076 34.9326 32.208C35.116 32.34 35.3396 32.406 35.6036 32.406C35.8603 32.406 36.1023 32.3473 36.3296 32.23C36.5643 32.1053 36.81 31.9257 37.0666 31.691V30.206C36.6193 30.2647 36.2416 30.3343 35.9336 30.415C35.6256 30.4957 35.3763 30.591 35.1856 30.701C35.0023 30.811 34.8703 30.9393 34.7896 31.086C34.709 31.2253 34.6686 31.3793 34.6686 31.548ZM39.2746 30.338C39.2746 29.8907 39.3442 29.4947 39.4836 29.15C39.6229 28.798 39.8099 28.501 40.0446 28.259C40.2792 28.017 40.5506 27.8337 40.8586 27.709C41.1739 27.5843 41.5039 27.522 41.8486 27.522C42.2006 27.522 42.5012 27.588 42.7506 27.72C43.0072 27.8447 43.2272 27.9913 43.4106 28.16L42.9596 28.743C42.7982 28.6037 42.6296 28.49 42.4536 28.402C42.2849 28.314 42.0942 28.27 41.8816 28.27C41.6396 28.27 41.4159 28.3213 41.2106 28.424C41.0052 28.5193 40.8292 28.6587 40.6826 28.842C40.5359 29.0253 40.4186 29.2453 40.3306 29.502C40.2499 29.7513 40.2096 30.03 40.2096 30.338C40.2096 30.646 40.2499 30.9247 40.3306 31.174C40.4112 31.4233 40.5212 31.6397 40.6606 31.823C40.8072 31.999 40.9832 32.1383 41.1886 32.241C41.3939 32.3363 41.6176 32.384 41.8596 32.384C42.1162 32.384 42.3472 32.3327 42.5526 32.23C42.7652 32.12 42.9522 31.9917 43.1136 31.845L43.5206 32.439C43.2786 32.6517 43.0072 32.8203 42.7066 32.945C42.4132 33.0697 42.1052 33.132 41.7826 33.132C41.4306 33.132 41.1006 33.0697 40.7926 32.945C40.4846 32.8203 40.2169 32.6407 39.9896 32.406C39.7696 32.164 39.5936 31.8707 39.4616 31.526C39.3369 31.174 39.2746 30.778 39.2746 30.338ZM44.6872 25.168H45.5782V30.47H45.6112L47.8882 27.654H48.8892L47.0962 29.799L49.1312 33H48.1412L46.5792 30.426L45.5782 31.592V33H44.6872V25.168Z" fill="black"/>
<g clip-path="url(#clip0_146_15238)">
<path d="M28.0293 3.12817C28.0293 1.43521 26.65 0.0559082 24.957 0.0559082C23.2641 0.0559082 21.8848 1.43521 21.8848 3.12817C21.8848 4.52466 22.8215 5.702 24.0977 6.07583V20.4532C24.0977 20.9258 24.4844 21.3125 24.957 21.3125C25.4297 21.3125 25.8164 20.9258 25.8164 20.4532V6.07583C27.0926 5.702 28.0293 4.52466 28.0293 3.12817ZM24.957 4.48169C24.2094 4.48169 23.6035 3.87583 23.6035 3.12817C23.6035 2.38052 24.2094 1.77466 24.957 1.77466C25.7047 1.77466 26.3105 2.38052 26.3105 3.12817C26.3105 3.87583 25.7047 4.48169 24.957 4.48169Z" fill="black"/>
<path d="M32.9363 4.56763C31.3852 4.56763 30.1004 5.72349 29.8941 7.2188H29.0391C28.3902 7.2188 27.8746 7.51528 27.5867 8.0481C27.3504 8.49067 27.3203 9.0106 27.3203 9.36724V21.1407C27.3203 21.6133 27.707 22 28.1797 22C28.6523 22 29.0391 21.6133 29.0391 21.1407V9.36724C29.0391 9.1395 29.0562 9.0106 29.0734 8.93755H30.1562C30.6461 9.98599 31.7074 10.7122 32.9406 10.7122C34.6336 10.7122 36.0129 9.33286 36.0129 7.63989C36.0129 5.94692 34.6293 4.56763 32.9363 4.56763ZM32.9363 8.99341C32.1887 8.99341 31.5828 8.38755 31.5828 7.63989C31.5828 6.89224 32.1887 6.28638 32.9363 6.28638C33.684 6.28638 34.2898 6.89224 34.2898 7.63989C34.2898 8.38755 33.684 8.99341 32.9363 8.99341Z" fill="black"/>
<path d="M20.4453 7.2188H20.08C19.8738 5.72349 18.589 4.56763 17.0378 4.56763C15.3449 4.56763 13.9656 5.94692 13.9656 7.63989C13.9656 9.33286 15.3449 10.7122 17.0378 10.7122C18.2667 10.7122 19.3324 9.98599 19.8222 8.93755H20.4453C20.6816 8.93755 20.875 9.13091 20.875 9.36724V21.1407C20.875 21.6133 21.2617 22 21.7343 22C22.207 22 22.5937 21.6133 22.5937 21.1407V9.36724C22.5937 8.1813 21.6312 7.2188 20.4453 7.2188ZM17.0378 8.99341C16.2902 8.99341 15.6843 8.38755 15.6843 7.63989C15.6843 6.89224 16.2902 6.28638 17.0378 6.28638C17.7855 6.28638 18.3914 6.89224 18.3914 7.63989C18.3914 8.38755 17.7855 8.99341 17.0378 8.99341Z" fill="black"/>
</g>
<defs>
<clipPath id="clip0_146_15238">
<rect width="22" height="22" fill="white" transform="translate(14)"/>
</clipPath>
</defs>
</svg>
