<svg width="62" height="62" viewBox="0 0 62 62" fill="none" xmlns="http://www.w3.org/2000/svg">
<path d="M61.9063 6.06333C61.8514 5.2343 61.3053 4.51879 60.5201 4.24705C59.735 3.9753 58.8634 4.20017 58.3077 4.81785C56.8793 6.4057 55.0738 7.48165 53.2414 7.97224C50.693 5.593 47.2688 4.13338 43.506 4.13338C35.4301 4.13338 28.8888 10.6894 28.8888 18.7699V20.5878C16.525 19.6323 9.91329 10.2402 8.12923 5.47538C7.84086 4.70519 7.12327 4.17928 6.30199 4.13622C5.48071 4.09316 4.71207 4.54114 4.34473 5.27695C0.0182616 13.9433 -0.648345 22.3488 2.49611 29.5063C5.25065 35.7763 10.7903 40.7708 18.6417 44.0798C15.0734 46.6085 9.06766 49.6 2.06683 49.6C1.15639 49.6 0.353192 50.1958 0.0890506 51.0671C-0.175091 51.9384 0.162049 52.8799 0.919221 53.3855C7.63219 57.8677 14.6677 57.8672 21.2116 57.8667L21.4119 57.8667C41.5026 57.8667 57.7839 41.5557 57.7839 21.4417V19.4647C59.2861 17.938 60.4556 16.3751 61.1723 14.3546C61.9721 12.1001 62.1332 9.48596 61.9063 6.06333Z" fill="black"/>
</svg>
