<svg width="31" height="30" viewBox="0 0 31 30" fill="none" xmlns="http://www.w3.org/2000/svg">
<mask id="mask0_26_1547" style="mask-type:luminance" maskUnits="userSpaceOnUse" x="0" y="0" width="31" height="30">
<path d="M30.2018 0.344543H0.782043V29.7643H30.2018V0.344543Z" fill="white"/>
</mask>
<g mask="url(#mask0_26_1547)">
<path d="M26.7542 0.344543H4.22967C2.3256 0.344543 0.782043 1.8881 0.782043 3.79217V26.3167C0.782043 28.2208 2.3256 29.7643 4.22967 29.7643H26.7542C28.6583 29.7643 30.2018 28.2208 30.2018 26.3167V3.79217C30.2018 1.8881 28.6583 0.344543 26.7542 0.344543Z" fill="black"/>
<path d="M21.2325 6.09061H24.2737L17.6295 13.6846L25.4459 24.0183H19.3257L14.5321 17.751L9.04716 24.0183H6.00408L13.1108 15.8957L5.61243 6.09061H11.888L16.221 11.8192L21.2325 6.09061ZM20.1651 22.1979H21.8503L10.9723 7.81534H9.16392L20.1651 22.1979Z" fill="white"/>
</g>
</svg>
