<svg width="31" height="30" viewBox="0 0 31 30" fill="none" xmlns="http://www.w3.org/2000/svg">
<g clip-path="url(#clip0_26_1541)">
<mask id="mask0_26_1541" style="mask-type:luminance" maskUnits="userSpaceOnUse" x="0" y="0" width="31" height="30">
<path d="M30.3665 0.362274H0.946686V29.7821H30.3665V0.362274Z" fill="white"/>
</mask>
<g mask="url(#mask0_26_1541)">
<path d="M26.9188 0.362274H4.39432C2.49024 0.362274 0.946686 1.90583 0.946686 3.80991V26.3344C0.946686 28.2385 2.49024 29.7821 4.39432 29.7821H26.9188C28.8229 29.7821 30.3665 28.2385 30.3665 26.3344V3.80991C30.3665 1.90583 28.8229 0.362274 26.9188 0.362274Z" fill="black"/>
<path d="M21.3971 6.10834H24.4384L17.7941 13.7023L25.6106 24.036H19.4903L14.6968 17.7687L9.2118 24.036H6.16872L13.2754 15.9134L5.77707 6.10834H12.0526L16.3856 11.8369L21.3971 6.10834ZM20.3297 22.2157H22.0149L11.137 7.83307H9.32856L20.3297 22.2157Z" fill="white"/>
</g>
</g>
<defs>
<clipPath id="clip0_26_1541">
<rect width="29.4198" height="29.4198" fill="white" transform="translate(0.946686 0.362274)"/>
</clipPath>
</defs>
</svg>
