<svg width="33" height="28" viewBox="0 0 33 28" fill="none" xmlns="http://www.w3.org/2000/svg">
<path d="M18.792 14.0544L15.2983 16.3836V11.7253L18.792 14.0544Z" fill="black"/>
<path fill-rule="evenodd" clip-rule="evenodd" d="M3.29155 1.53837C11.9265 -0.311984 20.8555 -0.311984 29.4905 1.53837C31.4104 1.94978 32.782 3.64647 32.782 5.60997V22.4989C32.782 24.4624 31.4104 26.1591 29.4905 26.5705C20.8555 28.4208 11.9265 28.4208 3.29155 26.5705C1.37163 26.1591 0 24.4624 0 22.4989V5.60997C0 3.64647 1.37163 1.94978 3.29155 1.53837ZM14.8117 8.77428C14.4764 8.55074 14.0452 8.5299 13.6899 8.72005C13.3346 8.91021 13.1128 9.28049 13.1128 9.68349V18.4254C13.1128 18.8284 13.3346 19.1986 13.6899 19.3888C14.0452 19.579 14.4764 19.5581 14.8117 19.3346L21.3681 14.9636C21.6721 14.761 21.8547 14.4198 21.8547 14.0544C21.8547 13.6891 21.6721 13.3479 21.3681 13.1452L14.8117 8.77428Z" fill="black"/>
</svg>
