<svg width="62" height="62" viewBox="0 0 62 62" fill="none" xmlns="http://www.w3.org/2000/svg">
<path d="M35.5409 31.0001L28.9333 35.4052V26.5951L35.5409 31.0001Z" fill="black"/>
<path fill-rule="evenodd" clip-rule="evenodd" d="M6.22523 7.32875C22.5564 3.82922 39.4436 3.82922 55.7748 7.32875C59.4059 8.10684 62 11.3158 62 15.0293V46.971C62 50.6845 59.4059 53.8934 55.7748 54.6715C39.4436 58.171 22.5564 58.171 6.22523 54.6715C2.59414 53.8934 0 50.6845 0 46.971V15.0293C0 11.3158 2.59414 8.10684 6.22523 7.32875ZM28.013 21.0139C27.3789 20.5911 26.5635 20.5517 25.8915 20.9113C25.2195 21.271 24.8 21.9713 24.8 22.7335V39.2668C24.8 40.029 25.2195 40.7293 25.8915 41.0889C26.5635 41.4485 27.3789 41.4091 28.013 40.9864L40.413 32.7197C40.988 32.3364 41.3333 31.6911 41.3333 31.0001C41.3333 30.3091 40.988 29.6638 40.413 29.2805L28.013 21.0139Z" fill="black"/>
</svg>
