<svg width="33" height="34" viewBox="0 0 33 34" fill="none" xmlns="http://www.w3.org/2000/svg">
<path d="M18.9566 17.0722L15.4629 19.4013V14.743L18.9566 17.0722Z" fill="black"/>
<path fill-rule="evenodd" clip-rule="evenodd" d="M3.45619 4.5561C12.0912 2.70575 21.0202 2.70575 29.6551 4.5561C31.5751 4.96751 32.9467 6.6642 32.9467 8.6277V25.5166C32.9467 27.4801 31.5751 29.1768 29.6551 29.5882C21.0202 31.4386 12.0912 31.4386 3.45619 29.5882C1.53627 29.1768 0.164642 27.4801 0.164642 25.5166V8.6277C0.164642 6.6642 1.53627 4.96751 3.45619 4.5561ZM14.9763 11.792C14.641 11.5685 14.2099 11.5476 13.8546 11.7378C13.4993 11.9279 13.2775 12.2982 13.2775 12.7012V21.4431C13.2775 21.8461 13.4993 22.2164 13.8546 22.4065C14.2099 22.5967 14.641 22.5759 14.9763 22.3523L21.5327 17.9814C21.8367 17.7787 22.0193 17.4375 22.0193 17.0722C22.0193 16.7068 21.8367 16.3656 21.5327 16.1629L14.9763 11.792Z" fill="black"/>
</svg>
