<svg width="28" height="33" viewBox="0 0 28 33" fill="none" xmlns="http://www.w3.org/2000/svg">
<path d="M4.026 29.063L3.685 27.963C3.56033 27.5597 3.43933 27.16 3.322 26.764C3.20467 26.3607 3.08733 25.95 2.97 25.532H2.926C2.80867 25.95 2.69133 26.3607 2.574 26.764C2.45667 27.16 2.33567 27.5597 2.211 27.963L1.859 29.063H4.026ZM4.257 29.8H1.628L0.935 32H0L2.442 24.784H3.476L5.918 32H4.95L4.257 29.8ZM6.82095 24.168H7.72295V26.302L7.70095 27.27C7.94295 27.0573 8.20695 26.8813 8.49295 26.742C8.77895 26.5953 9.07228 26.522 9.37295 26.522C9.71761 26.522 10.0219 26.588 10.2859 26.72C10.5499 26.8447 10.7699 27.028 10.9459 27.27C11.1293 27.5047 11.2649 27.7907 11.3529 28.128C11.4483 28.458 11.4959 28.8283 11.4959 29.239C11.4959 29.6937 11.4336 30.1007 11.3089 30.46C11.1843 30.8193 11.0156 31.1237 10.8029 31.373C10.5903 31.6223 10.3446 31.813 10.0659 31.945C9.78728 32.0697 9.49395 32.132 9.18595 32.132C8.93661 32.132 8.67628 32.077 8.40495 31.967C8.14095 31.8497 7.89161 31.6847 7.65695 31.472H7.62395L7.54695 32H6.82095V24.168ZM7.72295 30.812C7.95761 31.0173 8.18861 31.164 8.41595 31.252C8.65061 31.3327 8.85595 31.373 9.03195 31.373C9.25195 31.373 9.45361 31.3253 9.63695 31.23C9.82761 31.1273 9.98895 30.988 10.1209 30.812C10.2603 30.6287 10.3666 30.405 10.4399 30.141C10.5206 29.877 10.5609 29.58 10.5609 29.25C10.5609 28.9567 10.5353 28.689 10.4839 28.447C10.4326 28.205 10.3483 27.9997 10.2309 27.831C10.1209 27.655 9.97428 27.5193 9.79095 27.424C9.61495 27.3287 9.40228 27.281 9.15295 27.281C8.72028 27.281 8.24361 27.523 7.72295 28.007V30.812ZM12.5265 29.338C12.5265 28.8907 12.5925 28.4947 12.7245 28.15C12.8638 27.798 13.0472 27.501 13.2745 27.259C13.5018 27.017 13.7622 26.8337 14.0555 26.709C14.3562 26.5843 14.6715 26.522 15.0015 26.522C15.3315 26.522 15.6432 26.5843 15.9365 26.709C16.2372 26.8337 16.5012 27.017 16.7285 27.259C16.9558 27.501 17.1355 27.798 17.2675 28.15C17.4068 28.4947 17.4765 28.8907 17.4765 29.338C17.4765 29.778 17.4068 30.174 17.2675 30.526C17.1355 30.8707 16.9558 31.164 16.7285 31.406C16.5012 31.6407 16.2372 31.8203 15.9365 31.945C15.6432 32.0697 15.3315 32.132 15.0015 32.132C14.6715 32.132 14.3562 32.0697 14.0555 31.945C13.7622 31.8203 13.5018 31.6407 13.2745 31.406C13.0472 31.164 12.8638 30.8707 12.7245 30.526C12.5925 30.174 12.5265 29.778 12.5265 29.338ZM13.4615 29.338C13.4615 29.646 13.4982 29.9247 13.5715 30.174C13.6448 30.4233 13.7475 30.6397 13.8795 30.823C14.0188 30.999 14.1838 31.1383 14.3745 31.241C14.5652 31.3363 14.7742 31.384 15.0015 31.384C15.2288 31.384 15.4378 31.3363 15.6285 31.241C15.8192 31.1383 15.9805 30.999 16.1125 30.823C16.2518 30.6397 16.3582 30.4233 16.4315 30.174C16.5048 29.9247 16.5415 29.646 16.5415 29.338C16.5415 29.03 16.5048 28.7513 16.4315 28.502C16.3582 28.2453 16.2518 28.0253 16.1125 27.842C15.9805 27.6587 15.8192 27.5193 15.6285 27.424C15.4378 27.3213 15.2288 27.27 15.0015 27.27C14.7742 27.27 14.5652 27.3213 14.3745 27.424C14.1838 27.5193 14.0188 27.6587 13.8795 27.842C13.7475 28.0253 13.6448 28.2453 13.5715 28.502C13.4982 28.7513 13.4615 29.03 13.4615 29.338ZM18.8074 26.654H19.7204V29.921C19.7204 30.427 19.7974 30.7937 19.9514 31.021C20.1128 31.241 20.3694 31.351 20.7214 31.351C21.0001 31.351 21.2458 31.2813 21.4584 31.142C21.6711 30.9953 21.9058 30.7643 22.1624 30.449V26.654H23.0644V32H22.3164L22.2394 31.164H22.2064C21.9571 31.4573 21.6931 31.692 21.4144 31.868C21.1431 32.044 20.8204 32.132 20.4464 32.132C19.8744 32.132 19.4564 31.956 19.1924 31.604C18.9358 31.252 18.8074 30.7313 18.8074 30.042V26.654ZM25.0218 27.391H24.2298V26.709L25.0658 26.654L25.1758 25.158H25.9348V26.654H27.3758V27.391H25.9348V30.361C25.9348 30.691 25.9935 30.9477 26.1108 31.131C26.2355 31.307 26.4518 31.395 26.7598 31.395C26.8552 31.395 26.9578 31.3803 27.0678 31.351C27.1778 31.3217 27.2768 31.2887 27.3648 31.252L27.5408 31.934C27.3942 31.9853 27.2328 32.0293 27.0568 32.066C26.8882 32.11 26.7195 32.132 26.5508 32.132C26.2648 32.132 26.0228 32.088 25.8248 32C25.6342 31.912 25.4765 31.791 25.3518 31.637C25.2345 31.483 25.1502 31.296 25.0988 31.076C25.0475 30.856 25.0218 30.614 25.0218 30.35V27.391Z" fill="#303030"/>
<path d="M14 0C11.1652 0 8.86668 2.29632 8.86668 5.13047C8.86668 7.96461 11.1652 10.2609 14 10.2609C16.8348 10.2609 19.1333 7.96461 19.1333 5.13047C19.1333 2.29632 16.8348 0 14 0Z" fill="#303030"/>
<path d="M11.0667 13.1914C8.23178 13.1914 5.93335 15.4888 5.93335 18.324V21.9866H22.0667V18.324C22.0667 15.4888 19.7682 13.1914 16.9333 13.1914H11.0667Z" fill="#303030"/>
</svg>
