<svg width="36" height="32" viewBox="0 0 36 32" fill="none" xmlns="http://www.w3.org/2000/svg">
<path d="M7.73328 8.59995L17.9999 14.4666L28.2666 8.59995M9.19994 4.19995H26.7999C27.61 4.19995 28.2666 4.8566 28.2666 5.66662V20.3333C28.2666 21.1433 27.61 21.8 26.7999 21.8H9.19994C8.38993 21.8 7.73328 21.1433 7.73328 20.3333V5.66662C7.73328 4.8566 8.38993 4.19995 9.19994 4.19995Z" stroke="black"/>
<path d="M0.539 27.392C0.539 26.8127 0.619667 26.292 0.781 25.83C0.942333 25.368 1.166 24.9757 1.452 24.653C1.74533 24.3303 2.08633 24.0847 2.475 23.916C2.871 23.74 3.3 23.652 3.762 23.652C4.19467 23.652 4.576 23.7437 4.906 23.927C5.24333 24.103 5.51833 24.3083 5.731 24.543L5.214 25.126C5.02333 24.9207 4.81067 24.7593 4.576 24.642C4.34133 24.5173 4.07367 24.455 3.773 24.455C3.42833 24.455 3.113 24.5247 2.827 24.664C2.54833 24.796 2.31 24.9903 2.112 25.247C1.914 25.4963 1.76 25.8007 1.65 26.16C1.54 26.5193 1.485 26.9227 1.485 27.37C1.485 27.8247 1.53633 28.2353 1.639 28.602C1.749 28.9613 1.89933 29.2693 2.09 29.526C2.288 29.7827 2.52267 29.9807 2.794 30.12C3.07267 30.2593 3.38433 30.329 3.729 30.329C4.07367 30.329 4.37433 30.2593 4.631 30.12C4.895 29.9807 5.14433 29.7827 5.379 29.526L5.896 30.087C5.61733 30.417 5.29833 30.6737 4.939 30.857C4.57967 31.0403 4.169 31.132 3.707 31.132C3.25233 31.132 2.83067 31.0477 2.442 30.879C2.06067 30.7103 1.727 30.4683 1.441 30.153C1.16233 29.8303 0.942333 29.438 0.781 28.976C0.619667 28.5067 0.539 27.9787 0.539 27.392ZM6.73647 28.338C6.73647 27.8907 6.80247 27.4947 6.93447 27.15C7.0738 26.798 7.25714 26.501 7.48447 26.259C7.7118 26.017 7.97214 25.8337 8.26547 25.709C8.56614 25.5843 8.88147 25.522 9.21147 25.522C9.54147 25.522 9.85314 25.5843 10.1465 25.709C10.4471 25.8337 10.7111 26.017 10.9385 26.259C11.1658 26.501 11.3455 26.798 11.4775 27.15C11.6168 27.4947 11.6865 27.8907 11.6865 28.338C11.6865 28.778 11.6168 29.174 11.4775 29.526C11.3455 29.8707 11.1658 30.164 10.9385 30.406C10.7111 30.6407 10.4471 30.8203 10.1465 30.945C9.85314 31.0697 9.54147 31.132 9.21147 31.132C8.88147 31.132 8.56614 31.0697 8.26547 30.945C7.97214 30.8203 7.7118 30.6407 7.48447 30.406C7.25714 30.164 7.0738 29.8707 6.93447 29.526C6.80247 29.174 6.73647 28.778 6.73647 28.338ZM7.67147 28.338C7.67147 28.646 7.70814 28.9247 7.78147 29.174C7.8548 29.4233 7.95747 29.6397 8.08947 29.823C8.2288 29.999 8.3938 30.1383 8.58447 30.241C8.77514 30.3363 8.98414 30.384 9.21147 30.384C9.4388 30.384 9.6478 30.3363 9.83847 30.241C10.0291 30.1383 10.1905 29.999 10.3225 29.823C10.4618 29.6397 10.5681 29.4233 10.6415 29.174C10.7148 28.9247 10.7515 28.646 10.7515 28.338C10.7515 28.03 10.7148 27.7513 10.6415 27.502C10.5681 27.2453 10.4618 27.0253 10.3225 26.842C10.1905 26.6587 10.0291 26.5193 9.83847 26.424C9.6478 26.3213 9.4388 26.27 9.21147 26.27C8.98414 26.27 8.77514 26.3213 8.58447 26.424C8.3938 26.5193 8.2288 26.6587 8.08947 26.842C7.95747 27.0253 7.8548 27.2453 7.78147 27.502C7.70814 27.7513 7.67147 28.03 7.67147 28.338ZM13.0944 25.654H13.8424L13.9194 26.424H13.9524C14.209 26.1673 14.4767 25.9547 14.7554 25.786C15.0414 25.61 15.3714 25.522 15.7454 25.522C16.31 25.522 16.7207 25.698 16.9774 26.05C17.2414 26.402 17.3734 26.9227 17.3734 27.612V31H16.4714V27.733C16.4714 27.227 16.3907 26.864 16.2294 26.644C16.068 26.4167 15.8114 26.303 15.4594 26.303C15.1807 26.303 14.935 26.3727 14.7224 26.512C14.5097 26.6513 14.2677 26.8567 13.9964 27.128V31H13.0944V25.654ZM19.264 26.391H18.472V25.709L19.308 25.654L19.418 24.158H20.177V25.654H21.618V26.391H20.177V29.361C20.177 29.691 20.2357 29.9477 20.353 30.131C20.4777 30.307 20.694 30.395 21.002 30.395C21.0973 30.395 21.2 30.3803 21.31 30.351C21.42 30.3217 21.519 30.2887 21.607 30.252L21.783 30.934C21.6363 30.9853 21.475 31.0293 21.299 31.066C21.1303 31.11 20.9617 31.132 20.793 31.132C20.507 31.132 20.265 31.088 20.067 31C19.8763 30.912 19.7187 30.791 19.594 30.637C19.4767 30.483 19.3923 30.296 19.341 30.076C19.2897 29.856 19.264 29.614 19.264 29.35V26.391ZM22.3694 29.614C22.3694 29.0273 22.6298 28.58 23.1504 28.272C23.6784 27.9567 24.5144 27.7367 25.6584 27.612C25.6584 27.4433 25.6401 27.2783 25.6034 27.117C25.5741 26.9557 25.5154 26.8127 25.4274 26.688C25.3468 26.5633 25.2368 26.4643 25.0974 26.391C24.9581 26.3103 24.7784 26.27 24.5584 26.27C24.2431 26.27 23.9498 26.3287 23.6784 26.446C23.4144 26.5633 23.1761 26.6953 22.9634 26.842L22.6004 26.215C22.8498 26.0537 23.1541 25.8997 23.5134 25.753C23.8728 25.599 24.2688 25.522 24.7014 25.522C25.3541 25.522 25.8271 25.7237 26.1204 26.127C26.4138 26.523 26.5604 27.0547 26.5604 27.722V31H25.8124L25.7354 30.362H25.7134C25.4568 30.5747 25.1781 30.758 24.8774 30.912C24.5841 31.0587 24.2724 31.132 23.9424 31.132C23.4878 31.132 23.1101 31 22.8094 30.736C22.5161 30.472 22.3694 30.098 22.3694 29.614ZM23.2604 29.548C23.2604 29.856 23.3484 30.076 23.5244 30.208C23.7078 30.34 23.9314 30.406 24.1954 30.406C24.4521 30.406 24.6941 30.3473 24.9214 30.23C25.1561 30.1053 25.4018 29.9257 25.6584 29.691V28.206C25.2111 28.2647 24.8334 28.3343 24.5254 28.415C24.2174 28.4957 23.9681 28.591 23.7774 28.701C23.5941 28.811 23.4621 28.9393 23.3814 29.086C23.3008 29.2253 23.2604 29.3793 23.2604 29.548ZM27.8664 28.338C27.8664 27.8907 27.936 27.4947 28.0754 27.15C28.2147 26.798 28.4017 26.501 28.6364 26.259C28.871 26.017 29.1424 25.8337 29.4504 25.709C29.7657 25.5843 30.0957 25.522 30.4404 25.522C30.7924 25.522 31.093 25.588 31.3424 25.72C31.599 25.8447 31.819 25.9913 32.0024 26.16L31.5514 26.743C31.39 26.6037 31.2214 26.49 31.0454 26.402C30.8767 26.314 30.686 26.27 30.4734 26.27C30.2314 26.27 30.0077 26.3213 29.8024 26.424C29.597 26.5193 29.421 26.6587 29.2744 26.842C29.1277 27.0253 29.0104 27.2453 28.9224 27.502C28.8417 27.7513 28.8014 28.03 28.8014 28.338C28.8014 28.646 28.8417 28.9247 28.9224 29.174C29.003 29.4233 29.113 29.6397 29.2524 29.823C29.399 29.999 29.575 30.1383 29.7804 30.241C29.9857 30.3363 30.2094 30.384 30.4514 30.384C30.708 30.384 30.939 30.3327 31.1444 30.23C31.357 30.12 31.544 29.9917 31.7054 29.845L32.1124 30.439C31.8704 30.6517 31.599 30.8203 31.2984 30.945C31.005 31.0697 30.697 31.132 30.3744 31.132C30.0224 31.132 29.6924 31.0697 29.3844 30.945C29.0764 30.8203 28.8087 30.6407 28.5814 30.406C28.3614 30.164 28.1854 29.8707 28.0534 29.526C27.9287 29.174 27.8664 28.778 27.8664 28.338ZM33.433 26.391H32.641V25.709L33.477 25.654L33.587 24.158H34.346V25.654H35.787V26.391H34.346V29.361C34.346 29.691 34.4046 29.9477 34.522 30.131C34.6466 30.307 34.863 30.395 35.171 30.395C35.2663 30.395 35.369 30.3803 35.479 30.351C35.589 30.3217 35.688 30.2887 35.776 30.252L35.952 30.934C35.8053 30.9853 35.644 31.0293 35.468 31.066C35.2993 31.11 35.1306 31.132 34.962 31.132C34.676 31.132 34.434 31.088 34.236 31C34.0453 30.912 33.8876 30.791 33.763 30.637C33.6456 30.483 33.5613 30.296 33.51 30.076C33.4586 29.856 33.433 29.614 33.433 29.35V26.391Z" fill="#303030"/>
</svg>
