<svg width="36" height="33" viewBox="0 0 36 33" fill="none" xmlns="http://www.w3.org/2000/svg">
<path d="M0.539 28.392C0.539 27.8127 0.619667 27.292 0.781 26.83C0.942333 26.368 1.166 25.9757 1.452 25.653C1.74533 25.3303 2.08633 25.0847 2.475 24.916C2.871 24.74 3.3 24.652 3.762 24.652C4.19467 24.652 4.576 24.7437 4.906 24.927C5.24333 25.103 5.51833 25.3083 5.731 25.543L5.214 26.126C5.02333 25.9207 4.81067 25.7593 4.576 25.642C4.34133 25.5173 4.07367 25.455 3.773 25.455C3.42833 25.455 3.113 25.5247 2.827 25.664C2.54833 25.796 2.31 25.9903 2.112 26.247C1.914 26.4963 1.76 26.8007 1.65 27.16C1.54 27.5193 1.485 27.9227 1.485 28.37C1.485 28.8247 1.53633 29.2353 1.639 29.602C1.749 29.9613 1.89933 30.2693 2.09 30.526C2.288 30.7827 2.52267 30.9807 2.794 31.12C3.07267 31.2593 3.38433 31.329 3.729 31.329C4.07367 31.329 4.37433 31.2593 4.631 31.12C4.895 30.9807 5.14433 30.7827 5.379 30.526L5.896 31.087C5.61733 31.417 5.29833 31.6737 4.939 31.857C4.57967 32.0403 4.169 32.132 3.707 32.132C3.25233 32.132 2.83067 32.0477 2.442 31.879C2.06067 31.7103 1.727 31.4683 1.441 31.153C1.16233 30.8303 0.942333 30.438 0.781 29.976C0.619667 29.5067 0.539 28.9787 0.539 28.392ZM6.73647 29.338C6.73647 28.8907 6.80247 28.4947 6.93447 28.15C7.0738 27.798 7.25714 27.501 7.48447 27.259C7.7118 27.017 7.97214 26.8337 8.26547 26.709C8.56614 26.5843 8.88147 26.522 9.21147 26.522C9.54147 26.522 9.85314 26.5843 10.1465 26.709C10.4471 26.8337 10.7111 27.017 10.9385 27.259C11.1658 27.501 11.3455 27.798 11.4775 28.15C11.6168 28.4947 11.6865 28.8907 11.6865 29.338C11.6865 29.778 11.6168 30.174 11.4775 30.526C11.3455 30.8707 11.1658 31.164 10.9385 31.406C10.7111 31.6407 10.4471 31.8203 10.1465 31.945C9.85314 32.0697 9.54147 32.132 9.21147 32.132C8.88147 32.132 8.56614 32.0697 8.26547 31.945C7.97214 31.8203 7.7118 31.6407 7.48447 31.406C7.25714 31.164 7.0738 30.8707 6.93447 30.526C6.80247 30.174 6.73647 29.778 6.73647 29.338ZM7.67147 29.338C7.67147 29.646 7.70814 29.9247 7.78147 30.174C7.8548 30.4233 7.95747 30.6397 8.08947 30.823C8.2288 30.999 8.3938 31.1383 8.58447 31.241C8.77514 31.3363 8.98414 31.384 9.21147 31.384C9.4388 31.384 9.6478 31.3363 9.83847 31.241C10.0291 31.1383 10.1905 30.999 10.3225 30.823C10.4618 30.6397 10.5681 30.4233 10.6415 30.174C10.7148 29.9247 10.7515 29.646 10.7515 29.338C10.7515 29.03 10.7148 28.7513 10.6415 28.502C10.5681 28.2453 10.4618 28.0253 10.3225 27.842C10.1905 27.6587 10.0291 27.5193 9.83847 27.424C9.6478 27.3213 9.4388 27.27 9.21147 27.27C8.98414 27.27 8.77514 27.3213 8.58447 27.424C8.3938 27.5193 8.2288 27.6587 8.08947 27.842C7.95747 28.0253 7.8548 28.2453 7.78147 28.502C7.70814 28.7513 7.67147 29.03 7.67147 29.338ZM13.0944 26.654H13.8424L13.9194 27.424H13.9524C14.209 27.1673 14.4767 26.9547 14.7554 26.786C15.0414 26.61 15.3714 26.522 15.7454 26.522C16.31 26.522 16.7207 26.698 16.9774 27.05C17.2414 27.402 17.3734 27.9227 17.3734 28.612V32H16.4714V28.733C16.4714 28.227 16.3907 27.864 16.2294 27.644C16.068 27.4167 15.8114 27.303 15.4594 27.303C15.1807 27.303 14.935 27.3727 14.7224 27.512C14.5097 27.6513 14.2677 27.8567 13.9964 28.128V32H13.0944V26.654ZM19.264 27.391H18.472V26.709L19.308 26.654L19.418 25.158H20.177V26.654H21.618V27.391H20.177V30.361C20.177 30.691 20.2357 30.9477 20.353 31.131C20.4777 31.307 20.694 31.395 21.002 31.395C21.0973 31.395 21.2 31.3803 21.31 31.351C21.42 31.3217 21.519 31.2887 21.607 31.252L21.783 31.934C21.6363 31.9853 21.475 32.0293 21.299 32.066C21.1303 32.11 20.9617 32.132 20.793 32.132C20.507 32.132 20.265 32.088 20.067 32C19.8763 31.912 19.7187 31.791 19.594 31.637C19.4767 31.483 19.3923 31.296 19.341 31.076C19.2897 30.856 19.264 30.614 19.264 30.35V27.391ZM22.3694 30.614C22.3694 30.0273 22.6298 29.58 23.1504 29.272C23.6784 28.9567 24.5144 28.7367 25.6584 28.612C25.6584 28.4433 25.6401 28.2783 25.6034 28.117C25.5741 27.9557 25.5154 27.8127 25.4274 27.688C25.3468 27.5633 25.2368 27.4643 25.0974 27.391C24.9581 27.3103 24.7784 27.27 24.5584 27.27C24.2431 27.27 23.9498 27.3287 23.6784 27.446C23.4144 27.5633 23.1761 27.6953 22.9634 27.842L22.6004 27.215C22.8498 27.0537 23.1541 26.8997 23.5134 26.753C23.8728 26.599 24.2688 26.522 24.7014 26.522C25.3541 26.522 25.8271 26.7237 26.1204 27.127C26.4138 27.523 26.5604 28.0547 26.5604 28.722V32H25.8124L25.7354 31.362H25.7134C25.4568 31.5747 25.1781 31.758 24.8774 31.912C24.5841 32.0587 24.2724 32.132 23.9424 32.132C23.4878 32.132 23.1101 32 22.8094 31.736C22.5161 31.472 22.3694 31.098 22.3694 30.614ZM23.2604 30.548C23.2604 30.856 23.3484 31.076 23.5244 31.208C23.7078 31.34 23.9314 31.406 24.1954 31.406C24.4521 31.406 24.6941 31.3473 24.9214 31.23C25.1561 31.1053 25.4018 30.9257 25.6584 30.691V29.206C25.2111 29.2647 24.8334 29.3343 24.5254 29.415C24.2174 29.4957 23.9681 29.591 23.7774 29.701C23.5941 29.811 23.4621 29.9393 23.3814 30.086C23.3008 30.2253 23.2604 30.3793 23.2604 30.548ZM27.8664 29.338C27.8664 28.8907 27.936 28.4947 28.0754 28.15C28.2147 27.798 28.4017 27.501 28.6364 27.259C28.871 27.017 29.1424 26.8337 29.4504 26.709C29.7657 26.5843 30.0957 26.522 30.4404 26.522C30.7924 26.522 31.093 26.588 31.3424 26.72C31.599 26.8447 31.819 26.9913 32.0024 27.16L31.5514 27.743C31.39 27.6037 31.2214 27.49 31.0454 27.402C30.8767 27.314 30.686 27.27 30.4734 27.27C30.2314 27.27 30.0077 27.3213 29.8024 27.424C29.597 27.5193 29.421 27.6587 29.2744 27.842C29.1277 28.0253 29.0104 28.2453 28.9224 28.502C28.8417 28.7513 28.8014 29.03 28.8014 29.338C28.8014 29.646 28.8417 29.9247 28.9224 30.174C29.003 30.4233 29.113 30.6397 29.2524 30.823C29.399 30.999 29.575 31.1383 29.7804 31.241C29.9857 31.3363 30.2094 31.384 30.4514 31.384C30.708 31.384 30.939 31.3327 31.1444 31.23C31.357 31.12 31.544 30.9917 31.7054 30.845L32.1124 31.439C31.8704 31.6517 31.599 31.8203 31.2984 31.945C31.005 32.0697 30.697 32.132 30.3744 32.132C30.0224 32.132 29.6924 32.0697 29.3844 31.945C29.0764 31.8203 28.8087 31.6407 28.5814 31.406C28.3614 31.164 28.1854 30.8707 28.0534 30.526C27.9287 30.174 27.8664 29.778 27.8664 29.338ZM33.433 27.391H32.641V26.709L33.477 26.654L33.587 25.158H34.346V26.654H35.787V27.391H34.346V30.361C34.346 30.691 34.4046 30.9477 34.522 31.131C34.6466 31.307 34.863 31.395 35.171 31.395C35.2663 31.395 35.369 31.3803 35.479 31.351C35.589 31.3217 35.688 31.2887 35.776 31.252L35.952 31.934C35.8053 31.9853 35.644 32.0293 35.468 32.066C35.2993 32.11 35.1306 32.132 34.962 32.132C34.676 32.132 34.434 32.088 34.236 32C34.0453 31.912 33.8876 31.791 33.763 31.637C33.6456 31.483 33.5613 31.296 33.51 31.076C33.4586 30.856 33.433 30.614 33.433 30.35V27.391Z" fill="#303030"/>
<path d="M7 5.66655C7 4.45152 7.98497 3.46655 9.2 3.46655H26.8C28.015 3.46655 29 4.45153 29 5.66655V7.43767L18 13.6252L7 7.43765V5.66655Z" fill="#303030"/>
<path d="M7 9.12042V20.3332C7 21.5482 7.98497 22.5332 9.2 22.5332H26.8C28.015 22.5332 29 21.5482 29 20.3332V9.12044L18 15.3079L7 9.12042Z" fill="#303030"/>
</svg>
