<svg width="28" height="33" viewBox="0 0 28 33" fill="none" xmlns="http://www.w3.org/2000/svg">
<path d="M0.957 24.784H1.881V27.809H5.236V24.784H6.149V32H5.236V28.601H1.881V32H0.957V24.784ZM7.62807 29.338C7.62807 28.8907 7.69407 28.4947 7.82607 28.15C7.9654 27.798 8.14874 27.501 8.37607 27.259C8.6034 27.017 8.86374 26.8337 9.15707 26.709C9.45774 26.5843 9.77307 26.522 10.1031 26.522C10.4331 26.522 10.7447 26.5843 11.0381 26.709C11.3387 26.8337 11.6027 27.017 11.8301 27.259C12.0574 27.501 12.2371 27.798 12.3691 28.15C12.5084 28.4947 12.5781 28.8907 12.5781 29.338C12.5781 29.778 12.5084 30.174 12.3691 30.526C12.2371 30.8707 12.0574 31.164 11.8301 31.406C11.6027 31.6407 11.3387 31.8203 11.0381 31.945C10.7447 32.0697 10.4331 32.132 10.1031 32.132C9.77307 32.132 9.45774 32.0697 9.15707 31.945C8.86374 31.8203 8.6034 31.6407 8.37607 31.406C8.14874 31.164 7.9654 30.8707 7.82607 30.526C7.69407 30.174 7.62807 29.778 7.62807 29.338ZM8.56307 29.338C8.56307 29.646 8.59974 29.9247 8.67307 30.174C8.7464 30.4233 8.84907 30.6397 8.98107 30.823C9.1204 30.999 9.2854 31.1383 9.47607 31.241C9.66674 31.3363 9.87574 31.384 10.1031 31.384C10.3304 31.384 10.5394 31.3363 10.7301 31.241C10.9207 31.1383 11.0821 30.999 11.2141 30.823C11.3534 30.6397 11.4597 30.4233 11.5331 30.174C11.6064 29.9247 11.6431 29.646 11.6431 29.338C11.6431 29.03 11.6064 28.7513 11.5331 28.502C11.4597 28.2453 11.3534 28.0253 11.2141 27.842C11.0821 27.6587 10.9207 27.5193 10.7301 27.424C10.5394 27.3213 10.3304 27.27 10.1031 27.27C9.87574 27.27 9.66674 27.3213 9.47607 27.424C9.2854 27.5193 9.1204 27.6587 8.98107 27.842C8.84907 28.0253 8.7464 28.2453 8.67307 28.502C8.59974 28.7513 8.56307 29.03 8.56307 29.338ZM13.986 26.654H14.734L14.811 27.424H14.844C15.0787 27.1673 15.3317 26.9547 15.603 26.786C15.8817 26.61 16.1823 26.522 16.505 26.522C16.9157 26.522 17.2347 26.6137 17.462 26.797C17.6967 26.973 17.869 27.2223 17.979 27.545C18.2577 27.237 18.5363 26.9913 18.815 26.808C19.101 26.6173 19.409 26.522 19.739 26.522C20.289 26.522 20.696 26.698 20.96 27.05C21.2313 27.402 21.367 27.9227 21.367 28.612V32H20.465V28.733C20.465 28.227 20.3843 27.864 20.223 27.644C20.0617 27.4167 19.8123 27.303 19.475 27.303C19.0717 27.303 18.6243 27.578 18.133 28.128V32H17.231V28.733C17.231 28.227 17.1503 27.864 16.989 27.644C16.8277 27.4167 16.5747 27.303 16.23 27.303C15.8267 27.303 15.3793 27.578 14.888 28.128V32H13.986V26.654ZM22.7101 29.338C22.7101 28.898 22.7761 28.5057 22.9081 28.161C23.0474 27.809 23.2271 27.512 23.4471 27.27C23.6744 27.028 23.9311 26.8447 24.2171 26.72C24.5031 26.588 24.8001 26.522 25.1081 26.522C25.4454 26.522 25.7461 26.5807 26.0101 26.698C26.2814 26.8153 26.5051 26.984 26.6811 27.204C26.8644 27.424 27.0038 27.688 27.0991 27.996C27.1944 28.304 27.2421 28.6487 27.2421 29.03C27.2421 29.228 27.2311 29.393 27.2091 29.525H23.6011C23.6378 30.1043 23.8138 30.5627 24.1291 30.9C24.4518 31.2373 24.8698 31.406 25.3831 31.406C25.6398 31.406 25.8744 31.3693 26.0871 31.296C26.3071 31.2153 26.5161 31.1127 26.7141 30.988L27.0331 31.582C26.7984 31.7287 26.5381 31.857 26.2521 31.967C25.9661 32.077 25.6398 32.132 25.2731 32.132C24.9138 32.132 24.5764 32.0697 24.2611 31.945C23.9531 31.813 23.6818 31.6297 23.4471 31.395C23.2198 31.153 23.0401 30.8597 22.9081 30.515C22.7761 30.1703 22.7101 29.778 22.7101 29.338ZM26.4501 28.931C26.4501 28.381 26.3328 27.963 26.0981 27.677C25.8708 27.3837 25.5481 27.237 25.1301 27.237C24.9394 27.237 24.7561 27.2773 24.5801 27.358C24.4114 27.4313 24.2574 27.5413 24.1181 27.688C23.9788 27.8273 23.8614 28.0033 23.7661 28.216C23.6781 28.4213 23.6194 28.6597 23.5901 28.931H26.4501Z" fill="#303030"/>
<path d="M13.9999 0.733398L14.3253 0.35377C14.1381 0.193275 13.8618 0.193275 13.6745 0.35377L13.9999 0.733398ZM3.73328 9.5334L3.40788 9.15377L3.23328 9.30343V9.5334H3.73328ZM11.0666 21.2667V21.7667C11.3428 21.7667 11.5666 21.5429 11.5666 21.2667H11.0666ZM16.9333 21.2667H16.4333C16.4333 21.5429 16.6571 21.7667 16.9333 21.7667V21.2667ZM24.2666 9.5334H24.7666V9.30343L24.592 9.15377L24.2666 9.5334ZM5.19994 21.7667H11.0666V20.7667H5.19994V21.7667ZM24.592 9.15377L14.3253 0.35377L13.6745 1.11303L23.9412 9.91303L24.592 9.15377ZM13.6745 0.35377L3.40788 9.15377L4.05867 9.91303L14.3253 1.11303L13.6745 0.35377ZM11.5666 21.2667V16.8667H10.5666V21.2667H11.5666ZM16.4333 16.8667V21.2667H17.4333V16.8667H16.4333ZM16.9333 21.7667H22.7999V20.7667H16.9333V21.7667ZM24.7666 19.8001V9.5334H23.7666V19.8001H24.7666ZM3.23328 9.5334V19.8001H4.23328V9.5334H3.23328ZM13.9999 14.4334C15.3438 14.4334 16.4333 15.5228 16.4333 16.8667H17.4333C17.4333 14.9706 15.8961 13.4334 13.9999 13.4334V14.4334ZM13.9999 13.4334C12.1038 13.4334 10.5666 14.9706 10.5666 16.8667H11.5666C11.5666 15.5228 12.656 14.4334 13.9999 14.4334V13.4334ZM22.7999 21.7667C23.8861 21.7667 24.7666 20.8862 24.7666 19.8001H23.7666C23.7666 20.3339 23.3338 20.7667 22.7999 20.7667V21.7667ZM5.19994 20.7667C4.66607 20.7667 4.23328 20.3339 4.23328 19.8001H3.23328C3.23328 20.8862 4.11378 21.7667 5.19994 21.7667V20.7667Z" fill="black"/>
</svg>
