<svg width="38" height="35" viewBox="0 0 38 35" fill="none" xmlns="http://www.w3.org/2000/svg">
<path d="M0.957 24.784H3.179C3.575 24.784 3.938 24.8207 4.268 24.894C4.598 24.9673 4.87667 25.0883 5.104 25.257C5.33867 25.4183 5.51833 25.6347 5.643 25.906C5.775 26.1773 5.841 26.511 5.841 26.907C5.841 27.2883 5.775 27.6183 5.643 27.897C5.51833 28.1757 5.33867 28.4067 5.104 28.59C4.86933 28.7733 4.587 28.9127 4.257 29.008C3.93433 29.096 3.575 29.14 3.179 29.14H1.881V32H0.957V24.784ZM3.058 28.392C3.696 28.392 4.16533 28.2747 4.466 28.04C4.774 27.798 4.928 27.4203 4.928 26.907C4.928 26.3863 4.77033 26.027 4.455 25.829C4.147 25.6237 3.68133 25.521 3.058 25.521H1.881V28.392H3.058ZM7.18618 26.654H7.93418L8.01118 27.622H8.04418C8.22751 27.2847 8.44751 27.017 8.70418 26.819C8.96818 26.621 9.25418 26.522 9.56218 26.522C9.77485 26.522 9.96551 26.5587 10.1342 26.632L9.95818 27.424C9.87018 27.3947 9.78951 27.3727 9.71618 27.358C9.64285 27.3433 9.55118 27.336 9.44118 27.336C9.21385 27.336 8.97551 27.4277 8.72618 27.611C8.48418 27.7943 8.27151 28.1133 8.08818 28.568V32H7.18618V26.654ZM10.4962 29.338C10.4962 28.8907 10.5622 28.4947 10.6942 28.15C10.8336 27.798 11.0169 27.501 11.2442 27.259C11.4716 27.017 11.7319 26.8337 12.0252 26.709C12.3259 26.5843 12.6412 26.522 12.9712 26.522C13.3012 26.522 13.6129 26.5843 13.9062 26.709C14.2069 26.8337 14.4709 27.017 14.6982 27.259C14.9256 27.501 15.1052 27.798 15.2372 28.15C15.3766 28.4947 15.4462 28.8907 15.4462 29.338C15.4462 29.778 15.3766 30.174 15.2372 30.526C15.1052 30.8707 14.9256 31.164 14.6982 31.406C14.4709 31.6407 14.2069 31.8203 13.9062 31.945C13.6129 32.0697 13.3012 32.132 12.9712 32.132C12.6412 32.132 12.3259 32.0697 12.0252 31.945C11.7319 31.8203 11.4716 31.6407 11.2442 31.406C11.0169 31.164 10.8336 30.8707 10.6942 30.526C10.5622 30.174 10.4962 29.778 10.4962 29.338ZM11.4312 29.338C11.4312 29.646 11.4679 29.9247 11.5412 30.174C11.6146 30.4233 11.7172 30.6397 11.8492 30.823C11.9886 30.999 12.1536 31.1383 12.3442 31.241C12.5349 31.3363 12.7439 31.384 12.9712 31.384C13.1986 31.384 13.4076 31.3363 13.5982 31.241C13.7889 31.1383 13.9502 30.999 14.0822 30.823C14.2216 30.6397 14.3279 30.4233 14.4012 30.174C14.4746 29.9247 14.5112 29.646 14.5112 29.338C14.5112 29.03 14.4746 28.7513 14.4012 28.502C14.3279 28.2453 14.2216 28.0253 14.0822 27.842C13.9502 27.6587 13.7889 27.5193 13.5982 27.424C13.4076 27.3213 13.1986 27.27 12.9712 27.27C12.7439 27.27 12.5349 27.3213 12.3442 27.424C12.1536 27.5193 11.9886 27.6587 11.8492 27.842C11.7172 28.0253 11.6146 28.2453 11.5412 28.502C11.4679 28.7513 11.4312 29.03 11.4312 29.338ZM16.8651 26.654H17.7671V32.605C17.7671 33.1477 17.6571 33.5803 17.4371 33.903C17.2171 34.2257 16.8395 34.387 16.3041 34.387C16.1355 34.387 15.9851 34.3723 15.8531 34.343C15.7211 34.3137 15.6075 34.2807 15.5121 34.244L15.6991 33.562C15.7651 33.584 15.8421 33.6023 15.9301 33.617C16.0181 33.639 16.1098 33.65 16.2051 33.65C16.4691 33.65 16.6451 33.5583 16.7331 33.375C16.8211 33.1917 16.8651 32.935 16.8651 32.605V26.654ZM17.3271 25.554C17.1511 25.554 17.0008 25.499 16.8761 25.389C16.7588 25.279 16.7001 25.1397 16.7001 24.971C16.7001 24.795 16.7588 24.6557 16.8761 24.553C17.0008 24.443 17.1511 24.388 17.3271 24.388C17.4958 24.388 17.6388 24.443 17.7561 24.553C17.8808 24.6557 17.9431 24.795 17.9431 24.971C17.9431 25.1397 17.8808 25.279 17.7561 25.389C17.6388 25.499 17.4958 25.554 17.3271 25.554ZM19.1759 29.338C19.1759 28.898 19.2419 28.5057 19.3739 28.161C19.5133 27.809 19.6929 27.512 19.9129 27.27C20.1403 27.028 20.3969 26.8447 20.6829 26.72C20.9689 26.588 21.2659 26.522 21.5739 26.522C21.9113 26.522 22.2119 26.5807 22.4759 26.698C22.7473 26.8153 22.9709 26.984 23.1469 27.204C23.3303 27.424 23.4696 27.688 23.5649 27.996C23.6603 28.304 23.7079 28.6487 23.7079 29.03C23.7079 29.228 23.6969 29.393 23.6749 29.525H20.0669C20.1036 30.1043 20.2796 30.5627 20.5949 30.9C20.9176 31.2373 21.3356 31.406 21.8489 31.406C22.1056 31.406 22.3403 31.3693 22.5529 31.296C22.7729 31.2153 22.9819 31.1127 23.1799 30.988L23.4989 31.582C23.2643 31.7287 23.0039 31.857 22.7179 31.967C22.4319 32.077 22.1056 32.132 21.7389 32.132C21.3796 32.132 21.0423 32.0697 20.7269 31.945C20.4189 31.813 20.1476 31.6297 19.9129 31.395C19.6856 31.153 19.5059 30.8597 19.3739 30.515C19.2419 30.1703 19.1759 29.778 19.1759 29.338ZM22.9159 28.931C22.9159 28.381 22.7986 27.963 22.5639 27.677C22.3366 27.3837 22.0139 27.237 21.5959 27.237C21.4053 27.237 21.2219 27.2773 21.0459 27.358C20.8773 27.4313 20.7233 27.5413 20.5839 27.688C20.4446 27.8273 20.3273 28.0033 20.2319 28.216C20.1439 28.4213 20.0853 28.6597 20.0559 28.931H22.9159ZM24.633 29.338C24.633 28.8907 24.7026 28.4947 24.842 28.15C24.9813 27.798 25.1683 27.501 25.403 27.259C25.6376 27.017 25.909 26.8337 26.217 26.709C26.5323 26.5843 26.8623 26.522 27.207 26.522C27.559 26.522 27.8596 26.588 28.109 26.72C28.3656 26.8447 28.5856 26.9913 28.769 27.16L28.318 27.743C28.1566 27.6037 27.988 27.49 27.812 27.402C27.6433 27.314 27.4526 27.27 27.24 27.27C26.998 27.27 26.7743 27.3213 26.569 27.424C26.3636 27.5193 26.1876 27.6587 26.041 27.842C25.8943 28.0253 25.777 28.2453 25.689 28.502C25.6083 28.7513 25.568 29.03 25.568 29.338C25.568 29.646 25.6083 29.9247 25.689 30.174C25.7696 30.4233 25.8796 30.6397 26.019 30.823C26.1656 30.999 26.3416 31.1383 26.547 31.241C26.7523 31.3363 26.976 31.384 27.218 31.384C27.4746 31.384 27.7056 31.3327 27.911 31.23C28.1236 31.12 28.3106 30.9917 28.472 30.845L28.879 31.439C28.637 31.6517 28.3656 31.8203 28.065 31.945C27.7716 32.0697 27.4636 32.132 27.141 32.132C26.789 32.132 26.459 32.0697 26.151 31.945C25.843 31.8203 25.5753 31.6407 25.348 31.406C25.128 31.164 24.952 30.8707 24.82 30.526C24.6953 30.174 24.633 29.778 24.633 29.338ZM30.1996 27.391H29.4076V26.709L30.2436 26.654L30.3536 25.158H31.1126V26.654H32.5536V27.391H31.1126V30.361C31.1126 30.691 31.1712 30.9477 31.2886 31.131C31.4132 31.307 31.6296 31.395 31.9376 31.395C32.0329 31.395 32.1356 31.3803 32.2456 31.351C32.3556 31.3217 32.4546 31.2887 32.5426 31.252L32.7186 31.934C32.5719 31.9853 32.4106 32.0293 32.2346 32.066C32.0659 32.11 31.8972 32.132 31.7286 32.132C31.4426 32.132 31.2006 32.088 31.0026 32C30.8119 31.912 30.6542 31.791 30.5296 31.637C30.4122 31.483 30.3279 31.296 30.2766 31.076C30.2252 30.856 30.1996 30.614 30.1996 30.35V27.391ZM33.6194 30.79C33.854 30.9807 34.0924 31.1347 34.3344 31.252C34.5837 31.3693 34.8697 31.428 35.1924 31.428C35.5444 31.428 35.8084 31.3473 35.9844 31.186C36.1604 31.0247 36.2484 30.8267 36.2484 30.592C36.2484 30.4527 36.2117 30.3317 36.1384 30.229C36.065 30.1263 35.9697 30.0383 35.8524 29.965C35.7424 29.8843 35.614 29.8147 35.4674 29.756C35.3207 29.6973 35.174 29.6387 35.0274 29.58C34.8367 29.514 34.646 29.4407 34.4554 29.36C34.2647 29.272 34.0924 29.1693 33.9384 29.052C33.7917 28.9273 33.6707 28.7843 33.5754 28.623C33.48 28.4617 33.4324 28.2673 33.4324 28.04C33.4324 27.8273 33.4727 27.6293 33.5534 27.446C33.6414 27.2553 33.7624 27.094 33.9164 26.962C34.0777 26.8227 34.272 26.7163 34.4994 26.643C34.7267 26.5623 34.9834 26.522 35.2694 26.522C35.6067 26.522 35.9147 26.5807 36.1934 26.698C36.4794 26.8153 36.725 26.9583 36.9304 27.127L36.5014 27.699C36.318 27.5597 36.1274 27.446 35.9294 27.358C35.7314 27.27 35.515 27.226 35.2804 27.226C34.943 27.226 34.6937 27.303 34.5324 27.457C34.3784 27.611 34.3014 27.7907 34.3014 27.996C34.3014 28.1207 34.3344 28.227 34.4004 28.315C34.4664 28.403 34.5544 28.4837 34.6644 28.557C34.7744 28.6303 34.899 28.6963 35.0384 28.755C35.185 28.8063 35.3354 28.8613 35.4894 28.92C35.68 28.9933 35.8707 29.0703 36.0614 29.151C36.2594 29.2317 36.4354 29.3343 36.5894 29.459C36.7434 29.5763 36.868 29.723 36.9634 29.899C37.066 30.075 37.1174 30.2877 37.1174 30.537C37.1174 30.757 37.0734 30.9623 36.9854 31.153C36.9047 31.3437 36.78 31.5123 36.6114 31.659C36.45 31.8057 36.2447 31.9193 35.9954 32C35.7534 32.088 35.4747 32.132 35.1594 32.132C34.778 32.132 34.415 32.0623 34.0704 31.923C33.7257 31.7837 33.425 31.6077 33.1684 31.395L33.6194 30.79Z" fill="#303030"/>
<path fill-rule="evenodd" clip-rule="evenodd" d="M15 4.5V5.2H10.1C8.9402 5.2 8 6.1402 8 7.3V16.4H29V7.3C29 6.1402 28.0598 5.2 26.9 5.2H22V4.5C22 2.567 20.433 1 18.5 1C16.567 1 15 2.567 15 4.5ZM18.5 2.4C17.3402 2.4 16.4 3.3402 16.4 4.5V5.2H20.6V4.5C20.6 3.3402 19.6598 2.4 18.5 2.4Z" fill="#303030"/>
<path d="M29 17.8H8V19.9C8 21.0598 8.9402 22 10.1 22H26.9C28.0598 22 29 21.0598 29 19.9V17.8Z" fill="#303030"/>
</svg>
