<svg width="38" height="34" viewBox="0 0 38 34" fill="none" xmlns="http://www.w3.org/2000/svg">
<path d="M0.957 23.784H3.179C3.575 23.784 3.938 23.8207 4.268 23.894C4.598 23.9673 4.87667 24.0883 5.104 24.257C5.33867 24.4183 5.51833 24.6347 5.643 24.906C5.775 25.1773 5.841 25.511 5.841 25.907C5.841 26.2883 5.775 26.6183 5.643 26.897C5.51833 27.1757 5.33867 27.4067 5.104 27.59C4.86933 27.7733 4.587 27.9127 4.257 28.008C3.93433 28.096 3.575 28.14 3.179 28.14H1.881V31H0.957V23.784ZM3.058 27.392C3.696 27.392 4.16533 27.2747 4.466 27.04C4.774 26.798 4.928 26.4203 4.928 25.907C4.928 25.3863 4.77033 25.027 4.455 24.829C4.147 24.6237 3.68133 24.521 3.058 24.521H1.881V27.392H3.058ZM7.18618 25.654H7.93418L8.01118 26.622H8.04418C8.22751 26.2847 8.44751 26.017 8.70418 25.819C8.96818 25.621 9.25418 25.522 9.56218 25.522C9.77485 25.522 9.96551 25.5587 10.1342 25.632L9.95818 26.424C9.87018 26.3947 9.78951 26.3727 9.71618 26.358C9.64285 26.3433 9.55118 26.336 9.44118 26.336C9.21385 26.336 8.97551 26.4277 8.72618 26.611C8.48418 26.7943 8.27151 27.1133 8.08818 27.568V31H7.18618V25.654ZM10.4962 28.338C10.4962 27.8907 10.5622 27.4947 10.6942 27.15C10.8336 26.798 11.0169 26.501 11.2442 26.259C11.4716 26.017 11.7319 25.8337 12.0252 25.709C12.3259 25.5843 12.6412 25.522 12.9712 25.522C13.3012 25.522 13.6129 25.5843 13.9062 25.709C14.2069 25.8337 14.4709 26.017 14.6982 26.259C14.9256 26.501 15.1052 26.798 15.2372 27.15C15.3766 27.4947 15.4462 27.8907 15.4462 28.338C15.4462 28.778 15.3766 29.174 15.2372 29.526C15.1052 29.8707 14.9256 30.164 14.6982 30.406C14.4709 30.6407 14.2069 30.8203 13.9062 30.945C13.6129 31.0697 13.3012 31.132 12.9712 31.132C12.6412 31.132 12.3259 31.0697 12.0252 30.945C11.7319 30.8203 11.4716 30.6407 11.2442 30.406C11.0169 30.164 10.8336 29.8707 10.6942 29.526C10.5622 29.174 10.4962 28.778 10.4962 28.338ZM11.4312 28.338C11.4312 28.646 11.4679 28.9247 11.5412 29.174C11.6146 29.4233 11.7172 29.6397 11.8492 29.823C11.9886 29.999 12.1536 30.1383 12.3442 30.241C12.5349 30.3363 12.7439 30.384 12.9712 30.384C13.1986 30.384 13.4076 30.3363 13.5982 30.241C13.7889 30.1383 13.9502 29.999 14.0822 29.823C14.2216 29.6397 14.3279 29.4233 14.4012 29.174C14.4746 28.9247 14.5112 28.646 14.5112 28.338C14.5112 28.03 14.4746 27.7513 14.4012 27.502C14.3279 27.2453 14.2216 27.0253 14.0822 26.842C13.9502 26.6587 13.7889 26.5193 13.5982 26.424C13.4076 26.3213 13.1986 26.27 12.9712 26.27C12.7439 26.27 12.5349 26.3213 12.3442 26.424C12.1536 26.5193 11.9886 26.6587 11.8492 26.842C11.7172 27.0253 11.6146 27.2453 11.5412 27.502C11.4679 27.7513 11.4312 28.03 11.4312 28.338ZM16.8651 25.654H17.7671V31.605C17.7671 32.1477 17.6571 32.5803 17.4371 32.903C17.2171 33.2257 16.8395 33.387 16.3041 33.387C16.1355 33.387 15.9851 33.3723 15.8531 33.343C15.7211 33.3137 15.6075 33.2807 15.5121 33.244L15.6991 32.562C15.7651 32.584 15.8421 32.6023 15.9301 32.617C16.0181 32.639 16.1098 32.65 16.2051 32.65C16.4691 32.65 16.6451 32.5583 16.7331 32.375C16.8211 32.1917 16.8651 31.935 16.8651 31.605V25.654ZM17.3271 24.554C17.1511 24.554 17.0008 24.499 16.8761 24.389C16.7588 24.279 16.7001 24.1397 16.7001 23.971C16.7001 23.795 16.7588 23.6557 16.8761 23.553C17.0008 23.443 17.1511 23.388 17.3271 23.388C17.4958 23.388 17.6388 23.443 17.7561 23.553C17.8808 23.6557 17.9431 23.795 17.9431 23.971C17.9431 24.1397 17.8808 24.279 17.7561 24.389C17.6388 24.499 17.4958 24.554 17.3271 24.554ZM19.1759 28.338C19.1759 27.898 19.2419 27.5057 19.3739 27.161C19.5133 26.809 19.6929 26.512 19.9129 26.27C20.1403 26.028 20.3969 25.8447 20.6829 25.72C20.9689 25.588 21.2659 25.522 21.5739 25.522C21.9113 25.522 22.2119 25.5807 22.4759 25.698C22.7473 25.8153 22.9709 25.984 23.1469 26.204C23.3303 26.424 23.4696 26.688 23.5649 26.996C23.6603 27.304 23.7079 27.6487 23.7079 28.03C23.7079 28.228 23.6969 28.393 23.6749 28.525H20.0669C20.1036 29.1043 20.2796 29.5627 20.5949 29.9C20.9176 30.2373 21.3356 30.406 21.8489 30.406C22.1056 30.406 22.3403 30.3693 22.5529 30.296C22.7729 30.2153 22.9819 30.1127 23.1799 29.988L23.4989 30.582C23.2643 30.7287 23.0039 30.857 22.7179 30.967C22.4319 31.077 22.1056 31.132 21.7389 31.132C21.3796 31.132 21.0423 31.0697 20.7269 30.945C20.4189 30.813 20.1476 30.6297 19.9129 30.395C19.6856 30.153 19.5059 29.8597 19.3739 29.515C19.2419 29.1703 19.1759 28.778 19.1759 28.338ZM22.9159 27.931C22.9159 27.381 22.7986 26.963 22.5639 26.677C22.3366 26.3837 22.0139 26.237 21.5959 26.237C21.4053 26.237 21.2219 26.2773 21.0459 26.358C20.8773 26.4313 20.7233 26.5413 20.5839 26.688C20.4446 26.8273 20.3273 27.0033 20.2319 27.216C20.1439 27.4213 20.0853 27.6597 20.0559 27.931H22.9159ZM24.633 28.338C24.633 27.8907 24.7026 27.4947 24.842 27.15C24.9813 26.798 25.1683 26.501 25.403 26.259C25.6376 26.017 25.909 25.8337 26.217 25.709C26.5323 25.5843 26.8623 25.522 27.207 25.522C27.559 25.522 27.8596 25.588 28.109 25.72C28.3656 25.8447 28.5856 25.9913 28.769 26.16L28.318 26.743C28.1566 26.6037 27.988 26.49 27.812 26.402C27.6433 26.314 27.4526 26.27 27.24 26.27C26.998 26.27 26.7743 26.3213 26.569 26.424C26.3636 26.5193 26.1876 26.6587 26.041 26.842C25.8943 27.0253 25.777 27.2453 25.689 27.502C25.6083 27.7513 25.568 28.03 25.568 28.338C25.568 28.646 25.6083 28.9247 25.689 29.174C25.7696 29.4233 25.8796 29.6397 26.019 29.823C26.1656 29.999 26.3416 30.1383 26.547 30.241C26.7523 30.3363 26.976 30.384 27.218 30.384C27.4746 30.384 27.7056 30.3327 27.911 30.23C28.1236 30.12 28.3106 29.9917 28.472 29.845L28.879 30.439C28.637 30.6517 28.3656 30.8203 28.065 30.945C27.7716 31.0697 27.4636 31.132 27.141 31.132C26.789 31.132 26.459 31.0697 26.151 30.945C25.843 30.8203 25.5753 30.6407 25.348 30.406C25.128 30.164 24.952 29.8707 24.82 29.526C24.6953 29.174 24.633 28.778 24.633 28.338ZM30.1996 26.391H29.4076V25.709L30.2436 25.654L30.3536 24.158H31.1126V25.654H32.5536V26.391H31.1126V29.361C31.1126 29.691 31.1712 29.9477 31.2886 30.131C31.4132 30.307 31.6296 30.395 31.9376 30.395C32.0329 30.395 32.1356 30.3803 32.2456 30.351C32.3556 30.3217 32.4546 30.2887 32.5426 30.252L32.7186 30.934C32.5719 30.9853 32.4106 31.0293 32.2346 31.066C32.0659 31.11 31.8972 31.132 31.7286 31.132C31.4426 31.132 31.2006 31.088 31.0026 31C30.8119 30.912 30.6542 30.791 30.5296 30.637C30.4122 30.483 30.3279 30.296 30.2766 30.076C30.2252 29.856 30.1996 29.614 30.1996 29.35V26.391ZM33.6194 29.79C33.854 29.9807 34.0924 30.1347 34.3344 30.252C34.5837 30.3693 34.8697 30.428 35.1924 30.428C35.5444 30.428 35.8084 30.3473 35.9844 30.186C36.1604 30.0247 36.2484 29.8267 36.2484 29.592C36.2484 29.4527 36.2117 29.3317 36.1384 29.229C36.065 29.1263 35.9697 29.0383 35.8524 28.965C35.7424 28.8843 35.614 28.8147 35.4674 28.756C35.3207 28.6973 35.174 28.6387 35.0274 28.58C34.8367 28.514 34.646 28.4407 34.4554 28.36C34.2647 28.272 34.0924 28.1693 33.9384 28.052C33.7917 27.9273 33.6707 27.7843 33.5754 27.623C33.48 27.4617 33.4324 27.2673 33.4324 27.04C33.4324 26.8273 33.4727 26.6293 33.5534 26.446C33.6414 26.2553 33.7624 26.094 33.9164 25.962C34.0777 25.8227 34.272 25.7163 34.4994 25.643C34.7267 25.5623 34.9834 25.522 35.2694 25.522C35.6067 25.522 35.9147 25.5807 36.1934 25.698C36.4794 25.8153 36.725 25.9583 36.9304 26.127L36.5014 26.699C36.318 26.5597 36.1274 26.446 35.9294 26.358C35.7314 26.27 35.515 26.226 35.2804 26.226C34.943 26.226 34.6937 26.303 34.5324 26.457C34.3784 26.611 34.3014 26.7907 34.3014 26.996C34.3014 27.1207 34.3344 27.227 34.4004 27.315C34.4664 27.403 34.5544 27.4837 34.6644 27.557C34.7744 27.6303 34.899 27.6963 35.0384 27.755C35.185 27.8063 35.3354 27.8613 35.4894 27.92C35.68 27.9933 35.8707 28.0703 36.0614 28.151C36.2594 28.2317 36.4354 28.3343 36.5894 28.459C36.7434 28.5763 36.868 28.723 36.9634 28.899C37.066 29.075 37.1174 29.2877 37.1174 29.537C37.1174 29.757 37.0734 29.9623 36.9854 30.153C36.9047 30.3437 36.78 30.5123 36.6114 30.659C36.45 30.8057 36.2447 30.9193 35.9954 31C35.7534 31.088 35.4747 31.132 35.1594 31.132C34.778 31.132 34.415 31.0623 34.0704 30.923C33.7257 30.7837 33.425 30.6077 33.1684 30.395L33.6194 29.79Z" fill="#303030"/>
<path d="M15.7 5.19995V4.49995C15.7 2.95355 16.9536 1.69995 18.5 1.69995C20.0463 1.69995 21.3 2.95355 21.3 4.49995V5.19995M8.69995 10.1C13.888 16.0292 23.1119 16.0292 28.3 10.1M10.1 5.89995H26.9C27.6731 5.89995 28.3 6.52675 28.3 7.29995V19.9C28.3 20.6732 27.6731 21.3 26.9 21.3H10.1C9.32675 21.3 8.69995 20.6731 8.69995 19.9V7.29995C8.69995 6.52675 9.32675 5.89995 10.1 5.89995Z" stroke="black"/>
</svg>
