<svg width="50" height="34" viewBox="0 0 50 34" fill="none" xmlns="http://www.w3.org/2000/svg">
<path d="M28.0293 3.12817C28.0293 1.4352 26.65 0.0559082 24.957 0.0559082C23.2641 0.0559082 21.8848 1.4352 21.8848 3.12817C21.8848 4.52466 22.8215 5.702 24.0977 6.07583V20.4532C24.0977 20.9258 24.4844 21.3125 24.957 21.3125C25.4297 21.3125 25.8164 20.9258 25.8164 20.4532V6.07583C27.0926 5.702 28.0293 4.52466 28.0293 3.12817ZM24.957 4.48169C24.2094 4.48169 23.6035 3.87583 23.6035 3.12817C23.6035 2.38052 24.2094 1.77466 24.957 1.77466C25.7047 1.77466 26.3105 2.38052 26.3105 3.12817C26.3105 3.87583 25.7047 4.48169 24.957 4.48169Z" fill="url(#paint0_linear_174_1674)"/>
<path d="M32.9363 4.56763C31.3852 4.56763 30.1004 5.72349 29.8941 7.2188H29.0391C28.3902 7.2188 27.8746 7.51528 27.5867 8.0481C27.3504 8.49067 27.3203 9.0106 27.3203 9.36724V21.1407C27.3203 21.6133 27.707 22 28.1797 22C28.6523 22 29.0391 21.6133 29.0391 21.1407V9.36724C29.0391 9.1395 29.0562 9.0106 29.0734 8.93755H30.1562C30.6461 9.98599 31.7074 10.7122 32.9406 10.7122C34.6336 10.7122 36.0129 9.33286 36.0129 7.63989C36.0129 5.94692 34.6293 4.56763 32.9363 4.56763ZM32.9363 8.99341C32.1887 8.99341 31.5828 8.38755 31.5828 7.63989C31.5828 6.89224 32.1887 6.28638 32.9363 6.28638C33.684 6.28638 34.2898 6.89224 34.2898 7.63989C34.2898 8.38755 33.684 8.99341 32.9363 8.99341Z" fill="url(#paint1_linear_174_1674)"/>
<path d="M20.4453 7.2188H20.08C19.8738 5.72349 18.589 4.56763 17.0378 4.56763C15.3449 4.56763 13.9656 5.94692 13.9656 7.63989C13.9656 9.33286 15.3449 10.7122 17.0378 10.7122C18.2667 10.7122 19.3324 9.98599 19.8222 8.93755H20.4453C20.6816 8.93755 20.875 9.13091 20.875 9.36724V21.1407C20.875 21.6133 21.2617 22 21.7343 22C22.207 22 22.5937 21.6133 22.5937 21.1407V9.36724C22.5937 8.1813 21.6312 7.2188 20.4453 7.2188ZM17.0378 8.99341C16.2902 8.99341 15.6843 8.38755 15.6843 7.63989C15.6843 6.89224 16.2902 6.28638 17.0378 6.28638C17.7855 6.28638 18.3914 6.89224 18.3914 7.63989C18.3914 8.38755 17.7855 8.99341 17.0378 8.99341Z" fill="url(#paint2_linear_174_1674)"/>
<path d="M2.464 25.554H0.275V24.784H5.566V25.554H3.377V32H2.464V25.554ZM5.61928 29.338C5.61928 28.898 5.68528 28.5057 5.81728 28.161C5.95661 27.809 6.13628 27.512 6.35628 27.27C6.58361 27.028 6.84028 26.8447 7.12628 26.72C7.41228 26.588 7.70928 26.522 8.01728 26.522C8.35461 26.522 8.65528 26.5807 8.91928 26.698C9.19061 26.8153 9.41428 26.984 9.59028 27.204C9.77361 27.424 9.91295 27.688 10.0083 27.996C10.1036 28.304 10.1513 28.6487 10.1513 29.03C10.1513 29.228 10.1403 29.393 10.1183 29.525H6.51028C6.54695 30.1043 6.72295 30.5627 7.03828 30.9C7.36095 31.2373 7.77895 31.406 8.29228 31.406C8.54895 31.406 8.78361 31.3693 8.99628 31.296C9.21628 31.2153 9.42528 31.1127 9.62328 30.988L9.94228 31.582C9.70761 31.7287 9.44728 31.857 9.16128 31.967C8.87528 32.077 8.54895 32.132 8.18228 32.132C7.82295 32.132 7.48561 32.0697 7.17028 31.945C6.86228 31.813 6.59095 31.6297 6.35628 31.395C6.12895 31.153 5.94928 30.8597 5.81728 30.515C5.68528 30.1703 5.61928 29.778 5.61928 29.338ZM9.35928 28.931C9.35928 28.381 9.24195 27.963 9.00728 27.677C8.77995 27.3837 8.45728 27.237 8.03928 27.237C7.84861 27.237 7.66528 27.2773 7.48928 27.358C7.32061 27.4313 7.16661 27.5413 7.02728 27.688C6.88795 27.8273 6.77061 28.0033 6.67528 28.216C6.58728 28.4213 6.52861 28.6597 6.49928 28.931H9.35928ZM11.0763 29.338C11.0763 28.8907 11.146 28.4947 11.2853 28.15C11.4246 27.798 11.6116 27.501 11.8463 27.259C12.081 27.017 12.3523 26.8337 12.6603 26.709C12.9756 26.5843 13.3056 26.522 13.6503 26.522C14.0023 26.522 14.303 26.588 14.5523 26.72C14.809 26.8447 15.029 26.9913 15.2123 27.16L14.7613 27.743C14.6 27.6037 14.4313 27.49 14.2553 27.402C14.0866 27.314 13.896 27.27 13.6833 27.27C13.4413 27.27 13.2176 27.3213 13.0123 27.424C12.807 27.5193 12.631 27.6587 12.4843 27.842C12.3376 28.0253 12.2203 28.2453 12.1323 28.502C12.0516 28.7513 12.0113 29.03 12.0113 29.338C12.0113 29.646 12.0516 29.9247 12.1323 30.174C12.213 30.4233 12.323 30.6397 12.4623 30.823C12.609 30.999 12.785 31.1383 12.9903 31.241C13.1956 31.3363 13.4193 31.384 13.6613 31.384C13.918 31.384 14.149 31.3327 14.3543 31.23C14.567 31.12 14.754 30.9917 14.9153 30.845L15.3223 31.439C15.0803 31.6517 14.809 31.8203 14.5083 31.945C14.215 32.0697 13.907 32.132 13.5843 32.132C13.2323 32.132 12.9023 32.0697 12.5943 31.945C12.2863 31.8203 12.0186 31.6407 11.7913 31.406C11.5713 31.164 11.3953 30.8707 11.2633 30.526C11.1386 30.174 11.0763 29.778 11.0763 29.338ZM16.4889 24.168H17.3909V26.302L17.3579 27.402C17.6146 27.16 17.8822 26.9547 18.1609 26.786C18.4396 26.61 18.7659 26.522 19.1399 26.522C19.7046 26.522 20.1152 26.698 20.3719 27.05C20.6359 27.402 20.7679 27.9227 20.7679 28.612V32H19.8659V28.733C19.8659 28.227 19.7852 27.864 19.6239 27.644C19.4626 27.4167 19.2059 27.303 18.8539 27.303C18.5752 27.303 18.3296 27.3727 18.1169 27.512C17.9042 27.6513 17.6622 27.8567 17.3909 28.128V32H16.4889V24.168ZM24.7839 30.427C25.0406 30.6983 25.3413 30.9183 25.6859 31.087C26.0306 31.2483 26.3936 31.329 26.7749 31.329C27.2516 31.329 27.6219 31.2227 27.8859 31.01C28.1499 30.79 28.2819 30.504 28.2819 30.152C28.2819 29.9687 28.2489 29.8147 28.1829 29.69C28.1243 29.558 28.0399 29.448 27.9299 29.36C27.8199 29.2647 27.6916 29.1803 27.5449 29.107C27.3983 29.0337 27.2406 28.9567 27.0719 28.876L26.0379 28.425C25.8693 28.3517 25.6969 28.2637 25.5209 28.161C25.3523 28.0583 25.1946 27.9337 25.0479 27.787C24.9086 27.6403 24.7949 27.468 24.7069 27.27C24.6189 27.0647 24.5749 26.83 24.5749 26.566C24.5749 26.2947 24.6299 26.0417 24.7399 25.807C24.8573 25.5723 25.0186 25.3707 25.2239 25.202C25.4293 25.026 25.6676 24.8903 25.9389 24.795C26.2176 24.6997 26.5219 24.652 26.8519 24.652C27.2846 24.652 27.6806 24.7363 28.0399 24.905C28.4066 25.0663 28.7183 25.279 28.9749 25.543L28.4909 26.137C28.2709 25.9243 28.0253 25.7593 27.7539 25.642C27.4826 25.5173 27.1819 25.455 26.8519 25.455C26.4413 25.455 26.1113 25.5503 25.8619 25.741C25.6199 25.9243 25.4989 26.181 25.4989 26.511C25.4989 26.687 25.5356 26.8373 25.6089 26.962C25.6823 27.0793 25.7739 27.1857 25.8839 27.281C26.0013 27.369 26.1296 27.4497 26.2689 27.523C26.4156 27.589 26.5586 27.6513 26.6979 27.71L27.7319 28.15C27.9373 28.238 28.1316 28.3407 28.3149 28.458C28.4983 28.568 28.6559 28.7 28.7879 28.854C28.9199 29.0007 29.0226 29.1767 29.0959 29.382C29.1766 29.58 29.2169 29.811 29.2169 30.075C29.2169 30.361 29.1583 30.6287 29.0409 30.878C28.9309 31.1273 28.7696 31.3473 28.5569 31.538C28.3443 31.7213 28.0839 31.868 27.7759 31.978C27.4753 32.0807 27.1343 32.132 26.7529 32.132C26.2469 32.132 25.7776 32.0367 25.3449 31.846C24.9196 31.6553 24.5493 31.395 24.2339 31.065L24.7839 30.427ZM30.6722 27.391H29.8802V26.709L30.7162 26.654L30.8262 25.158H31.5852V26.654H33.0262V27.391H31.5852V30.361C31.5852 30.691 31.6439 30.9477 31.7612 31.131C31.8859 31.307 32.1022 31.395 32.4102 31.395C32.5055 31.395 32.6082 31.3803 32.7182 31.351C32.8282 31.3217 32.9272 31.2887 33.0152 31.252L33.1912 31.934C33.0445 31.9853 32.8832 32.0293 32.7072 32.066C32.5385 32.11 32.3699 32.132 32.2012 32.132C31.9152 32.132 31.6732 32.088 31.4752 32C31.2845 31.912 31.1269 31.791 31.0022 31.637C30.8849 31.483 30.8005 31.296 30.7492 31.076C30.6979 30.856 30.6722 30.614 30.6722 30.35V27.391ZM33.7776 30.614C33.7776 30.0273 34.038 29.58 34.5586 29.272C35.0866 28.9567 35.9226 28.7367 37.0666 28.612C37.0666 28.4433 37.0483 28.2783 37.0116 28.117C36.9823 27.9557 36.9236 27.8127 36.8356 27.688C36.755 27.5633 36.645 27.4643 36.5056 27.391C36.3663 27.3103 36.1866 27.27 35.9666 27.27C35.6513 27.27 35.358 27.3287 35.0866 27.446C34.8226 27.5633 34.5843 27.6953 34.3716 27.842L34.0086 27.215C34.258 27.0537 34.5623 26.8997 34.9216 26.753C35.281 26.599 35.677 26.522 36.1096 26.522C36.7623 26.522 37.2353 26.7237 37.5286 27.127C37.822 27.523 37.9686 28.0547 37.9686 28.722V32H37.2206L37.1436 31.362H37.1216C36.865 31.5747 36.5863 31.758 36.2856 31.912C35.9923 32.0587 35.6806 32.132 35.3506 32.132C34.896 32.132 34.5183 32 34.2176 31.736C33.9243 31.472 33.7776 31.098 33.7776 30.614ZM34.6686 30.548C34.6686 30.856 34.7566 31.076 34.9326 31.208C35.116 31.34 35.3396 31.406 35.6036 31.406C35.8603 31.406 36.1023 31.3473 36.3296 31.23C36.5643 31.1053 36.81 30.9257 37.0666 30.691V29.206C36.6193 29.2647 36.2416 29.3343 35.9336 29.415C35.6256 29.4957 35.3763 29.591 35.1856 29.701C35.0023 29.811 34.8703 29.9393 34.7896 30.086C34.709 30.2253 34.6686 30.3793 34.6686 30.548ZM39.2746 29.338C39.2746 28.8907 39.3442 28.4947 39.4836 28.15C39.6229 27.798 39.8099 27.501 40.0446 27.259C40.2792 27.017 40.5506 26.8337 40.8586 26.709C41.1739 26.5843 41.5039 26.522 41.8486 26.522C42.2006 26.522 42.5012 26.588 42.7506 26.72C43.0072 26.8447 43.2272 26.9913 43.4106 27.16L42.9596 27.743C42.7982 27.6037 42.6296 27.49 42.4536 27.402C42.2849 27.314 42.0942 27.27 41.8816 27.27C41.6396 27.27 41.4159 27.3213 41.2106 27.424C41.0052 27.5193 40.8292 27.6587 40.6826 27.842C40.5359 28.0253 40.4186 28.2453 40.3306 28.502C40.2499 28.7513 40.2096 29.03 40.2096 29.338C40.2096 29.646 40.2499 29.9247 40.3306 30.174C40.4112 30.4233 40.5212 30.6397 40.6606 30.823C40.8072 30.999 40.9832 31.1383 41.1886 31.241C41.3939 31.3363 41.6176 31.384 41.8596 31.384C42.1162 31.384 42.3472 31.3327 42.5526 31.23C42.7652 31.12 42.9522 30.9917 43.1136 30.845L43.5206 31.439C43.2786 31.6517 43.0072 31.8203 42.7066 31.945C42.4132 32.0697 42.1052 32.132 41.7826 32.132C41.4306 32.132 41.1006 32.0697 40.7926 31.945C40.4846 31.8203 40.2169 31.6407 39.9896 31.406C39.7696 31.164 39.5936 30.8707 39.4616 30.526C39.3369 30.174 39.2746 29.778 39.2746 29.338ZM44.6872 24.168H45.5782V29.47H45.6112L47.8882 26.654H48.8892L47.0962 28.799L49.1312 32H48.1412L46.5792 29.426L45.5782 30.592V32H44.6872V24.168Z" fill="#303030"/>
<defs>
<linearGradient id="paint0_linear_174_1674" x1="14.7305" y1="10.6842" x2="35.276" y2="10.6842" gradientUnits="userSpaceOnUse">
<stop stop-color="#FF884B"/>
<stop offset="0.35" stop-color="#FF634C"/>
<stop offset="0.655" stop-color="#FE4A4F"/>
<stop offset="1" stop-color="#FE4840"/>
</linearGradient>
<linearGradient id="paint1_linear_174_1674" x1="14.7305" y1="13.2838" x2="35.276" y2="13.2838" gradientUnits="userSpaceOnUse">
<stop stop-color="#FF884B"/>
<stop offset="0.35" stop-color="#FF634C"/>
<stop offset="0.655" stop-color="#FE4A4F"/>
<stop offset="1" stop-color="#FE4840"/>
</linearGradient>
<linearGradient id="paint2_linear_174_1674" x1="14.7304" y1="13.2838" x2="35.276" y2="13.2838" gradientUnits="userSpaceOnUse">
<stop stop-color="#FF884B"/>
<stop offset="0.35" stop-color="#FF634C"/>
<stop offset="0.655" stop-color="#FE4A4F"/>
<stop offset="1" stop-color="#FE4840"/>
</linearGradient>
</defs>
</svg>
