<svg width="50" height="33" viewBox="0 0 50 33" fill="none" xmlns="http://www.w3.org/2000/svg">
<path d="M2.464 24.554H0.275V23.784H5.566V24.554H3.377V31H2.464V24.554ZM5.61928 28.338C5.61928 27.898 5.68528 27.5057 5.81728 27.161C5.95661 26.809 6.13628 26.512 6.35628 26.27C6.58361 26.028 6.84028 25.8447 7.12628 25.72C7.41228 25.588 7.70928 25.522 8.01728 25.522C8.35461 25.522 8.65528 25.5807 8.91928 25.698C9.19061 25.8153 9.41428 25.984 9.59028 26.204C9.77361 26.424 9.91295 26.688 10.0083 26.996C10.1036 27.304 10.1513 27.6487 10.1513 28.03C10.1513 28.228 10.1403 28.393 10.1183 28.525H6.51028C6.54695 29.1043 6.72295 29.5627 7.03828 29.9C7.36095 30.2373 7.77895 30.406 8.29228 30.406C8.54895 30.406 8.78361 30.3693 8.99628 30.296C9.21628 30.2153 9.42528 30.1127 9.62328 29.988L9.94228 30.582C9.70761 30.7287 9.44728 30.857 9.16128 30.967C8.87528 31.077 8.54895 31.132 8.18228 31.132C7.82295 31.132 7.48561 31.0697 7.17028 30.945C6.86228 30.813 6.59095 30.6297 6.35628 30.395C6.12895 30.153 5.94928 29.8597 5.81728 29.515C5.68528 29.1703 5.61928 28.778 5.61928 28.338ZM9.35928 27.931C9.35928 27.381 9.24195 26.963 9.00728 26.677C8.77995 26.3837 8.45728 26.237 8.03928 26.237C7.84861 26.237 7.66528 26.2773 7.48928 26.358C7.32061 26.4313 7.16661 26.5413 7.02728 26.688C6.88795 26.8273 6.77061 27.0033 6.67528 27.216C6.58728 27.4213 6.52861 27.6597 6.49928 27.931H9.35928ZM11.0763 28.338C11.0763 27.8907 11.146 27.4947 11.2853 27.15C11.4246 26.798 11.6116 26.501 11.8463 26.259C12.081 26.017 12.3523 25.8337 12.6603 25.709C12.9756 25.5843 13.3056 25.522 13.6503 25.522C14.0023 25.522 14.303 25.588 14.5523 25.72C14.809 25.8447 15.029 25.9913 15.2123 26.16L14.7613 26.743C14.6 26.6037 14.4313 26.49 14.2553 26.402C14.0866 26.314 13.896 26.27 13.6833 26.27C13.4413 26.27 13.2176 26.3213 13.0123 26.424C12.807 26.5193 12.631 26.6587 12.4843 26.842C12.3376 27.0253 12.2203 27.2453 12.1323 27.502C12.0516 27.7513 12.0113 28.03 12.0113 28.338C12.0113 28.646 12.0516 28.9247 12.1323 29.174C12.213 29.4233 12.323 29.6397 12.4623 29.823C12.609 29.999 12.785 30.1383 12.9903 30.241C13.1956 30.3363 13.4193 30.384 13.6613 30.384C13.918 30.384 14.149 30.3327 14.3543 30.23C14.567 30.12 14.754 29.9917 14.9153 29.845L15.3223 30.439C15.0803 30.6517 14.809 30.8203 14.5083 30.945C14.215 31.0697 13.907 31.132 13.5843 31.132C13.2323 31.132 12.9023 31.0697 12.5943 30.945C12.2863 30.8203 12.0186 30.6407 11.7913 30.406C11.5713 30.164 11.3953 29.8707 11.2633 29.526C11.1386 29.174 11.0763 28.778 11.0763 28.338ZM16.4889 23.168H17.3909V25.302L17.3579 26.402C17.6146 26.16 17.8822 25.9547 18.1609 25.786C18.4396 25.61 18.7659 25.522 19.1399 25.522C19.7046 25.522 20.1152 25.698 20.3719 26.05C20.6359 26.402 20.7679 26.9227 20.7679 27.612V31H19.8659V27.733C19.8659 27.227 19.7852 26.864 19.6239 26.644C19.4626 26.4167 19.2059 26.303 18.8539 26.303C18.5752 26.303 18.3296 26.3727 18.1169 26.512C17.9042 26.6513 17.6622 26.8567 17.3909 27.128V31H16.4889V23.168ZM24.7839 29.427C25.0406 29.6983 25.3413 29.9183 25.6859 30.087C26.0306 30.2483 26.3936 30.329 26.7749 30.329C27.2516 30.329 27.6219 30.2227 27.8859 30.01C28.1499 29.79 28.2819 29.504 28.2819 29.152C28.2819 28.9687 28.2489 28.8147 28.1829 28.69C28.1243 28.558 28.0399 28.448 27.9299 28.36C27.8199 28.2647 27.6916 28.1803 27.5449 28.107C27.3983 28.0337 27.2406 27.9567 27.0719 27.876L26.0379 27.425C25.8693 27.3517 25.6969 27.2637 25.5209 27.161C25.3523 27.0583 25.1946 26.9337 25.0479 26.787C24.9086 26.6403 24.7949 26.468 24.7069 26.27C24.6189 26.0647 24.5749 25.83 24.5749 25.566C24.5749 25.2947 24.6299 25.0417 24.7399 24.807C24.8573 24.5723 25.0186 24.3707 25.2239 24.202C25.4293 24.026 25.6676 23.8903 25.9389 23.795C26.2176 23.6997 26.5219 23.652 26.8519 23.652C27.2846 23.652 27.6806 23.7363 28.0399 23.905C28.4066 24.0663 28.7183 24.279 28.9749 24.543L28.4909 25.137C28.2709 24.9243 28.0253 24.7593 27.7539 24.642C27.4826 24.5173 27.1819 24.455 26.8519 24.455C26.4413 24.455 26.1113 24.5503 25.8619 24.741C25.6199 24.9243 25.4989 25.181 25.4989 25.511C25.4989 25.687 25.5356 25.8373 25.6089 25.962C25.6823 26.0793 25.7739 26.1857 25.8839 26.281C26.0013 26.369 26.1296 26.4497 26.2689 26.523C26.4156 26.589 26.5586 26.6513 26.6979 26.71L27.7319 27.15C27.9373 27.238 28.1316 27.3407 28.3149 27.458C28.4983 27.568 28.6559 27.7 28.7879 27.854C28.9199 28.0007 29.0226 28.1767 29.0959 28.382C29.1766 28.58 29.2169 28.811 29.2169 29.075C29.2169 29.361 29.1583 29.6287 29.0409 29.878C28.9309 30.1273 28.7696 30.3473 28.5569 30.538C28.3443 30.7213 28.0839 30.868 27.7759 30.978C27.4753 31.0807 27.1343 31.132 26.7529 31.132C26.2469 31.132 25.7776 31.0367 25.3449 30.846C24.9196 30.6553 24.5493 30.395 24.2339 30.065L24.7839 29.427ZM30.6722 26.391H29.8802V25.709L30.7162 25.654L30.8262 24.158H31.5852V25.654H33.0262V26.391H31.5852V29.361C31.5852 29.691 31.6439 29.9477 31.7612 30.131C31.8859 30.307 32.1022 30.395 32.4102 30.395C32.5055 30.395 32.6082 30.3803 32.7182 30.351C32.8282 30.3217 32.9272 30.2887 33.0152 30.252L33.1912 30.934C33.0445 30.9853 32.8832 31.0293 32.7072 31.066C32.5385 31.11 32.3699 31.132 32.2012 31.132C31.9152 31.132 31.6732 31.088 31.4752 31C31.2845 30.912 31.1269 30.791 31.0022 30.637C30.8849 30.483 30.8005 30.296 30.7492 30.076C30.6979 29.856 30.6722 29.614 30.6722 29.35V26.391ZM33.7776 29.614C33.7776 29.0273 34.038 28.58 34.5586 28.272C35.0866 27.9567 35.9226 27.7367 37.0666 27.612C37.0666 27.4433 37.0483 27.2783 37.0116 27.117C36.9823 26.9557 36.9236 26.8127 36.8356 26.688C36.755 26.5633 36.645 26.4643 36.5056 26.391C36.3663 26.3103 36.1866 26.27 35.9666 26.27C35.6513 26.27 35.358 26.3287 35.0866 26.446C34.8226 26.5633 34.5843 26.6953 34.3716 26.842L34.0086 26.215C34.258 26.0537 34.5623 25.8997 34.9216 25.753C35.281 25.599 35.677 25.522 36.1096 25.522C36.7623 25.522 37.2353 25.7237 37.5286 26.127C37.822 26.523 37.9686 27.0547 37.9686 27.722V31H37.2206L37.1436 30.362H37.1216C36.865 30.5747 36.5863 30.758 36.2856 30.912C35.9923 31.0587 35.6806 31.132 35.3506 31.132C34.896 31.132 34.5183 31 34.2176 30.736C33.9243 30.472 33.7776 30.098 33.7776 29.614ZM34.6686 29.548C34.6686 29.856 34.7566 30.076 34.9326 30.208C35.116 30.34 35.3396 30.406 35.6036 30.406C35.8603 30.406 36.1023 30.3473 36.3296 30.23C36.5643 30.1053 36.81 29.9257 37.0666 29.691V28.206C36.6193 28.2647 36.2416 28.3343 35.9336 28.415C35.6256 28.4957 35.3763 28.591 35.1856 28.701C35.0023 28.811 34.8703 28.9393 34.7896 29.086C34.709 29.2253 34.6686 29.3793 34.6686 29.548ZM39.2746 28.338C39.2746 27.8907 39.3442 27.4947 39.4836 27.15C39.6229 26.798 39.8099 26.501 40.0446 26.259C40.2792 26.017 40.5506 25.8337 40.8586 25.709C41.1739 25.5843 41.5039 25.522 41.8486 25.522C42.2006 25.522 42.5012 25.588 42.7506 25.72C43.0072 25.8447 43.2272 25.9913 43.4106 26.16L42.9596 26.743C42.7982 26.6037 42.6296 26.49 42.4536 26.402C42.2849 26.314 42.0942 26.27 41.8816 26.27C41.6396 26.27 41.4159 26.3213 41.2106 26.424C41.0052 26.5193 40.8292 26.6587 40.6826 26.842C40.5359 27.0253 40.4186 27.2453 40.3306 27.502C40.2499 27.7513 40.2096 28.03 40.2096 28.338C40.2096 28.646 40.2499 28.9247 40.3306 29.174C40.4112 29.4233 40.5212 29.6397 40.6606 29.823C40.8072 29.999 40.9832 30.1383 41.1886 30.241C41.3939 30.3363 41.6176 30.384 41.8596 30.384C42.1162 30.384 42.3472 30.3327 42.5526 30.23C42.7652 30.12 42.9522 29.9917 43.1136 29.845L43.5206 30.439C43.2786 30.6517 43.0072 30.8203 42.7066 30.945C42.4132 31.0697 42.1052 31.132 41.7826 31.132C41.4306 31.132 41.1006 31.0697 40.7926 30.945C40.4846 30.8203 40.2169 30.6407 39.9896 30.406C39.7696 30.164 39.5936 29.8707 39.4616 29.526C39.3369 29.174 39.2746 28.778 39.2746 28.338ZM44.6872 23.168H45.5782V28.47H45.6112L47.8882 25.654H48.8892L47.0962 27.799L49.1312 31H48.1412L46.5792 28.426L45.5782 29.592V31H44.6872V23.168Z" fill="#303030"/>
<path d="M28.0293 3.12817C28.0293 1.43521 26.65 0.0559082 24.957 0.0559082C23.2641 0.0559082 21.8848 1.43521 21.8848 3.12817C21.8848 4.52466 22.8215 5.702 24.0977 6.07583V20.4532C24.0977 20.9258 24.4844 21.3125 24.957 21.3125C25.4297 21.3125 25.8164 20.9258 25.8164 20.4532V6.07583C27.0926 5.702 28.0293 4.52466 28.0293 3.12817ZM24.957 4.48169C24.2094 4.48169 23.6035 3.87583 23.6035 3.12817C23.6035 2.38052 24.2094 1.77466 24.957 1.77466C25.7047 1.77466 26.3105 2.38052 26.3105 3.12817C26.3105 3.87583 25.7047 4.48169 24.957 4.48169Z" fill="#303030"/>
<path d="M32.9363 4.56763C31.3852 4.56763 30.1004 5.72349 29.8941 7.2188H29.0391C28.3902 7.2188 27.8746 7.51528 27.5867 8.0481C27.3504 8.49067 27.3203 9.0106 27.3203 9.36724V21.1407C27.3203 21.6133 27.707 22 28.1797 22C28.6523 22 29.0391 21.6133 29.0391 21.1407V9.36724C29.0391 9.1395 29.0562 9.0106 29.0734 8.93755H30.1562C30.6461 9.98599 31.7074 10.7122 32.9406 10.7122C34.6336 10.7122 36.0129 9.33286 36.0129 7.63989C36.0129 5.94692 34.6293 4.56763 32.9363 4.56763ZM32.9363 8.99341C32.1887 8.99341 31.5828 8.38755 31.5828 7.63989C31.5828 6.89224 32.1887 6.28638 32.9363 6.28638C33.684 6.28638 34.2898 6.89224 34.2898 7.63989C34.2898 8.38755 33.684 8.99341 32.9363 8.99341Z" fill="#303030"/>
<path d="M20.4453 7.2188H20.08C19.8738 5.72349 18.589 4.56763 17.0378 4.56763C15.3449 4.56763 13.9656 5.94692 13.9656 7.63989C13.9656 9.33286 15.3449 10.7122 17.0378 10.7122C18.2667 10.7122 19.3324 9.98599 19.8222 8.93755H20.4453C20.6816 8.93755 20.875 9.13091 20.875 9.36724V21.1407C20.875 21.6133 21.2617 22 21.7343 22C22.207 22 22.5937 21.6133 22.5937 21.1407V9.36724C22.5937 8.1813 21.6312 7.2188 20.4453 7.2188ZM17.0378 8.99341C16.2902 8.99341 15.6843 8.38755 15.6843 7.63989C15.6843 6.89224 16.2902 6.28638 17.0378 6.28638C17.7855 6.28638 18.3914 6.89224 18.3914 7.63989C18.3914 8.38755 17.7855 8.99341 17.0378 8.99341Z" fill="#303030"/>
</svg>
