<svg width="28" height="28" viewBox="0 0 28 28" fill="none" xmlns="http://www.w3.org/2000/svg">
<path d="M16.0507 13.9999L13.0667 15.9893V12.0105L16.0507 13.9999Z" fill="black"/>
<path fill-rule="evenodd" clip-rule="evenodd" d="M2.81139 3.30959C10.1867 1.72916 17.8133 1.72916 25.1886 3.30959C26.8285 3.66099 28 5.11018 28 6.78725V21.2125C28 22.8896 26.8285 24.3388 25.1886 24.6902C17.8133 26.2706 10.1867 26.2706 2.81139 24.6902C1.17155 24.3388 0 22.8896 0 21.2125V6.78725C0 5.11018 1.17155 3.66099 2.81139 3.30959ZM12.6511 9.48997C12.3647 9.29904 11.9964 9.28124 11.6929 9.44366C11.3895 9.60608 11.2 9.92235 11.2 10.2666V17.7332C11.2 18.0774 11.3895 18.3937 11.6929 18.5561C11.9964 18.7185 12.3647 18.7007 12.6511 18.5098L18.2511 14.7765C18.5107 14.6034 18.6667 14.312 18.6667 13.9999C18.6667 13.6878 18.5107 13.3964 18.2511 13.2233L12.6511 9.48997Z" fill="black"/>
</svg>
