<svg width="70" height="70" viewBox="0 0 70 70" fill="none" xmlns="http://www.w3.org/2000/svg">
<rect width="70" height="70" rx="8" fill="#303030"/>
<path d="M17.6757 28.392C17.6757 27.8127 17.7564 27.292 17.9177 26.83C18.0791 26.368 18.3027 25.9757 18.5887 25.653C18.8821 25.3303 19.2231 25.0847 19.6117 24.916C20.0077 24.74 20.4367 24.652 20.8987 24.652C21.3314 24.652 21.7127 24.7437 22.0427 24.927C22.3801 25.103 22.6551 25.3083 22.8677 25.543L22.3507 26.126C22.1601 25.9207 21.9474 25.7593 21.7127 25.642C21.4781 25.5173 21.2104 25.455 20.9097 25.455C20.5651 25.455 20.2497 25.5247 19.9637 25.664C19.6851 25.796 19.4467 25.9903 19.2487 26.247C19.0507 26.4963 18.8967 26.8007 18.7867 27.16C18.6767 27.5193 18.6217 27.9227 18.6217 28.37C18.6217 28.8247 18.6731 29.2353 18.7757 29.602C18.8857 29.9613 19.0361 30.2693 19.2267 30.526C19.4247 30.7827 19.6594 30.9807 19.9307 31.12C20.2094 31.2593 20.5211 31.329 20.8657 31.329C21.2104 31.329 21.5111 31.2593 21.7677 31.12C22.0317 30.9807 22.2811 30.7827 22.5157 30.526L23.0327 31.087C22.7541 31.417 22.4351 31.6737 22.0757 31.857C21.7164 32.0403 21.3057 32.132 20.8437 32.132C20.3891 32.132 19.9674 32.0477 19.5787 31.879C19.1974 31.7103 18.8637 31.4683 18.5777 31.153C18.2991 30.8303 18.0791 30.438 17.9177 29.976C17.7564 29.5067 17.6757 28.9787 17.6757 28.392ZM26.6749 32.132C26.2203 32.132 25.8023 32.044 25.4209 31.868C25.0469 31.692 24.7206 31.4427 24.4419 31.12C24.1706 30.79 23.9579 30.394 23.8039 29.932C23.6573 29.4627 23.5839 28.9383 23.5839 28.359C23.5839 27.7797 23.6573 27.2627 23.8039 26.808C23.9579 26.346 24.1706 25.9573 24.4419 25.642C24.7206 25.3193 25.0469 25.0737 25.4209 24.905C25.8023 24.7363 26.2203 24.652 26.6749 24.652C27.1223 24.652 27.5329 24.74 27.9069 24.916C28.2883 25.0847 28.6146 25.3303 28.8859 25.653C29.1646 25.9683 29.3773 26.357 29.5239 26.819C29.6779 27.2737 29.7549 27.787 29.7549 28.359C29.7549 28.9383 29.6779 29.4627 29.5239 29.932C29.3773 30.394 29.1646 30.79 28.8859 31.12C28.6146 31.4427 28.2883 31.692 27.9069 31.868C27.5329 32.044 27.1223 32.132 26.6749 32.132ZM26.6749 31.329C26.9976 31.329 27.2873 31.2593 27.5439 31.12C27.8079 30.9807 28.0316 30.7827 28.2149 30.526C28.4056 30.262 28.5523 29.9503 28.6549 29.591C28.7576 29.2243 28.8089 28.8137 28.8089 28.359C28.8089 27.9117 28.7576 27.5083 28.6549 27.149C28.5523 26.7897 28.4056 26.4853 28.2149 26.236C28.0316 25.9867 27.8079 25.796 27.5439 25.664C27.2873 25.5247 26.9976 25.455 26.6749 25.455C26.3523 25.455 26.0589 25.5247 25.7949 25.664C25.5309 25.796 25.3036 25.9867 25.1129 26.236C24.9296 26.4853 24.7866 26.7897 24.6839 27.149C24.5813 27.5083 24.5299 27.9117 24.5299 28.359C24.5299 28.8137 24.5813 29.2243 24.6839 29.591C24.7866 29.9503 24.9296 30.262 25.1129 30.526C25.3036 30.7827 25.5309 30.9807 25.7949 31.12C26.0589 31.2593 26.3523 31.329 26.6749 31.329ZM31.2529 24.784H32.3419L33.7389 28.656L34.2559 30.13H34.2999L34.8059 28.656L36.1919 24.784H37.2699V32H36.4009V28.029C36.4009 27.7063 36.4156 27.3507 36.4449 26.962C36.4742 26.5733 36.4999 26.2177 36.5219 25.895H36.4779L35.9059 27.501L34.5199 31.274H33.9919L32.6059 27.501L32.0339 25.895H31.9899C32.0119 26.2177 32.0339 26.5733 32.0559 26.962C32.0852 27.3507 32.0999 27.7063 32.0999 28.029V32H31.2529V24.784ZM39.1914 24.784H40.1154V32H39.1914V24.784ZM42.0273 24.784H42.9733L45.5913 29.316L46.3723 30.812H46.4163C46.3943 30.4453 46.3686 30.0677 46.3393 29.679C46.31 29.283 46.2953 28.8943 46.2953 28.513V24.784H47.1643V32H46.2183L43.6113 27.457L42.8303 25.972H42.7863C42.8083 26.3387 42.8303 26.7127 42.8523 27.094C42.8816 27.468 42.8963 27.8457 42.8963 28.227V32H42.0273V24.784ZM48.6669 28.392C48.6669 27.8127 48.7476 27.292 48.9089 26.83C49.0776 26.368 49.3086 25.9757 49.6019 25.653C49.9026 25.3303 50.2546 25.0847 50.6579 24.916C51.0686 24.74 51.5159 24.652 51.9999 24.652C52.4913 24.652 52.9056 24.7473 53.2429 24.938C53.5803 25.1213 53.8553 25.323 54.0679 25.543L53.5399 26.126C53.3566 25.9353 53.1439 25.7777 52.9019 25.653C52.6673 25.521 52.3703 25.455 52.0109 25.455C51.6443 25.455 51.3143 25.5247 51.0209 25.664C50.7276 25.796 50.4746 25.9903 50.2619 26.247C50.0566 26.4963 49.8953 26.8007 49.7779 27.16C49.6679 27.5193 49.6129 27.9227 49.6129 28.37C49.6129 28.8247 49.6643 29.2353 49.7669 29.602C49.8769 29.9613 50.0309 30.2693 50.2289 30.526C50.4343 30.7827 50.6836 30.9807 50.9769 31.12C51.2776 31.2593 51.6223 31.329 52.0109 31.329C52.2676 31.329 52.5133 31.2923 52.7479 31.219C52.9826 31.1383 53.1733 31.032 53.3199 30.9V29.019H51.7909V28.26H54.1559V31.296C53.9213 31.5307 53.6096 31.7287 53.2209 31.89C52.8323 32.0513 52.3959 32.132 51.9119 32.132C51.4353 32.132 50.9989 32.0477 50.6029 31.879C50.2069 31.7103 49.8659 31.4683 49.5799 31.153C49.2939 30.8303 49.0703 30.438 48.9089 29.976C48.7476 29.5067 48.6669 28.9787 48.6669 28.392ZM23.2991 43.427C23.5557 43.6983 23.8564 43.9183 24.2011 44.087C24.5457 44.2483 24.9087 44.329 25.2901 44.329C25.7667 44.329 26.1371 44.2227 26.4011 44.01C26.6651 43.79 26.7971 43.504 26.7971 43.152C26.7971 42.9687 26.7641 42.8147 26.6981 42.69C26.6394 42.558 26.5551 42.448 26.4451 42.36C26.3351 42.2647 26.2067 42.1803 26.0601 42.107C25.9134 42.0337 25.7557 41.9567 25.5871 41.876L24.5531 41.425C24.3844 41.3517 24.2121 41.2637 24.0361 41.161C23.8674 41.0583 23.7097 40.9337 23.5631 40.787C23.4237 40.6403 23.3101 40.468 23.2221 40.27C23.1341 40.0647 23.0901 39.83 23.0901 39.566C23.0901 39.2947 23.1451 39.0417 23.2551 38.807C23.3724 38.5723 23.5337 38.3707 23.7391 38.202C23.9444 38.026 24.1827 37.8903 24.4541 37.795C24.7327 37.6997 25.0371 37.652 25.3671 37.652C25.7997 37.652 26.1957 37.7363 26.5551 37.905C26.9217 38.0663 27.2334 38.279 27.4901 38.543L27.0061 39.137C26.7861 38.9243 26.5404 38.7593 26.2691 38.642C25.9977 38.5173 25.6971 38.455 25.3671 38.455C24.9564 38.455 24.6264 38.5503 24.3771 38.741C24.1351 38.9243 24.0141 39.181 24.0141 39.511C24.0141 39.687 24.0507 39.8373 24.1241 39.962C24.1974 40.0793 24.2891 40.1857 24.3991 40.281C24.5164 40.369 24.6447 40.4497 24.7841 40.523C24.9307 40.589 25.0737 40.6513 25.2131 40.71L26.2471 41.15C26.4524 41.238 26.6467 41.3407 26.8301 41.458C27.0134 41.568 27.1711 41.7 27.3031 41.854C27.4351 42.0007 27.5377 42.1767 27.6111 42.382C27.6917 42.58 27.7321 42.811 27.7321 43.075C27.7321 43.361 27.6734 43.6287 27.5561 43.878C27.4461 44.1273 27.2847 44.3473 27.0721 44.538C26.8594 44.7213 26.5991 44.868 26.2911 44.978C25.9904 45.0807 25.6494 45.132 25.2681 45.132C24.7621 45.132 24.2927 45.0367 23.8601 44.846C23.4347 44.6553 23.0644 44.395 22.7491 44.065L23.2991 43.427ZM31.7613 45.132C31.3067 45.132 30.8887 45.044 30.5073 44.868C30.1333 44.692 29.807 44.4427 29.5283 44.12C29.257 43.79 29.0443 43.394 28.8903 42.932C28.7437 42.4627 28.6703 41.9383 28.6703 41.359C28.6703 40.7797 28.7437 40.2627 28.8903 39.808C29.0443 39.346 29.257 38.9573 29.5283 38.642C29.807 38.3193 30.1333 38.0737 30.5073 37.905C30.8887 37.7363 31.3067 37.652 31.7613 37.652C32.2087 37.652 32.6193 37.74 32.9933 37.916C33.3747 38.0847 33.701 38.3303 33.9723 38.653C34.251 38.9683 34.4637 39.357 34.6103 39.819C34.7643 40.2737 34.8413 40.787 34.8413 41.359C34.8413 41.9383 34.7643 42.4627 34.6103 42.932C34.4637 43.394 34.251 43.79 33.9723 44.12C33.701 44.4427 33.3747 44.692 32.9933 44.868C32.6193 45.044 32.2087 45.132 31.7613 45.132ZM31.7613 44.329C32.084 44.329 32.3737 44.2593 32.6303 44.12C32.8943 43.9807 33.118 43.7827 33.3013 43.526C33.492 43.262 33.6387 42.9503 33.7413 42.591C33.844 42.2243 33.8953 41.8137 33.8953 41.359C33.8953 40.9117 33.844 40.5083 33.7413 40.149C33.6387 39.7897 33.492 39.4853 33.3013 39.236C33.118 38.9867 32.8943 38.796 32.6303 38.664C32.3737 38.5247 32.084 38.455 31.7613 38.455C31.4387 38.455 31.1453 38.5247 30.8813 38.664C30.6173 38.796 30.39 38.9867 30.1993 39.236C30.016 39.4853 29.873 39.7897 29.7703 40.149C29.6677 40.5083 29.6163 40.9117 29.6163 41.359C29.6163 41.8137 29.6677 42.2243 29.7703 42.591C29.873 42.9503 30.016 43.262 30.1993 43.526C30.39 43.7827 30.6173 43.9807 30.8813 44.12C31.1453 44.2593 31.4387 44.329 31.7613 44.329ZM39.0123 45.132C38.5577 45.132 38.1397 45.044 37.7583 44.868C37.3843 44.692 37.058 44.4427 36.7793 44.12C36.508 43.79 36.2953 43.394 36.1413 42.932C35.9947 42.4627 35.9213 41.9383 35.9213 41.359C35.9213 40.7797 35.9947 40.2627 36.1413 39.808C36.2953 39.346 36.508 38.9573 36.7793 38.642C37.058 38.3193 37.3843 38.0737 37.7583 37.905C38.1397 37.7363 38.5577 37.652 39.0123 37.652C39.4597 37.652 39.8703 37.74 40.2443 37.916C40.6257 38.0847 40.952 38.3303 41.2233 38.653C41.502 38.9683 41.7147 39.357 41.8613 39.819C42.0153 40.2737 42.0923 40.787 42.0923 41.359C42.0923 41.9383 42.0153 42.4627 41.8613 42.932C41.7147 43.394 41.502 43.79 41.2233 44.12C40.952 44.4427 40.6257 44.692 40.2443 44.868C39.8703 45.044 39.4597 45.132 39.0123 45.132ZM39.0123 44.329C39.335 44.329 39.6247 44.2593 39.8813 44.12C40.1453 43.9807 40.369 43.7827 40.5523 43.526C40.743 43.262 40.8897 42.9503 40.9923 42.591C41.095 42.2243 41.1463 41.8137 41.1463 41.359C41.1463 40.9117 41.095 40.5083 40.9923 40.149C40.8897 39.7897 40.743 39.4853 40.5523 39.236C40.369 38.9867 40.1453 38.796 39.8813 38.664C39.6247 38.5247 39.335 38.455 39.0123 38.455C38.6897 38.455 38.3963 38.5247 38.1323 38.664C37.8683 38.796 37.641 38.9867 37.4503 39.236C37.267 39.4853 37.124 39.7897 37.0213 40.149C36.9187 40.5083 36.8673 40.9117 36.8673 41.359C36.8673 41.8137 36.9187 42.2243 37.0213 42.591C37.124 42.9503 37.267 43.262 37.4503 43.526C37.641 43.7827 37.8683 43.9807 38.1323 44.12C38.3963 44.2593 38.6897 44.329 39.0123 44.329ZM43.5903 37.784H44.5363L47.1543 42.316L47.9353 43.812H47.9793C47.9573 43.4453 47.9316 43.0677 47.9023 42.679C47.873 42.283 47.8583 41.8943 47.8583 41.513V37.784H48.7273V45H47.7813L45.1743 40.457L44.3933 38.972H44.3493C44.3713 39.3387 44.3933 39.7127 44.4153 40.094C44.4446 40.468 44.4593 40.8457 44.4593 41.227V45H43.5903V37.784Z" fill="#F0F0F0"/>
</svg>
