<svg width="180" height="180" viewBox="0 0 180 180" fill="none" xmlns="http://www.w3.org/2000/svg">
<path opacity="0.15" d="M90 175.125C122.309 175.125 148.5 172.271 148.5 168.75C148.5 165.229 122.309 162.375 90 162.375C57.6913 162.375 31.5 165.229 31.5 168.75C31.5 172.271 57.6913 175.125 90 175.125Z" fill="#45413C"/>
<path d="M90 156.375C127.486 156.375 157.875 125.986 157.875 88.5C157.875 51.0137 127.486 20.625 90 20.625C52.5137 20.625 22.125 51.0137 22.125 88.5C22.125 125.986 52.5137 156.375 90 156.375Z" fill="#FFDA8F"/>
<path d="M90 20.625C52.5 20.625 22.125 51 22.125 88.5C22.125 126 52.5 156 90 156C127.5 156 157.875 125.625 157.875 88.125C157.875 50.625 127.5 20.625 90 20.625ZM90 145.875C55.875 145.875 28.125 118.125 28.125 84C28.125 49.875 55.875 22.125 90 22.125C124.125 22.125 151.875 49.875 151.875 84C151.875 118.125 124.125 145.875 90 145.875Z" fill="#FFBE3D"/>
<path d="M90 156.375C127.486 156.375 157.875 125.986 157.875 88.5C157.875 51.0137 127.486 20.625 90 20.625C52.5137 20.625 22.125 51.0137 22.125 88.5C22.125 125.986 52.5137 156.375 90 156.375Z" stroke="#45413C" stroke-miterlimit="10" stroke-linecap="round" stroke-linejoin="round"/>
<path d="M130.875 125.625C135.638 125.625 139.5 123.274 139.5 120.375C139.5 117.475 135.638 115.125 130.875 115.125C126.112 115.125 122.25 117.475 122.25 120.375C122.25 123.274 126.112 125.625 130.875 125.625Z" fill="#FFE9BD"/>
<path d="M49.125 125.625C53.8885 125.625 57.75 123.274 57.75 120.375C57.75 117.475 53.8885 115.125 49.125 115.125C44.3615 115.125 40.5 117.475 40.5 120.375C40.5 123.274 44.3615 125.625 49.125 125.625Z" fill="#FFE9BD"/>
<path d="M60.75 98.625C60.75 102 58.125 105 54.375 105C51 105 48 102.375 48 98.625" stroke="#45413C" stroke-miterlimit="10" stroke-linecap="round" stroke-linejoin="round"/>
<path d="M119.25 98.625C119.25 102 121.875 105 125.625 105C129 105 132 102.375 132 98.625" stroke="#45413C" stroke-miterlimit="10" stroke-linecap="round" stroke-linejoin="round"/>
<path d="M82.875 136.875H97.125" stroke="#45413C" stroke-miterlimit="10" stroke-linecap="round" stroke-linejoin="round"/>
<path d="M19.875 75C19.875 36.375 51.375 4.875 90 4.875C128.625 4.875 160.125 36.375 160.125 75H19.875Z" fill="#FFE500"/>
<path d="M90 20.625C123.375 20.625 151.125 43.875 158.25 75H160.125C160.125 36.375 128.625 4.875 90 4.875C51.375 4.875 19.875 36.375 19.875 75H21.75C28.875 43.875 56.625 20.625 90 20.625Z" fill="#FFF48C"/>
<path d="M19.875 75C19.875 36.375 51.375 4.875 90 4.875C128.625 4.875 160.125 36.375 160.125 75H19.875Z" stroke="#45413C" stroke-miterlimit="10" stroke-linecap="round" stroke-linejoin="round"/>
<path d="M12.375 70.5001C12.375 66.3751 16.125 63.3751 19.875 64.5001C32.25 67.1251 59.25 72.0001 90 72.0001C120.75 72.0001 147.75 67.1251 160.125 64.5001C163.875 63.7501 167.625 66.7501 167.625 70.5001V75.7501C167.625 78.7501 165.375 81.3751 162.375 82.1251C151.125 84.3751 121.125 90.0001 90 90.0001C58.875 90.0001 28.875 84.3751 17.25 82.1251C14.25 81.3751 12 78.7501 12 75.7501V70.5001H12.375Z" fill="#FFE500"/>
<path d="M160.125 64.125C147.75 66.75 120.75 71.625 90 71.625C59.25 71.625 32.25 66.75 19.875 64.125C16.125 63.375 12.375 66.375 12.375 70.125V75.375C12.375 76.125 12.375 76.5 12.75 76.875C13.5 73.875 16.875 71.625 20.25 72.375C32.625 75 59.625 79.875 90.375 79.875C121.125 79.875 148.125 75 160.5 72.375C163.875 71.625 166.875 73.875 168 76.875C168 76.5 168.375 75.75 168.375 75.375V70.125C168 66.375 164.25 63.375 160.125 64.125Z" fill="#FFF48C"/>
<path d="M12.375 70.5001C12.375 66.3751 16.125 63.3751 19.875 64.5001C32.25 67.1251 59.25 72.0001 90 72.0001C120.75 72.0001 147.75 67.1251 160.125 64.5001C163.875 63.7501 167.625 66.7501 167.625 70.5001V75.7501C167.625 78.7501 165.375 81.3751 162.375 82.1251C151.125 84.3751 121.125 90.0001 90 90.0001C58.875 90.0001 28.875 84.3751 17.25 82.1251C14.25 81.3751 12 78.7501 12 75.7501V70.5001H12.375Z" stroke="#45413C" stroke-miterlimit="10" stroke-linecap="round" stroke-linejoin="round"/>
<path d="M105.75 34.125H97.875V26.25C97.875 24 96 22.125 93.75 22.125H86.25C84 22.125 82.125 24 82.125 26.25V34.125H74.25C72 34.125 70.125 36 70.125 38.25V45.75C70.125 48 72 49.875 74.25 49.875H82.125V57.75C82.125 60 84 61.875 86.25 61.875H93.75C96 61.875 97.875 60 97.875 57.75V49.875H105.75C108 49.875 109.875 48 109.875 45.75V38.25C109.875 36 108 34.125 105.75 34.125Z" fill="#6DD627" stroke="#45413C" stroke-miterlimit="10" stroke-linecap="round" stroke-linejoin="round"/>
</svg>
