<svg width="115" height="36" viewBox="0 0 115 36" fill="none" xmlns="http://www.w3.org/2000/svg">
<path d="M39.4795 27.2148C38.6702 27.2148 37.9362 27.0215 37.2773 26.6348C36.6257 26.248 36.11 25.7145 35.7305 25.0342C35.3581 24.3467 35.1719 23.5804 35.1719 22.7354V21.7148C35.1719 21.6576 35.2005 21.6289 35.2578 21.6289H37.75C37.8073 21.6289 37.8359 21.6683 37.8359 21.7471V22.7354C37.8359 23.2725 37.9899 23.7129 38.2979 24.0566C38.6058 24.3932 38.9997 24.5615 39.4795 24.5615C39.9235 24.5615 40.3066 24.3789 40.6289 24.0137C40.9512 23.6413 41.1123 23.2152 41.1123 22.7354V11.7998C41.1123 11.7425 41.141 11.7139 41.1982 11.7139H43.6689C43.7262 11.7139 43.7549 11.7497 43.7549 11.8213L43.7764 22.7354C43.7764 23.5374 43.583 24.2786 43.1963 24.959C42.8024 25.6465 42.2832 26.1943 41.6387 26.6025C40.9941 27.0107 40.2744 27.2148 39.4795 27.2148ZM51.502 27.2148C50.7214 27.2148 50.0016 27.0143 49.3428 26.6133C48.6911 26.2122 48.1647 25.6787 47.7637 25.0127C47.3698 24.3395 47.1729 23.6019 47.1729 22.7998L47.1943 15.8281C47.1943 15.0117 47.3913 14.2777 47.7852 13.626C48.1719 12.9671 48.6947 12.4408 49.3535 12.0469C50.0124 11.6458 50.7285 11.4453 51.502 11.4453C52.304 11.4453 53.0238 11.6423 53.6611 12.0361C54.3057 12.43 54.8213 12.96 55.208 13.626C55.6019 14.2848 55.7988 15.0189 55.7988 15.8281L55.8203 22.7998C55.8203 23.6019 55.627 24.3359 55.2402 25.002C54.8464 25.6751 54.3236 26.2122 53.6719 26.6133C53.0202 27.0143 52.2969 27.2148 51.502 27.2148ZM51.502 24.5615C51.946 24.5615 52.3327 24.3825 52.6621 24.0244C52.9915 23.6592 53.1562 23.251 53.1562 22.7998L53.1348 15.8281C53.1348 15.3411 52.9808 14.9294 52.6729 14.5928C52.3649 14.2562 51.9746 14.0879 51.502 14.0879C51.0508 14.0879 50.6641 14.2526 50.3418 14.582C50.0195 14.9115 49.8584 15.3268 49.8584 15.8281V22.7998C49.8584 23.2796 50.0195 23.695 50.3418 24.0459C50.6641 24.3896 51.0508 24.5615 51.502 24.5615ZM62.0635 27H59.5713C59.514 27 59.4854 26.9642 59.4854 26.8926L59.5283 11.7783C59.5283 11.721 59.557 11.6924 59.6143 11.6924H64.0615C64.8564 11.6924 65.5869 11.8857 66.2529 12.2725C66.9189 12.6592 67.4489 13.1784 67.8428 13.8301C68.2438 14.4818 68.4443 15.2194 68.4443 16.043C68.4443 16.5801 68.362 17.0671 68.1973 17.5039C68.0326 17.9408 67.8392 18.3096 67.6172 18.6104C67.4023 18.9111 67.2054 19.1331 67.0264 19.2764C67.8213 20.1572 68.2188 21.1921 68.2188 22.3809L68.2402 26.8926C68.2402 26.9642 68.2044 27 68.1328 27H65.6406C65.5833 27 65.5547 26.9785 65.5547 26.9355V22.3809C65.5547 21.8509 65.3685 21.3926 64.9961 21.0059C64.6237 20.6191 64.1654 20.4258 63.6211 20.4258H62.1709L62.1494 26.8926C62.1494 26.9642 62.1208 27 62.0635 27ZM64.0615 14.3242H62.1709V17.7832H64.0615C64.5127 17.7832 64.9137 17.6149 65.2646 17.2783C65.6227 16.9417 65.8018 16.5299 65.8018 16.043C65.8018 15.5775 65.6299 15.1764 65.2861 14.8398C64.9424 14.4961 64.5342 14.3242 64.0615 14.3242ZM75.708 27.2148C74.8988 27.2148 74.1647 27.0215 73.5059 26.6348C72.8542 26.248 72.3385 25.7145 71.959 25.0342C71.5866 24.3467 71.4004 23.5804 71.4004 22.7354V21.7148C71.4004 21.6576 71.429 21.6289 71.4863 21.6289H73.9785C74.0358 21.6289 74.0645 21.6683 74.0645 21.7471V22.7354C74.0645 23.2725 74.2184 23.7129 74.5264 24.0566C74.8343 24.3932 75.2282 24.5615 75.708 24.5615C76.152 24.5615 76.5352 24.3789 76.8574 24.0137C77.1797 23.6413 77.3408 23.2152 77.3408 22.7354V11.7998C77.3408 11.7425 77.3695 11.7139 77.4268 11.7139H79.8975C79.9548 11.7139 79.9834 11.7497 79.9834 11.8213L80.0049 22.7354C80.0049 23.5374 79.8115 24.2786 79.4248 24.959C79.0309 25.6465 78.5117 26.1943 77.8672 26.6025C77.2227 27.0107 76.5029 27.2148 75.708 27.2148ZM90.8564 27H83.7451C83.6878 27 83.6592 26.9642 83.6592 26.8926L83.6807 11.7783C83.6807 11.721 83.7093 11.6924 83.7666 11.6924H90.835C90.8923 11.6924 90.9209 11.7282 90.9209 11.7998V14.2598C90.9209 14.3171 90.8923 14.3457 90.835 14.3457H86.3232V17.7832H90.835C90.8923 17.7832 90.9209 17.8118 90.9209 17.8691L90.9424 20.3613C90.9424 20.4186 90.9137 20.4473 90.8564 20.4473H86.3232V24.293H90.8564C90.9137 24.293 90.9424 24.3288 90.9424 24.4004V26.9141C90.9424 26.9714 90.9137 27 90.8564 27ZM102.095 27H94.9834C94.9261 27 94.8975 26.9642 94.8975 26.8926L94.9189 11.7783C94.9189 11.721 94.9476 11.6924 95.0049 11.6924H102.073C102.131 11.6924 102.159 11.7282 102.159 11.7998V14.2598C102.159 14.3171 102.131 14.3457 102.073 14.3457H97.5615V17.7832H102.073C102.131 17.7832 102.159 17.8118 102.159 17.8691L102.181 20.3613C102.181 20.4186 102.152 20.4473 102.095 20.4473H97.5615V24.293H102.095C102.152 24.293 102.181 24.3288 102.181 24.4004V26.9141C102.181 26.9714 102.152 27 102.095 27ZM113.333 27H106.222C106.164 27 106.136 26.9642 106.136 26.8926L106.157 11.7783C106.157 11.721 106.186 11.6924 106.243 11.6924H113.312C113.369 11.6924 113.397 11.7282 113.397 11.7998V14.2598C113.397 14.3171 113.369 14.3457 113.312 14.3457H108.8V17.7832H113.312C113.369 17.7832 113.397 17.8118 113.397 17.8691L113.419 20.3613C113.419 20.4186 113.39 20.4473 113.333 20.4473H108.8V24.293H113.333C113.39 24.293 113.419 24.3288 113.419 24.4004V26.9141C113.419 26.9714 113.39 27 113.333 27Z" fill="black"/>
<path d="M16.5 20L25.5 34H2L16.5 2L25.5 17" stroke="black" stroke-width="4" stroke-linecap="round" stroke-linejoin="round"/>
</svg>
