<svg width="70" height="70" viewBox="0 0 70 70" fill="none" xmlns="http://www.w3.org/2000/svg">
<rect x="0.5" y="0.5" width="69" height="69" rx="7.5" fill="white" stroke="#303030"/>
<path d="M23.9404 50H23.2666C23.2471 50 23.2373 49.9902 23.2373 49.9707L23.249 45.8486C23.249 45.833 23.2568 45.8252 23.2725 45.8252H24.4268C24.7939 45.8252 25.084 45.9375 25.2969 46.1621C25.5117 46.3848 25.6191 46.6885 25.6191 47.0732C25.6191 47.3545 25.5635 47.5996 25.4521 47.8086C25.3389 48.0156 25.1924 48.1758 25.0127 48.2891C24.833 48.4023 24.6377 48.459 24.4268 48.459H23.9697V49.9707C23.9697 49.9902 23.96 50 23.9404 50ZM24.4268 46.5371L23.9697 46.543V47.7324H24.4268C24.5537 47.7324 24.6641 47.6719 24.7578 47.5508C24.8516 47.4277 24.8984 47.2686 24.8984 47.0732C24.8984 46.917 24.8564 46.7891 24.7725 46.6895C24.6885 46.5879 24.5732 46.5371 24.4268 46.5371ZM28.0898 50.0586C27.877 50.0586 27.6807 50.0039 27.501 49.8945C27.3232 49.7852 27.1797 49.6396 27.0703 49.458C26.9629 49.2744 26.9092 49.0732 26.9092 48.8545L26.915 46.9531C26.915 46.7305 26.9688 46.5303 27.0762 46.3525C27.1816 46.1729 27.3242 46.0293 27.5039 45.9219C27.6836 45.8125 27.8789 45.7578 28.0898 45.7578C28.3086 45.7578 28.5049 45.8115 28.6787 45.9189C28.8545 46.0264 28.9951 46.1709 29.1006 46.3525C29.208 46.5322 29.2617 46.7324 29.2617 46.9531L29.2676 48.8545C29.2676 49.0732 29.2148 49.2734 29.1094 49.4551C29.002 49.6387 28.8594 49.7852 28.6816 49.8945C28.5039 50.0039 28.3066 50.0586 28.0898 50.0586ZM28.0898 49.335C28.2109 49.335 28.3164 49.2861 28.4062 49.1885C28.4961 49.0889 28.541 48.9775 28.541 48.8545L28.5352 46.9531C28.5352 46.8203 28.4932 46.708 28.4092 46.6162C28.3252 46.5244 28.2188 46.4785 28.0898 46.4785C27.9668 46.4785 27.8613 46.5234 27.7734 46.6133C27.6855 46.7031 27.6416 46.8164 27.6416 46.9531V48.8545C27.6416 48.9854 27.6855 49.0986 27.7734 49.1943C27.8613 49.2881 27.9668 49.335 28.0898 49.335ZM31.4248 50H30.751C30.7314 50 30.7217 49.9902 30.7217 49.9707L30.7334 45.8486C30.7334 45.833 30.7412 45.8252 30.7568 45.8252H31.9111C32.2783 45.8252 32.5684 45.9375 32.7812 46.1621C32.9961 46.3848 33.1035 46.6885 33.1035 47.0732C33.1035 47.3545 33.0479 47.5996 32.9365 47.8086C32.8232 48.0156 32.6768 48.1758 32.4971 48.2891C32.3174 48.4023 32.1221 48.459 31.9111 48.459H31.4541V49.9707C31.4541 49.9902 31.4443 50 31.4248 50ZM31.9111 46.5371L31.4541 46.543V47.7324H31.9111C32.0381 47.7324 32.1484 47.6719 32.2422 47.5508C32.3359 47.4277 32.3828 47.2686 32.3828 47.0732C32.3828 46.917 32.3408 46.7891 32.2568 46.6895C32.1729 46.5879 32.0576 46.5371 31.9111 46.5371ZM38.9971 50.3838L38.584 49.9648C38.4375 50.0273 38.2871 50.0586 38.1328 50.0586C37.9199 50.0586 37.7246 50.0049 37.5469 49.8975C37.3672 49.79 37.2227 49.6445 37.1133 49.4609C37.0059 49.2754 36.9521 49.0732 36.9521 48.8545L36.958 46.9531C36.958 46.7402 37.0107 46.543 37.1162 46.3613C37.2197 46.1797 37.3604 46.0342 37.5381 45.9248C37.7158 45.8135 37.9141 45.7578 38.1328 45.7578C38.3457 45.7578 38.541 45.8105 38.7188 45.916C38.8965 46.0234 39.0381 46.167 39.1436 46.3467C39.251 46.5264 39.3047 46.7285 39.3047 46.9531L39.3105 48.8545C39.3105 48.9697 39.2939 49.082 39.2607 49.1914C39.2295 49.2988 39.1875 49.3984 39.1348 49.4902L39.5068 49.8682C39.5264 49.8838 39.5283 49.8975 39.5127 49.9092L39.041 50.3838C39.0273 50.3955 39.0127 50.3955 38.9971 50.3838ZM38.1328 49.335C38.2695 49.335 38.3789 49.2842 38.4609 49.1826C38.543 49.0791 38.584 48.9697 38.584 48.8545L38.5781 46.9531C38.5781 46.8242 38.5361 46.7129 38.4521 46.6191C38.3682 46.5254 38.2617 46.4785 38.1328 46.4785C37.998 46.4785 37.8896 46.5264 37.8076 46.6221C37.7256 46.7178 37.6846 46.8281 37.6846 46.9531V48.8545C37.6846 48.999 37.7314 49.1152 37.8252 49.2031C37.9189 49.291 38.0215 49.335 38.1328 49.335ZM41.9219 50.0586C41.7109 50.0586 41.5156 50.0039 41.3359 49.8945C41.1562 49.7852 41.0127 49.6387 40.9053 49.4551C40.7998 49.2695 40.7471 49.0674 40.7471 48.8486L40.7588 45.8486C40.7588 45.833 40.7666 45.8252 40.7822 45.8252H41.4561C41.4717 45.8252 41.4795 45.833 41.4795 45.8486V48.8486C41.4795 48.9834 41.5225 49.0986 41.6084 49.1943C41.6943 49.2881 41.7988 49.335 41.9219 49.335C42.0508 49.335 42.1582 49.2881 42.2441 49.1943C42.3301 49.0986 42.373 48.9834 42.373 48.8486V45.8486C42.373 45.833 42.3809 45.8252 42.3965 45.8252H43.0703C43.0859 45.8252 43.0938 45.833 43.0938 45.8486L43.1055 48.8486C43.1055 49.0693 43.0527 49.2725 42.9473 49.458C42.8398 49.6416 42.6973 49.7881 42.5195 49.8975C42.3418 50.0049 42.1426 50.0586 41.9219 50.0586ZM45.2861 50H44.6064C44.5869 50 44.5771 49.9902 44.5771 49.9707L44.583 45.8486C44.583 45.833 44.5908 45.8252 44.6064 45.8252H45.2803C45.2959 45.8252 45.3037 45.833 45.3037 45.8486L45.3096 49.9707C45.3096 49.9902 45.3018 50 45.2861 50ZM48.9141 50H46.6758C46.6562 50 46.6465 49.9902 46.6465 49.9707L46.6523 49.3174L48.123 46.5078H46.7314C46.7139 46.5078 46.7051 46.5 46.7051 46.4844V45.8545C46.7051 45.835 46.7139 45.8252 46.7314 45.8252H48.9023C48.9219 45.8252 48.9316 45.835 48.9316 45.8545V46.502L47.4697 49.2969H48.9141C48.9297 49.2969 48.9375 49.3076 48.9375 49.3291L48.9434 49.9707C48.9434 49.9902 48.9336 50 48.9141 50Z" fill="#303030"/>
<path fill-rule="evenodd" clip-rule="evenodd" d="M34.0492 18.053C34.3702 18.017 34.6867 17.9998 35.0002 17.9998C39.5557 17.9998 43.2502 21.6935 43.2502 26.2498C43.2502 28.9708 41.9302 31.379 39.8977 32.8805C39.1574 33.428 38.7502 34.3168 38.7502 35.2378V41.2498C38.7502 41.6638 38.4142 41.9998 38.0002 41.9998H32.0002C31.5854 41.9998 31.2502 41.6638 31.2502 41.2498V39.7499H32.3752V40.8748H37.6252V37.4999H38.7499V35.9999H37.6252V35.2378C37.6252 33.9373 38.2252 32.7185 39.2294 31.9753C41.0699 30.6163 42.1252 28.5298 42.1252 26.2498C42.1252 22.3213 38.9287 19.1248 35.0002 19.1248C34.7272 19.1248 34.4497 19.1405 34.1744 19.1713C31.0522 19.52 28.4407 22.0168 27.9629 25.109C27.5557 27.749 28.6207 30.3725 30.7432 31.9558C31.7654 32.7185 32.3752 33.944 32.3752 35.2363V35.9999H31.2502V35.2363C31.2502 34.3018 30.8189 33.416 30.0704 32.8573C27.7357 31.1158 26.3527 28.1713 26.8514 24.9373C27.4094 21.323 30.4154 18.4588 34.0492 18.053ZM32.3752 38.2499H31.2502V37.4999H32.3752V38.2499Z" fill="black"/>
<path d="M38.3324 26.5C38.3324 25.7295 38.0782 24.9806 37.6091 24.3693C37.1401 23.7581 36.4824 23.3187 35.7382 23.1193C34.994 22.9198 34.2047 22.9716 33.4929 23.2664C32.7811 23.5613 32.1864 24.0828 31.8012 24.75C31.6687 24.9797 31.6329 25.2526 31.7017 25.5088C31.7704 25.7649 31.938 25.9832 32.1676 26.1158C32.3973 26.2483 32.6702 26.2843 32.9263 26.2157C33.1825 26.1471 33.4009 25.9796 33.5336 25.75C33.6654 25.5222 33.8548 25.333 34.0828 25.2014C34.3107 25.0698 34.5692 25.0003 34.8324 25C35.2303 25 35.6118 25.158 35.8931 25.4393C36.1744 25.7207 36.3324 26.1022 36.3324 26.5C36.3324 26.8978 36.1744 27.2794 35.8931 27.5607C35.6118 27.842 35.2303 28 34.8324 28H34.83C34.7657 28.0064 34.7023 28.0194 34.6407 28.0387C34.5733 28.0457 34.5068 28.0593 34.4421 28.0794C34.387 28.1093 34.335 28.1444 34.2866 28.1842C34.2292 28.2155 34.1749 28.2522 34.1246 28.294C34.0796 28.3476 34.0404 28.4058 34.0075 28.4677C33.9711 28.5128 33.9387 28.561 33.9108 28.6118C33.8891 28.6808 33.8748 28.7518 33.868 28.8237C33.8506 28.8812 33.8387 28.9403 33.8324 29V30L33.8347 30.0114L33.8358 30.5024C33.8365 30.7672 33.9422 31.0209 34.1296 31.2079C34.3171 31.3949 34.5711 31.5 34.8358 31.5H34.8383C35.1035 31.4993 35.3576 31.3934 35.5447 31.2054C35.7317 31.0174 35.8365 30.7628 35.8358 30.4976L35.8343 29.8362C36.5539 29.6223 37.1854 29.1823 37.6353 28.5814C38.0853 27.9805 38.3297 27.2507 38.3324 26.5ZM34.1298 33.29C33.9894 33.4293 33.8934 33.607 33.854 33.8008C33.8146 33.9946 33.8336 34.1957 33.9085 34.3787C33.9834 34.5617 34.1108 34.7185 34.2748 34.829C34.4387 34.9396 34.6317 34.9991 34.8295 35C35.0947 34.9978 35.349 34.894 35.5399 34.71C35.7256 34.5203 35.8295 34.2655 35.8295 34C35.8295 33.7346 35.7256 33.4798 35.5399 33.2901C35.3485 33.1117 35.0966 33.0125 34.8349 33.0125C34.5732 33.0124 34.3212 33.1116 34.1298 33.29Z" fill="#303030"/>
</svg>
