<svg width="72" height="72" viewBox="0 0 72 72" fill="none" xmlns="http://www.w3.org/2000/svg">
<rect x="0.5" y="0.5" width="71" height="71" rx="8.5" fill="white" stroke="black"/>
<path d="M10.4681 13.0938L12 15.5H8L10.4681 10L12 12.5781" stroke="black" stroke-width="0.5" stroke-linecap="round" stroke-linejoin="round"/>
<path fill-rule="evenodd" clip-rule="evenodd" d="M49 12.9296C49 14.0558 49.9201 14.9688 51.0552 14.9688C51.9571 14.9688 52.7233 14.3924 53 13.5906C52.7105 13.7682 52.3692 13.8708 52.0037 13.8708C50.956 13.8708 50.1066 13.028 50.1066 11.9885C50.1066 11.6259 50.21 11.2873 50.389 11C49.5809 11.2746 49 12.0348 49 12.9296Z" fill="black"/>
<path d="M57.4285 12.9999H62.5713M57.4285 11.2856H62.5713M57.4285 14.7142H62.5713" stroke="#202020" stroke-width="0.5" stroke-linecap="round" stroke-linejoin="round"/>
<path d="M16.627 28H16.1738C16.1634 28 16.1582 27.9935 16.1582 27.9805L16.1621 25.2324C16.1621 25.222 16.1686 25.2168 16.1816 25.2168H16.627C16.64 25.2168 16.6465 25.222 16.6465 25.2324L16.6426 26.3203H17.2422V25.2324C17.2422 25.222 17.2474 25.2168 17.2578 25.2168H17.7031C17.7161 25.2168 17.7227 25.222 17.7227 25.2324L17.7305 27.9805C17.7305 27.9935 17.724 28 17.7109 28H17.2617C17.2487 28 17.2422 27.9935 17.2422 27.9805V26.8047H16.6426V27.9805C16.6426 27.9935 16.6374 28 16.627 28ZM19.5293 28H19.0762C19.0632 28 19.0566 27.9935 19.0566 27.9805L19.0605 25.2324C19.0605 25.222 19.0658 25.2168 19.0762 25.2168H19.5254C19.5358 25.2168 19.541 25.222 19.541 25.2324L19.5449 27.9805C19.5449 27.9935 19.5397 28 19.5293 28ZM20.8965 28.5039V28.2559C20.9629 28.2559 21.0195 28.2305 21.0664 28.1797C21.1133 28.1289 21.1367 28.069 21.1367 28H20.9121C20.9017 28 20.8965 27.9948 20.8965 27.9844V27.5352C20.8965 27.5247 20.9017 27.5195 20.9121 27.5195H21.3652C21.3757 27.5195 21.3809 27.5247 21.3809 27.5352V28C21.3809 28.0938 21.3581 28.179 21.3125 28.2559C21.2669 28.3327 21.2077 28.3932 21.1348 28.4375C21.0618 28.4818 20.9824 28.5039 20.8965 28.5039ZM25.4805 28.0391C25.3359 28.0391 25.2057 28.0033 25.0898 27.9316C24.9727 27.86 24.8783 27.7637 24.8066 27.6426C24.7363 27.5215 24.7012 27.3861 24.7012 27.2363V25.9688C24.7012 25.8229 24.737 25.6901 24.8086 25.5703C24.8789 25.4492 24.9733 25.3529 25.0918 25.2812C25.2103 25.2083 25.3398 25.1719 25.4805 25.1719C25.6276 25.1719 25.7604 25.207 25.8789 25.2773C25.9974 25.349 26.0911 25.4447 26.1602 25.5645C26.2305 25.6842 26.2656 25.819 26.2656 25.9688V26.1523C26.2656 26.1628 26.2591 26.168 26.2461 26.168H25.7969C25.7865 26.168 25.7812 26.1628 25.7812 26.1523V26C25.7812 25.8984 25.7526 25.8145 25.6953 25.748C25.638 25.6816 25.5664 25.6484 25.4805 25.6484C25.4036 25.6484 25.3353 25.6803 25.2754 25.7441C25.2155 25.8079 25.1855 25.8828 25.1855 25.9688V27.2363C25.1855 27.3236 25.2148 27.3991 25.2734 27.4629C25.332 27.5254 25.401 27.5566 25.4805 27.5566C25.5664 27.5566 25.638 27.526 25.6953 27.4648C25.7526 27.4023 25.7812 27.3262 25.7812 27.2363V27.0391H25.502C25.4876 27.0391 25.4805 27.0326 25.4805 27.0195V26.5723C25.4805 26.5592 25.4876 26.5527 25.502 26.5527H26.25C26.2604 26.5527 26.2656 26.5592 26.2656 26.5723V27.2363C26.2656 27.3861 26.2305 27.5215 26.1602 27.6426C26.0885 27.7637 25.9941 27.86 25.877 27.9316C25.7598 28.0033 25.6276 28.0391 25.4805 28.0391ZM28.8574 28H27.5645C27.554 28 27.5488 27.9935 27.5488 27.9805L27.5527 25.2324C27.5527 25.222 27.5579 25.2168 27.5684 25.2168H28.8535C28.8639 25.2168 28.8691 25.2233 28.8691 25.2363V25.6836C28.8691 25.694 28.8639 25.6992 28.8535 25.6992H28.0332V26.3242H28.8535C28.8639 26.3242 28.8691 26.3294 28.8691 26.3398L28.873 26.793C28.873 26.8034 28.8678 26.8086 28.8574 26.8086H28.0332V27.5078H28.8574C28.8678 27.5078 28.873 27.5143 28.873 27.5273V27.9844C28.873 27.9948 28.8678 28 28.8574 28ZM30.9688 28.0391C30.8268 28.0391 30.696 28.0026 30.5762 27.9297C30.4577 27.8568 30.362 27.7598 30.2891 27.6387C30.2174 27.5163 30.1816 27.3822 30.1816 27.2363L30.1855 25.9688C30.1855 25.8203 30.2214 25.6868 30.293 25.5684C30.3633 25.4486 30.4583 25.3529 30.5781 25.2812C30.6979 25.2083 30.8281 25.1719 30.9688 25.1719C31.1146 25.1719 31.2454 25.2077 31.3613 25.2793C31.4785 25.3509 31.5723 25.4473 31.6426 25.5684C31.7142 25.6882 31.75 25.8216 31.75 25.9688L31.7539 27.2363C31.7539 27.3822 31.7188 27.5156 31.6484 27.6367C31.5768 27.7591 31.4818 27.8568 31.3633 27.9297C31.2448 28.0026 31.1133 28.0391 30.9688 28.0391ZM30.9688 27.5566C31.0495 27.5566 31.1198 27.5241 31.1797 27.459C31.2396 27.3926 31.2695 27.3184 31.2695 27.2363L31.2656 25.9688C31.2656 25.8802 31.2376 25.8053 31.1816 25.7441C31.1257 25.6829 31.0547 25.6523 30.9688 25.6523C30.8867 25.6523 30.8164 25.6823 30.7578 25.7422C30.6992 25.8021 30.6699 25.8776 30.6699 25.9688V27.2363C30.6699 27.3236 30.6992 27.3991 30.7578 27.4629C30.8164 27.5254 30.8867 27.5566 30.9688 27.5566ZM33.5254 28H33.0723C33.0618 28 33.0566 27.9935 33.0566 27.9805L33.0645 25.2324C33.0645 25.222 33.0697 25.2168 33.0801 25.2168H33.8887C34.0332 25.2168 34.166 25.252 34.2871 25.3223C34.4082 25.3926 34.5046 25.487 34.5762 25.6055C34.6491 25.724 34.6855 25.8581 34.6855 26.0078C34.6855 26.1055 34.6706 26.194 34.6406 26.2734C34.6107 26.3529 34.5755 26.4199 34.5352 26.4746C34.4961 26.5293 34.4603 26.5697 34.4277 26.5957C34.5723 26.7559 34.6445 26.944 34.6445 27.1602L34.6484 27.9805C34.6484 27.9935 34.6419 28 34.6289 28H34.1758C34.1654 28 34.1602 27.9961 34.1602 27.9883V27.1602C34.1602 27.0638 34.1263 26.9805 34.0586 26.9102C33.9909 26.8398 33.9076 26.8047 33.8086 26.8047H33.5449L33.541 27.9805C33.541 27.9935 33.5358 28 33.5254 28ZM33.8887 25.6953H33.5449V26.3242H33.8887C33.9707 26.3242 34.0436 26.2936 34.1074 26.2324C34.1725 26.1712 34.2051 26.0964 34.2051 26.0078C34.2051 25.9232 34.1738 25.8503 34.1113 25.7891C34.0488 25.7266 33.9746 25.6953 33.8887 25.6953ZM36.7188 28.0391C36.5742 28.0391 36.444 28.0033 36.3281 27.9316C36.2109 27.86 36.1165 27.7637 36.0449 27.6426C35.9746 27.5215 35.9395 27.3861 35.9395 27.2363V25.9688C35.9395 25.8229 35.9753 25.6901 36.0469 25.5703C36.1172 25.4492 36.2116 25.3529 36.3301 25.2812C36.4486 25.2083 36.5781 25.1719 36.7188 25.1719C36.8659 25.1719 36.9987 25.207 37.1172 25.2773C37.2357 25.349 37.3294 25.4447 37.3984 25.5645C37.4688 25.6842 37.5039 25.819 37.5039 25.9688V26.1523C37.5039 26.1628 37.4974 26.168 37.4844 26.168H37.0352C37.0247 26.168 37.0195 26.1628 37.0195 26.1523V26C37.0195 25.8984 36.9909 25.8145 36.9336 25.748C36.8763 25.6816 36.8047 25.6484 36.7188 25.6484C36.6419 25.6484 36.5736 25.6803 36.5137 25.7441C36.4538 25.8079 36.4238 25.8828 36.4238 25.9688V27.2363C36.4238 27.3236 36.4531 27.3991 36.5117 27.4629C36.5703 27.5254 36.6393 27.5566 36.7188 27.5566C36.8047 27.5566 36.8763 27.526 36.9336 27.4648C36.9909 27.4023 37.0195 27.3262 37.0195 27.2363V27.0391H36.7402C36.7259 27.0391 36.7188 27.0326 36.7188 27.0195V26.5723C36.7188 26.5592 36.7259 26.5527 36.7402 26.5527H37.4883C37.4987 26.5527 37.5039 26.5592 37.5039 26.5723V27.2363C37.5039 27.3861 37.4688 27.5215 37.3984 27.6426C37.3268 27.7637 37.2324 27.86 37.1152 27.9316C36.998 28.0033 36.8659 28.0391 36.7188 28.0391ZM40.0957 28H38.8027C38.7923 28 38.7871 27.9935 38.7871 27.9805L38.791 25.2324C38.791 25.222 38.7962 25.2168 38.8066 25.2168H40.0918C40.1022 25.2168 40.1074 25.2233 40.1074 25.2363V25.6836C40.1074 25.694 40.1022 25.6992 40.0918 25.6992H39.2715V26.3242H40.0918C40.1022 26.3242 40.1074 26.3294 40.1074 26.3398L40.1113 26.793C40.1113 26.8034 40.1061 26.8086 40.0957 26.8086H39.2715V27.5078H40.0957C40.1061 27.5078 40.1113 27.5143 40.1113 27.5273V27.9844C40.1113 27.9948 40.1061 28 40.0957 28ZM43.9746 28H43.5215C43.5111 28 43.5059 27.9935 43.5059 27.9805L43.5098 25.2324C43.5098 25.222 43.5163 25.2168 43.5293 25.2168H43.9746C43.9876 25.2168 43.9941 25.222 43.9941 25.2324L43.9902 26.3203H44.5898V25.2324C44.5898 25.222 44.5951 25.2168 44.6055 25.2168H45.0508C45.0638 25.2168 45.0703 25.222 45.0703 25.2324L45.0781 27.9805C45.0781 27.9935 45.0716 28 45.0586 28H44.6094C44.5964 28 44.5898 27.9935 44.5898 27.9805V26.8047H43.9902V27.9805C43.9902 27.9935 43.985 28 43.9746 28ZM47.7129 28H46.4199C46.4095 28 46.4043 27.9935 46.4043 27.9805L46.4082 25.2324C46.4082 25.222 46.4134 25.2168 46.4238 25.2168H47.709C47.7194 25.2168 47.7246 25.2233 47.7246 25.2363V25.6836C47.7246 25.694 47.7194 25.6992 47.709 25.6992H46.8887V26.3242H47.709C47.7194 26.3242 47.7246 26.3294 47.7246 26.3398L47.7285 26.793C47.7285 26.8034 47.7233 26.8086 47.7129 26.8086H46.8887V27.5078H47.7129C47.7233 27.5078 47.7285 27.5143 47.7285 27.5273V27.9844C47.7285 27.9948 47.7233 28 47.7129 28ZM49.5527 28H49.0996C49.0892 28 49.084 27.9935 49.084 27.9805L49.0918 25.2324C49.0918 25.222 49.097 25.2168 49.1074 25.2168H49.916C50.0605 25.2168 50.1934 25.252 50.3145 25.3223C50.4355 25.3926 50.5319 25.487 50.6035 25.6055C50.6764 25.724 50.7129 25.8581 50.7129 26.0078C50.7129 26.1055 50.6979 26.194 50.668 26.2734C50.638 26.3529 50.6029 26.4199 50.5625 26.4746C50.5234 26.5293 50.4876 26.5697 50.4551 26.5957C50.5996 26.7559 50.6719 26.944 50.6719 27.1602L50.6758 27.9805C50.6758 27.9935 50.6693 28 50.6562 28H50.2031C50.1927 28 50.1875 27.9961 50.1875 27.9883V27.1602C50.1875 27.0638 50.1536 26.9805 50.0859 26.9102C50.0182 26.8398 49.9349 26.8047 49.8359 26.8047H49.5723L49.5684 27.9805C49.5684 27.9935 49.5632 28 49.5527 28ZM49.916 25.6953H49.5723V26.3242H49.916C49.998 26.3242 50.071 26.2936 50.1348 26.2324C50.1999 26.1712 50.2324 26.0964 50.2324 26.0078C50.2324 25.9232 50.2012 25.8503 50.1387 25.7891C50.0762 25.7266 50.002 25.6953 49.916 25.6953ZM53.3223 28H52.0293C52.0189 28 52.0137 27.9935 52.0137 27.9805L52.0176 25.2324C52.0176 25.222 52.0228 25.2168 52.0332 25.2168H53.3184C53.3288 25.2168 53.334 25.2233 53.334 25.2363V25.6836C53.334 25.694 53.3288 25.6992 53.3184 25.6992H52.498V26.3242H53.3184C53.3288 26.3242 53.334 26.3294 53.334 26.3398L53.3379 26.793C53.3379 26.8034 53.3327 26.8086 53.3223 26.8086H52.498V27.5078H53.3223C53.3327 27.5078 53.3379 27.5143 53.3379 27.5273V27.9844C53.3379 27.9948 53.3327 28 53.3223 28ZM55.0703 27.2637H54.7969C54.7852 27.2637 54.7786 27.2572 54.7773 27.2441L54.6934 26.3242V25.2363C54.6934 25.2233 54.6986 25.2168 54.709 25.2168H55.1582C55.1712 25.2168 55.1777 25.2233 55.1777 25.2363L55.1738 26.3242L55.0898 27.2441C55.0885 27.2572 55.082 27.2637 55.0703 27.2637ZM55.1582 28H54.709C54.6986 28 54.6934 27.9935 54.6934 27.9805V27.5449C54.6934 27.5332 54.6986 27.5273 54.709 27.5273H55.1582C55.1686 27.5273 55.1738 27.5332 55.1738 27.5449V27.9805C55.1738 27.9935 55.1686 28 55.1582 28Z" fill="#252525"/>
<path d="M16.348 31.376H16.684V34H16.348V31.376ZM17.2833 32.124C17.3846 32.0573 17.4593 31.9867 17.5073 31.912C17.5579 31.8373 17.5833 31.7413 17.5833 31.624C17.5753 31.6267 17.5646 31.628 17.5513 31.628C17.4953 31.628 17.4459 31.6107 17.4033 31.576C17.3606 31.5413 17.3393 31.492 17.3393 31.428C17.3393 31.3587 17.3593 31.304 17.3993 31.264C17.4393 31.224 17.4899 31.204 17.5513 31.204C17.6286 31.204 17.6899 31.236 17.7353 31.3C17.7806 31.3613 17.8033 31.4507 17.8033 31.568C17.8033 31.728 17.7659 31.8667 17.6913 31.984C17.6193 32.0987 17.5139 32.196 17.3753 32.276L17.2833 32.124ZM18.3553 32.056H18.6273L18.6553 32.336H18.6673C18.7527 32.2427 18.8447 32.1653 18.9433 32.104C19.0447 32.04 19.154 32.008 19.2713 32.008C19.4207 32.008 19.5367 32.0413 19.6193 32.108C19.7047 32.172 19.7673 32.2627 19.8073 32.38C19.9087 32.268 20.01 32.1787 20.1113 32.112C20.2153 32.0427 20.3273 32.008 20.4473 32.008C20.6473 32.008 20.7953 32.072 20.8913 32.2C20.99 32.328 21.0393 32.5173 21.0393 32.768V34H20.7113V32.812C20.7113 32.628 20.682 32.496 20.6233 32.416C20.5647 32.3333 20.474 32.292 20.3513 32.292C20.2047 32.292 20.042 32.392 19.8633 32.592V34H19.5353V32.812C19.5353 32.628 19.506 32.496 19.4473 32.416C19.3887 32.3333 19.2967 32.292 19.1713 32.292C19.0247 32.292 18.862 32.392 18.6833 32.592V34H18.3553V32.056ZM22.3843 33.496C22.3843 33.2827 22.479 33.12 22.6683 33.008C22.8603 32.8933 23.1643 32.8133 23.5803 32.768C23.5803 32.7067 23.5737 32.6467 23.5603 32.588C23.5497 32.5293 23.5283 32.4773 23.4963 32.432C23.467 32.3867 23.427 32.3507 23.3763 32.324C23.3257 32.2947 23.2603 32.28 23.1803 32.28C23.0657 32.28 22.959 32.3013 22.8603 32.344C22.7643 32.3867 22.6777 32.4347 22.6003 32.488L22.4683 32.26C22.559 32.2013 22.6697 32.1453 22.8003 32.092C22.931 32.036 23.075 32.008 23.2323 32.008C23.4697 32.008 23.6417 32.0813 23.7483 32.228C23.855 32.372 23.9083 32.5653 23.9083 32.808V34H23.6363L23.6083 33.768H23.6003C23.507 33.8453 23.4057 33.912 23.2963 33.968C23.1897 34.0213 23.0763 34.048 22.9563 34.048C22.791 34.048 22.6537 34 22.5443 33.904C22.4377 33.808 22.3843 33.672 22.3843 33.496ZM22.7083 33.472C22.7083 33.584 22.7403 33.664 22.8043 33.712C22.871 33.76 22.9523 33.784 23.0483 33.784C23.1417 33.784 23.2297 33.7627 23.3123 33.72C23.3977 33.6747 23.487 33.6093 23.5803 33.524V32.984C23.4177 33.0053 23.2803 33.0307 23.1683 33.06C23.0563 33.0893 22.9657 33.124 22.8963 33.164C22.8297 33.204 22.7817 33.2507 22.7523 33.304C22.723 33.3547 22.7083 33.4107 22.7083 33.472ZM25.3438 31.376H25.6798V32.924C25.6798 33.0813 25.6958 33.2133 25.7278 33.32C25.7598 33.4267 25.8025 33.512 25.8558 33.576C25.9118 33.64 25.9758 33.6867 26.0478 33.716C26.1225 33.7427 26.2025 33.756 26.2878 33.756C26.3758 33.756 26.4571 33.7427 26.5318 33.716C26.6091 33.6867 26.6758 33.64 26.7318 33.576C26.7878 33.512 26.8318 33.4267 26.8638 33.32C26.8958 33.2133 26.9118 33.0813 26.9118 32.924V31.376H27.2318V32.916C27.2318 33.1267 27.2078 33.304 27.1598 33.448C27.1118 33.592 27.0451 33.7093 26.9598 33.8C26.8771 33.888 26.7771 33.952 26.6598 33.992C26.5451 34.0293 26.4211 34.048 26.2878 34.048C26.1545 34.048 26.0291 34.0293 25.9118 33.992C25.7971 33.952 25.6971 33.888 25.6118 33.8C25.5291 33.7093 25.4638 33.592 25.4158 33.448C25.3678 33.304 25.3438 33.1267 25.3438 32.916V31.376ZM28.3433 32.644L27.6273 31.376H27.9953L28.3553 32.048C28.3873 32.1093 28.418 32.1693 28.4473 32.228C28.4793 32.284 28.5167 32.3507 28.5593 32.428H28.5753C28.6127 32.3507 28.6447 32.284 28.6713 32.228C28.698 32.1693 28.7273 32.1093 28.7593 32.048L29.1073 31.376H29.4593L28.7473 32.66L29.5113 34H29.1433L28.7553 33.292C28.7207 33.228 28.6847 33.1627 28.6473 33.096C28.6127 33.0267 28.574 32.952 28.5313 32.872H28.5153C28.478 32.952 28.442 33.0267 28.4073 33.096C28.3753 33.1627 28.342 33.228 28.3073 33.292L27.9273 34H27.5793L28.3433 32.644ZM30.6666 31.16H30.9066L29.8426 34.64H29.5986L30.6666 31.16ZM31.293 31.376H31.629V32.924C31.629 33.0813 31.645 33.2133 31.677 33.32C31.709 33.4267 31.7517 33.512 31.805 33.576C31.861 33.64 31.925 33.6867 31.997 33.716C32.0717 33.7427 32.1517 33.756 32.237 33.756C32.325 33.756 32.4064 33.7427 32.481 33.716C32.5584 33.6867 32.625 33.64 32.681 33.576C32.737 33.512 32.781 33.4267 32.813 33.32C32.845 33.2133 32.861 33.0813 32.861 32.924V31.376H33.181V32.916C33.181 33.1267 33.157 33.304 33.109 33.448C33.061 33.592 32.9944 33.7093 32.909 33.8C32.8264 33.888 32.7264 33.952 32.609 33.992C32.4944 34.0293 32.3704 34.048 32.237 34.048C32.1037 34.048 31.9784 34.0293 31.861 33.992C31.7464 33.952 31.6464 33.888 31.561 33.8C31.4784 33.7093 31.413 33.592 31.365 33.448C31.317 33.304 31.293 33.1267 31.293 32.916V31.376ZM33.8636 31.376H34.1996V34H33.8636V31.376ZM35.7035 31.376H37.2155V31.656H36.0395V32.48H37.0315V32.764H36.0395V33.716H37.2555V34H35.7035V31.376ZM37.7733 32.056H38.0453L38.0733 32.336H38.0853C38.1786 32.2427 38.276 32.1653 38.3773 32.104C38.4813 32.04 38.6013 32.008 38.7373 32.008C38.9426 32.008 39.092 32.072 39.1853 32.2C39.2813 32.328 39.3293 32.5173 39.3293 32.768V34H39.0013V32.812C39.0013 32.628 38.972 32.496 38.9133 32.416C38.8546 32.3333 38.7613 32.292 38.6333 32.292C38.532 32.292 38.4426 32.3173 38.3653 32.368C38.288 32.4187 38.2 32.4933 38.1013 32.592V34H37.7733V32.056ZM40.0168 32.324H39.7288V32.076L40.0328 32.056L40.0728 31.512H40.3488V32.056H40.8728V32.324H40.3488V33.404C40.3488 33.524 40.3701 33.6173 40.4128 33.684C40.4581 33.748 40.5368 33.78 40.6488 33.78C40.6835 33.78 40.7208 33.7747 40.7608 33.764C40.8008 33.7533 40.8368 33.7413 40.8688 33.728L40.9328 33.976C40.8795 33.9947 40.8208 34.0107 40.7568 34.024C40.6955 34.04 40.6341 34.048 40.5728 34.048C40.4688 34.048 40.3808 34.032 40.3088 34C40.2395 33.968 40.1821 33.924 40.1368 33.868C40.0941 33.812 40.0635 33.744 40.0448 33.664C40.0261 33.584 40.0168 33.496 40.0168 33.4V32.324ZM41.3124 31.152H41.6404V31.928L41.6284 32.328C41.7217 32.24 41.819 32.1653 41.9204 32.104C42.0217 32.04 42.1404 32.008 42.2764 32.008C42.4817 32.008 42.631 32.072 42.7244 32.2C42.8204 32.328 42.8684 32.5173 42.8684 32.768V34H42.5404V32.812C42.5404 32.628 42.511 32.496 42.4524 32.416C42.3937 32.3333 42.3004 32.292 42.1724 32.292C42.071 32.292 41.9817 32.3173 41.9044 32.368C41.827 32.4187 41.739 32.4933 41.6404 32.592V34H41.3124V31.152ZM43.4602 32.056H43.7922V33.244C43.7922 33.428 43.8202 33.5613 43.8762 33.644C43.9348 33.724 44.0282 33.764 44.1562 33.764C44.2575 33.764 44.3468 33.7387 44.4242 33.688C44.5015 33.6347 44.5868 33.5507 44.6802 33.436V32.056H45.0082V34H44.7362L44.7082 33.696H44.6962C44.6055 33.8027 44.5095 33.888 44.4082 33.952C44.3095 34.016 44.1922 34.048 44.0562 34.048C43.8482 34.048 43.6962 33.984 43.6002 33.856C43.5068 33.728 43.4602 33.5387 43.4602 33.288V32.056ZM45.6119 33.56C45.6973 33.6293 45.7839 33.6853 45.8719 33.728C45.9626 33.7707 46.0666 33.792 46.1839 33.792C46.3119 33.792 46.4079 33.7627 46.4719 33.704C46.5359 33.6453 46.5679 33.5733 46.5679 33.488C46.5679 33.4373 46.5546 33.3933 46.5279 33.356C46.5013 33.3187 46.4666 33.2867 46.4239 33.26C46.3839 33.2307 46.3373 33.2053 46.2839 33.184C46.2306 33.1627 46.1773 33.1413 46.1239 33.12C46.0546 33.096 45.9853 33.0693 45.9159 33.04C45.8466 33.008 45.7839 32.9707 45.7279 32.928C45.6746 32.8827 45.6306 32.8307 45.5959 32.772C45.5613 32.7133 45.5439 32.6427 45.5439 32.56C45.5439 32.4827 45.5586 32.4107 45.5879 32.344C45.6199 32.2747 45.6639 32.216 45.7199 32.168C45.7786 32.1173 45.8493 32.0787 45.9319 32.052C46.0146 32.0227 46.1079 32.008 46.2119 32.008C46.3346 32.008 46.4466 32.0293 46.5479 32.072C46.6519 32.1147 46.7413 32.1667 46.8159 32.228L46.6599 32.436C46.5933 32.3853 46.5239 32.344 46.4519 32.312C46.3799 32.28 46.3013 32.264 46.2159 32.264C46.0933 32.264 46.0026 32.292 45.9439 32.348C45.8879 32.404 45.8599 32.4693 45.8599 32.544C45.8599 32.5893 45.8719 32.628 45.8959 32.66C45.9199 32.692 45.9519 32.7213 45.9919 32.748C46.0319 32.7747 46.0773 32.7987 46.1279 32.82C46.1813 32.8387 46.2359 32.8587 46.2919 32.88C46.3613 32.9067 46.4306 32.9347 46.4999 32.964C46.5719 32.9933 46.6359 33.0307 46.6919 33.076C46.7479 33.1187 46.7933 33.172 46.8279 33.236C46.8653 33.3 46.8839 33.3773 46.8839 33.468C46.8839 33.548 46.8679 33.6227 46.8359 33.692C46.8066 33.7613 46.7613 33.8227 46.6999 33.876C46.6413 33.9293 46.5666 33.9707 46.4759 34C46.3879 34.032 46.2866 34.048 46.1719 34.048C46.0333 34.048 45.9013 34.0227 45.7759 33.972C45.6506 33.9213 45.5413 33.8573 45.4479 33.78L45.6119 33.56ZM47.5077 31.656C47.4437 31.656 47.3891 31.636 47.3437 31.596C47.3011 31.556 47.2797 31.5053 47.2797 31.444C47.2797 31.38 47.3011 31.3293 47.3437 31.292C47.3891 31.252 47.4437 31.232 47.5077 31.232C47.5717 31.232 47.6251 31.252 47.6677 31.292C47.7131 31.3293 47.7357 31.38 47.7357 31.444C47.7357 31.5053 47.7131 31.556 47.6677 31.596C47.6251 31.636 47.5717 31.656 47.5077 31.656ZM47.3397 32.056H47.6677V34H47.3397V32.056ZM48.2281 33.496C48.2281 33.2827 48.3228 33.12 48.5121 33.008C48.7041 32.8933 49.0081 32.8133 49.4241 32.768C49.4241 32.7067 49.4174 32.6467 49.4041 32.588C49.3934 32.5293 49.3721 32.4773 49.3401 32.432C49.3108 32.3867 49.2708 32.3507 49.2201 32.324C49.1694 32.2947 49.1041 32.28 49.0241 32.28C48.9094 32.28 48.8028 32.3013 48.7041 32.344C48.6081 32.3867 48.5214 32.4347 48.4441 32.488L48.3121 32.26C48.4028 32.2013 48.5134 32.1453 48.6441 32.092C48.7748 32.036 48.9188 32.008 49.0761 32.008C49.3134 32.008 49.4854 32.0813 49.5921 32.228C49.6988 32.372 49.7521 32.5653 49.7521 32.808V34H49.4801L49.4521 33.768H49.4441C49.3508 33.8453 49.2494 33.912 49.1401 33.968C49.0334 34.0213 48.9201 34.048 48.8001 34.048C48.6348 34.048 48.4974 34 48.3881 33.904C48.2814 33.808 48.2281 33.672 48.2281 33.496ZM48.5521 33.472C48.5521 33.584 48.5841 33.664 48.6481 33.712C48.7148 33.76 48.7961 33.784 48.8921 33.784C48.9854 33.784 49.0734 33.7627 49.1561 33.72C49.2414 33.6747 49.3308 33.6093 49.4241 33.524V32.984C49.2614 33.0053 49.1241 33.0307 49.0121 33.06C48.9001 33.0893 48.8094 33.124 48.7401 33.164C48.6734 33.204 48.6254 33.2507 48.5961 33.304C48.5668 33.3547 48.5521 33.4107 48.5521 33.472ZM50.319 33.56C50.4043 33.6293 50.491 33.6853 50.579 33.728C50.6696 33.7707 50.7736 33.792 50.891 33.792C51.019 33.792 51.115 33.7627 51.179 33.704C51.243 33.6453 51.275 33.5733 51.275 33.488C51.275 33.4373 51.2616 33.3933 51.235 33.356C51.2083 33.3187 51.1736 33.2867 51.131 33.26C51.091 33.2307 51.0443 33.2053 50.991 33.184C50.9376 33.1627 50.8843 33.1413 50.831 33.12C50.7616 33.096 50.6923 33.0693 50.623 33.04C50.5536 33.008 50.491 32.9707 50.435 32.928C50.3816 32.8827 50.3376 32.8307 50.303 32.772C50.2683 32.7133 50.251 32.6427 50.251 32.56C50.251 32.4827 50.2656 32.4107 50.295 32.344C50.327 32.2747 50.371 32.216 50.427 32.168C50.4856 32.1173 50.5563 32.0787 50.639 32.052C50.7216 32.0227 50.815 32.008 50.919 32.008C51.0416 32.008 51.1536 32.0293 51.255 32.072C51.359 32.1147 51.4483 32.1667 51.523 32.228L51.367 32.436C51.3003 32.3853 51.231 32.344 51.159 32.312C51.087 32.28 51.0083 32.264 50.923 32.264C50.8003 32.264 50.7096 32.292 50.651 32.348C50.595 32.404 50.567 32.4693 50.567 32.544C50.567 32.5893 50.579 32.628 50.603 32.66C50.627 32.692 50.659 32.7213 50.699 32.748C50.739 32.7747 50.7843 32.7987 50.835 32.82C50.8883 32.8387 50.943 32.8587 50.999 32.88C51.0683 32.9067 51.1376 32.9347 51.207 32.964C51.279 32.9933 51.343 33.0307 51.399 33.076C51.455 33.1187 51.5003 33.172 51.535 33.236C51.5723 33.3 51.591 33.3773 51.591 33.468C51.591 33.548 51.575 33.6227 51.543 33.692C51.5136 33.7613 51.4683 33.8227 51.407 33.876C51.3483 33.9293 51.2736 33.9707 51.183 34C51.095 34.032 50.9936 34.048 50.879 34.048C50.7403 34.048 50.6083 34.0227 50.483 33.972C50.3576 33.9213 50.2483 33.8573 50.155 33.78L50.319 33.56ZM52.1028 32.324H51.8148V32.076L52.1188 32.056L52.1588 31.512H52.4348V32.056H52.9588V32.324H52.4348V33.404C52.4348 33.524 52.4561 33.6173 52.4988 33.684C52.5441 33.748 52.6228 33.78 52.7348 33.78C52.7694 33.78 52.8068 33.7747 52.8468 33.764C52.8868 33.7533 52.9228 33.7413 52.9548 33.728L53.0188 33.976C52.9654 33.9947 52.9068 34.0107 52.8428 34.024C52.7814 34.04 52.7201 34.048 52.6588 34.048C52.5548 34.048 52.4668 34.032 52.3948 34C52.3254 33.968 52.2681 33.924 52.2228 33.868C52.1801 33.812 52.1494 33.744 52.1308 33.664C52.1121 33.584 52.1028 33.496 52.1028 33.4V32.324Z" fill="#303030"/>
<path d="M16.174 46.688H16.346L16.822 47.512L16.964 47.784H16.972C16.968 47.7173 16.9633 47.6487 16.958 47.578C16.9527 47.506 16.95 47.4353 16.95 47.366V46.688H17.108V48H16.936L16.462 47.174L16.32 46.904H16.312C16.316 46.9707 16.32 47.0387 16.324 47.108C16.3293 47.176 16.332 47.2447 16.332 47.314V48H16.174V46.688ZM17.3752 47.516C17.3752 47.436 17.3872 47.3647 17.4112 47.302C17.4365 47.238 17.4692 47.184 17.5092 47.14C17.5505 47.096 17.5972 47.0627 17.6492 47.04C17.7012 47.016 17.7552 47.004 17.8112 47.004C17.8725 47.004 17.9272 47.0147 17.9752 47.036C18.0245 47.0573 18.0652 47.088 18.0972 47.128C18.1305 47.168 18.1559 47.216 18.1732 47.272C18.1905 47.328 18.1992 47.3907 18.1992 47.46C18.1992 47.496 18.1972 47.526 18.1932 47.55H17.5372C17.5439 47.6553 17.5759 47.7387 17.6332 47.8C17.6919 47.8613 17.7679 47.892 17.8612 47.892C17.9079 47.892 17.9505 47.8853 17.9892 47.872C18.0292 47.8573 18.0672 47.8387 18.1032 47.816L18.1612 47.924C18.1185 47.9507 18.0712 47.974 18.0192 47.994C17.9672 48.014 17.9079 48.024 17.8412 48.024C17.7759 48.024 17.7145 48.0127 17.6572 47.99C17.6012 47.966 17.5519 47.9327 17.5092 47.89C17.4679 47.846 17.4352 47.7927 17.4112 47.73C17.3872 47.6673 17.3752 47.596 17.3752 47.516ZM18.0552 47.442C18.0552 47.342 18.0339 47.266 17.9912 47.214C17.9499 47.1607 17.8912 47.134 17.8152 47.134C17.7805 47.134 17.7472 47.1413 17.7152 47.156C17.6845 47.1693 17.6565 47.1893 17.6312 47.216C17.6059 47.2413 17.5845 47.2733 17.5672 47.312C17.5512 47.3493 17.5405 47.3927 17.5352 47.442H18.0552ZM18.3674 47.516C18.3674 47.436 18.3794 47.3647 18.4034 47.302C18.4287 47.238 18.4614 47.184 18.5014 47.14C18.5427 47.096 18.5894 47.0627 18.6414 47.04C18.6934 47.016 18.7474 47.004 18.8034 47.004C18.8647 47.004 18.9194 47.0147 18.9674 47.036C19.0167 47.0573 19.0574 47.088 19.0894 47.128C19.1227 47.168 19.1481 47.216 19.1654 47.272C19.1827 47.328 19.1914 47.3907 19.1914 47.46C19.1914 47.496 19.1894 47.526 19.1854 47.55H18.5294C18.5361 47.6553 18.5681 47.7387 18.6254 47.8C18.6841 47.8613 18.7601 47.892 18.8534 47.892C18.9001 47.892 18.9427 47.8853 18.9814 47.872C19.0214 47.8573 19.0594 47.8387 19.0954 47.816L19.1534 47.924C19.1107 47.9507 19.0634 47.974 19.0114 47.994C18.9594 48.014 18.9001 48.024 18.8334 48.024C18.7681 48.024 18.7067 48.0127 18.6494 47.99C18.5934 47.966 18.5441 47.9327 18.5014 47.89C18.4601 47.846 18.4274 47.7927 18.4034 47.73C18.3794 47.6673 18.3674 47.596 18.3674 47.516ZM19.0474 47.442C19.0474 47.342 19.0261 47.266 18.9834 47.214C18.9421 47.1607 18.8834 47.134 18.8074 47.134C18.7727 47.134 18.7394 47.1413 18.7074 47.156C18.6767 47.1693 18.6487 47.1893 18.6234 47.216C18.5981 47.2413 18.5767 47.2733 18.5594 47.312C18.5434 47.3493 18.5327 47.3927 18.5274 47.442H19.0474ZM19.3616 47.516C19.3616 47.4373 19.3729 47.3667 19.3956 47.304C19.4196 47.24 19.4509 47.186 19.4896 47.142C19.5282 47.098 19.5729 47.064 19.6236 47.04C19.6742 47.016 19.7276 47.004 19.7836 47.004C19.8396 47.004 19.8882 47.014 19.9296 47.034C19.9709 47.054 20.0129 47.0813 20.0556 47.116L20.0476 46.95V46.576H20.2136V48H20.0776L20.0636 47.886H20.0576C20.0189 47.9233 19.9742 47.956 19.9236 47.984C19.8742 48.0107 19.8209 48.024 19.7636 48.024C19.6409 48.024 19.5429 47.98 19.4696 47.892C19.3976 47.804 19.3616 47.6787 19.3616 47.516ZM19.5316 47.514C19.5316 47.6313 19.5549 47.7227 19.6016 47.788C19.6482 47.8533 19.7142 47.886 19.7996 47.886C19.8449 47.886 19.8876 47.8753 19.9276 47.854C19.9676 47.8313 20.0076 47.7973 20.0476 47.752V47.244C20.0062 47.2067 19.9662 47.1807 19.9276 47.166C19.8902 47.15 19.8516 47.142 19.8116 47.142C19.7729 47.142 19.7362 47.1513 19.7016 47.17C19.6682 47.1873 19.6389 47.2127 19.6136 47.246C19.5882 47.278 19.5682 47.3167 19.5536 47.362C19.5389 47.4073 19.5316 47.458 19.5316 47.514ZM20.9193 47.78C20.9619 47.8147 21.0053 47.8427 21.0493 47.864C21.0946 47.8853 21.1466 47.896 21.2053 47.896C21.2693 47.896 21.3173 47.8813 21.3493 47.852C21.3813 47.8227 21.3973 47.7867 21.3973 47.744C21.3973 47.7187 21.3906 47.6967 21.3773 47.678C21.3639 47.6593 21.3466 47.6433 21.3253 47.63C21.3053 47.6153 21.2819 47.6027 21.2553 47.592C21.2286 47.5813 21.2019 47.5707 21.1753 47.56C21.1406 47.548 21.1059 47.5347 21.0713 47.52C21.0366 47.504 21.0053 47.4853 20.9773 47.464C20.9506 47.4413 20.9286 47.4153 20.9113 47.386C20.8939 47.3567 20.8853 47.3213 20.8853 47.28C20.8853 47.2413 20.8926 47.2053 20.9073 47.172C20.9233 47.1373 20.9453 47.108 20.9733 47.084C21.0026 47.0587 21.0379 47.0393 21.0793 47.026C21.1206 47.0113 21.1673 47.004 21.2193 47.004C21.2806 47.004 21.3366 47.0147 21.3873 47.036C21.4393 47.0573 21.4839 47.0833 21.5213 47.114L21.4433 47.218C21.4099 47.1927 21.3753 47.172 21.3393 47.156C21.3033 47.14 21.2639 47.132 21.2213 47.132C21.1599 47.132 21.1146 47.146 21.0853 47.174C21.0573 47.202 21.0433 47.2347 21.0433 47.272C21.0433 47.2947 21.0493 47.314 21.0613 47.33C21.0733 47.346 21.0893 47.3607 21.1093 47.374C21.1293 47.3873 21.1519 47.3993 21.1773 47.41C21.2039 47.4193 21.2313 47.4293 21.2593 47.44C21.2939 47.4533 21.3286 47.4673 21.3633 47.482C21.3993 47.4967 21.4313 47.5153 21.4593 47.538C21.4873 47.5593 21.5099 47.586 21.5273 47.618C21.5459 47.65 21.5553 47.6887 21.5553 47.734C21.5553 47.774 21.5473 47.8113 21.5313 47.846C21.5166 47.8807 21.4939 47.9113 21.4633 47.938C21.4339 47.9647 21.3966 47.9853 21.3513 48C21.3073 48.016 21.2566 48.024 21.1993 48.024C21.1299 48.024 21.0639 48.0113 21.0013 47.986C20.9386 47.9607 20.8839 47.9287 20.8373 47.89L20.9193 47.78ZM21.7111 47.516C21.7111 47.4347 21.7231 47.3627 21.7471 47.3C21.7725 47.236 21.8058 47.182 21.8471 47.138C21.8885 47.094 21.9358 47.0607 21.9891 47.038C22.0438 47.0153 22.1011 47.004 22.1611 47.004C22.2211 47.004 22.2778 47.0153 22.3311 47.038C22.3858 47.0607 22.4338 47.094 22.4751 47.138C22.5165 47.182 22.5491 47.236 22.5731 47.3C22.5985 47.3627 22.6111 47.4347 22.6111 47.516C22.6111 47.596 22.5985 47.668 22.5731 47.732C22.5491 47.7947 22.5165 47.848 22.4751 47.892C22.4338 47.9347 22.3858 47.9673 22.3311 47.99C22.2778 48.0127 22.2211 48.024 22.1611 48.024C22.1011 48.024 22.0438 48.0127 21.9891 47.99C21.9358 47.9673 21.8885 47.9347 21.8471 47.892C21.8058 47.848 21.7725 47.7947 21.7471 47.732C21.7231 47.668 21.7111 47.596 21.7111 47.516ZM21.8811 47.516C21.8811 47.572 21.8878 47.6227 21.9011 47.668C21.9145 47.7133 21.9331 47.7527 21.9571 47.786C21.9825 47.818 22.0125 47.8433 22.0471 47.862C22.0818 47.8793 22.1198 47.888 22.1611 47.888C22.2025 47.888 22.2405 47.8793 22.2751 47.862C22.3098 47.8433 22.3391 47.818 22.3631 47.786C22.3885 47.7527 22.4078 47.7133 22.4211 47.668C22.4345 47.6227 22.4411 47.572 22.4411 47.516C22.4411 47.46 22.4345 47.4093 22.4211 47.364C22.4078 47.3173 22.3885 47.2773 22.3631 47.244C22.3391 47.2107 22.3098 47.1853 22.2751 47.168C22.2405 47.1493 22.2025 47.14 22.1611 47.14C22.1198 47.14 22.0818 47.1493 22.0471 47.168C22.0125 47.1853 21.9825 47.2107 21.9571 47.244C21.9331 47.2773 21.9145 47.3173 21.9011 47.364C21.8878 47.4093 21.8811 47.46 21.8811 47.516ZM22.8671 47.028H23.0031L23.0171 47.168H23.0231C23.0658 47.1213 23.1118 47.0827 23.1611 47.052C23.2118 47.02 23.2665 47.004 23.3251 47.004C23.3998 47.004 23.4578 47.0207 23.4991 47.054C23.5418 47.086 23.5731 47.1313 23.5931 47.19C23.6438 47.134 23.6945 47.0893 23.7451 47.056C23.7971 47.0213 23.8531 47.004 23.9131 47.004C24.0131 47.004 24.0871 47.036 24.1351 47.1C24.1845 47.164 24.2091 47.2587 24.2091 47.384V48H24.0451V47.406C24.0451 47.314 24.0305 47.248 24.0011 47.208C23.9718 47.1667 23.9265 47.146 23.8651 47.146C23.7918 47.146 23.7105 47.196 23.6211 47.296V48H23.4571V47.406C23.4571 47.314 23.4425 47.248 23.4131 47.208C23.3838 47.1667 23.3378 47.146 23.2751 47.146C23.2018 47.146 23.1205 47.196 23.0311 47.296V48H22.8671V47.028ZM24.4533 47.516C24.4533 47.436 24.4653 47.3647 24.4893 47.302C24.5147 47.238 24.5473 47.184 24.5873 47.14C24.6287 47.096 24.6753 47.0627 24.7273 47.04C24.7793 47.016 24.8333 47.004 24.8893 47.004C24.9507 47.004 25.0053 47.0147 25.0533 47.036C25.1027 47.0573 25.1433 47.088 25.1753 47.128C25.2087 47.168 25.234 47.216 25.2513 47.272C25.2687 47.328 25.2773 47.3907 25.2773 47.46C25.2773 47.496 25.2753 47.526 25.2713 47.55H24.6153C24.622 47.6553 24.654 47.7387 24.7113 47.8C24.77 47.8613 24.846 47.892 24.9393 47.892C24.986 47.892 25.0287 47.8853 25.0673 47.872C25.1073 47.8573 25.1453 47.8387 25.1813 47.816L25.2393 47.924C25.1967 47.9507 25.1493 47.974 25.0973 47.994C25.0453 48.014 24.986 48.024 24.9193 48.024C24.854 48.024 24.7927 48.0127 24.7353 47.99C24.6793 47.966 24.63 47.9327 24.5873 47.89C24.546 47.846 24.5133 47.7927 24.4893 47.73C24.4653 47.6673 24.4533 47.596 24.4533 47.516ZM25.1333 47.442C25.1333 47.342 25.112 47.266 25.0693 47.214C25.028 47.1607 24.9693 47.134 24.8933 47.134C24.8587 47.134 24.8253 47.1413 24.7933 47.156C24.7627 47.1693 24.7347 47.1893 24.7093 47.216C24.684 47.2413 24.6627 47.2733 24.6453 47.312C24.6293 47.3493 24.6187 47.3927 24.6133 47.442H25.1333ZM25.9218 46.576H26.0858V46.964L26.0798 47.164C26.1265 47.12 26.1751 47.0827 26.2258 47.052C26.2765 47.02 26.3358 47.004 26.4038 47.004C26.5065 47.004 26.5811 47.036 26.6278 47.1C26.6758 47.164 26.6998 47.2587 26.6998 47.384V48H26.5358V47.406C26.5358 47.314 26.5211 47.248 26.4918 47.208C26.4625 47.1667 26.4158 47.146 26.3518 47.146C26.3011 47.146 26.2565 47.1587 26.2178 47.184C26.1791 47.2093 26.1351 47.2467 26.0858 47.296V48H25.9218V46.576ZM26.9377 47.516C26.9377 47.436 26.9497 47.3647 26.9737 47.302C26.999 47.238 27.0317 47.184 27.0717 47.14C27.113 47.096 27.1597 47.0627 27.2117 47.04C27.2637 47.016 27.3177 47.004 27.3737 47.004C27.435 47.004 27.4897 47.0147 27.5377 47.036C27.587 47.0573 27.6277 47.088 27.6597 47.128C27.693 47.168 27.7184 47.216 27.7357 47.272C27.753 47.328 27.7617 47.3907 27.7617 47.46C27.7617 47.496 27.7597 47.526 27.7557 47.55H27.0997C27.1064 47.6553 27.1384 47.7387 27.1957 47.8C27.2544 47.8613 27.3304 47.892 27.4237 47.892C27.4704 47.892 27.513 47.8853 27.5517 47.872C27.5917 47.8573 27.6297 47.8387 27.6657 47.816L27.7237 47.924C27.681 47.9507 27.6337 47.974 27.5817 47.994C27.5297 48.014 27.4704 48.024 27.4037 48.024C27.3384 48.024 27.277 48.0127 27.2197 47.99C27.1637 47.966 27.1144 47.9327 27.0717 47.89C27.0304 47.846 26.9977 47.7927 26.9737 47.73C26.9497 47.6673 26.9377 47.596 26.9377 47.516ZM27.6177 47.442C27.6177 47.342 27.5964 47.266 27.5537 47.214C27.5124 47.1607 27.4537 47.134 27.3777 47.134C27.343 47.134 27.3097 47.1413 27.2777 47.156C27.247 47.1693 27.219 47.1893 27.1937 47.216C27.1684 47.2413 27.147 47.2733 27.1297 47.312C27.1137 47.3493 27.103 47.3927 27.0977 47.442H27.6177ZM28.0019 46.576H28.1659V47.816C28.1659 47.8427 28.1706 47.8613 28.1799 47.872C28.1892 47.8827 28.1999 47.888 28.2119 47.888C28.2172 47.888 28.2219 47.888 28.2259 47.888C28.2312 47.888 28.2386 47.8867 28.2479 47.884L28.2699 48.008C28.2592 48.0133 28.2466 48.0173 28.2319 48.02C28.2172 48.0227 28.1986 48.024 28.1759 48.024C28.1132 48.024 28.0686 48.0053 28.0419 47.968C28.0152 47.9307 28.0019 47.876 28.0019 47.804V46.576ZM28.6757 48.082V48.41H28.5117V47.028H28.6477L28.6617 47.14H28.6677C28.7117 47.1027 28.7597 47.0707 28.8117 47.044C28.865 47.0173 28.9203 47.004 28.9777 47.004C29.0403 47.004 29.0957 47.016 29.1437 47.04C29.1917 47.0627 29.2317 47.096 29.2637 47.14C29.2957 47.1827 29.3197 47.2347 29.3357 47.296C29.353 47.356 29.3617 47.424 29.3617 47.5C29.3617 47.5827 29.3503 47.6567 29.3277 47.722C29.305 47.786 29.2743 47.8407 29.2357 47.886C29.197 47.9313 29.1523 47.966 29.1017 47.99C29.051 48.0127 28.9977 48.024 28.9417 48.024C28.8963 48.024 28.851 48.014 28.8057 47.994C28.7617 47.974 28.717 47.9467 28.6717 47.912L28.6757 48.082ZM28.6757 47.784C28.7197 47.8213 28.7623 47.848 28.8037 47.864C28.845 47.8787 28.8817 47.886 28.9137 47.886C28.9537 47.886 28.9903 47.8773 29.0237 47.86C29.0583 47.8413 29.0877 47.816 29.1117 47.784C29.137 47.7507 29.1563 47.71 29.1697 47.662C29.1843 47.614 29.1917 47.56 29.1917 47.5C29.1917 47.4467 29.187 47.398 29.1777 47.354C29.1683 47.31 29.153 47.2727 29.1317 47.242C29.1117 47.21 29.085 47.1853 29.0517 47.168C29.0197 47.1507 28.981 47.142 28.9357 47.142C28.8943 47.142 28.8523 47.1533 28.8097 47.176C28.7683 47.1987 28.7237 47.2313 28.6757 47.274V47.784ZM29.9533 47.516C29.9533 47.4347 29.9653 47.3627 29.9893 47.3C30.0147 47.236 30.048 47.182 30.0893 47.138C30.1307 47.094 30.178 47.0607 30.2313 47.038C30.286 47.0153 30.3433 47.004 30.4033 47.004C30.4633 47.004 30.52 47.0153 30.5733 47.038C30.628 47.0607 30.676 47.094 30.7173 47.138C30.7587 47.182 30.7913 47.236 30.8153 47.3C30.8407 47.3627 30.8533 47.4347 30.8533 47.516C30.8533 47.596 30.8407 47.668 30.8153 47.732C30.7913 47.7947 30.7587 47.848 30.7173 47.892C30.676 47.9347 30.628 47.9673 30.5733 47.99C30.52 48.0127 30.4633 48.024 30.4033 48.024C30.3433 48.024 30.286 48.0127 30.2313 47.99C30.178 47.9673 30.1307 47.9347 30.0893 47.892C30.048 47.848 30.0147 47.7947 29.9893 47.732C29.9653 47.668 29.9533 47.596 29.9533 47.516ZM30.1233 47.516C30.1233 47.572 30.13 47.6227 30.1433 47.668C30.1567 47.7133 30.1753 47.7527 30.1993 47.786C30.2247 47.818 30.2547 47.8433 30.2893 47.862C30.324 47.8793 30.362 47.888 30.4033 47.888C30.4447 47.888 30.4827 47.8793 30.5173 47.862C30.552 47.8433 30.5813 47.818 30.6053 47.786C30.6307 47.7527 30.65 47.7133 30.6633 47.668C30.6767 47.6227 30.6833 47.572 30.6833 47.516C30.6833 47.46 30.6767 47.4093 30.6633 47.364C30.65 47.3173 30.6307 47.2773 30.6053 47.244C30.5813 47.2107 30.552 47.1853 30.5173 47.168C30.4827 47.1493 30.4447 47.14 30.4033 47.14C30.362 47.14 30.324 47.1493 30.2893 47.168C30.2547 47.1853 30.2247 47.2107 30.1993 47.244C30.1753 47.2773 30.1567 47.3173 30.1433 47.364C30.13 47.4093 30.1233 47.46 30.1233 47.516ZM31.1093 47.028H31.2453L31.2593 47.168H31.2653C31.312 47.1213 31.3606 47.0827 31.4113 47.052C31.4633 47.02 31.5233 47.004 31.5913 47.004C31.694 47.004 31.7686 47.036 31.8153 47.1C31.8633 47.164 31.8873 47.2587 31.8873 47.384V48H31.7233V47.406C31.7233 47.314 31.7086 47.248 31.6793 47.208C31.65 47.1667 31.6033 47.146 31.5393 47.146C31.4886 47.146 31.444 47.1587 31.4053 47.184C31.3666 47.2093 31.3226 47.2467 31.2733 47.296V48H31.1093V47.028ZM32.5414 48.268C32.552 48.2707 32.564 48.2733 32.5774 48.276C32.5907 48.28 32.6034 48.282 32.6154 48.282C32.6714 48.282 32.7167 48.262 32.7514 48.222C32.7874 48.1833 32.8154 48.134 32.8354 48.074L32.8574 48.002L32.4674 47.028H32.6374L32.8354 47.566C32.85 47.6087 32.8654 47.654 32.8814 47.702C32.8987 47.7487 32.9147 47.7947 32.9294 47.84H32.9374C32.952 47.796 32.966 47.75 32.9794 47.702C32.9927 47.654 33.006 47.6087 33.0194 47.566L33.1934 47.028H33.3534L32.9874 48.08C32.97 48.128 32.9507 48.1727 32.9294 48.214C32.908 48.2553 32.8827 48.2907 32.8534 48.32C32.824 48.3507 32.7907 48.3747 32.7534 48.392C32.716 48.4093 32.6727 48.418 32.6234 48.418C32.6007 48.418 32.58 48.416 32.5614 48.412C32.5427 48.4093 32.5254 48.4047 32.5094 48.398L32.5414 48.268ZM33.4611 47.516C33.4611 47.4347 33.4731 47.3627 33.4971 47.3C33.5225 47.236 33.5558 47.182 33.5971 47.138C33.6385 47.094 33.6858 47.0607 33.7391 47.038C33.7938 47.0153 33.8511 47.004 33.9111 47.004C33.9711 47.004 34.0278 47.0153 34.0811 47.038C34.1358 47.0607 34.1838 47.094 34.2251 47.138C34.2665 47.182 34.2991 47.236 34.3231 47.3C34.3485 47.3627 34.3611 47.4347 34.3611 47.516C34.3611 47.596 34.3485 47.668 34.3231 47.732C34.2991 47.7947 34.2665 47.848 34.2251 47.892C34.1838 47.9347 34.1358 47.9673 34.0811 47.99C34.0278 48.0127 33.9711 48.024 33.9111 48.024C33.8511 48.024 33.7938 48.0127 33.7391 47.99C33.6858 47.9673 33.6385 47.9347 33.5971 47.892C33.5558 47.848 33.5225 47.7947 33.4971 47.732C33.4731 47.668 33.4611 47.596 33.4611 47.516ZM33.6311 47.516C33.6311 47.572 33.6378 47.6227 33.6511 47.668C33.6645 47.7133 33.6831 47.7527 33.7071 47.786C33.7325 47.818 33.7625 47.8433 33.7971 47.862C33.8318 47.8793 33.8698 47.888 33.9111 47.888C33.9525 47.888 33.9905 47.8793 34.0251 47.862C34.0598 47.8433 34.0891 47.818 34.1131 47.786C34.1385 47.7527 34.1578 47.7133 34.1711 47.668C34.1845 47.6227 34.1911 47.572 34.1911 47.516C34.1911 47.46 34.1845 47.4093 34.1711 47.364C34.1578 47.3173 34.1385 47.2773 34.1131 47.244C34.0891 47.2107 34.0598 47.1853 34.0251 47.168C33.9905 47.1493 33.9525 47.14 33.9111 47.14C33.8698 47.14 33.8318 47.1493 33.7971 47.168C33.7625 47.1853 33.7325 47.2107 33.7071 47.244C33.6831 47.2773 33.6645 47.3173 33.6511 47.364C33.6378 47.4093 33.6311 47.46 33.6311 47.516ZM34.6031 47.028H34.7691V47.622C34.7691 47.714 34.7831 47.7807 34.8111 47.822C34.8405 47.862 34.8871 47.882 34.9511 47.882C35.0018 47.882 35.0465 47.8693 35.0851 47.844C35.1238 47.8173 35.1665 47.7753 35.2131 47.718V47.028H35.3771V48H35.2411L35.2271 47.848H35.2211C35.1758 47.9013 35.1278 47.944 35.0771 47.976C35.0278 48.008 34.9691 48.024 34.9011 48.024C34.7971 48.024 34.7211 47.992 34.6731 47.928C34.6265 47.864 34.6031 47.7693 34.6031 47.644V47.028ZM35.705 47.028H35.841L35.855 47.204H35.861C35.8943 47.1427 35.9343 47.094 35.981 47.058C36.029 47.022 36.081 47.004 36.137 47.004C36.1757 47.004 36.2103 47.0107 36.241 47.024L36.209 47.168C36.193 47.1627 36.1783 47.1587 36.165 47.156C36.1517 47.1533 36.135 47.152 36.115 47.152C36.0737 47.152 36.0303 47.1687 35.985 47.202C35.941 47.2353 35.9023 47.2933 35.869 47.376V48H35.705V47.028ZM36.9667 48.082V48.41H36.8027V47.028H36.9387L36.9527 47.14H36.9587C37.0027 47.1027 37.0507 47.0707 37.1027 47.044C37.156 47.0173 37.2113 47.004 37.2687 47.004C37.3313 47.004 37.3867 47.016 37.4347 47.04C37.4827 47.0627 37.5227 47.096 37.5547 47.14C37.5867 47.1827 37.6107 47.2347 37.6267 47.296C37.644 47.356 37.6527 47.424 37.6527 47.5C37.6527 47.5827 37.6413 47.6567 37.6187 47.722C37.596 47.786 37.5653 47.8407 37.5267 47.886C37.488 47.9313 37.4433 47.966 37.3927 47.99C37.342 48.0127 37.2887 48.024 37.2327 48.024C37.1873 48.024 37.142 48.014 37.0967 47.994C37.0527 47.974 37.008 47.9467 36.9627 47.912L36.9667 48.082ZM36.9667 47.784C37.0107 47.8213 37.0533 47.848 37.0947 47.864C37.136 47.8787 37.1727 47.886 37.2047 47.886C37.2447 47.886 37.2813 47.8773 37.3147 47.86C37.3493 47.8413 37.3787 47.816 37.4027 47.784C37.428 47.7507 37.4473 47.71 37.4607 47.662C37.4753 47.614 37.4827 47.56 37.4827 47.5C37.4827 47.4467 37.478 47.398 37.4687 47.354C37.4593 47.31 37.444 47.2727 37.4227 47.242C37.4027 47.21 37.376 47.1853 37.3427 47.168C37.3107 47.1507 37.272 47.142 37.2267 47.142C37.1853 47.142 37.1433 47.1533 37.1007 47.176C37.0593 47.1987 37.0147 47.2313 36.9667 47.274V47.784ZM37.912 47.028H38.048L38.062 47.204H38.068C38.1014 47.1427 38.1414 47.094 38.188 47.058C38.236 47.022 38.288 47.004 38.344 47.004C38.3827 47.004 38.4174 47.0107 38.448 47.024L38.416 47.168C38.4 47.1627 38.3854 47.1587 38.372 47.156C38.3587 47.1533 38.342 47.152 38.322 47.152C38.2807 47.152 38.2374 47.1687 38.192 47.202C38.148 47.2353 38.1094 47.2933 38.076 47.376V48H37.912V47.028ZM38.5139 47.516C38.5139 47.4347 38.5259 47.3627 38.5499 47.3C38.5752 47.236 38.6085 47.182 38.6499 47.138C38.6912 47.094 38.7385 47.0607 38.7919 47.038C38.8465 47.0153 38.9039 47.004 38.9639 47.004C39.0239 47.004 39.0805 47.0153 39.1339 47.038C39.1885 47.0607 39.2365 47.094 39.2779 47.138C39.3192 47.182 39.3519 47.236 39.3759 47.3C39.4012 47.3627 39.4139 47.4347 39.4139 47.516C39.4139 47.596 39.4012 47.668 39.3759 47.732C39.3519 47.7947 39.3192 47.848 39.2779 47.892C39.2365 47.9347 39.1885 47.9673 39.1339 47.99C39.0805 48.0127 39.0239 48.024 38.9639 48.024C38.9039 48.024 38.8465 48.0127 38.7919 47.99C38.7385 47.9673 38.6912 47.9347 38.6499 47.892C38.6085 47.848 38.5752 47.7947 38.5499 47.732C38.5259 47.668 38.5139 47.596 38.5139 47.516ZM38.6839 47.516C38.6839 47.572 38.6905 47.6227 38.7039 47.668C38.7172 47.7133 38.7359 47.7527 38.7599 47.786C38.7852 47.818 38.8152 47.8433 38.8499 47.862C38.8845 47.8793 38.9225 47.888 38.9639 47.888C39.0052 47.888 39.0432 47.8793 39.0779 47.862C39.1125 47.8433 39.1419 47.818 39.1659 47.786C39.1912 47.7527 39.2105 47.7133 39.2239 47.668C39.2372 47.6227 39.2439 47.572 39.2439 47.516C39.2439 47.46 39.2372 47.4093 39.2239 47.364C39.2105 47.3173 39.1912 47.2773 39.1659 47.244C39.1419 47.2107 39.1125 47.1853 39.0779 47.168C39.0432 47.1493 39.0052 47.14 38.9639 47.14C38.9225 47.14 38.8845 47.1493 38.8499 47.168C38.8152 47.1853 38.7852 47.2107 38.7599 47.244C38.7359 47.2773 38.7172 47.3173 38.7039 47.364C38.6905 47.4093 38.6839 47.46 38.6839 47.516ZM39.6719 47.028H39.8359V48.11C39.8359 48.2087 39.8159 48.2873 39.7759 48.346C39.7359 48.4047 39.6672 48.434 39.5699 48.434C39.5392 48.434 39.5119 48.4313 39.4879 48.426C39.4639 48.4207 39.4432 48.4147 39.4259 48.408L39.4599 48.284C39.4719 48.288 39.4859 48.2913 39.5019 48.294C39.5179 48.298 39.5345 48.3 39.5519 48.3C39.5999 48.3 39.6319 48.2833 39.6479 48.25C39.6639 48.2167 39.6719 48.17 39.6719 48.11V47.028ZM39.7559 46.828C39.7239 46.828 39.6965 46.818 39.6739 46.798C39.6525 46.778 39.6419 46.7527 39.6419 46.722C39.6419 46.69 39.6525 46.6647 39.6739 46.646C39.6965 46.626 39.7239 46.616 39.7559 46.616C39.7865 46.616 39.8125 46.626 39.8339 46.646C39.8565 46.6647 39.8679 46.69 39.8679 46.722C39.8679 46.7527 39.8565 46.778 39.8339 46.798C39.8125 46.818 39.7865 46.828 39.7559 46.828ZM40.092 47.516C40.092 47.436 40.104 47.3647 40.128 47.302C40.1533 47.238 40.186 47.184 40.226 47.14C40.2673 47.096 40.314 47.0627 40.366 47.04C40.418 47.016 40.472 47.004 40.528 47.004C40.5893 47.004 40.644 47.0147 40.692 47.036C40.7413 47.0573 40.782 47.088 40.814 47.128C40.8473 47.168 40.8727 47.216 40.89 47.272C40.9073 47.328 40.916 47.3907 40.916 47.46C40.916 47.496 40.914 47.526 40.91 47.55H40.254C40.2607 47.6553 40.2927 47.7387 40.35 47.8C40.4087 47.8613 40.4847 47.892 40.578 47.892C40.6247 47.892 40.6673 47.8853 40.706 47.872C40.746 47.8573 40.784 47.8387 40.82 47.816L40.878 47.924C40.8353 47.9507 40.788 47.974 40.736 47.994C40.684 48.014 40.6247 48.024 40.558 48.024C40.4927 48.024 40.4313 48.0127 40.374 47.99C40.318 47.966 40.2687 47.9327 40.226 47.89C40.1847 47.846 40.152 47.7927 40.128 47.73C40.104 47.6673 40.092 47.596 40.092 47.516ZM40.772 47.442C40.772 47.342 40.7507 47.266 40.708 47.214C40.6667 47.1607 40.608 47.134 40.532 47.134C40.4973 47.134 40.464 47.1413 40.432 47.156C40.4013 47.1693 40.3733 47.1893 40.348 47.216C40.3227 47.2413 40.3013 47.2733 40.284 47.312C40.268 47.3493 40.2573 47.3927 40.252 47.442H40.772ZM41.0842 47.516C41.0842 47.4347 41.0969 47.3627 41.1222 47.3C41.1475 47.236 41.1815 47.182 41.2242 47.138C41.2669 47.094 41.3162 47.0607 41.3722 47.038C41.4295 47.0153 41.4895 47.004 41.5522 47.004C41.6162 47.004 41.6709 47.016 41.7162 47.04C41.7629 47.0627 41.8029 47.0893 41.8362 47.12L41.7542 47.226C41.7249 47.2007 41.6942 47.18 41.6622 47.164C41.6315 47.148 41.5969 47.14 41.5582 47.14C41.5142 47.14 41.4735 47.1493 41.4362 47.168C41.3989 47.1853 41.3669 47.2107 41.3402 47.244C41.3135 47.2773 41.2922 47.3173 41.2762 47.364C41.2615 47.4093 41.2542 47.46 41.2542 47.516C41.2542 47.572 41.2615 47.6227 41.2762 47.668C41.2909 47.7133 41.3109 47.7527 41.3362 47.786C41.3629 47.818 41.3949 47.8433 41.4322 47.862C41.4695 47.8793 41.5102 47.888 41.5542 47.888C41.6009 47.888 41.6429 47.8787 41.6802 47.86C41.7189 47.84 41.7529 47.8167 41.7822 47.79L41.8562 47.898C41.8122 47.9367 41.7629 47.9673 41.7082 47.99C41.6549 48.0127 41.5989 48.024 41.5402 48.024C41.4762 48.024 41.4162 48.0127 41.3602 47.99C41.3042 47.9673 41.2555 47.9347 41.2142 47.892C41.1742 47.848 41.1422 47.7947 41.1182 47.732C41.0955 47.668 41.0842 47.596 41.0842 47.516ZM42.0963 47.162H41.9523V47.038L42.1043 47.028L42.1243 46.756H42.2623V47.028H42.5243V47.162H42.2623V47.702C42.2623 47.762 42.273 47.8087 42.2943 47.842C42.317 47.874 42.3563 47.89 42.4123 47.89C42.4296 47.89 42.4483 47.8873 42.4683 47.882C42.4883 47.8767 42.5063 47.8707 42.5223 47.864L42.5543 47.988C42.5276 47.9973 42.4983 48.0053 42.4663 48.012C42.4356 48.02 42.405 48.024 42.3743 48.024C42.3223 48.024 42.2783 48.016 42.2423 48C42.2076 47.984 42.179 47.962 42.1563 47.934C42.135 47.906 42.1196 47.872 42.1103 47.832C42.101 47.792 42.0963 47.748 42.0963 47.7V47.162ZM42.8473 47.604C42.8393 47.552 42.8407 47.5053 42.8513 47.464C42.8633 47.4213 42.8793 47.3827 42.8993 47.348C42.9193 47.312 42.942 47.2787 42.9673 47.248C42.994 47.2173 43.0187 47.1873 43.0413 47.158C43.064 47.1273 43.0827 47.0967 43.0973 47.066C43.1133 47.0353 43.1213 47.002 43.1213 46.966C43.1213 46.9127 43.1047 46.8673 43.0713 46.83C43.0393 46.7913 42.9913 46.772 42.9273 46.772C42.8833 46.772 42.8413 46.7827 42.8013 46.804C42.7627 46.824 42.728 46.852 42.6973 46.888L42.6033 46.802C42.646 46.754 42.6947 46.7147 42.7493 46.684C42.804 46.652 42.8673 46.636 42.9393 46.636C43.0433 46.636 43.126 46.6647 43.1873 46.722C43.25 46.778 43.2813 46.856 43.2813 46.956C43.2813 47 43.2733 47.04 43.2573 47.076C43.2413 47.112 43.2213 47.146 43.1973 47.178C43.1747 47.21 43.15 47.242 43.1233 47.274C43.098 47.3047 43.074 47.3367 43.0513 47.37C43.03 47.4033 43.0133 47.4393 43.0013 47.478C42.9893 47.5153 42.986 47.5573 42.9913 47.604H42.8473ZM42.8053 47.9C42.8053 47.8613 42.8167 47.8307 42.8393 47.808C42.862 47.784 42.89 47.772 42.9233 47.772C42.9567 47.772 42.9847 47.784 43.0073 47.808C43.0313 47.8307 43.0433 47.8613 43.0433 47.9C43.0433 47.936 43.0313 47.966 43.0073 47.99C42.9847 48.0127 42.9567 48.024 42.9233 48.024C42.89 48.024 42.862 48.0127 42.8393 47.99C42.8167 47.966 42.8053 47.936 42.8053 47.9Z" fill="#303030"/>
<rect x="16" y="49" width="39" height="5" rx="1" fill="#EEEEEE"/>
<path d="M18.1321 52V50.9091H18.7905V51.0263H18.2642V51.3949H18.7564V51.5121H18.2642V51.8828H18.799V52H18.1321ZM19.1373 51.5078V52H19.0115V51.1818H19.133V51.3097H19.1436C19.1628 51.2681 19.1919 51.2347 19.231 51.2095C19.2701 51.1839 19.3205 51.1712 19.3823 51.1712C19.4377 51.1712 19.4862 51.1825 19.5277 51.2053C19.5692 51.2276 19.6016 51.2617 19.6246 51.3075C19.6477 51.353 19.6593 51.4105 19.6593 51.4801V52H19.5336V51.4886C19.5336 51.4244 19.5169 51.3743 19.4835 51.3384C19.4501 51.3022 19.4043 51.2841 19.3461 51.2841C19.3059 51.2841 19.2701 51.2928 19.2385 51.3102C19.2072 51.3276 19.1825 51.353 19.1644 51.3864C19.1463 51.4197 19.1373 51.4602 19.1373 51.5078ZM20.2448 51.1818V51.2884H19.8208V51.1818H20.2448ZM19.9444 50.9858H20.0701V51.7656C20.0701 51.8011 20.0752 51.8278 20.0855 51.8455C20.0962 51.8629 20.1097 51.8746 20.126 51.8807C20.1427 51.8864 20.1603 51.8892 20.1788 51.8892C20.1926 51.8892 20.204 51.8885 20.2128 51.8871C20.2217 51.8853 20.2288 51.8839 20.2342 51.8828L20.2597 51.9957C20.2512 51.9989 20.2393 52.0021 20.224 52.0053C20.2088 52.0089 20.1894 52.0107 20.166 52.0107C20.1305 52.0107 20.0957 52.003 20.0616 51.9877C20.0278 51.9725 19.9998 51.9492 19.9774 51.918C19.9554 51.8867 19.9444 51.8473 19.9444 51.7997V50.9858ZM20.7682 52.017C20.6893 52.017 20.6213 51.9996 20.5641 51.9648C20.5073 51.9297 20.4635 51.8807 20.4326 51.8178C20.402 51.7546 20.3868 51.6811 20.3868 51.5973C20.3868 51.5135 20.402 51.4396 20.4326 51.3757C20.4635 51.3114 20.5064 51.2614 20.5615 51.2255C20.6169 51.1893 20.6815 51.1712 20.7554 51.1712C20.798 51.1712 20.8401 51.1783 20.8816 51.1925C20.9232 51.2067 20.961 51.2298 20.9951 51.2617C21.0292 51.2933 21.0563 51.3352 21.0766 51.3874C21.0968 51.4396 21.1069 51.5039 21.1069 51.5803V51.6335H20.4763V51.5249H20.9791C20.9791 51.4787 20.9699 51.4375 20.9514 51.4013C20.9333 51.3651 20.9074 51.3365 20.8736 51.3155C20.8402 51.2946 20.8008 51.2841 20.7554 51.2841C20.7053 51.2841 20.662 51.2965 20.6254 51.3214C20.5892 51.3459 20.5613 51.3778 20.5418 51.4173C20.5222 51.4567 20.5125 51.4989 20.5125 51.544V51.6165C20.5125 51.6783 20.5231 51.7306 20.5444 51.7736C20.5661 51.8162 20.5961 51.8487 20.6345 51.8711C20.6728 51.8931 20.7174 51.9041 20.7682 51.9041C20.8012 51.9041 20.831 51.8995 20.8576 51.8903C20.8846 51.8807 20.9079 51.8665 20.9274 51.8477C20.947 51.8285 20.962 51.8047 20.9727 51.7763L21.0941 51.8104C21.0814 51.8516 21.0599 51.8878 21.0297 51.919C20.9995 51.9499 20.9622 51.9741 20.9178 51.9915C20.8734 52.0085 20.8236 52.017 20.7682 52.017ZM21.2982 52V51.1818H21.4196V51.3054H21.4281C21.443 51.2649 21.47 51.2321 21.5091 51.2069C21.5482 51.1816 21.5922 51.169 21.6412 51.169C21.6504 51.169 21.662 51.1692 21.6758 51.1696C21.6897 51.1699 21.7002 51.1705 21.7073 51.1712V51.299C21.703 51.2979 21.6932 51.2963 21.678 51.2942C21.663 51.2917 21.6472 51.2905 21.6305 51.2905C21.5908 51.2905 21.5553 51.2988 21.524 51.3155C21.4931 51.3319 21.4686 51.3546 21.4505 51.3837C21.4328 51.4125 21.4239 51.4453 21.4239 51.4822V52H21.2982ZM22.3591 52.3068C22.3378 52.3068 22.3188 52.305 22.3021 52.3015C22.2854 52.2983 22.2739 52.2951 22.2675 52.2919L22.2994 52.1811C22.33 52.1889 22.357 52.1918 22.3804 52.1896C22.4039 52.1875 22.4246 52.177 22.4427 52.1582C22.4612 52.1397 22.4781 52.1097 22.4933 52.0682L22.5168 52.0043L22.2142 51.1818H22.3506L22.5764 51.8338H22.585L22.8108 51.1818H22.9472L22.5999 52.1193C22.5843 52.1616 22.5649 52.1966 22.5418 52.2243C22.5187 52.2523 22.4919 52.2731 22.4614 52.2866C22.4312 52.3001 22.3971 52.3068 22.3591 52.3068ZM23.4162 52.017C23.3423 52.017 23.2775 51.9995 23.2218 51.9643C23.1664 51.9292 23.123 51.88 23.0918 51.8168C23.0609 51.7536 23.0455 51.6797 23.0455 51.5952C23.0455 51.5099 23.0609 51.4355 23.0918 51.372C23.123 51.3084 23.1664 51.2591 23.2218 51.2239C23.2775 51.1887 23.3423 51.1712 23.4162 51.1712C23.4901 51.1712 23.5547 51.1887 23.6101 51.2239C23.6658 51.2591 23.7092 51.3084 23.7401 51.372C23.7713 51.4355 23.7869 51.5099 23.7869 51.5952C23.7869 51.6797 23.7713 51.7536 23.7401 51.8168C23.7092 51.88 23.6658 51.9292 23.6101 51.9643C23.5547 51.9995 23.4901 52.017 23.4162 52.017ZM23.4162 51.9041C23.4723 51.9041 23.5185 51.8897 23.5547 51.861C23.5909 51.8322 23.6177 51.7944 23.6351 51.7475C23.6525 51.7006 23.6612 51.6499 23.6612 51.5952C23.6612 51.5405 23.6525 51.4895 23.6351 51.4423C23.6177 51.3951 23.5909 51.3569 23.5547 51.3278C23.5185 51.2987 23.4723 51.2841 23.4162 51.2841C23.3601 51.2841 23.3139 51.2987 23.2777 51.3278C23.2415 51.3569 23.2147 51.3951 23.1973 51.4423C23.1799 51.4895 23.1712 51.5405 23.1712 51.5952C23.1712 51.6499 23.1799 51.7006 23.1973 51.7475C23.2147 51.7944 23.2415 51.8322 23.2777 51.861C23.3139 51.8897 23.3601 51.9041 23.4162 51.9041ZM24.4945 51.6655V51.1818H24.6202V52H24.4945V51.8615H24.4859C24.4668 51.9031 24.4369 51.9384 24.3964 51.9675C24.356 51.9963 24.3048 52.0107 24.243 52.0107C24.1919 52.0107 24.1464 51.9995 24.1067 51.9771C24.0669 51.9544 24.0356 51.9203 24.0129 51.8748C23.9902 51.829 23.9788 51.7713 23.9788 51.7017V51.1818H24.1045V51.6932C24.1045 51.7528 24.1212 51.8004 24.1546 51.8359C24.1883 51.8714 24.2313 51.8892 24.2835 51.8892C24.3148 51.8892 24.3465 51.8812 24.3789 51.8652C24.4115 51.8493 24.4389 51.8248 24.4609 51.7917C24.4833 51.7587 24.4945 51.7166 24.4945 51.6655ZM24.8504 52V51.1818H24.9719V51.3054H24.9804C24.9953 51.2649 25.0223 51.2321 25.0613 51.2069C25.1004 51.1816 25.1444 51.169 25.1934 51.169C25.2027 51.169 25.2142 51.1692 25.2281 51.1696C25.2419 51.1699 25.2524 51.1705 25.2595 51.1712V51.299C25.2552 51.2979 25.2455 51.2963 25.2302 51.2942C25.2153 51.2917 25.1995 51.2905 25.1828 51.2905C25.143 51.2905 25.1075 51.2988 25.0763 51.3155C25.0454 51.3319 25.0209 51.3546 25.0028 51.3837C24.985 51.4125 24.9761 51.4453 24.9761 51.4822V52H24.8504ZM26.1734 52.017C26.0946 52.017 26.0266 51.9996 25.9694 51.9648C25.9126 51.9297 25.8687 51.8807 25.8378 51.8178C25.8073 51.7546 25.792 51.6811 25.792 51.5973C25.792 51.5135 25.8073 51.4396 25.8378 51.3757C25.8687 51.3114 25.9117 51.2614 25.9668 51.2255C26.0222 51.1893 26.0868 51.1712 26.1606 51.1712C26.2033 51.1712 26.2453 51.1783 26.2869 51.1925C26.3284 51.2067 26.3663 51.2298 26.4003 51.2617C26.4344 51.2933 26.4616 51.3352 26.4818 51.3874C26.5021 51.4396 26.5122 51.5039 26.5122 51.5803V51.6335H25.8815V51.5249H26.3844C26.3844 51.4787 26.3751 51.4375 26.3567 51.4013C26.3386 51.3651 26.3126 51.3365 26.2789 51.3155C26.2455 51.2946 26.2061 51.2841 26.1606 51.2841C26.1106 51.2841 26.0672 51.2965 26.0307 51.3214C25.9945 51.3459 25.9666 51.3778 25.947 51.4173C25.9275 51.4567 25.9177 51.4989 25.9177 51.544V51.6165C25.9177 51.6783 25.9284 51.7306 25.9497 51.7736C25.9714 51.8162 26.0014 51.8487 26.0397 51.8711C26.0781 51.8931 26.1226 51.9041 26.1734 51.9041C26.2065 51.9041 26.2363 51.8995 26.2629 51.8903C26.2899 51.8807 26.3132 51.8665 26.3327 51.8477C26.3522 51.8285 26.3673 51.8047 26.378 51.7763L26.4994 51.8104C26.4866 51.8516 26.4652 51.8878 26.435 51.919C26.4048 51.9499 26.3675 51.9741 26.3231 51.9915C26.2787 52.0085 26.2288 52.017 26.1734 52.017ZM26.7034 52V51.1818H26.8249V51.3097H26.8355C26.8526 51.266 26.8801 51.2321 26.9181 51.2079C26.9561 51.1834 27.0017 51.1712 27.055 51.1712C27.109 51.1712 27.1539 51.1834 27.1898 51.2079C27.226 51.2321 27.2542 51.266 27.2745 51.3097H27.283C27.3039 51.2674 27.3354 51.2338 27.3773 51.209C27.4192 51.1838 27.4694 51.1712 27.528 51.1712C27.6012 51.1712 27.661 51.1941 27.7075 51.2399C27.754 51.2853 27.7773 51.3562 27.7773 51.4524V52H27.6516V51.4524C27.6516 51.392 27.6351 51.3489 27.6021 51.323C27.569 51.2971 27.5301 51.2841 27.4854 51.2841C27.4279 51.2841 27.3833 51.3015 27.3517 51.3363C27.3201 51.3707 27.3043 51.4144 27.3043 51.4673V52H27.1764V51.4396C27.1764 51.3931 27.1614 51.3556 27.1312 51.3272C27.101 51.2985 27.0621 51.2841 27.0145 51.2841C26.9818 51.2841 26.9513 51.2928 26.9229 51.3102C26.8948 51.3276 26.8721 51.3517 26.8547 51.3826C26.8377 51.4132 26.8291 51.4485 26.8291 51.4886V52H26.7034ZM28.2479 52.0192C28.1961 52.0192 28.149 52.0094 28.1068 51.9899C28.0645 51.97 28.0309 51.9414 28.0061 51.9041C27.9812 51.8665 27.9688 51.821 27.9688 51.7678C27.9688 51.7209 27.978 51.6829 27.9965 51.6538C28.015 51.6243 28.0396 51.6012 28.0705 51.5845C28.1014 51.5678 28.1355 51.5554 28.1728 51.5472C28.2104 51.5387 28.2483 51.532 28.2863 51.527C28.336 51.5206 28.3763 51.5158 28.4072 51.5126C28.4384 51.5091 28.4612 51.5032 28.4754 51.495C28.4899 51.4869 28.4972 51.4727 28.4972 51.4524V51.4482C28.4972 51.3956 28.4828 51.3548 28.4541 51.3256C28.4256 51.2965 28.3825 51.282 28.3246 51.282C28.2646 51.282 28.2176 51.2951 28.1835 51.3214C28.1494 51.3477 28.1254 51.3757 28.1116 51.4055L27.9922 51.3629C28.0135 51.3132 28.0419 51.2745 28.0775 51.2468C28.1133 51.2187 28.1524 51.1992 28.1946 51.1882C28.2373 51.1768 28.2792 51.1712 28.3204 51.1712C28.3466 51.1712 28.3768 51.1744 28.4109 51.1808C28.4454 51.1868 28.4786 51.1994 28.5105 51.2186C28.5428 51.2377 28.5696 51.2667 28.591 51.3054C28.6123 51.3441 28.6229 51.396 28.6229 51.4609V52H28.4972V51.8892H28.4908C28.4823 51.907 28.4681 51.926 28.4482 51.9462C28.4283 51.9664 28.4019 51.9837 28.3688 51.9979C28.3358 52.0121 28.2955 52.0192 28.2479 52.0192ZM28.2671 51.9062C28.3168 51.9062 28.3587 51.8965 28.3928 51.877C28.4272 51.8574 28.4532 51.8322 28.4706 51.8013C28.4883 51.7704 28.4972 51.7379 28.4972 51.7038V51.5888C28.4919 51.5952 28.4802 51.601 28.462 51.6064C28.4443 51.6113 28.4237 51.6158 28.4003 51.6197C28.3772 51.6232 28.3546 51.6264 28.3326 51.6293C28.3109 51.6317 28.2934 51.6339 28.2799 51.6357C28.2472 51.6399 28.2167 51.6468 28.1883 51.6564C28.1602 51.6657 28.1375 51.6797 28.1201 51.6985C28.103 51.717 28.0945 51.7422 28.0945 51.7741C28.0945 51.8178 28.1107 51.8509 28.143 51.8732C28.1756 51.8952 28.217 51.9062 28.2671 51.9062ZM28.8524 52V51.1818H28.9781V52H28.8524ZM28.9163 51.0455C28.8918 51.0455 28.8706 51.0371 28.8529 51.0204C28.8355 51.0037 28.8268 50.9837 28.8268 50.9602C28.8268 50.9368 28.8355 50.9167 28.8529 50.9C28.8706 50.8833 28.8918 50.875 28.9163 50.875C28.9408 50.875 28.9617 50.8833 28.9791 50.9C28.9969 50.9167 29.0058 50.9368 29.0058 50.9602C29.0058 50.9837 28.9969 51.0037 28.9791 51.0204C28.9617 51.0371 28.9408 51.0455 28.9163 51.0455ZM29.334 50.9091V52H29.2083V50.9091H29.334Z" fill="#767676"/>
<rect x="16" y="55" width="39" height="5" rx="1" fill="#FFD600"/>
<path d="M32.688 58.024C32.5787 58.024 32.4793 57.998 32.39 57.946C32.3007 57.894 32.2293 57.818 32.176 57.718C32.124 57.6167 32.098 57.494 32.098 57.35C32.098 57.2073 32.1247 57.0853 32.178 56.984C32.2327 56.8813 32.3053 56.8033 32.396 56.75C32.4867 56.6953 32.5867 56.668 32.696 56.668C32.7787 56.668 32.852 56.6847 32.916 56.718C32.98 56.7513 33.0327 56.79 33.074 56.834L32.95 56.984C32.9167 56.9493 32.8793 56.922 32.838 56.902C32.798 56.8807 32.7527 56.87 32.702 56.87C32.6313 56.87 32.568 56.8893 32.512 56.928C32.4573 56.9653 32.414 57.0193 32.382 57.09C32.3513 57.1607 32.336 57.2453 32.336 57.344C32.336 57.4933 32.3687 57.6107 32.434 57.696C32.4993 57.78 32.5867 57.822 32.696 57.822C32.7547 57.822 32.8067 57.81 32.852 57.786C32.8973 57.7607 32.9387 57.728 32.976 57.688L33.1 57.834C33.0467 57.8953 32.9853 57.9427 32.916 57.976C32.848 58.008 32.772 58.024 32.688 58.024ZM33.7003 58.024C33.619 58.024 33.543 58.004 33.4723 57.964C33.4017 57.9227 33.3443 57.864 33.3003 57.788C33.2563 57.7107 33.2343 57.618 33.2343 57.51C33.2343 57.4007 33.2563 57.308 33.3003 57.232C33.3443 57.1547 33.4017 57.096 33.4723 57.056C33.543 57.0147 33.619 56.994 33.7003 56.994C33.783 56.994 33.8597 57.0147 33.9303 57.056C34.001 57.096 34.0583 57.1547 34.1023 57.232C34.1463 57.308 34.1683 57.4007 34.1683 57.51C34.1683 57.618 34.1463 57.7107 34.1023 57.788C34.0583 57.864 34.001 57.9227 33.9303 57.964C33.8597 58.004 33.783 58.024 33.7003 58.024ZM33.7003 57.836C33.7723 57.836 33.829 57.806 33.8703 57.746C33.9117 57.686 33.9323 57.6073 33.9323 57.51C33.9323 57.4113 33.9117 57.332 33.8703 57.272C33.829 57.212 33.7723 57.182 33.7003 57.182C33.6283 57.182 33.5717 57.212 33.5303 57.272C33.4903 57.332 33.4703 57.4113 33.4703 57.51C33.4703 57.6073 33.4903 57.686 33.5303 57.746C33.5717 57.806 33.6283 57.836 33.7003 57.836ZM34.396 58V57.018H34.586L34.602 57.15H34.61C34.654 57.1073 34.702 57.0707 34.754 57.04C34.806 57.0093 34.8653 56.994 34.932 56.994C35.0373 56.994 35.114 57.028 35.162 57.096C35.21 57.164 35.234 57.26 35.234 57.384V58H35.004V57.414C35.004 57.3327 34.992 57.2753 34.968 57.242C34.944 57.2087 34.9047 57.192 34.85 57.192C34.8073 57.192 34.7693 57.2027 34.736 57.224C34.704 57.244 34.6673 57.274 34.626 57.314V58H34.396ZM35.8611 58.024C35.7478 58.024 35.6671 57.9913 35.6191 57.926C35.5725 57.8593 35.5491 57.7733 35.5491 57.668V57.2H35.4091V57.028L35.5611 57.018L35.5891 56.75H35.7811V57.018H36.0311V57.2H35.7811V57.668C35.7811 57.7827 35.8271 57.84 35.9191 57.84C35.9365 57.84 35.9545 57.838 35.9731 57.834C35.9918 57.8287 36.0078 57.8233 36.0211 57.818L36.0611 57.988C36.0345 57.9973 36.0038 58.0053 35.9691 58.012C35.9358 58.02 35.8998 58.024 35.8611 58.024ZM36.2378 58V57.018H36.4678V58H36.2378ZM36.3538 56.846C36.3125 56.846 36.2791 56.834 36.2538 56.81C36.2285 56.786 36.2158 56.754 36.2158 56.714C36.2158 56.6753 36.2285 56.644 36.2538 56.62C36.2791 56.596 36.3125 56.584 36.3538 56.584C36.3951 56.584 36.4285 56.596 36.4538 56.62C36.4791 56.644 36.4918 56.6753 36.4918 56.714C36.4918 56.754 36.4791 56.786 36.4538 56.81C36.4285 56.834 36.3951 56.846 36.3538 56.846ZM36.7612 58V57.018H36.9512L36.9672 57.15H36.9752C37.0192 57.1073 37.0672 57.0707 37.1192 57.04C37.1712 57.0093 37.2306 56.994 37.2972 56.994C37.4026 56.994 37.4792 57.028 37.5272 57.096C37.5752 57.164 37.5992 57.26 37.5992 57.384V58H37.3692V57.414C37.3692 57.3327 37.3572 57.2753 37.3332 57.242C37.3092 57.2087 37.2699 57.192 37.2152 57.192C37.1726 57.192 37.1346 57.2027 37.1012 57.224C37.0692 57.244 37.0326 57.274 36.9912 57.314V58H36.7612ZM38.1724 58.024C38.067 58.024 37.9904 57.99 37.9424 57.922C37.8944 57.854 37.8704 57.758 37.8704 57.634V57.018H38.1004V57.604C38.1004 57.6853 38.1124 57.7427 38.1364 57.776C38.1604 57.8093 38.199 57.826 38.2524 57.826C38.295 57.826 38.3324 57.8153 38.3644 57.794C38.3977 57.7727 38.433 57.738 38.4704 57.69V57.018H38.7004V58H38.5124L38.4944 57.856H38.4884C38.4457 57.9067 38.399 57.9473 38.3484 57.978C38.2977 58.0087 38.239 58.024 38.1724 58.024ZM39.4117 58.024C39.321 58.024 39.239 58.004 39.1657 57.964C39.0924 57.9227 39.0344 57.864 38.9917 57.788C38.949 57.7107 38.9277 57.618 38.9277 57.51C38.9277 57.4033 38.949 57.3113 38.9917 57.234C39.0357 57.1567 39.0924 57.0973 39.1617 57.056C39.231 57.0147 39.3037 56.994 39.3797 56.994C39.469 56.994 39.5437 57.014 39.6037 57.054C39.6637 57.0927 39.709 57.1473 39.7397 57.218C39.7704 57.2873 39.7857 57.368 39.7857 57.46C39.7857 57.508 39.7824 57.5453 39.7757 57.572H39.1517C39.1624 57.6587 39.1937 57.726 39.2457 57.774C39.2977 57.822 39.363 57.846 39.4417 57.846C39.4844 57.846 39.5237 57.84 39.5597 57.828C39.597 57.8147 39.6337 57.7967 39.6697 57.774L39.7477 57.918C39.701 57.9487 39.649 57.974 39.5917 57.994C39.5344 58.014 39.4744 58.024 39.4117 58.024ZM39.1497 57.416H39.5857C39.5857 57.34 39.569 57.2807 39.5357 57.238C39.5024 57.194 39.4524 57.172 39.3857 57.172C39.3284 57.172 39.277 57.1933 39.2317 57.236C39.1877 57.2773 39.1604 57.3373 39.1497 57.416Z" fill="white"/>
</svg>
